####
#
#	OBJ File Generated by LightWave3D
#	LightWave3D OBJ Export v2.3
#
####
o Dutch Barn_8x16.obj
mtllib Dutch Barn_8x16.mtl
g default
v 1.3126 2.0916 2.4638
v 0.8202 2.8166 2.4638
v -1.3126 2.0916 2.4638
v -0.8202 2.8166 2.4638
v -0.8752 2.8816 2.4638
v -1.3876 2.0916 2.4638
v 1.3126 2.0916 -2.4638
v 0.8202 2.8166 -2.4638
v -1.3126 2.0916 -2.4638
v -0.8202 2.8166 -2.4638
v -0.8752 2.8816 -2.4638
v -1.3876 2.0916 -2.4638
v 0 3.1816 -2.4638
v 0 3.1816 2.4638
v -1.3462 0.1016 -2.3876
v -1.2827 0.1016 -2.4511
v -1.3462 0.1016 -2.4511
v -1.3462 2.1516 -2.3876
v -1.3462 2.1516 -2.4511
v -1.2827 2.1516 -2.4511
v 1.3462 0.1016 -2.3876
v 1.2827 0.1016 -2.4511
v 1.3462 0.1016 -2.4511
v 1.3462 2.1516 -2.3876
v 1.3462 2.1516 -2.4511
v 1.2827 2.1516 -2.4511
v -1.3462 0.1016 2.3876
v -1.2827 0.1016 2.4511
v -1.3462 0.1016 2.4511
v -1.3462 2.1516 2.3876
v -1.3462 2.1516 2.4511
v -1.2827 2.1516 2.4511
v 1.3462 0.1016 2.3876
v 1.2827 0.1016 2.4511
v 1.3462 0.1016 2.4511
v 1.3462 2.1516 2.3876
v 1.3462 2.1516 2.4511
v 1.2827 2.1516 2.4511
v -1.3335 0.1016 -2.3876
v -1.3335 2.1516 -2.3876
v -1.3335 2.1516 2.3876
v -1.3335 0.1016 2.3876
v -1.2827 2.1516 -2.4384
v -1.2827 0.1016 -2.4384
v 1.2827 0.1016 -2.4384
v 1.2827 2.1516 -2.4384
v 1.3335 2.1516 -2.3876
v 1.3335 0.1016 -2.3876
v 1.3335 0.1016 2.3876
v 1.3335 2.1516 2.3876
v -1.2827 2.1516 2.4384
v -1.2827 0.1016 2.4384
v 1.2827 0.1016 2.4384
v 1.2827 2.1516 2.4384
v 1.3335 0.1016 -2.4384
v -1.3335 0.1016 -2.4384
v -1.3335 2.0916 -2.4384
v 1.3335 2.0916 -2.4384
v 1.3335 0.1016 2.4384
v -1.3335 0.1016 2.4384
v 1.3335 2.0916 2.4384
v -1.3335 2.0916 2.4384
v -1.1246 0.1016 2.4384
v -1.1246 0.1016 -2.4384
v -1.023 0.1016 -2.4384
v -1.023 0.1016 2.4384
v -1.1246 0 2.4384
v -1.023 0 2.4384
v -1.023 0 -2.4384
v -1.1246 0 -2.4384
v -0.6922 0.1016 2.4384
v -0.6922 0.1016 -2.4384
v -0.5906 0.1016 -2.4384
v -0.5906 0.1016 2.4384
v -0.6922 0 2.4384
v -0.5906 0 2.4384
v -0.5906 0 -2.4384
v -0.6922 0 -2.4384
v 1.1246 0.1016 2.4384
v 1.1246 0.1016 -2.4384
v 1.023 0.1016 -2.4384
v 1.023 0.1016 2.4384
v 1.1246 0 2.4384
v 1.023 0 2.4384
v 1.023 0 -2.4384
v 1.1246 0 -2.4384
v 0.6922 0.1016 2.4384
v 0.6922 0.1016 -2.4384
v 0.5906 0.1016 -2.4384
v 0.5906 0.1016 2.4384
v 0.6922 0 2.4384
v 0.5906 0 2.4384
v 0.5906 0 -2.4384
v 0.6922 0 -2.4384
v -0.0508001 0.1016 2.4384
v -0.0508001 0.1016 -2.4384
v 0.0508001 0.1016 -2.4384
v 0.0508001 0.1016 2.4384
v -0.0508001 0 2.4384
v 0.0508001 0 2.4384
v 0.0508001 0 -2.4384
v -0.0508001 0 -2.4384
v 1.3126 2.0916 2.4638
v 0.8202 2.8166 2.4638
v 0.8752 2.8816 2.4638
v 1.3876 2.0916 2.4638
v -1.3126 2.0916 2.4638
v -0.8202 2.8166 2.4638
v -0.8752 2.8816 2.4638
v -1.3876 2.0916 2.4638
v 0 3.2666 2.4638
v 0 3.1816 2.4638
v 1.3335 0.1016 2.4384
v -1.3335 0.1016 2.4384
v 1.3335 2.0916 2.4384
v -1.3335 2.0916 2.4384
v 0 0.1016 2.4384
v 0 3.1816 2.4384
v -0.8202 0.1016 2.4384
v -0.8202 2.8166 2.4384
v 0.8202 0.1016 2.4384
v 0.8202 2.8166 2.4384
v 1.3126 2.0916 -2.4638
v 1.3876 2.0916 -2.4638
v 0.8752 2.8816 -2.4638
v 0.8202 2.8166 -2.4638
v -1.3126 2.0916 -2.4638
v -0.8202 2.8166 -2.4638
v -0.8752 2.8816 -2.4638
v -1.3876 2.0916 -2.4638
v 0 3.1816 -2.4638
v 0 3.2666 -2.4638
v 1.3335 0.1016 -2.4384
v -1.3335 0.1016 -2.4384
v -1.3335 2.0916 -2.4384
v 1.3335 2.0916 -2.4384
v 0 0.1016 -2.4384
v 0 3.1816 -2.4384
v 0.8202 0.1016 -2.4384
v 0.8202 2.8166 -2.4384
v -0.8202 0.1016 -2.4384
v -0.8202 2.8166 -2.4384
v -1.1246 0.1016 2.4384
v -1.023 0.1016 2.4384
v -1.1246 0 2.4384
v -1.023 0 2.4384
v -0.6922 0.1016 2.4384
v -0.5906 0.1016 2.4384
v -0.6922 0 2.4384
v -0.5906 0 2.4384
v 1.1246 0.1016 2.4384
v 1.023 0.1016 2.4384
v 1.1246 0 2.4384
v 1.023 0 2.4384
v 0.6922 0.1016 2.4384
v 0.5906 0.1016 2.4384
v 0.6922 0 2.4384
v 0.5906 0 2.4384
v -0.0508001 0.1016 2.4384
v 0.0508001 0.1016 2.4384
v -0.0508001 0 2.4384
v 0.0508001 0 2.4384
v -1.1246 0.1016 -2.4384
v -1.023 0.1016 -2.4384
v -1.023 0 -2.4384
v -1.1246 0 -2.4384
v -0.6922 0.1016 -2.4384
v -0.5906 0.1016 -2.4384
v -0.5906 0 -2.4384
v -0.6922 0 -2.4384
v 1.1246 0.1016 -2.4384
v 1.023 0.1016 -2.4384
v 1.023 0 -2.4384
v 1.1246 0 -2.4384
v 0.6922 0.1016 -2.4384
v 0.5906 0.1016 -2.4384
v 0.5906 0 -2.4384
v 0.6922 0 -2.4384
v -0.0508001 0.1016 -2.4384
v 0.0508001 0.1016 -2.4384
v 0.0508001 0 -2.4384
v -0.0508001 0 -2.4384
v 0.8752 2.8816 2.4638
v 0.8752 2.8816 -2.4638
v 0 3.2666 -2.4638
v 1.3876 2.0916 -2.4638
v 0 3.2666 2.4638
v 1.3876 2.0916 2.4638
vt -8.3384 -4.5984
vt -8.3384 -2.6084
vt -6.05 -2.4
vt -6.05 -1.45838
vt -6.05 -0.502239
vt -6.05 -0.502239
vt -6.05 0.439384
vt -6.05 1.39552
vt -6.05 1.39552
vt -6.05 1.47052
vt -6.05 2.34693
vt -6.05 3.24467
vt -6.05 4.14242
vt -6.05 5.01883
vt -6.05 5.09383
vt -3.4616 -4.5984
vt -3.4616 -2.6084
vt -3.2384 -4.5984
vt -3.2384 -2.6084
vt -1.1224 -2.4
vt -1.1224 -1.45838
vt -1.1224 -0.502239
vt -1.1224 -0.502239
vt -1.1224 0.439384
vt -1.1224 1.39552
vt -1.1224 1.39552
vt -1.1224 1.47052
vt -1.1224 2.34693
vt -1.1224 3.24467
vt -1.1224 4.14242
vt -1.1224 5.01883
vt -1.1224 5.09383
vt -0.89 2.9116
vt -0.8359 0.6016
vt -0.8359 2.5916
vt -0.815 2.9116
vt -0.53 3.7016
vt -0.475 0.6016
vt -0.475 3.3166
vt -0.475 3.6366
vt 0.5 0.6016
vt 0.5 3.6816
vt 0.5 4.0016
vt 0.5 4.0866
vt 1.073 -7.45058e-010
vt 1.073 0.1016
vt 1.073 0.25
vt 1.073 0.3516
vt 1.1746 -7.45058e-010
vt 1.1746 0.1016
vt 1.1746 0.25
vt 1.1746 0.3516
vt 1.35 -2.35
vt 1.35 -0.3
vt 1.353 -7.45058e-010
vt 1.353 0.1016
vt 1.353 0.25
vt 1.353 0.3516
vt 1.3627 -2.35
vt 1.3627 -0.3
vt 1.4262 -2.35
vt 1.4262 -0.3
vt 1.4546 -7.45058e-010
vt 1.4546 0.1016
vt 1.4546 0.25
vt 1.4546 0.3516
vt 1.475 0.6016
vt 1.475 3.3166
vt 1.475 3.6366
vt 1.4897 -2.35
vt 1.4897 -0.3
vt 1.5024 -2.35
vt 1.5024 -0.3
vt 1.53 3.7016
vt 1.6384 -4.5984
vt 1.6384 -2.6084
vt 1.65 -2.35
vt 1.65 -0.3
vt 1.6627 -2.35
vt 1.6627 -0.3
vt 1.6992 -7.45058e-010
vt 1.6992 0.1016
vt 1.6992 0.25
vt 1.6992 0.3516
vt 1.7262 -2.35
vt 1.7262 -0.3
vt 1.7897 -2.35
vt 1.7897 -0.3
vt 1.8008 -7.45058e-010
vt 1.8008 0.1016
vt 1.8008 0.25
vt 1.8008 0.3516
vt 1.8024 -2.35
vt 1.8024 -0.3
vt 1.815 2.9116
vt 1.8359 0.6016
vt 1.8359 2.5916
vt 1.89 2.9116
vt 1.95 -2.35
vt 1.95 -0.3
vt 1.9627 -2.35
vt 1.9627 -0.3
vt 2.0262 -2.35
vt 2.0262 -0.3
vt 2.0454 -7.45058e-010
vt 2.0454 0.1016
vt 2.0454 0.25
vt 2.0454 0.3516
vt 2.0897 -2.35
vt 2.0897 -0.3
vt 2.1024 -2.35
vt 2.1024 -0.3
vt 2.147 -7.45058e-010
vt 2.147 0.1016
vt 2.147 0.25
vt 2.147 0.3516
vt 2.25 -2.35
vt 2.25 -0.3
vt 2.2627 -2.35
vt 2.2627 -0.3
vt 2.3254 -7.45058e-010
vt 2.3254 0.1016
vt 2.3254 0.25
vt 2.3254 0.3516
vt 2.3262 -2.35
vt 2.3262 -0.3
vt 2.3897 -2.35
vt 2.3897 -0.3
vt 2.4024 -2.35
vt 2.4024 -0.3
vt 2.427 -7.45058e-010
vt 2.427 0.1016
vt 2.427 0.25
vt 2.427 0.3516
vt 2.51 2.9116
vt 2.55 -3.2
vt 2.55 0.4576
vt 2.5641 0.6016
vt 2.5641 2.5916
vt 2.585 2.9116
vt 2.6516 -3.2
vt 2.6516 0.4576
vt 2.7532 -3.2
vt 2.7532 0.4576
vt 2.8548 -3.2
vt 2.8548 0.4576
vt 2.9564 -3.2
vt 2.9564 0.4576
vt 3.02 3.7016
vt 3.075 0.6016
vt 3.075 3.3166
vt 3.075 3.6366
vt 3.1 -3.2
vt 3.1 0.4576
vt 3.2016 -3.2
vt 3.2016 0.4576
vt 3.3032 -3.2
vt 3.3032 0.4576
vt 3.4048 -3.2
vt 3.4048 0.4576
vt 3.5064 -3.2
vt 3.5064 0.4576
vt 3.7 -3.2
vt 3.7 0.4576
vt 3.8016 -3.2
vt 3.8016 0.4576
vt 3.9 0.6016
vt 3.9 3.6816
vt 3.9 4.0016
vt 3.9 4.0866
vt 3.9032 -3.2
vt 3.9032 0.4576
vt 4.0048 -3.2
vt 4.0048 0.4576
vt 4.1064 -3.2
vt 4.1064 0.4576
vt 4.25 -3.2
vt 4.25 0.4576
vt 4.3516 -3.2
vt 4.3516 0.4576
vt 4.4532 -3.2
vt 4.4532 0.4576
vt 4.5548 -3.2
vt 4.5548 0.4576
vt 4.6564 -3.2
vt 4.6564 0.4576
vt 4.725 0.6016
vt 4.725 3.3166
vt 4.725 3.6366
vt 4.78 3.7016
vt 4.85 -3.2
vt 4.85 0.4576
vt 4.9516 -3.2
vt 4.9516 0.4576
vt 5.0532 -3.2
vt 5.0532 0.4576
vt 5.1548 -3.2
vt 5.1548 0.4576
vt 5.215 2.9116
vt 5.2359 0.6016
vt 5.2359 2.5916
vt 5.2564 -3.2
vt 5.2564 0.4576
vt 5.29 2.9116
vn -1 0 -0
vn -1 0 -0
vn -1 0 -0
vn -1 0 -0
vn -1 0 -0
vn -1 0 -0
vn 1 0 -0
vn 1 0 -0
vn 1 0 -0
vn 1 0 -0
vn 1 0 -0
vn 1 0 -0
vn 0 0 1
vn 0 0 1
vn 0 0 1
vn 0 0 1
vn 0 0 1
vn 0 0 1
vn 0 0 1
vn 0 0 1
vn 0 0 1
vn 0 0 1
vn 0 0 1
vn 0 0 1
vn 0 0 1
vn 0 0 1
vn 0 0 1
vn 0 0 1
vn 0 0 1
vn 0 0 1
vn 0 0 1
vn 0 0 1
vn 0 0 1
vn 0 0 1
vn 0 0 1
vn 0 0 1
vn 0 0 1
vn 0 0 1
vn 0 0 1
vn 0 0 1
vn 0 0 1
vn 0 0 1
vn 0 0 1
vn 0 0 1
vn 0 0 1
vn 0 0 1
vn 0 0 1
vn 0 0 1
vn 0 0 1
vn 0 0 1
vn 0 0 1
vn 0 0 1
vn 0 0 1
vn 0 0 1
vn 0 0 1
vn 0 0 1
vn 0 0 1
vn 0 0 1
vn 0 0 1
vn 0 0 1
vn 0 -0 -1
vn 0 -0 -1
vn 0 -0 -1
vn 0 0 -1
vn 0 0 -1
vn 0 0 -1
vn 0 0 -1
vn 0 0 -1
vn 0 0 -1
vn 0 -0 -1
vn 0 -0 -1
vn 0 -0 -1
vn 0 -0 -1
vn 0 -0 -1
vn 0 -0 -1
vn 0 0 -1
vn 0 0 -1
vn 0 0 -1
vn 0 -0 -1
vn 0 -0 -1
vn 0 -0 -1
vn 0 0 -1
vn 0 0 -1
vn 0 0 -1
vn 0 0 -1
vn 0 0 -1
vn 0 0 -1
vn 0 0 -1
vn 0 0 -1
vn 0 0 -1
vn 0 0 -1
vn 0 0 -1
vn 0 0 -1
vn 0 -0 -1
vn 0 -0 -1
vn 0 -0 -1
vn 0 0 -1
vn 0 0 -1
vn 0 0 -1
vn 0 -0 -1
vn 0 -0 -1
vn 0 -0 -1
vn 0 0 -1
vn 0 0 -1
vn 0 0 -1
vn 0 0 -1
vn 0 0 -1
vn 0 0 -1
vn -1 0 -0
vn -1 0 -0
vn -1 0 -0
vn -1 0 -0
vn -1 0 -0
vn -1 0 -0
vn 0 0 1
vn 0 0 1
vn 0 0 1
vn 0 0 1
vn 0 0 1
vn 0 0 1
vn 1 0 -0
vn 1 0 -0
vn 1 0 -0
vn 1 -0 -0
vn 1 -0 -0
vn 1 -0 -0
vn 0 0 -1
vn 0 0 -1
vn 0 0 -1
vn 0 0 -1
vn 0 0 -1
vn 0 0 -1
vn 0 0 1
vn 0 0 1
vn 0 0 1
vn 0 0 1
vn 0 0 1
vn 0 0 1
vn 1 0 -0
vn 1 0 -0
vn 1 0 -0
vn 1 0 -0
vn 1 0 -0
vn 1 0 -0
vn 0 0 -1
vn 0 0 -1
vn 0 0 -1
vn 0 -0 -1
vn 0 -0 -1
vn 0 -0 -1
vn -1 0 -0
vn -1 0 -0
vn -1 0 -0
vn -1 0 -0
vn -1 0 -0
vn -1 0 -0
vn 1 0 -0
vn 1 0 -0
vn 1 0 -0
vn 1 0 -0
vn 1 0 -0
vn 1 0 -0
vn 0 -0 -1
vn 0 -0 -1
vn 0 -0 -1
vn 0 0 -1
vn 0 0 -1
vn 0 0 -1
vn -1 0 -0
vn -1 0 -0
vn -1 0 -0
vn -1 0 -0
vn -1 0 -0
vn -1 0 -0
vn 0 0 1
vn 0 0 1
vn 0 0 1
vn 0 0 1
vn 0 0 1
vn 0 0 1
vn 0 0 -1
vn 0 0 -1
vn 0 0 -1
vn 0 -0 -1
vn 0 -0 -1
vn 0 -0 -1
vn -1 0 -0
vn -1 0 -0
vn -1 0 -0
vn -1 0 -0
vn -1 0 -0
vn -1 0 -0
vn 0 0 1
vn 0 0 1
vn 0 0 1
vn 0 0 1
vn 0 0 1
vn 0 0 1
vn 1 0 -0
vn 1 0 -0
vn 1 0 -0
vn 1 0 -0
vn 1 0 -0
vn 1 0 -0
vn 0 0 1
vn 0 0 1
vn 0 0 1
vn 0 0 1
vn 0 0 1
vn 0 0 1
vn 0 0 1
vn 0 0 1
vn 0 0 1
vn 0 0 1
vn 0 0 1
vn 0 0 1
vn 0 0 1
vn 0 0 1
vn 0 0 1
vn 0 0 1
vn 0 0 1
vn 0 0 1
vn 0 0 1
vn 0 0 1
vn 0 0 1
vn 0 0 1
vn 0 0 1
vn 0 0 1
vn 0 0 1
vn 0 0 1
vn 0 0 1
vn 0 0 1
vn 0 0 1
vn 0 0 1
vn 0 -0 -1
vn 0 -0 -1
vn 0 -0 -1
vn 0 0 -1
vn 0 0 -1
vn 0 0 -1
vn 0 -0 -1
vn 0 -0 -1
vn 0 -0 -1
vn 0 0 -1
vn 0 0 -1
vn 0 0 -1
vn 0 0 -1
vn 0 0 -1
vn 0 0 -1
vn 0 -0 -1
vn 0 -0 -1
vn 0 -0 -1
vn 0 0 -1
vn 0 0 -1
vn 0 0 -1
vn 0 -0 -1
vn 0 -0 -1
vn 0 -0 -1
vn 0 -0 -1
vn 0 -0 -1
vn 0 -0 -1
vn 0 0 -1
vn 0 0 -1
vn 0 0 -1
vn -1 0 -0
vn -1 0 -0
vn -1 0 -0
vn -1 0 -0
vn -1 0 -0
vn -1 0 -0
vn 0 1 -0
vn 0 1 -0
vn 0 1 -0
vn 0 1 0
vn 0 1 0
vn 0 1 0
vn 1 0 -0
vn 1 0 -0
vn 1 0 -0
vn 1 0 -0
vn 1 0 -0
vn 1 0 -0
vn 0 -1 -0
vn 0 -1 -0
vn 0 -1 -0
vn 0 -1 -0
vn 0 -1 -0
vn 0 -1 -0
vn -1 0 -0
vn -1 0 -0
vn -1 0 -0
vn -1 0 -0
vn -1 0 -0
vn -1 0 -0
vn 0 1 -0
vn 0 1 -0
vn 0 1 -0
vn 0 1 0
vn 0 1 0
vn 0 1 0
vn 1 0 -0
vn 1 0 -0
vn 1 0 -0
vn 1 0 -0
vn 1 0 -0
vn 1 0 -0
vn 0 -1 -0
vn 0 -1 -0
vn 0 -1 -0
vn 0 -1 -0
vn 0 -1 -0
vn 0 -1 -0
vn -1 0 -0
vn -1 0 -0
vn -1 0 -0
vn -1 0 -0
vn -1 0 -0
vn -1 0 -0
vn 0 1 -0
vn 0 1 -0
vn 0 1 -0
vn 0 1 0
vn 0 1 0
vn 0 1 0
vn 1 0 -0
vn 1 0 -0
vn 1 0 -0
vn 1 0 -0
vn 1 0 -0
vn 1 0 -0
vn 0 -1 -0
vn 0 -1 -0
vn 0 -1 -0
vn 0 -1 -0
vn 0 -1 -0
vn 0 -1 -0
vn -1 0 -0
vn -1 0 -0
vn -1 0 -0
vn -1 0 -0
vn -1 0 -0
vn -1 0 -0
vn 0 1 -0
vn 0 1 -0
vn 0 1 -0
vn 0 1 0
vn 0 1 0
vn 0 1 0
vn 1 0 -0
vn 1 0 -0
vn 1 0 -0
vn 1 0 -0
vn 1 0 -0
vn 1 0 -0
vn 0 -1 -0
vn 0 -1 -0
vn 0 -1 -0
vn 0 -1 -0
vn 0 -1 -0
vn 0 -1 -0
vn -1 0 -0
vn -1 0 -0
vn -1 0 -0
vn -1 0 -0
vn -1 0 -0
vn -1 0 -0
vn 0 1 -0
vn 0 1 -0
vn 0 1 -0
vn 0 1 0
vn 0 1 0
vn 0 1 0
vn 1 0 -0
vn 1 0 -0
vn 1 0 -0
vn 1 0 -0
vn 1 0 -0
vn 1 0 -0
vn 0 -1 -0
vn 0 -1 -0
vn 0 -1 -0
vn 0 -1 -0
vn 0 -1 -0
vn 0 -1 -0
vn -0.838977 0.544167 -0
vn -0.838977 0.544167 -0
vn -0.838977 0.544167 -0
vn -0.838977 0.544167 -0
vn -0.838977 0.544167 -0
vn -0.838977 0.544167 -0
vn -0.402662 0.915349 -0
vn -0.402662 0.915349 -0
vn -0.402662 0.915349 -0
vn -0.402662 0.915349 -0
vn -0.402662 0.915349 -0
vn -0.402662 0.915349 -0
vn 0 -1 -0
vn 0 -1 -0
vn 0 -1 -0
vn 0 -1 -0
vn 0 -1 -0
vn 0 -1 -0
vn -0.827245 -0.561842 -0
vn -0.827245 -0.561842 -0
vn -0.827245 -0.561842 -0
vn -0.827245 -0.561842 -0
vn -0.827245 -0.561842 -0
vn -0.827245 -0.561842 -0
vn -0.406572 -0.913619 -0
vn -0.406572 -0.913619 -0
vn -0.406572 -0.913619 -0
vn -0.406572 -0.913619 -0
vn -0.406572 -0.913619 -0
vn -0.406572 -0.913619 -0
vn 0.406572 -0.913619 -0
vn 0.406572 -0.913619 -0
vn 0.406572 -0.913619 -0
vn 0.406572 -0.913619 -0
vn 0.406572 -0.913619 -0
vn 0.406572 -0.913619 -0
vn 0.827245 -0.561842 -0
vn 0.827245 -0.561842 -0
vn 0.827245 -0.561842 -0
vn 0.827245 -0.561842 -0
vn 0.827245 -0.561842 -0
vn 0.827245 -0.561842 -0
vn 0 -1 -0
vn 0 -1 -0
vn 0 -1 -0
vn 0 -1 -0
vn 0 -1 -0
vn 0 -1 -0
vn 0.402662 0.915349 0
vn 0.402662 0.915349 0
vn 0.402662 0.915349 0
vn 0.402662 0.915349 -0
vn 0.402662 0.915349 -0
vn 0.402662 0.915349 -0
vn 0.838977 0.544167 0
vn 0.838977 0.544167 0
vn 0.838977 0.544167 0
vn 0.838977 0.544167 -0
vn 0.838977 0.544167 -0
vn 0.838977 0.544167 -0
g Shed
usemtl Shed
s off
f 62/2/1 56/16/2 60/1/3
f 62/2/4 57/17/5 56/16/6
f 55/75/7 58/76/8 59/18/9
f 58/76/10 61/19/11 59/18/12
g Sides
usemtl Sides
s off
f 112/43/13 109/37/14 108/40/15
f 112/43/16 111/44/17 109/37/18
f 109/37/19 110/33/20 107/36/21
f 108/40/22 109/37/23 107/36/24
f 105/74/25 112/43/26 104/69/27
f 111/44/28 112/43/29 105/74/30
f 105/74/31 104/69/32 103/95/33
f 106/98/34 105/74/35 103/95/36
g Shed
usemtl Shed
s off
f 113/96/37 115/97/38 121/67/39
f 115/97/40 122/68/41 121/67/42
f 121/67/43 122/68/44 117/41/45
f 122/68/46 118/42/47 117/41/48
f 120/39/49 119/38/50 117/41/51
f 118/42/52 120/39/53 117/41/54
f 116/35/55 114/34/56 119/38/57
f 120/39/58 116/35/59 119/38/60
g Sides
usemtl Sides
s off
f 129/149/61 131/169/62 128/152/63
f 132/170/64 131/169/65 129/149/66
f 129/149/67 128/152/68 127/140/69
f 130/135/70 129/149/71 127/140/72
f 131/169/73 125/190/74 126/189/75
f 131/169/76 132/170/77 125/190/78
f 125/190/79 124/204/80 123/199/81
f 126/189/82 125/190/83 123/199/84
g Shed
usemtl Shed
s off
f 136/201/85 133/200/86 139/187/87
f 140/188/88 136/201/89 139/187/90
f 134/138/91 135/139/92 141/150/93
f 135/139/94 142/151/95 141/150/96
f 141/150/97 142/151/98 137/167/99
f 142/151/100 138/168/101 137/167/102
f 140/188/103 139/187/104 137/167/105
f 138/168/106 140/188/107 137/167/108
g Trim
usemtl Trim
s off
f 38/80/109 54/78/110 53/77/111
f 38/80/112 53/77/113 34/79/114
f 35/85/115 38/80/116 34/79/117
f 37/86/118 38/80/119 35/85/120
f 33/87/121 37/86/122 35/85/123
f 36/88/124 37/86/125 33/87/126
f 36/88/127 33/87/128 49/93/129
f 50/94/130 36/88/131 49/93/132
f 21/101/133 24/102/134 48/99/135
f 24/102/136 47/100/137 48/99/138
f 23/103/139 25/104/140 21/101/141
f 25/104/142 24/102/143 21/101/144
f 26/110/145 23/103/146 22/109/147
f 26/110/148 25/104/149 23/103/150
f 46/112/151 22/109/152 45/111/153
f 46/112/154 26/110/155 22/109/156
f 20/120/157 43/118/158 44/117/159
f 16/119/160 20/120/161 44/117/162
f 17/125/163 20/120/164 16/119/165
f 19/126/166 20/120/167 17/125/168
f 19/126/169 17/125/170 15/127/171
f 18/128/172 19/126/173 15/127/174
f 18/128/175 15/127/176 39/129/177
f 40/130/178 18/128/179 39/129/180
f 27/59/181 30/60/182 42/53/183
f 30/60/184 41/54/185 42/53/186
f 31/62/187 27/59/188 29/61/189
f 31/62/190 30/60/191 27/59/192
f 32/71/193 29/61/194 28/70/195
f 32/71/196 31/62/197 29/61/198
f 52/72/199 51/73/200 28/70/201
f 51/73/202 32/71/203 28/70/204
g Floor
usemtl Floor
s off
f 144/52/205 143/48/206 145/47/207
f 144/52/208 145/47/209 146/51/210
f 148/66/211 147/58/212 149/57/213
f 148/66/214 149/57/215 150/65/216
f 153/133/217 151/134/218 154/123/219
f 151/134/220 152/124/221 154/123/222
f 157/115/223 155/116/224 158/107/225
f 155/116/226 156/108/227 158/107/228
f 160/92/229 159/84/230 161/83/231
f 160/92/232 161/83/233 162/91/234
f 163/46/235 164/50/236 165/49/237
f 166/45/238 163/46/239 165/49/240
f 167/56/241 168/64/242 169/63/243
f 170/55/244 167/56/245 169/63/246
f 172/122/247 174/131/248 173/121/249
f 172/122/250 171/132/251 174/131/252
f 176/106/253 178/113/254 177/105/255
f 176/106/256 175/114/257 178/113/258
f 179/82/259 180/90/260 181/89/261
f 179/82/262 181/89/263 182/81/264
f 63/155/265 64/156/266 70/154/267
f 63/155/268 70/154/269 67/153/270
f 64/156/271 63/155/272 66/157/273
f 65/158/274 64/156/275 66/157/276
f 65/158/277 66/157/278 68/159/279
f 69/160/280 65/158/281 68/159/282
f 67/161/283 70/162/284 68/159/285
f 70/162/286 69/160/287 68/159/288
f 71/165/289 72/166/290 78/164/291
f 71/165/292 78/164/293 75/163/294
f 72/166/295 71/165/296 74/171/297
f 73/172/298 72/166/299 74/171/300
f 73/172/301 74/171/302 76/173/303
f 77/174/304 73/172/305 76/173/306
f 75/175/307 78/176/308 76/173/309
f 78/176/310 77/174/311 76/173/312
f 95/141/313 96/142/314 102/137/315
f 95/141/316 102/137/317 99/136/318
f 96/142/319 95/141/320 98/143/321
f 97/144/322 96/142/323 98/143/324
f 97/144/325 98/143/326 100/145/327
f 101/146/328 97/144/329 100/145/330
f 102/148/331 100/145/332 99/147/333
f 102/148/334 101/146/335 100/145/336
f 90/179/337 93/178/338 92/177/339
f 90/179/340 89/180/341 93/178/342
f 87/181/343 89/180/344 90/179/345
f 88/182/346 89/180/347 87/181/348
f 94/184/349 88/182/350 91/183/351
f 88/182/352 87/181/353 91/183/354
f 93/186/355 94/184/356 91/183/357
f 93/186/358 91/183/359 92/185/360
f 82/193/361 85/192/362 84/191/363
f 82/193/364 81/194/365 85/192/366
f 79/195/367 81/194/368 82/193/369
f 80/196/370 81/194/371 79/195/372
f 86/198/373 80/196/374 83/197/375
f 80/196/376 79/195/377 83/197/378
f 85/203/379 86/198/380 83/197/381
f 85/203/382 83/197/383 84/202/384
g Roof
usemtl Roof
s off
f 5/21/385 11/4/386 6/20/387
f 11/4/388 12/3/389 6/20/390
f 187/22/391 185/5/392 5/21/393
f 185/5/394 11/4/395 5/21/396
g Sides
usemtl Sides
s off
f 7/10/397 188/26/398 1/27/399
f 7/10/400 186/9/401 188/26/402
g Shed
usemtl Shed
s off
f 2/28/403 8/11/404 1/27/405
f 8/11/406 7/10/407 1/27/408
f 14/29/409 13/12/410 2/28/411
f 13/12/412 8/11/413 2/28/414
f 10/13/415 14/29/416 4/30/417
f 13/12/418 14/29/419 10/13/420
f 9/14/421 4/30/422 3/31/423
f 10/13/424 4/30/425 9/14/426
g Sides
usemtl Sides
s off
f 6/32/427 12/15/428 3/31/429
f 12/15/430 9/14/431 3/31/432
g Roof
usemtl Roof
s off
f 184/24/433 187/8/434 183/7/435
f 185/25/436 187/8/437 184/24/438
f 186/23/439 183/7/440 188/6/441
f 184/24/442 183/7/443 186/23/444
