####
#
#	OBJ File Generated by LightWave3D
#	LightWave3D OBJ Export v2.3
#
####
o Dutch Barn_14x32.obj
mtllib Dutch Barn_14x32.mtl
g default
v 2.3394 2.0916 5.5118
v 1.5822 2.8166 5.5118
v -2.3394 2.0916 5.5118
v -1.5822 2.8166 5.5118
v -1.6372 2.8816 5.5118
v -2.4544 2.0916 5.5118
v 2.3394 2.0916 -5.5118
v 1.5822 2.8166 -5.5118
v -2.3394 2.0916 -5.5118
v -1.5822 2.8166 -5.5118
v -1.6372 2.8816 -5.5118
v -2.4544 2.0916 -5.5118
v 0 3.1816 -5.5118
v 0 3.1816 5.5118
v -2.413 0.1016 -5.4356
v -2.3495 0.1016 -5.4991
v -2.413 0.1016 -5.4991
v -2.413 2.1116 -5.4356
v -2.413 2.1116 -5.4991
v -2.3495 2.1116 -5.4991
v 2.413 0.1016 -5.4356
v 2.3495 0.1016 -5.4991
v 2.413 0.1016 -5.4991
v 2.413 2.1116 -5.4356
v 2.413 2.1116 -5.4991
v 2.3495 2.1116 -5.4991
v -2.413 0.1016 5.4356
v -2.3495 0.1016 5.4991
v -2.413 0.1016 5.4991
v -2.413 2.1116 5.4356
v -2.413 2.1116 5.4991
v -2.3495 2.1116 5.4991
v 2.413 0.1016 5.4356
v 2.3495 0.1016 5.4991
v 2.413 0.1016 5.4991
v 2.413 2.1116 5.4356
v 2.413 2.1116 5.4991
v 2.3495 2.1116 5.4991
v -2.4003 0.1016 -5.4356
v -2.4003 2.1116 -5.4356
v -2.4003 2.1116 5.4356
v -2.4003 0.1016 5.4356
v -2.3495 2.1116 -5.4864
v -2.3495 0.1016 -5.4864
v 2.3495 0.1016 -5.4864
v 2.3495 2.1116 -5.4864
v 2.4003 2.1116 -5.4356
v 2.4003 0.1016 -5.4356
v 2.4003 0.1016 5.4356
v 2.4003 2.1116 5.4356
v -2.3495 2.1116 5.4864
v -2.3495 0.1016 5.4864
v 2.3495 0.1016 5.4864
v 2.3495 2.1116 5.4864
v 2.4003 0.1016 -5.4864
v -2.4003 0.1016 -5.4864
v -2.4003 2.0916 -5.4864
v 2.4003 2.0916 -5.4864
v 2.4003 0.1016 5.4864
v -2.4003 0.1016 5.4864
v 2.4003 2.0916 5.4864
v -2.4003 2.0916 5.4864
v -2.1914 0.1016 5.4864
v -2.1914 0.1016 -5.4864
v -2.0898 0.1016 -5.4864
v -2.0898 0.1016 5.4864
v -2.1914 0 5.4864
v -2.0898 0 5.4864
v -2.0898 0 -5.4864
v -2.1914 0 -5.4864
v -1.4542 0.1016 5.4864
v -1.4542 0.1016 -5.4864
v -1.3526 0.1016 -5.4864
v -1.3526 0.1016 5.4864
v -1.4542 0 5.4864
v -1.3526 0 5.4864
v -1.3526 0 -5.4864
v -1.4542 0 -5.4864
v 2.1914 0.1016 5.4864
v 2.1914 0.1016 -5.4864
v 2.0898 0.1016 -5.4864
v 2.0898 0.1016 5.4864
v 2.1914 0 5.4864
v 2.0898 0 5.4864
v 2.0898 0 -5.4864
v 2.1914 0 -5.4864
v 1.4542 0.1016 5.4864
v 1.4542 0.1016 -5.4864
v 1.3526 0.1016 -5.4864
v 1.3526 0.1016 5.4864
v 1.4542 0 5.4864
v 1.3526 0 5.4864
v 1.3526 0 -5.4864
v 1.4542 0 -5.4864
v -0.0508001 0.1016 5.4864
v -0.0508001 0.1016 -5.4864
v 0.0508001 0.1016 -5.4864
v 0.0508001 0.1016 5.4864
v -0.0508001 0 5.4864
v 0.0508001 0 5.4864
v 0.0508001 0 -5.4864
v -0.0508001 0 -5.4864
v 2.3394 2.0916 5.5118
v 1.5822 2.8166 5.5118
v 1.6372 2.8816 5.5118
v 2.4544 2.0916 5.5118
v -2.3394 2.0916 5.5118
v -1.5822 2.8166 5.5118
v -1.6372 2.8816 5.5118
v -2.4544 2.0916 5.5118
v 0 3.2666 5.5118
v 0 3.1816 5.5118
v 2.4003 0.1016 5.4864
v -2.4003 0.1016 5.4864
v 2.4003 2.0916 5.4864
v -2.4003 2.0916 5.4864
v 0 0.1016 5.4864
v 0 3.1816 5.4864
v -1.5822 0.1016 5.4864
v -1.5822 2.8166 5.4864
v 1.5822 0.1016 5.4864
v 1.5822 2.8166 5.4864
v 2.3394 2.0916 -5.5118
v 2.4544 2.0916 -5.5118
v 1.6372 2.8816 -5.5118
v 1.5822 2.8166 -5.5118
v -2.3394 2.0916 -5.5118
v -1.5822 2.8166 -5.5118
v -1.6372 2.8816 -5.5118
v -2.4544 2.0916 -5.5118
v 0 3.1816 -5.5118
v 0 3.2666 -5.5118
v 2.4003 0.1016 -5.4864
v -2.4003 0.1016 -5.4864
v -2.4003 2.0916 -5.4864
v 2.4003 2.0916 -5.4864
v 0 0.1016 -5.4864
v 0 3.1816 -5.4864
v 1.5822 0.1016 -5.4864
v 1.5822 2.8166 -5.4864
v -1.5822 0.1016 -5.4864
v -1.5822 2.8166 -5.4864
v -2.1914 0.1016 5.4864
v -2.0898 0.1016 5.4864
v -2.1914 0 5.4864
v -2.0898 0 5.4864
v -1.4542 0.1016 5.4864
v -1.3526 0.1016 5.4864
v -1.4542 0 5.4864
v -1.3526 0 5.4864
v 2.1914 0.1016 5.4864
v 2.0898 0.1016 5.4864
v 2.1914 0 5.4864
v 2.0898 0 5.4864
v 1.4542 0.1016 5.4864
v 1.3526 0.1016 5.4864
v 1.4542 0 5.4864
v 1.3526 0 5.4864
v -0.0508001 0.1016 5.4864
v 0.0508001 0.1016 5.4864
v -0.0508001 0 5.4864
v 0.0508001 0 5.4864
v -2.1914 0.1016 -5.4864
v -2.0898 0.1016 -5.4864
v -2.0898 0 -5.4864
v -2.1914 0 -5.4864
v -1.4542 0.1016 -5.4864
v -1.3526 0.1016 -5.4864
v -1.3526 0 -5.4864
v -1.4542 0 -5.4864
v 2.1914 0.1016 -5.4864
v 2.0898 0.1016 -5.4864
v 2.0898 0 -5.4864
v 2.1914 0 -5.4864
v 1.4542 0.1016 -5.4864
v 1.3526 0.1016 -5.4864
v 1.3526 0 -5.4864
v 1.4542 0 -5.4864
v -0.0508001 0.1016 -5.4864
v 0.0508001 0.1016 -5.4864
v 0.0508001 0 -5.4864
v -0.0508001 0 -5.4864
v 1.6372 2.8816 5.5118
v 1.6372 2.8816 -5.5118
v 0 3.2666 -5.5118
v 2.4544 2.0916 -5.5118
v 0 3.2666 5.5118
v 2.4544 2.0916 5.5118
vt -20.3864 -4.7984
vt -20.3864 -2.8084
vt -14.8 -2.4
vt -14.8 -1.26338
vt -14.8 0.418483
vt -14.8 0.418484
vt -14.8 1.55511
vt -14.8 3.23697
vt -14.8 3.23697
vt -14.8 3.35197
vt -14.8 4.40029
vt -14.8 6.02404
vt -14.8 7.6478
vt -14.8 8.69612
vt -14.8 8.81112
vt -9.4136 -4.7984
vt -9.4136 -2.8084
vt -8.9864 -4.7984
vt -8.9864 -2.8084
vt -3.7764 -2.4
vt -3.7764 -1.26338
vt -3.7764 0.418483
vt -3.7764 0.418484
vt -3.7764 1.55511
vt -3.7764 3.23697
vt -3.7764 3.35197
vt -3.7764 4.40029
vt -3.7764 6.02404
vt -3.7764 7.6478
vt -3.7764 8.69612
vt -3.7764 8.81112
vt -3.09 2.9116
vt -3.0359 0.6016
vt -3.0359 2.5916
vt -3.015 2.9116
vt -2.43 3.7016
vt -2.375 0.6016
vt -2.375 3.3166
vt -2.375 3.6366
vt -0.95 0.6016
vt -0.95 3.6816
vt -0.95 4.0016
vt -0.95 4.0866
vt 0.475 0.6016
vt 0.475 3.3166
vt 0.475 3.6366
vt 0.53 3.7016
vt 1.073 -7.45058e-010
vt 1.073 0.1016
vt 1.073 0.25
vt 1.073 0.3516
vt 1.115 2.9116
vt 1.1359 0.6016
vt 1.1359 2.5916
vt 1.1746 -7.45058e-010
vt 1.1746 0.1016
vt 1.1746 0.25
vt 1.1746 0.3516
vt 1.19 2.9116
vt 1.35 -2.35
vt 1.35 -0.3
vt 1.353 -7.45058e-010
vt 1.353 0.1016
vt 1.353 0.25
vt 1.353 0.3516
vt 1.3627 -2.35
vt 1.3627 -0.3
vt 1.4262 -2.35
vt 1.4262 -0.3
vt 1.4546 -7.45058e-010
vt 1.4546 0.1016
vt 1.4546 0.25
vt 1.4546 0.3516
vt 1.4897 -2.35
vt 1.4897 -0.3
vt 1.5024 -2.35
vt 1.5024 -0.3
vt 1.65 -2.35
vt 1.65 -0.3
vt 1.6627 -2.35
vt 1.6627 -0.3
vt 1.6992 -7.45058e-010
vt 1.6992 0.1016
vt 1.6992 0.25
vt 1.6992 0.3516
vt 1.7262 -2.35
vt 1.7262 -0.3
vt 1.76 2.9116
vt 1.7897 -2.35
vt 1.7897 -0.3
vt 1.8008 -7.45058e-010
vt 1.8008 0.1016
vt 1.8008 0.25
vt 1.8008 0.3516
vt 1.8024 -2.35
vt 1.8024 -0.3
vt 1.8141 0.6016
vt 1.8141 2.5916
vt 1.835 2.9116
vt 1.95 -2.35
vt 1.95 -0.3
vt 1.9627 -2.35
vt 1.9627 -0.3
vt 1.9864 -4.7984
vt 1.9864 -2.8084
vt 2.0262 -2.35
vt 2.0262 -0.3
vt 2.0454 -7.45058e-010
vt 2.0454 0.1016
vt 2.0454 0.25
vt 2.0454 0.3516
vt 2.0897 -2.35
vt 2.0897 -0.3
vt 2.1024 -2.35
vt 2.1024 -0.3
vt 2.147 -7.45058e-010
vt 2.147 0.1016
vt 2.147 0.25
vt 2.147 0.3516
vt 2.25 -2.35
vt 2.25 -0.3
vt 2.2627 -2.35
vt 2.2627 -0.3
vt 2.3254 -7.45058e-010
vt 2.3254 0.1016
vt 2.3254 0.25
vt 2.3254 0.3516
vt 2.3262 -2.35
vt 2.3262 -0.3
vt 2.3897 -2.35
vt 2.3897 -0.3
vt 2.4024 -2.35
vt 2.4024 -0.3
vt 2.42 3.7016
vt 2.427 -7.45058e-010
vt 2.427 0.1016
vt 2.427 0.25
vt 2.427 0.3516
vt 2.475 0.6016
vt 2.475 3.3166
vt 2.475 3.6366
vt 2.55 -3.2
vt 2.55 0.4576
vt 2.6516 -3.2
vt 2.6516 0.4576
vt 2.7532 -3.2
vt 2.7532 0.4576
vt 2.8548 -3.2
vt 2.8548 0.4576
vt 2.9564 -3.2
vt 2.9564 0.4576
vt 3.1 -3.2
vt 3.1 0.4576
vt 3.2016 -3.2
vt 3.2016 0.4576
vt 3.3032 -3.2
vt 3.3032 0.4576
vt 3.4048 -3.2
vt 3.4048 0.4576
vt 3.5064 -3.2
vt 3.5064 0.4576
vt 3.7 -3.2
vt 3.7 0.4576
vt 3.8016 -3.2
vt 3.8016 0.4576
vt 3.9 0.6016
vt 3.9 3.6816
vt 3.9 4.0016
vt 3.9 4.0866
vt 3.9032 -3.2
vt 3.9032 0.4576
vt 4.0048 -3.2
vt 4.0048 0.4576
vt 4.1064 -3.2
vt 4.1064 0.4576
vt 4.25 -3.2
vt 4.25 0.4576
vt 4.3516 -3.2
vt 4.3516 0.4576
vt 4.4532 -3.2
vt 4.4532 0.4576
vt 4.5548 -3.2
vt 4.5548 0.4576
vt 4.6564 -3.2
vt 4.6564 0.4576
vt 4.85 -3.2
vt 4.85 0.4576
vt 4.9516 -3.2
vt 4.9516 0.4576
vt 5.0532 -3.2
vt 5.0532 0.4576
vt 5.1548 -3.2
vt 5.1548 0.4576
vt 5.2564 -3.2
vt 5.2564 0.4576
vt 5.325 0.6016
vt 5.325 3.3166
vt 5.325 3.6366
vt 5.38 3.7016
vt 5.965 2.9116
vt 5.9859 0.6016
vt 5.9859 2.5916
vt 6.04 2.9116
vn -1 0 -0
vn -1 0 -0
vn -1 0 -0
vn -1 0 -0
vn -1 0 -0
vn -1 0 -0
vn 1 0 -0
vn 1 0 -0
vn 1 0 -0
vn 1 0 -0
vn 1 0 -0
vn 1 0 -0
vn 0 0 1
vn 0 0 1
vn 0 0 1
vn 0 0 1
vn 0 0 1
vn 0 0 1
vn 0 0 1
vn 0 0 1
vn 0 0 1
vn 0 0 1
vn 0 0 1
vn 0 0 1
vn 0 0 1
vn 0 0 1
vn 0 0 1
vn 0 0 1
vn 0 0 1
vn 0 0 1
vn 0 0 1
vn 0 0 1
vn 0 0 1
vn 0 0 1
vn 0 0 1
vn 0 0 1
vn 0 0 1
vn 0 0 1
vn 0 0 1
vn 0 0 1
vn 0 0 1
vn 0 0 1
vn 0 0 1
vn 0 0 1
vn 0 0 1
vn 0 0 1
vn 0 0 1
vn 0 0 1
vn 0 0 1
vn 0 0 1
vn 0 0 1
vn 0 0 1
vn 0 0 1
vn 0 0 1
vn 0 0 1
vn 0 0 1
vn 0 0 1
vn 0 0 1
vn 0 0 1
vn 0 0 1
vn 0 0 -1
vn 0 0 -1
vn 0 0 -1
vn 0 -0 -1
vn 0 -0 -1
vn 0 -0 -1
vn 0 0 -1
vn 0 0 -1
vn 0 0 -1
vn 0 -0 -1
vn 0 -0 -1
vn 0 -0 -1
vn 0 -0 -1
vn 0 -0 -1
vn 0 -0 -1
vn 0 0 -1
vn 0 0 -1
vn 0 0 -1
vn 0 -0 -1
vn 0 -0 -1
vn 0 -0 -1
vn 0 0 -1
vn 0 0 -1
vn 0 0 -1
vn 0 0 -1
vn 0 0 -1
vn 0 0 -1
vn 0 0 -1
vn 0 0 -1
vn 0 0 -1
vn 0 0 -1
vn 0 0 -1
vn 0 0 -1
vn 0 -0 -1
vn 0 -0 -1
vn 0 -0 -1
vn 0 0 -1
vn 0 0 -1
vn 0 0 -1
vn 0 -0 -1
vn 0 -0 -1
vn 0 -0 -1
vn 0 0 -1
vn 0 0 -1
vn 0 0 -1
vn 0 0 -1
vn 0 0 -1
vn 0 0 -1
vn -1 0 -0
vn -1 0 -0
vn -1 0 -0
vn -1 0 -0
vn -1 0 -0
vn -1 0 -0
vn 0 0 1
vn 0 0 1
vn 0 0 1
vn 0 0 1
vn 0 0 1
vn 0 0 1
vn 1 0 -0
vn 1 0 -0
vn 1 0 -0
vn 1 -0 -0
vn 1 -0 -0
vn 1 -0 -0
vn 0 0 -1
vn 0 0 -1
vn 0 0 -1
vn 0 0 -1
vn 0 0 -1
vn 0 0 -1
vn 0 0 1
vn 0 0 1
vn 0 0 1
vn 0 0 1
vn 0 0 1
vn 0 0 1
vn 1 0 -0
vn 1 0 -0
vn 1 0 -0
vn 1 0 -0
vn 1 0 -0
vn 1 0 -0
vn 0 0 -1
vn 0 0 -1
vn 0 0 -1
vn 0 -0 -1
vn 0 -0 -1
vn 0 -0 -1
vn -1 0 -0
vn -1 0 -0
vn -1 0 -0
vn -1 0 -0
vn -1 0 -0
vn -1 0 -0
vn 1 0 -0
vn 1 0 -0
vn 1 0 -0
vn 1 0 -0
vn 1 0 -0
vn 1 0 -0
vn 0 -0 -1
vn 0 -0 -1
vn 0 -0 -1
vn 0 0 -1
vn 0 0 -1
vn 0 0 -1
vn -1 0 -0
vn -1 0 -0
vn -1 0 -0
vn -1 0 -0
vn -1 0 -0
vn -1 0 -0
vn 0 0 1
vn 0 0 1
vn 0 0 1
vn 0 0 1
vn 0 0 1
vn 0 0 1
vn 0 0 -1
vn 0 0 -1
vn 0 0 -1
vn 0 -0 -1
vn 0 -0 -1
vn 0 -0 -1
vn -1 0 -0
vn -1 0 -0
vn -1 0 -0
vn -1 0 -0
vn -1 0 -0
vn -1 0 -0
vn 0 0 1
vn 0 0 1
vn 0 0 1
vn 0 0 1
vn 0 0 1
vn 0 0 1
vn 1 0 -0
vn 1 0 -0
vn 1 0 -0
vn 1 0 -0
vn 1 0 -0
vn 1 0 -0
vn 0 0 1
vn 0 0 1
vn 0 0 1
vn 0 0 1
vn 0 0 1
vn 0 0 1
vn 0 0 1
vn 0 0 1
vn 0 0 1
vn 0 0 1
vn 0 0 1
vn 0 0 1
vn 0 0 1
vn 0 0 1
vn 0 0 1
vn 0 0 1
vn 0 0 1
vn 0 0 1
vn 0 0 1
vn 0 0 1
vn 0 0 1
vn 0 0 1
vn 0 0 1
vn 0 0 1
vn 0 0 1
vn 0 0 1
vn 0 0 1
vn 0 0 1
vn 0 0 1
vn 0 0 1
vn 0 -0 -1
vn 0 -0 -1
vn 0 -0 -1
vn 0 0 -1
vn 0 0 -1
vn 0 0 -1
vn 0 -0 -1
vn 0 -0 -1
vn 0 -0 -1
vn 0 0 -1
vn 0 0 -1
vn 0 0 -1
vn 0 0 -1
vn 0 0 -1
vn 0 0 -1
vn 0 -0 -1
vn 0 -0 -1
vn 0 -0 -1
vn 0 0 -1
vn 0 0 -1
vn 0 0 -1
vn 0 -0 -1
vn 0 -0 -1
vn 0 -0 -1
vn 0 -0 -1
vn 0 -0 -1
vn 0 -0 -1
vn 0 0 -1
vn 0 0 -1
vn 0 0 -1
vn -1 0 -0
vn -1 0 -0
vn -1 0 -0
vn -1 0 -0
vn -1 0 -0
vn -1 0 -0
vn 0 1 -0
vn 0 1 -0
vn 0 1 -0
vn 0 1 0
vn 0 1 0
vn 0 1 0
vn 1 0 -0
vn 1 0 -0
vn 1 0 -0
vn 1 0 -0
vn 1 0 -0
vn 1 0 -0
vn 0 -1 -0
vn 0 -1 -0
vn 0 -1 -0
vn 0 -1 -0
vn 0 -1 -0
vn 0 -1 -0
vn -1 0 -0
vn -1 0 -0
vn -1 0 -0
vn -1 0 -0
vn -1 0 -0
vn -1 0 -0
vn 0 1 -0
vn 0 1 -0
vn 0 1 -0
vn 0 1 0
vn 0 1 0
vn 0 1 0
vn 1 0 -0
vn 1 0 -0
vn 1 0 -0
vn 1 0 -0
vn 1 0 -0
vn 1 0 -0
vn 0 -1 -0
vn 0 -1 -0
vn 0 -1 -0
vn 0 -1 -0
vn 0 -1 -0
vn 0 -1 -0
vn -1 0 -0
vn -1 0 -0
vn -1 0 -0
vn -1 0 -0
vn -1 0 -0
vn -1 0 -0
vn 0 1 -0
vn 0 1 -0
vn 0 1 -0
vn 0 1 0
vn 0 1 0
vn 0 1 0
vn 1 0 -0
vn 1 0 -0
vn 1 0 -0
vn 1 0 -0
vn 1 0 -0
vn 1 0 -0
vn 0 -1 -0
vn 0 -1 -0
vn 0 -1 -0
vn 0 -1 -0
vn 0 -1 -0
vn 0 -1 -0
vn -1 0 -0
vn -1 0 -0
vn -1 0 -0
vn -1 0 -0
vn -1 0 -0
vn -1 0 -0
vn 0 1 -0
vn 0 1 -0
vn 0 1 -0
vn 0 1 0
vn 0 1 0
vn 0 1 0
vn 1 0 -0
vn 1 0 -0
vn 1 0 -0
vn 1 0 -0
vn 1 0 -0
vn 1 0 -0
vn 0 -1 -0
vn 0 -1 -0
vn 0 -1 -0
vn 0 -1 -0
vn 0 -1 -0
vn 0 -1 -0
vn -1 0 -0
vn -1 0 -0
vn -1 0 -0
vn -1 0 -0
vn -1 0 -0
vn -1 0 -0
vn 0 1 -0
vn 0 1 -0
vn 0 1 -0
vn 0 1 0
vn 0 1 0
vn 0 1 0
vn 1 0 -0
vn 1 0 -0
vn 1 0 -0
vn 1 0 -0
vn 1 0 -0
vn 1 0 -0
vn 0 -1 -0
vn 0 -1 -0
vn 0 -1 -0
vn 0 -1 -0
vn 0 -1 -0
vn 0 -1 -0
vn -0.69504 0.718971 -0
vn -0.69504 0.718971 -0
vn -0.69504 0.718971 -0
vn -0.69504 0.718971 -0
vn -0.69504 0.718971 -0
vn -0.69504 0.718971 -0
vn -0.228913 0.973447 -0
vn -0.228913 0.973447 -0
vn -0.228913 0.973447 -0
vn -0.228913 0.973447 -0
vn -0.228913 0.973447 -0
vn -0.228913 0.973447 -0
vn 0 -1 -0
vn 0 -1 -0
vn 0 -1 -0
vn 0 -1 -0
vn 0 -1 -0
vn 0 -1 -0
vn -0.691582 -0.722298 -0
vn -0.691582 -0.722298 -0
vn -0.691582 -0.722298 -0
vn -0.691582 -0.722298 -0
vn -0.691582 -0.722298 -0
vn -0.691582 -0.722298 -0
vn -0.224788 -0.974408 -0
vn -0.224788 -0.974408 -0
vn -0.224788 -0.974408 -0
vn -0.224788 -0.974408 -0
vn -0.224788 -0.974408 -0
vn -0.224788 -0.974408 -0
vn 0.224788 -0.974408 -0
vn 0.224788 -0.974408 -0
vn 0.224788 -0.974408 -0
vn 0.224788 -0.974408 -0
vn 0.224788 -0.974408 -0
vn 0.224788 -0.974408 -0
vn 0.691582 -0.722298 -0
vn 0.691582 -0.722298 -0
vn 0.691582 -0.722298 -0
vn 0.691582 -0.722298 -0
vn 0.691582 -0.722298 -0
vn 0.691582 -0.722298 -0
vn 0 -1 -0
vn 0 -1 -0
vn 0 -1 -0
vn 0 -1 -0
vn 0 -1 -0
vn 0 -1 -0
vn 0.228913 0.973447 0
vn 0.228913 0.973447 0
vn 0.228913 0.973447 0
vn 0.228913 0.973447 -0
vn 0.228913 0.973447 -0
vn 0.228913 0.973447 -0
vn 0.69504 0.718971 0
vn 0.69504 0.718971 0
vn 0.69504 0.718971 0
vn 0.69504 0.718971 -0
vn 0.69504 0.718971 -0
vn 0.69504 0.718971 -0
g Shed
usemtl Shed
s off
f 62/2/1 56/16/2 60/1/3
f 62/2/4 57/17/5 56/16/6
f 55/104/7 58/105/8 59/18/9
f 58/105/10 61/19/11 59/18/12
g Sides
usemtl Sides
s off
f 111/43/13 109/36/14 108/39/15
f 112/42/16 111/43/17 108/39/18
f 109/36/19 110/32/20 107/35/21
f 108/39/22 109/36/23 107/35/24
f 111/43/25 112/42/26 104/46/27
f 105/47/28 111/43/29 104/46/30
f 105/47/31 104/46/32 103/52/33
f 106/59/34 105/47/35 103/52/36
g Shed
usemtl Shed
s off
f 113/53/37 115/54/38 121/44/39
f 115/54/40 122/45/41 121/44/42
f 121/44/43 122/45/44 117/40/45
f 122/45/46 118/41/47 117/40/48
f 120/38/49 119/37/50 117/40/51
f 118/41/52 120/38/53 117/40/54
f 116/34/55 114/33/56 119/37/57
f 120/38/58 116/34/59 119/37/60
g Sides
usemtl Sides
s off
f 132/169/61 131/168/62 128/141/63
f 129/134/64 132/169/65 128/141/66
f 129/134/67 128/141/68 127/99/69
f 130/88/70 129/134/71 127/99/72
f 132/169/73 125/199/74 126/198/75
f 131/168/76 132/169/77 126/198/78
f 125/199/79 124/203/80 123/200/81
f 126/198/82 125/199/83 123/200/84
g Shed
usemtl Shed
s off
f 136/202/85 133/201/86 139/196/87
f 140/197/88 136/202/89 139/196/90
f 134/97/91 135/98/92 141/139/93
f 135/98/94 142/140/95 141/139/96
f 141/139/97 142/140/98 137/166/99
f 142/140/100 138/167/101 137/166/102
f 140/197/103 139/196/104 137/166/105
f 138/167/106 140/197/107 137/166/108
g Trim
usemtl Trim
s off
f 38/81/109 54/79/110 53/78/111
f 38/81/112 53/78/113 34/80/114
f 35/86/115 38/81/116 34/80/117
f 37/87/118 38/81/119 35/86/120
f 33/89/121 37/87/122 35/86/123
f 36/90/124 37/87/125 33/89/126
f 36/90/127 33/89/128 49/95/129
f 50/96/130 36/90/131 49/95/132
f 21/102/133 24/103/134 48/100/135
f 24/103/136 47/101/137 48/100/138
f 23/106/139 25/107/140 21/102/141
f 25/107/142 24/103/143 21/102/144
f 26/113/145 23/106/146 22/112/147
f 26/113/148 25/107/149 23/106/150
f 46/115/151 22/112/152 45/114/153
f 46/115/154 26/113/155 22/112/156
f 20/123/157 43/121/158 44/120/159
f 16/122/160 20/123/161 44/120/162
f 17/128/163 20/123/164 16/122/165
f 19/129/166 20/123/167 17/128/168
f 19/129/169 17/128/170 15/130/171
f 18/131/172 19/129/173 15/130/174
f 18/131/175 15/130/176 39/132/177
f 40/133/178 18/131/179 39/132/180
f 27/66/181 30/67/182 42/60/183
f 30/67/184 41/61/185 42/60/186
f 31/69/187 27/66/188 29/68/189
f 31/69/190 30/67/191 27/66/192
f 32/75/193 29/68/194 28/74/195
f 32/75/196 31/69/197 29/68/198
f 52/76/199 51/77/200 28/74/201
f 51/77/202 32/75/203 28/74/204
g Floor
usemtl Floor
s off
f 144/58/205 143/51/206 145/50/207
f 144/58/208 145/50/209 146/57/210
f 148/73/211 147/65/212 149/64/213
f 148/73/214 149/64/215 150/72/216
f 153/137/217 151/138/218 154/126/219
f 151/138/220 152/127/221 154/126/222
f 157/118/223 155/119/224 158/110/225
f 155/119/226 156/111/227 158/110/228
f 160/94/229 159/85/230 161/84/231
f 160/94/232 161/84/233 162/93/234
f 163/49/235 164/56/236 165/55/237
f 166/48/238 163/49/239 165/55/240
f 167/63/241 168/71/242 169/70/243
f 170/62/244 167/63/245 169/70/246
f 172/125/247 174/135/248 173/124/249
f 172/125/250 171/136/251 174/135/252
f 176/109/253 178/116/254 177/108/255
f 176/109/256 175/117/257 178/116/258
f 179/83/259 180/92/260 181/91/261
f 179/83/262 181/91/263 182/82/264
f 63/154/265 64/155/266 70/153/267
f 63/154/268 70/153/269 67/152/270
f 64/155/271 63/154/272 66/156/273
f 65/157/274 64/155/275 66/156/276
f 65/157/277 66/156/278 68/158/279
f 69/159/280 65/157/281 68/158/282
f 67/160/283 70/161/284 68/158/285
f 70/161/286 69/159/287 68/158/288
f 71/164/289 72/165/290 78/163/291
f 71/164/292 78/163/293 75/162/294
f 72/165/295 71/164/296 74/170/297
f 73/171/298 72/165/299 74/170/300
f 73/171/301 74/170/302 76/172/303
f 77/173/304 73/171/305 76/172/306
f 75/174/307 78/175/308 76/172/309
f 78/175/310 77/173/311 76/172/312
f 95/144/313 96/145/314 102/143/315
f 95/144/316 102/143/317 99/142/318
f 96/145/319 95/144/320 98/146/321
f 97/147/322 96/145/323 98/146/324
f 97/147/325 98/146/326 100/148/327
f 101/149/328 97/147/329 100/148/330
f 102/151/331 100/148/332 99/150/333
f 102/151/334 101/149/335 100/148/336
f 90/178/337 93/177/338 92/176/339
f 90/178/340 89/179/341 93/177/342
f 87/180/343 89/179/344 90/178/345
f 88/181/346 89/179/347 87/180/348
f 94/183/349 88/181/350 91/182/351
f 88/181/352 87/180/353 91/182/354
f 93/185/355 94/183/356 91/182/357
f 93/185/358 91/182/359 92/184/360
f 82/188/361 85/187/362 84/186/363
f 82/188/364 81/189/365 85/187/366
f 79/190/367 81/189/368 82/188/369
f 80/191/370 81/189/371 79/190/372
f 86/193/373 80/191/374 83/192/375
f 80/191/376 79/190/377 83/192/378
f 85/195/379 86/193/380 83/192/381
f 85/195/382 83/192/383 84/194/384
g Roof
usemtl Roof
s off
f 5/21/385 11/4/386 6/20/387
f 11/4/388 12/3/389 6/20/390
f 187/22/391 185/5/392 5/21/393
f 185/5/394 11/4/395 5/21/396
g Sides
usemtl Sides
s off
f 7/10/397 188/25/398 1/26/399
f 7/10/400 186/9/401 188/25/402
g Shed
usemtl Shed
s off
f 2/27/403 8/11/404 1/26/405
f 8/11/406 7/10/407 1/26/408
f 14/28/409 13/12/410 2/27/411
f 13/12/412 8/11/413 2/27/414
f 10/13/415 14/28/416 4/29/417
f 13/12/418 14/28/419 10/13/420
f 9/14/421 4/29/422 3/30/423
f 10/13/424 4/29/425 9/14/426
g Sides
usemtl Sides
s off
f 6/31/427 12/15/428 3/30/429
f 12/15/430 9/14/431 3/30/432
g Roof
usemtl Roof
s off
f 184/24/433 187/8/434 183/7/435
f 185/25/436 187/8/437 184/24/438
f 186/23/439 183/7/440 188/6/441
f 184/24/442 183/7/443 186/23/444
