####
#
#	OBJ File Generated by LightWave3D
#	LightWave3D OBJ Export v2.3
#
####
o Dutch Barn_8x12.obj
mtllib Dutch Barn_8x12.mtl
g default
v 1.3126 2.0916 1.8542
v 0.8202 2.8166 1.8542
v -1.3126 2.0916 1.8542
v -0.8202 2.8166 1.8542
v -0.8752 2.8816 1.8542
v -1.3876 2.0916 1.8542
v 1.3126 2.0916 -1.8542
v 0.8202 2.8166 -1.8542
v -1.3126 2.0916 -1.8542
v -0.8202 2.8166 -1.8542
v -0.8752 2.8816 -1.8542
v -1.3876 2.0916 -1.8542
v 0 3.1816 -1.8542
v 0 3.1816 1.8542
v -1.3462 0.1016 -1.778
v -1.2827 0.1016 -1.8415
v -1.3462 0.1016 -1.8415
v -1.3462 2.1516 -1.778
v -1.3462 2.1516 -1.8415
v -1.2827 2.1516 -1.8415
v 1.3462 0.1016 -1.778
v 1.2827 0.1016 -1.8415
v 1.3462 0.1016 -1.8415
v 1.3462 2.1516 -1.778
v 1.3462 2.1516 -1.8415
v 1.2827 2.1516 -1.8415
v -1.3462 0.1016 1.778
v -1.2827 0.1016 1.8415
v -1.3462 0.1016 1.8415
v -1.3462 2.1516 1.778
v -1.3462 2.1516 1.8415
v -1.2827 2.1516 1.8415
v 1.3462 0.1016 1.778
v 1.2827 0.1016 1.8415
v 1.3462 0.1016 1.8415
v 1.3462 2.1516 1.778
v 1.3462 2.1516 1.8415
v 1.2827 2.1516 1.8415
v -1.3335 0.1016 -1.778
v -1.3335 2.1516 -1.778
v -1.3335 2.1516 1.778
v -1.3335 0.1016 1.778
v -1.2827 2.1516 -1.8288
v -1.2827 0.1016 -1.8288
v 1.2827 0.1016 -1.8288
v 1.2827 2.1516 -1.8288
v 1.3335 2.1516 -1.778
v 1.3335 0.1016 -1.778
v 1.3335 0.1016 1.778
v 1.3335 2.1516 1.778
v -1.2827 2.1516 1.8288
v -1.2827 0.1016 1.8288
v 1.2827 0.1016 1.8288
v 1.2827 2.1516 1.8288
v 1.3335 0.1016 -1.8288
v -1.3335 0.1016 -1.8288
v -1.3335 2.0916 -1.8288
v 1.3335 2.0916 -1.8288
v 1.3335 0.1016 1.8288
v -1.3335 0.1016 1.8288
v 1.3335 2.0916 1.8288
v -1.3335 2.0916 1.8288
v -1.1246 0.1016 1.8288
v -1.1246 0.1016 -1.8288
v -1.023 0.1016 -1.8288
v -1.023 0.1016 1.8288
v -1.1246 0 1.8288
v -1.023 0 1.8288
v -1.023 0 -1.8288
v -1.1246 0 -1.8288
v -0.6922 0.1016 1.8288
v -0.6922 0.1016 -1.8288
v -0.5906 0.1016 -1.8288
v -0.5906 0.1016 1.8288
v -0.6922 0 1.8288
v -0.5906 0 1.8288
v -0.5906 0 -1.8288
v -0.6922 0 -1.8288
v 1.1246 0.1016 1.8288
v 1.1246 0.1016 -1.8288
v 1.023 0.1016 -1.8288
v 1.023 0.1016 1.8288
v 1.1246 0 1.8288
v 1.023 0 1.8288
v 1.023 0 -1.8288
v 1.1246 0 -1.8288
v 0.6922 0.1016 1.8288
v 0.6922 0.1016 -1.8288
v 0.5906 0.1016 -1.8288
v 0.5906 0.1016 1.8288
v 0.6922 0 1.8288
v 0.5906 0 1.8288
v 0.5906 0 -1.8288
v 0.6922 0 -1.8288
v -0.0508001 0.1016 1.8288
v -0.0508001 0.1016 -1.8288
v 0.0508001 0.1016 -1.8288
v 0.0508001 0.1016 1.8288
v -0.0508001 0 1.8288
v 0.0508001 0 1.8288
v 0.0508001 0 -1.8288
v -0.0508001 0 -1.8288
v 1.3126 2.0916 1.8542
v 0.8202 2.8166 1.8542
v 0.8752 2.8816 1.8542
v 1.3876 2.0916 1.8542
v -1.3126 2.0916 1.8542
v -0.8202 2.8166 1.8542
v -0.8752 2.8816 1.8542
v -1.3876 2.0916 1.8542
v 0 3.2666 1.8542
v 0 3.1816 1.8542
v 1.3335 0.1016 1.8288
v -1.3335 0.1016 1.8288
v 1.3335 2.0916 1.8288
v -1.3335 2.0916 1.8288
v 0 0.1016 1.8288
v 0 3.1816 1.8288
v -0.8202 0.1016 1.8288
v -0.8202 2.8166 1.8288
v 0.8202 0.1016 1.8288
v 0.8202 2.8166 1.8288
v 1.3126 2.0916 -1.8542
v 1.3876 2.0916 -1.8542
v 0.8752 2.8816 -1.8542
v 0.8202 2.8166 -1.8542
v -1.3126 2.0916 -1.8542
v -0.8202 2.8166 -1.8542
v -0.8752 2.8816 -1.8542
v -1.3876 2.0916 -1.8542
v 0 3.1816 -1.8542
v 0 3.2666 -1.8542
v 1.3335 0.1016 -1.8288
v -1.3335 0.1016 -1.8288
v -1.3335 2.0916 -1.8288
v 1.3335 2.0916 -1.8288
v 0 0.1016 -1.8288
v 0 3.1816 -1.8288
v 0.8202 0.1016 -1.8288
v 0.8202 2.8166 -1.8288
v -0.8202 0.1016 -1.8288
v -0.8202 2.8166 -1.8288
v -1.1246 0.1016 1.8288
v -1.023 0.1016 1.8288
v -1.1246 0 1.8288
v -1.023 0 1.8288
v -0.6922 0.1016 1.8288
v -0.5906 0.1016 1.8288
v -0.6922 0 1.8288
v -0.5906 0 1.8288
v 1.1246 0.1016 1.8288
v 1.023 0.1016 1.8288
v 1.1246 0 1.8288
v 1.023 0 1.8288
v 0.6922 0.1016 1.8288
v 0.5906 0.1016 1.8288
v 0.6922 0 1.8288
v 0.5906 0 1.8288
v -0.0508001 0.1016 1.8288
v 0.0508001 0.1016 1.8288
v -0.0508001 0 1.8288
v 0.0508001 0 1.8288
v -1.1246 0.1016 -1.8288
v -1.023 0.1016 -1.8288
v -1.023 0 -1.8288
v -1.1246 0 -1.8288
v -0.6922 0.1016 -1.8288
v -0.5906 0.1016 -1.8288
v -0.5906 0 -1.8288
v -0.6922 0 -1.8288
v 1.1246 0.1016 -1.8288
v 1.023 0.1016 -1.8288
v 1.023 0 -1.8288
v 1.1246 0 -1.8288
v 0.6922 0.1016 -1.8288
v 0.5906 0.1016 -1.8288
v 0.5906 0 -1.8288
v 0.6922 0 -1.8288
v -0.0508001 0.1016 -1.8288
v 0.0508001 0.1016 -1.8288
v 0.0508001 0 -1.8288
v -0.0508001 0 -1.8288
v 0.8752 2.8816 1.8542
v 0.8752 2.8816 -1.8542
v 0 3.2666 -1.8542
v 1.3876 2.0916 -1.8542
v 0 3.2666 1.8542
v 1.3876 2.0916 1.8542
vt -6.9288 -1.7984
vt -6.9288 0.1916
vt -5 0.4
vt -5 1.34162
vt -5 2.29776
vt -5 2.29776
vt -5 3.23938
vt -5 4.19552
vt -5 4.27052
vt -5 5.14692
vt -5 6.04467
vt -5 6.94242
vt -5 7.81883
vt -5 7.89383
vt -3.2712 -1.7984
vt -3.2712 0.1916
vt -2.9288 -1.7984
vt -2.9288 0.1916
vt -1.2916 2.29776
vt -1.2916 3.23938
vt -1.2916 4.19552
vt -1.2916 0.4
vt -1.2916 1.34162
vt -1.2916 2.29776
vt -1.2916 4.19552
vt -1.2916 4.27052
vt -1.2916 5.14692
vt -1.2916 6.04467
vt -1.2916 6.94242
vt -1.2916 7.81883
vt -1.2916 7.89383
vt -0.89 2.9116
vt -0.8359 0.6016
vt -0.8359 2.5916
vt -0.815 2.9116
vt -0.53 3.7016
vt -0.475 0.6016
vt -0.475 3.3166
vt -0.475 3.6366
vt 0.5 0.6016
vt 0.5 3.6816
vt 0.5 4.0016
vt 0.5 4.0866
vt 0.7288 -1.7984
vt 0.7288 0.1916
vt 1.073 -7.45058e-010
vt 1.073 0.1016
vt 1.073 0.25
vt 1.073 0.3516
vt 1.1746 -7.45058e-010
vt 1.1746 0.1016
vt 1.1746 0.25
vt 1.1746 0.3516
vt 1.35 -2.35
vt 1.35 -0.3
vt 1.353 -7.45058e-010
vt 1.353 0.1016
vt 1.353 0.25
vt 1.353 0.3516
vt 1.3627 -2.35
vt 1.3627 -0.3
vt 1.4262 -2.35
vt 1.4262 -0.3
vt 1.4546 -7.45058e-010
vt 1.4546 0.1016
vt 1.4546 0.25
vt 1.4546 0.3516
vt 1.475 0.6016
vt 1.475 3.3166
vt 1.475 3.6366
vt 1.4897 -2.35
vt 1.4897 -0.3
vt 1.5024 -2.35
vt 1.5024 -0.3
vt 1.53 3.7016
vt 1.65 -2.35
vt 1.65 -0.3
vt 1.6627 -2.35
vt 1.6627 -0.3
vt 1.6992 -7.45058e-010
vt 1.6992 0.1016
vt 1.6992 0.25
vt 1.6992 0.3516
vt 1.7262 -2.35
vt 1.7262 -0.3
vt 1.7897 -2.35
vt 1.7897 -0.3
vt 1.8008 -7.45058e-010
vt 1.8008 0.1016
vt 1.8008 0.25
vt 1.8008 0.3516
vt 1.8024 -2.35
vt 1.8024 -0.3
vt 1.815 2.9116
vt 1.8359 0.6016
vt 1.8359 2.5916
vt 1.89 2.9116
vt 1.95 -2.35
vt 1.95 -0.3
vt 1.9627 -2.35
vt 1.9627 -0.3
vt 2.0262 -2.35
vt 2.0262 -0.3
vt 2.0454 -7.45058e-010
vt 2.0454 0.1016
vt 2.0454 0.25
vt 2.0454 0.3516
vt 2.0897 -2.35
vt 2.0897 -0.3
vt 2.1024 -2.35
vt 2.1024 -0.3
vt 2.147 -7.45058e-010
vt 2.147 0.1016
vt 2.147 0.25
vt 2.147 0.3516
vt 2.25 -2.35
vt 2.25 -0.3
vt 2.2627 -2.35
vt 2.2627 -0.3
vt 2.3254 -7.45058e-010
vt 2.3254 0.1016
vt 2.3254 0.25
vt 2.3254 0.3516
vt 2.3262 -2.35
vt 2.3262 -0.3
vt 2.3897 -2.35
vt 2.3897 -0.3
vt 2.4024 -2.35
vt 2.4024 -0.3
vt 2.427 -7.45058e-010
vt 2.427 0.1016
vt 2.427 0.25
vt 2.427 0.3516
vt 2.51 2.9116
vt 2.55 -3.2
vt 2.55 0.4576
vt 2.5641 0.6016
vt 2.5641 2.5916
vt 2.585 2.9116
vt 2.6516 -3.2
vt 2.6516 0.4576
vt 2.7532 -3.2
vt 2.7532 0.4576
vt 2.8548 -3.2
vt 2.8548 0.4576
vt 2.9564 -3.2
vt 2.9564 0.4576
vt 3.02 3.7016
vt 3.075 0.6016
vt 3.075 3.3166
vt 3.075 3.6366
vt 3.1 -3.2
vt 3.1 0.4576
vt 3.2016 -3.2
vt 3.2016 0.4576
vt 3.3032 -3.2
vt 3.3032 0.4576
vt 3.4048 -3.2
vt 3.4048 0.4576
vt 3.5064 -3.2
vt 3.5064 0.4576
vt 3.7 -3.2
vt 3.7 0.4576
vt 3.8016 -3.2
vt 3.8016 0.4576
vt 3.9 0.6016
vt 3.9 3.6816
vt 3.9 4.0016
vt 3.9 4.0866
vt 3.9032 -3.2
vt 3.9032 0.4576
vt 4.0048 -3.2
vt 4.0048 0.4576
vt 4.1064 -3.2
vt 4.1064 0.4576
vt 4.25 -3.2
vt 4.25 0.4576
vt 4.3516 -3.2
vt 4.3516 0.4576
vt 4.4532 -3.2
vt 4.4532 0.4576
vt 4.5548 -3.2
vt 4.5548 0.4576
vt 4.6564 -3.2
vt 4.6564 0.4576
vt 4.725 0.6016
vt 4.725 3.3166
vt 4.725 3.6366
vt 4.78 3.7016
vt 4.85 -3.2
vt 4.85 0.4576
vt 4.9516 -3.2
vt 4.9516 0.4576
vt 5.0532 -3.2
vt 5.0532 0.4576
vt 5.1548 -3.2
vt 5.1548 0.4576
vt 5.215 2.9116
vt 5.2359 0.6016
vt 5.2359 2.5916
vt 5.2564 -3.2
vt 5.2564 0.4576
vt 5.29 2.9116
vn -1 0 -0
vn -1 0 -0
vn -1 0 -0
vn -1 0 -0
vn -1 0 -0
vn -1 0 -0
vn 1 0 -0
vn 1 0 -0
vn 1 0 -0
vn 1 0 -0
vn 1 0 -0
vn 1 0 -0
vn 0 0 1
vn 0 0 1
vn 0 0 1
vn 0 0 1
vn 0 0 1
vn 0 0 1
vn 0 0 1
vn 0 0 1
vn 0 0 1
vn 0 0 1
vn 0 0 1
vn 0 0 1
vn 0 0 1
vn 0 0 1
vn 0 0 1
vn 0 0 1
vn 0 0 1
vn 0 0 1
vn 0 0 1
vn 0 0 1
vn 0 0 1
vn 0 0 1
vn 0 0 1
vn 0 0 1
vn 0 0 1
vn 0 0 1
vn 0 0 1
vn 0 0 1
vn 0 0 1
vn 0 0 1
vn 0 0 1
vn 0 0 1
vn 0 0 1
vn 0 0 1
vn 0 0 1
vn 0 0 1
vn 0 0 1
vn 0 0 1
vn 0 0 1
vn 0 0 1
vn 0 0 1
vn 0 0 1
vn 0 0 1
vn 0 0 1
vn 0 0 1
vn 0 0 1
vn 0 0 1
vn 0 0 1
vn 0 -0 -1
vn 0 -0 -1
vn 0 -0 -1
vn 0 0 -1
vn 0 0 -1
vn 0 0 -1
vn 0 0 -1
vn 0 0 -1
vn 0 0 -1
vn 0 -0 -1
vn 0 -0 -1
vn 0 -0 -1
vn 0 -0 -1
vn 0 -0 -1
vn 0 -0 -1
vn 0 0 -1
vn 0 0 -1
vn 0 0 -1
vn 0 -0 -1
vn 0 -0 -1
vn 0 -0 -1
vn 0 0 -1
vn 0 0 -1
vn 0 0 -1
vn 0 0 -1
vn 0 0 -1
vn 0 0 -1
vn 0 0 -1
vn 0 0 -1
vn 0 0 -1
vn 0 0 -1
vn 0 0 -1
vn 0 0 -1
vn 0 -0 -1
vn 0 -0 -1
vn 0 -0 -1
vn 0 0 -1
vn 0 0 -1
vn 0 0 -1
vn 0 -0 -1
vn 0 -0 -1
vn 0 -0 -1
vn 0 0 -1
vn 0 0 -1
vn 0 0 -1
vn 0 0 -1
vn 0 0 -1
vn 0 0 -1
vn -1 0 -0
vn -1 0 -0
vn -1 0 -0
vn -1 0 -0
vn -1 0 -0
vn -1 0 -0
vn 0 0 1
vn 0 0 1
vn 0 0 1
vn 0 0 1
vn 0 0 1
vn 0 0 1
vn 1 0 -0
vn 1 0 -0
vn 1 0 -0
vn 1 -0 -0
vn 1 -0 -0
vn 1 -0 -0
vn 0 0 -1
vn 0 0 -1
vn 0 0 -1
vn 0 0 -1
vn 0 0 -1
vn 0 0 -1
vn 0 0 1
vn 0 0 1
vn 0 0 1
vn 0 0 1
vn 0 0 1
vn 0 0 1
vn 1 0 -0
vn 1 0 -0
vn 1 0 -0
vn 1 0 -0
vn 1 0 -0
vn 1 0 -0
vn 0 0 -1
vn 0 0 -1
vn 0 0 -1
vn 0 -0 -1
vn 0 -0 -1
vn 0 -0 -1
vn -1 0 -0
vn -1 0 -0
vn -1 0 -0
vn -1 0 -0
vn -1 0 -0
vn -1 0 -0
vn 1 0 -0
vn 1 0 -0
vn 1 0 -0
vn 1 0 -0
vn 1 0 -0
vn 1 0 -0
vn 0 -0 -1
vn 0 -0 -1
vn 0 -0 -1
vn 0 0 -1
vn 0 0 -1
vn 0 0 -1
vn -1 0 -0
vn -1 0 -0
vn -1 0 -0
vn -1 0 -0
vn -1 0 -0
vn -1 0 -0
vn 0 0 1
vn 0 0 1
vn 0 0 1
vn 0 0 1
vn 0 0 1
vn 0 0 1
vn 0 0 -1
vn 0 0 -1
vn 0 0 -1
vn 0 -0 -1
vn 0 -0 -1
vn 0 -0 -1
vn -1 0 -0
vn -1 0 -0
vn -1 0 -0
vn -1 0 -0
vn -1 0 -0
vn -1 0 -0
vn 0 0 1
vn 0 0 1
vn 0 0 1
vn 0 0 1
vn 0 0 1
vn 0 0 1
vn 1 0 -0
vn 1 0 -0
vn 1 0 -0
vn 1 0 -0
vn 1 0 -0
vn 1 0 -0
vn 0 0 1
vn 0 0 1
vn 0 0 1
vn 0 0 1
vn 0 0 1
vn 0 0 1
vn 0 0 1
vn 0 0 1
vn 0 0 1
vn 0 0 1
vn 0 0 1
vn 0 0 1
vn 0 0 1
vn 0 0 1
vn 0 0 1
vn 0 0 1
vn 0 0 1
vn 0 0 1
vn 0 0 1
vn 0 0 1
vn 0 0 1
vn 0 0 1
vn 0 0 1
vn 0 0 1
vn 0 0 1
vn 0 0 1
vn 0 0 1
vn 0 0 1
vn 0 0 1
vn 0 0 1
vn 0 -0 -1
vn 0 -0 -1
vn 0 -0 -1
vn 0 0 -1
vn 0 0 -1
vn 0 0 -1
vn 0 -0 -1
vn 0 -0 -1
vn 0 -0 -1
vn 0 0 -1
vn 0 0 -1
vn 0 0 -1
vn 0 0 -1
vn 0 0 -1
vn 0 0 -1
vn 0 -0 -1
vn 0 -0 -1
vn 0 -0 -1
vn 0 0 -1
vn 0 0 -1
vn 0 0 -1
vn 0 -0 -1
vn 0 -0 -1
vn 0 -0 -1
vn 0 -0 -1
vn 0 -0 -1
vn 0 -0 -1
vn 0 0 -1
vn 0 0 -1
vn 0 0 -1
vn -1 0 -0
vn -1 0 -0
vn -1 0 -0
vn -1 0 -0
vn -1 0 -0
vn -1 0 -0
vn 0 1 -0
vn 0 1 -0
vn 0 1 -0
vn 0 1 0
vn 0 1 0
vn 0 1 0
vn 1 0 -0
vn 1 0 -0
vn 1 0 -0
vn 1 0 -0
vn 1 0 -0
vn 1 0 -0
vn 0 -1 -0
vn 0 -1 -0
vn 0 -1 -0
vn 0 -1 -0
vn 0 -1 -0
vn 0 -1 -0
vn -1 0 -0
vn -1 0 -0
vn -1 0 -0
vn -1 0 -0
vn -1 0 -0
vn -1 0 -0
vn 0 1 -0
vn 0 1 -0
vn 0 1 -0
vn 0 1 0
vn 0 1 0
vn 0 1 0
vn 1 0 -0
vn 1 0 -0
vn 1 0 -0
vn 1 0 -0
vn 1 0 -0
vn 1 0 -0
vn 0 -1 -0
vn 0 -1 -0
vn 0 -1 -0
vn 0 -1 -0
vn 0 -1 -0
vn 0 -1 -0
vn -1 0 -0
vn -1 0 -0
vn -1 0 -0
vn -1 0 -0
vn -1 0 -0
vn -1 0 -0
vn 0 1 -0
vn 0 1 -0
vn 0 1 -0
vn 0 1 0
vn 0 1 0
vn 0 1 0
vn 1 0 -0
vn 1 0 -0
vn 1 0 -0
vn 1 0 -0
vn 1 0 -0
vn 1 0 -0
vn 0 -1 -0
vn 0 -1 -0
vn 0 -1 -0
vn 0 -1 -0
vn 0 -1 -0
vn 0 -1 -0
vn -1 0 -0
vn -1 0 -0
vn -1 0 -0
vn -1 0 -0
vn -1 0 -0
vn -1 0 -0
vn 0 1 -0
vn 0 1 -0
vn 0 1 -0
vn 0 1 0
vn 0 1 0
vn 0 1 0
vn 1 0 -0
vn 1 0 -0
vn 1 0 -0
vn 1 0 -0
vn 1 0 -0
vn 1 0 -0
vn 0 -1 -0
vn 0 -1 -0
vn 0 -1 -0
vn 0 -1 -0
vn 0 -1 -0
vn 0 -1 -0
vn -1 0 -0
vn -1 0 -0
vn -1 0 -0
vn -1 0 -0
vn -1 0 -0
vn -1 0 -0
vn 0 1 -0
vn 0 1 -0
vn 0 1 -0
vn 0 1 0
vn 0 1 0
vn 0 1 0
vn 1 0 -0
vn 1 0 -0
vn 1 0 -0
vn 1 0 -0
vn 1 0 -0
vn 1 0 -0
vn 0 -1 -0
vn 0 -1 -0
vn 0 -1 -0
vn 0 -1 -0
vn 0 -1 -0
vn 0 -1 -0
vn -0.838977 0.544167 -0
vn -0.838977 0.544167 -0
vn -0.838977 0.544167 -0
vn -0.838977 0.544167 -0
vn -0.838977 0.544167 -0
vn -0.838977 0.544167 -0
vn -0.402662 0.915349 -0
vn -0.402662 0.915349 -0
vn -0.402662 0.915349 -0
vn -0.402662 0.915349 -0
vn -0.402662 0.915349 -0
vn -0.402662 0.915349 -0
vn 0 -1 -0
vn 0 -1 -0
vn 0 -1 -0
vn 0 -1 -0
vn 0 -1 -0
vn 0 -1 -0
vn -0.827245 -0.561842 -0
vn -0.827245 -0.561842 -0
vn -0.827245 -0.561842 -0
vn -0.827245 -0.561842 -0
vn -0.827245 -0.561842 -0
vn -0.827245 -0.561842 -0
vn -0.406573 -0.913619 -0
vn -0.406573 -0.913619 -0
vn -0.406573 -0.913619 -0
vn -0.406573 -0.913619 -0
vn -0.406573 -0.913619 -0
vn -0.406573 -0.913619 -0
vn 0.406573 -0.913619 -0
vn 0.406573 -0.913619 -0
vn 0.406573 -0.913619 -0
vn 0.406573 -0.913619 -0
vn 0.406573 -0.913619 -0
vn 0.406573 -0.913619 -0
vn 0.827245 -0.561842 -0
vn 0.827245 -0.561842 -0
vn 0.827245 -0.561842 -0
vn 0.827245 -0.561842 -0
vn 0.827245 -0.561842 -0
vn 0.827245 -0.561842 -0
vn 0 -1 -0
vn 0 -1 -0
vn 0 -1 -0
vn 0 -1 -0
vn 0 -1 -0
vn 0 -1 -0
vn 0.402662 0.915349 0
vn 0.402662 0.915349 0
vn 0.402662 0.915349 0
vn 0.402662 0.915349 -0
vn 0.402662 0.915349 -0
vn 0.402662 0.915349 -0
vn 0.838977 0.544167 0
vn 0.838977 0.544167 0
vn 0.838977 0.544167 0
vn 0.838977 0.544167 -0
vn 0.838977 0.544167 -0
vn 0.838977 0.544167 -0
g Shed
usemtl Shed
s off
f 62/2/1 56/15/2 60/1/3
f 62/2/4 57/16/5 56/15/6
f 55/44/7 58/45/8 59/17/9
f 58/45/10 61/18/11 59/17/12
g Sides
usemtl Sides
s off
f 112/42/13 109/36/14 108/39/15
f 112/42/16 111/43/17 109/36/18
f 109/36/19 110/32/20 107/35/21
f 108/39/22 109/36/23 107/35/24
f 105/75/25 112/42/26 104/70/27
f 111/43/28 112/42/29 105/75/30
f 105/75/31 104/70/32 103/94/33
f 106/97/34 105/75/35 103/94/36
g Shed
usemtl Shed
s off
f 113/95/37 115/96/38 121/68/39
f 115/96/40 122/69/41 121/68/42
f 121/68/43 122/69/44 117/40/45
f 122/69/46 118/41/47 117/40/48
f 120/38/49 119/37/50 117/40/51
f 118/41/52 120/38/53 117/40/54
f 116/34/55 114/33/56 119/37/57
f 120/38/58 116/34/59 119/37/60
g Sides
usemtl Sides
s off
f 129/148/61 131/168/62 128/151/63
f 132/169/64 131/168/65 129/148/66
f 129/148/67 128/151/68 127/139/69
f 130/134/70 129/148/71 127/139/72
f 131/168/73 125/189/74 126/188/75
f 131/168/76 132/169/77 125/189/78
f 125/189/79 124/203/80 123/198/81
f 126/188/82 125/189/83 123/198/84
g Shed
usemtl Shed
s off
f 136/200/85 133/199/86 139/186/87
f 140/187/88 136/200/89 139/186/90
f 134/137/91 135/138/92 141/149/93
f 135/138/94 142/150/95 141/149/96
f 141/149/97 142/150/98 137/166/99
f 142/150/100 138/167/101 137/166/102
f 140/187/103 139/186/104 137/166/105
f 138/167/106 140/187/107 137/166/108
g Trim
usemtl Trim
s off
f 38/79/109 54/77/110 53/76/111
f 38/79/112 53/76/113 34/78/114
f 35/84/115 38/79/116 34/78/117
f 37/85/118 38/79/119 35/84/120
f 33/86/121 37/85/122 35/84/123
f 36/87/124 37/85/125 33/86/126
f 36/87/127 33/86/128 49/92/129
f 50/93/130 36/87/131 49/92/132
f 21/100/133 24/101/134 48/98/135
f 24/101/136 47/99/137 48/98/138
f 23/102/139 25/103/140 21/100/141
f 25/103/142 24/101/143 21/100/144
f 26/109/145 23/102/146 22/108/147
f 26/109/148 25/103/149 23/102/150
f 46/111/151 22/108/152 45/110/153
f 46/111/154 26/109/155 22/108/156
f 20/119/157 43/117/158 44/116/159
f 16/118/160 20/119/161 44/116/162
f 17/124/163 20/119/164 16/118/165
f 19/125/166 20/119/167 17/124/168
f 19/125/169 17/124/170 15/126/171
f 18/127/172 19/125/173 15/126/174
f 18/127/175 15/126/176 39/128/177
f 40/129/178 18/127/179 39/128/180
f 27/60/181 30/61/182 42/54/183
f 30/61/184 41/55/185 42/54/186
f 31/63/187 27/60/188 29/62/189
f 31/63/190 30/61/191 27/60/192
f 32/72/193 29/62/194 28/71/195
f 32/72/196 31/63/197 29/62/198
f 52/73/199 51/74/200 28/71/201
f 51/74/202 32/72/203 28/71/204
g Floor
usemtl Floor
s off
f 144/53/205 143/49/206 145/48/207
f 144/53/208 145/48/209 146/52/210
f 148/67/211 147/59/212 149/58/213
f 148/67/214 149/58/215 150/66/216
f 153/132/217 151/133/218 154/122/219
f 151/133/220 152/123/221 154/122/222
f 157/114/223 155/115/224 158/106/225
f 155/115/226 156/107/227 158/106/228
f 160/91/229 159/83/230 161/82/231
f 160/91/232 161/82/233 162/90/234
f 163/47/235 164/51/236 165/50/237
f 166/46/238 163/47/239 165/50/240
f 167/57/241 168/65/242 169/64/243
f 170/56/244 167/57/245 169/64/246
f 172/121/247 174/130/248 173/120/249
f 172/121/250 171/131/251 174/130/252
f 176/105/253 178/112/254 177/104/255
f 176/105/256 175/113/257 178/112/258
f 179/81/259 180/89/260 181/88/261
f 179/81/262 181/88/263 182/80/264
f 63/154/265 64/155/266 70/153/267
f 63/154/268 70/153/269 67/152/270
f 64/155/271 63/154/272 66/156/273
f 65/157/274 64/155/275 66/156/276
f 65/157/277 66/156/278 68/158/279
f 69/159/280 65/157/281 68/158/282
f 67/160/283 70/161/284 68/158/285
f 70/161/286 69/159/287 68/158/288
f 71/164/289 72/165/290 78/163/291
f 71/164/292 78/163/293 75/162/294
f 72/165/295 71/164/296 74/170/297
f 73/171/298 72/165/299 74/170/300
f 73/171/301 74/170/302 76/172/303
f 77/173/304 73/171/305 76/172/306
f 75/174/307 78/175/308 76/172/309
f 78/175/310 77/173/311 76/172/312
f 95/140/313 96/141/314 102/136/315
f 95/140/316 102/136/317 99/135/318
f 96/141/319 95/140/320 98/142/321
f 97/143/322 96/141/323 98/142/324
f 97/143/325 98/142/326 100/144/327
f 101/145/328 97/143/329 100/144/330
f 102/147/331 100/144/332 99/146/333
f 102/147/334 101/145/335 100/144/336
f 90/178/337 93/177/338 92/176/339
f 90/178/340 89/179/341 93/177/342
f 87/180/343 89/179/344 90/178/345
f 88/181/346 89/179/347 87/180/348
f 94/183/349 88/181/350 91/182/351
f 88/181/352 87/180/353 91/182/354
f 93/185/355 94/183/356 91/182/357
f 93/185/358 91/182/359 92/184/360
f 82/192/361 85/191/362 84/190/363
f 82/192/364 81/193/365 85/191/366
f 79/194/367 81/193/368 82/192/369
f 80/195/370 81/193/371 79/194/372
f 86/197/373 80/195/374 83/196/375
f 80/195/376 79/194/377 83/196/378
f 85/202/379 86/197/380 83/196/381
f 85/202/382 83/196/383 84/201/384
g Roof
usemtl Roof
s off
f 5/23/385 11/4/386 6/22/387
f 11/4/388 12/3/389 6/22/390
f 187/24/391 185/6/392 5/23/393
f 185/6/394 11/4/395 5/23/396
g Sides
usemtl Sides
s off
f 7/9/397 188/25/398 1/26/399
f 7/9/400 186/8/401 188/25/402
g Shed
usemtl Shed
s off
f 2/27/403 8/10/404 1/26/405
f 8/10/406 7/9/407 1/26/408
f 14/28/409 13/11/410 2/27/411
f 13/11/412 8/10/413 2/27/414
f 10/12/415 14/28/416 4/29/417
f 13/11/418 14/28/419 10/12/420
f 9/13/421 4/29/422 3/30/423
f 10/12/424 4/29/425 9/13/426
g Sides
usemtl Sides
s off
f 6/31/427 12/14/428 3/30/429
f 12/14/430 9/13/431 3/30/432
g Roof
usemtl Roof
s off
f 184/20/433 187/8/434 183/7/435
f 185/21/436 187/8/437 184/20/438
f 186/19/439 183/7/440 188/5/441
f 184/20/442 183/7/443 186/19/444
