####
#
#	OBJ File Generated by LightWave3D
#	LightWave3D OBJ Export v2.3
#
####
o Dutch Barn_10x18.obj
mtllib Dutch Barn_10x18.mtl
g default
v 1.465 2.0916 2.7686
v 1.125 2.8166 2.7686
v -1.465 2.0916 2.7686
v -1.125 2.8166 2.7686
v -1.18 2.8816 2.7686
v -1.54 2.0916 2.7686
v 1.465 2.0916 -2.7686
v 1.125 2.8166 -2.7686
v -1.465 2.0916 -2.7686
v -1.125 2.8166 -2.7686
v -1.18 2.8816 -2.7686
v -1.54 2.0916 -2.7686
v 0 3.1816 -2.7686
v 0 3.1816 2.7686
v -1.4986 0.1016 -2.6924
v -1.4351 0.1016 -2.7559
v -1.4986 0.1016 -2.7559
v -1.4986 2.1516 -2.6924
v -1.4986 2.1516 -2.7559
v -1.4351 2.1516 -2.7559
v 1.4986 0.1016 -2.6924
v 1.4351 0.1016 -2.7559
v 1.4986 0.1016 -2.7559
v 1.4986 2.1516 -2.6924
v 1.4986 2.1516 -2.7559
v 1.4351 2.1516 -2.7559
v -1.4986 0.1016 2.6924
v -1.4351 0.1016 2.7559
v -1.4986 0.1016 2.7559
v -1.4986 2.1516 2.6924
v -1.4986 2.1516 2.7559
v -1.4351 2.1516 2.7559
v 1.4986 0.1016 2.6924
v 1.4351 0.1016 2.7559
v 1.4986 0.1016 2.7559
v 1.4986 2.1516 2.6924
v 1.4986 2.1516 2.7559
v 1.4351 2.1516 2.7559
v -1.4859 0.1016 -2.6924
v -1.4859 2.1516 -2.6924
v -1.4859 2.1516 2.6924
v -1.4859 0.1016 2.6924
v -1.4351 2.1516 -2.7432
v -1.4351 0.1016 -2.7432
v 1.4351 0.1016 -2.7432
v 1.4351 2.1516 -2.7432
v 1.4859 2.1516 -2.6924
v 1.4859 0.1016 -2.6924
v 1.4859 0.1016 2.6924
v 1.4859 2.1516 2.6924
v -1.4351 2.1516 2.7432
v -1.4351 0.1016 2.7432
v 1.4351 0.1016 2.7432
v 1.4351 2.1516 2.7432
v 1.4859 0.1016 -2.7432
v -1.4859 0.1016 -2.7432
v -1.4859 2.0916 -2.7432
v 1.4859 2.0916 -2.7432
v 1.4859 0.1016 2.7432
v -1.4859 0.1016 2.7432
v 1.4859 2.0916 2.7432
v -1.4859 2.0916 2.7432
v -1.277 0.1016 2.7432
v -1.277 0.1016 -2.7432
v -1.1754 0.1016 -2.7432
v -1.1754 0.1016 2.7432
v -1.277 0 2.7432
v -1.1754 0 2.7432
v -1.1754 0 -2.7432
v -1.277 0 -2.7432
v -0.997 0.1016 2.7432
v -0.997 0.1016 -2.7432
v -0.8954 0.1016 -2.7432
v -0.8954 0.1016 2.7432
v -0.997 0 2.7432
v -0.8954 0 2.7432
v -0.8954 0 -2.7432
v -0.997 0 -2.7432
v 1.277 0.1016 2.7432
v 1.277 0.1016 -2.7432
v 1.1754 0.1016 -2.7432
v 1.1754 0.1016 2.7432
v 1.277 0 2.7432
v 1.1754 0 2.7432
v 1.1754 0 -2.7432
v 1.277 0 -2.7432
v 0.997 0.1016 2.7432
v 0.997 0.1016 -2.7432
v 0.8954 0.1016 -2.7432
v 0.8954 0.1016 2.7432
v 0.997 0 2.7432
v 0.8954 0 2.7432
v 0.8954 0 -2.7432
v 0.997 0 -2.7432
v -0.0508001 0.1016 2.7432
v -0.0508001 0.1016 -2.7432
v 0.0508001 0.1016 -2.7432
v 0.0508001 0.1016 2.7432
v -0.0508001 0 2.7432
v 0.0508001 0 2.7432
v 0.0508001 0 -2.7432
v -0.0508001 0 -2.7432
v 1.465 2.0916 2.7686
v 1.125 2.8166 2.7686
v 1.18 2.8816 2.7686
v 1.54 2.0916 2.7686
v -1.465 2.0916 2.7686
v -1.125 2.8166 2.7686
v -1.18 2.8816 2.7686
v -1.54 2.0916 2.7686
v 0 3.2666 2.7686
v 0 3.1816 2.7686
v 1.4859 0.1016 2.7432
v -1.4859 0.1016 2.7432
v 1.4859 2.0916 2.7432
v -1.4859 2.0916 2.7432
v 0 0.1016 2.7432
v 0 3.1816 2.7432
v -1.125 0.1016 2.7432
v -1.125 2.8166 2.7432
v 1.125 0.1016 2.7432
v 1.125 2.8166 2.7432
v 1.465 2.0916 -2.7686
v 1.54 2.0916 -2.7686
v 1.18 2.8816 -2.7686
v 1.125 2.8166 -2.7686
v -1.465 2.0916 -2.7686
v -1.125 2.8166 -2.7686
v -1.18 2.8816 -2.7686
v -1.54 2.0916 -2.7686
v 0 3.1816 -2.7686
v 0 3.2666 -2.7686
v 1.4859 0.1016 -2.7432
v -1.4859 0.1016 -2.7432
v -1.4859 2.0916 -2.7432
v 1.4859 2.0916 -2.7432
v 0 0.1016 -2.7432
v 0 3.1816 -2.7432
v 1.125 0.1016 -2.7432
v 1.125 2.8166 -2.7432
v -1.125 0.1016 -2.7432
v -1.125 2.8166 -2.7432
v -1.277 0.1016 2.7432
v -1.1754 0.1016 2.7432
v -1.277 0 2.7432
v -1.1754 0 2.7432
v -0.997 0.1016 2.7432
v -0.8954 0.1016 2.7432
v -0.997 0 2.7432
v -0.8954 0 2.7432
v 1.277 0.1016 2.7432
v 1.1754 0.1016 2.7432
v 1.277 0 2.7432
v 1.1754 0 2.7432
v 0.997 0.1016 2.7432
v 0.8954 0.1016 2.7432
v 0.997 0 2.7432
v 0.8954 0 2.7432
v -0.0508001 0.1016 2.7432
v 0.0508001 0.1016 2.7432
v -0.0508001 0 2.7432
v 0.0508001 0 2.7432
v -1.277 0.1016 -2.7432
v -1.1754 0.1016 -2.7432
v -1.1754 0 -2.7432
v -1.277 0 -2.7432
v -0.997 0.1016 -2.7432
v -0.8954 0.1016 -2.7432
v -0.8954 0 -2.7432
v -0.997 0 -2.7432
v 1.277 0.1016 -2.7432
v 1.1754 0.1016 -2.7432
v 1.1754 0 -2.7432
v 1.277 0 -2.7432
v 0.997 0.1016 -2.7432
v 0.8954 0.1016 -2.7432
v 0.8954 0 -2.7432
v 0.997 0 -2.7432
v -0.0508001 0.1016 -2.7432
v 0.0508001 0.1016 -2.7432
v 0.0508001 0 -2.7432
v -0.0508001 0 -2.7432
v 1.18 2.8816 2.7686
v 1.18 2.8816 -2.7686
v 0 3.2666 -2.7686
v 1.54 2.0916 -2.7686
v 0 3.2666 2.7686
v 1.54 2.0916 2.7686
vt -9.8432 -4.5984
vt -9.8432 -2.6084
vt -6.8 -2.2
vt -6.8 -1.33184
vt -6.8 -0.0906221
vt -6.8 -0.0906217
vt -6.8 0.777537
vt -6.8 2.01876
vt -6.8 2.09376
vt -6.8 2.89452
vt -6.8 4.07725
vt -6.8 5.25998
vt -6.8 6.06075
vt -6.8 6.13575
vt -4.3568 -4.5984
vt -4.3568 -2.6084
vt -3.8432 -4.5984
vt -3.8432 -2.6084
vt -1.2628 -2.2
vt -1.2628 -1.33184
vt -1.2628 -0.0906221
vt -1.2628 -0.0906217
vt -1.2628 0.777537
vt -1.2628 2.01876
vt -1.2628 2.09376
vt -1.2628 2.89452
vt -1.2628 4.07725
vt -1.2628 5.25998
vt -1.2628 6.06075
vt -1.2628 6.13575
vt -1.04 2.9116
vt -0.9859 0.6016
vt -0.9859 2.5916
vt -0.965 2.9116
vt -0.68 3.7016
vt -0.625 0.6016
vt -0.625 3.3166
vt -0.625 3.6366
vt 0.5 0.6016
vt 0.5 3.6816
vt 0.5 4.0016
vt 0.5 4.0866
vt 1.073 -7.45058e-010
vt 1.073 0.1016
vt 1.073 0.25
vt 1.073 0.3516
vt 1.1746 -7.45058e-010
vt 1.1746 0.1016
vt 1.1746 0.25
vt 1.1746 0.3516
vt 1.35 -2.35
vt 1.35 -0.3
vt 1.353 -7.45058e-010
vt 1.353 0.1016
vt 1.353 0.25
vt 1.353 0.3516
vt 1.3627 -2.35
vt 1.3627 -0.3
vt 1.4262 -2.35
vt 1.4262 -0.3
vt 1.4546 -7.45058e-010
vt 1.4546 0.1016
vt 1.4546 0.25
vt 1.4546 0.3516
vt 1.4897 -2.35
vt 1.4897 -0.3
vt 1.5024 -2.35
vt 1.5024 -0.3
vt 1.625 0.6016
vt 1.625 3.3166
vt 1.625 3.6366
vt 1.6432 -4.5984
vt 1.6432 -2.6084
vt 1.65 -2.35
vt 1.65 -0.3
vt 1.6627 -2.35
vt 1.6627 -0.3
vt 1.68 3.7016
vt 1.6992 -7.45058e-010
vt 1.6992 0.1016
vt 1.6992 0.25
vt 1.6992 0.3516
vt 1.7262 -2.35
vt 1.7262 -0.3
vt 1.7897 -2.35
vt 1.7897 -0.3
vt 1.8008 -7.45058e-010
vt 1.8008 0.1016
vt 1.8008 0.25
vt 1.8008 0.3516
vt 1.8024 -2.35
vt 1.8024 -0.3
vt 1.95 -2.35
vt 1.95 -0.3
vt 1.9627 -2.35
vt 1.9627 -0.3
vt 1.965 2.9116
vt 1.9859 0.6016
vt 1.9859 2.5916
vt 2.0262 -2.35
vt 2.0262 -0.3
vt 2.04 2.9116
vt 2.0454 -7.45058e-010
vt 2.0454 0.1016
vt 2.0454 0.25
vt 2.0454 0.3516
vt 2.0897 -2.35
vt 2.0897 -0.3
vt 2.1024 -2.35
vt 2.1024 -0.3
vt 2.147 -7.45058e-010
vt 2.147 0.1016
vt 2.147 0.25
vt 2.147 0.3516
vt 2.25 -2.35
vt 2.25 -0.3
vt 2.2627 -2.35
vt 2.2627 -0.3
vt 2.3254 -7.45058e-010
vt 2.3254 0.1016
vt 2.3254 0.25
vt 2.3254 0.3516
vt 2.3262 -2.35
vt 2.3262 -0.3
vt 2.36 2.9116
vt 2.3897 -2.35
vt 2.3897 -0.3
vt 2.4024 -2.35
vt 2.4024 -0.3
vt 2.4141 0.6016
vt 2.4141 2.5916
vt 2.427 -7.45058e-010
vt 2.427 0.1016
vt 2.427 0.25
vt 2.427 0.3516
vt 2.435 2.9116
vt 2.55 -3.2
vt 2.55 0.4576
vt 2.6516 -3.2
vt 2.6516 0.4576
vt 2.72 3.7016
vt 2.7532 -3.2
vt 2.7532 0.4576
vt 2.775 0.6016
vt 2.775 3.3166
vt 2.775 3.6366
vt 2.8548 -3.2
vt 2.8548 0.4576
vt 2.9564 -3.2
vt 2.9564 0.4576
vt 3.1 -3.2
vt 3.1 0.4576
vt 3.2016 -3.2
vt 3.2016 0.4576
vt 3.3032 -3.2
vt 3.3032 0.4576
vt 3.4048 -3.2
vt 3.4048 0.4576
vt 3.5064 -3.2
vt 3.5064 0.4576
vt 3.7 -3.2
vt 3.7 0.4576
vt 3.8016 -3.2
vt 3.8016 0.4576
vt 3.9 0.6016
vt 3.9 3.6816
vt 3.9 4.0016
vt 3.9 4.0866
vt 3.9032 -3.2
vt 3.9032 0.4576
vt 4.0048 -3.2
vt 4.0048 0.4576
vt 4.1064 -3.2
vt 4.1064 0.4576
vt 4.25 -3.2
vt 4.25 0.4576
vt 4.3516 -3.2
vt 4.3516 0.4576
vt 4.4532 -3.2
vt 4.4532 0.4576
vt 4.5548 -3.2
vt 4.5548 0.4576
vt 4.6564 -3.2
vt 4.6564 0.4576
vt 4.85 -3.2
vt 4.85 0.4576
vt 4.9516 -3.2
vt 4.9516 0.4576
vt 5.025 0.6016
vt 5.025 3.3166
vt 5.025 3.6366
vt 5.0532 -3.2
vt 5.0532 0.4576
vt 5.08 3.7016
vt 5.1548 -3.2
vt 5.1548 0.4576
vt 5.2564 -3.2
vt 5.2564 0.4576
vt 5.365 2.9116
vt 5.3859 0.6016
vt 5.3859 2.5916
vt 5.44 2.9116
vn -1 0 -0
vn -1 0 -0
vn -1 0 -0
vn -1 0 -0
vn -1 0 -0
vn -1 0 -0
vn 1 0 -0
vn 1 0 -0
vn 1 0 -0
vn 1 0 -0
vn 1 0 -0
vn 1 0 -0
vn 0 0 1
vn 0 0 1
vn 0 0 1
vn 0 0 1
vn 0 0 1
vn 0 0 1
vn 0 0 1
vn 0 0 1
vn 0 0 1
vn 0 0 1
vn 0 0 1
vn 0 0 1
vn 0 0 1
vn 0 0 1
vn 0 0 1
vn 0 0 1
vn 0 0 1
vn 0 0 1
vn 0 0 1
vn 0 0 1
vn 0 0 1
vn 0 0 1
vn 0 0 1
vn 0 0 1
vn 0 0 1
vn 0 0 1
vn 0 0 1
vn 0 0 1
vn 0 0 1
vn 0 0 1
vn 0 0 1
vn 0 0 1
vn 0 0 1
vn 0 0 1
vn 0 0 1
vn 0 0 1
vn 0 0 1
vn 0 0 1
vn 0 0 1
vn 0 0 1
vn 0 0 1
vn 0 0 1
vn 0 0 1
vn 0 0 1
vn 0 0 1
vn 0 0 1
vn 0 0 1
vn 0 0 1
vn 0 0 -1
vn 0 0 -1
vn 0 0 -1
vn 0 -0 -1
vn 0 -0 -1
vn 0 -0 -1
vn 0 0 -1
vn 0 0 -1
vn 0 0 -1
vn 0 -0 -1
vn 0 -0 -1
vn 0 -0 -1
vn 0 -0 -1
vn 0 -0 -1
vn 0 -0 -1
vn 0 0 -1
vn 0 0 -1
vn 0 0 -1
vn 0 -0 -1
vn 0 -0 -1
vn 0 -0 -1
vn 0 0 -1
vn 0 0 -1
vn 0 0 -1
vn 0 0 -1
vn 0 0 -1
vn 0 0 -1
vn 0 0 -1
vn 0 0 -1
vn 0 0 -1
vn 0 0 -1
vn 0 0 -1
vn 0 0 -1
vn 0 -0 -1
vn 0 -0 -1
vn 0 -0 -1
vn 0 0 -1
vn 0 0 -1
vn 0 0 -1
vn 0 -0 -1
vn 0 -0 -1
vn 0 -0 -1
vn 0 0 -1
vn 0 0 -1
vn 0 0 -1
vn 0 0 -1
vn 0 0 -1
vn 0 0 -1
vn -1 0 -0
vn -1 0 -0
vn -1 0 -0
vn -1 0 -0
vn -1 0 -0
vn -1 0 -0
vn 0 0 1
vn 0 0 1
vn 0 0 1
vn 0 0 1
vn 0 0 1
vn 0 0 1
vn 1 0 -0
vn 1 0 -0
vn 1 0 -0
vn 1 -0 -0
vn 1 -0 -0
vn 1 -0 -0
vn 0 0 -1
vn 0 0 -1
vn 0 0 -1
vn 0 0 -1
vn 0 0 -1
vn 0 0 -1
vn 0 0 1
vn 0 0 1
vn 0 0 1
vn 0 0 1
vn 0 0 1
vn 0 0 1
vn 1 0 -0
vn 1 0 -0
vn 1 0 -0
vn 1 0 -0
vn 1 0 -0
vn 1 0 -0
vn 0 0 -1
vn 0 0 -1
vn 0 0 -1
vn 0 -0 -1
vn 0 -0 -1
vn 0 -0 -1
vn -1 0 -0
vn -1 0 -0
vn -1 0 -0
vn -1 0 -0
vn -1 0 -0
vn -1 0 -0
vn 1 0 -0
vn 1 0 -0
vn 1 0 -0
vn 1 0 -0
vn 1 0 -0
vn 1 0 -0
vn 0 -0 -1
vn 0 -0 -1
vn 0 -0 -1
vn 0 0 -1
vn 0 0 -1
vn 0 0 -1
vn -1 0 -0
vn -1 0 -0
vn -1 0 -0
vn -1 0 -0
vn -1 0 -0
vn -1 0 -0
vn 0 0 1
vn 0 0 1
vn 0 0 1
vn 0 0 1
vn 0 0 1
vn 0 0 1
vn 0 0 -1
vn 0 0 -1
vn 0 0 -1
vn 0 -0 -1
vn 0 -0 -1
vn 0 -0 -1
vn -1 0 -0
vn -1 0 -0
vn -1 0 -0
vn -1 0 -0
vn -1 0 -0
vn -1 0 -0
vn 0 0 1
vn 0 0 1
vn 0 0 1
vn 0 0 1
vn 0 0 1
vn 0 0 1
vn 1 0 -0
vn 1 0 -0
vn 1 0 -0
vn 1 0 -0
vn 1 0 -0
vn 1 0 -0
vn 0 0 1
vn 0 0 1
vn 0 0 1
vn 0 0 1
vn 0 0 1
vn 0 0 1
vn 0 0 1
vn 0 0 1
vn 0 0 1
vn 0 0 1
vn 0 0 1
vn 0 0 1
vn 0 0 1
vn 0 0 1
vn 0 0 1
vn 0 0 1
vn 0 0 1
vn 0 0 1
vn 0 0 1
vn 0 0 1
vn 0 0 1
vn 0 0 1
vn 0 0 1
vn 0 0 1
vn 0 0 1
vn 0 0 1
vn 0 0 1
vn 0 0 1
vn 0 0 1
vn 0 0 1
vn 0 -0 -1
vn 0 -0 -1
vn 0 -0 -1
vn 0 0 -1
vn 0 0 -1
vn 0 0 -1
vn 0 -0 -1
vn 0 -0 -1
vn 0 -0 -1
vn 0 0 -1
vn 0 0 -1
vn 0 0 -1
vn 0 0 -1
vn 0 0 -1
vn 0 0 -1
vn 0 -0 -1
vn 0 -0 -1
vn 0 -0 -1
vn 0 0 -1
vn 0 0 -1
vn 0 0 -1
vn 0 -0 -1
vn 0 -0 -1
vn 0 -0 -1
vn 0 -0 -1
vn 0 -0 -1
vn 0 -0 -1
vn 0 0 -1
vn 0 0 -1
vn 0 0 -1
vn -1 0 -0
vn -1 0 -0
vn -1 0 -0
vn -1 0 -0
vn -1 0 -0
vn -1 0 -0
vn 0 1 -0
vn 0 1 -0
vn 0 1 -0
vn 0 1 0
vn 0 1 0
vn 0 1 0
vn 1 0 -0
vn 1 0 -0
vn 1 0 -0
vn 1 0 -0
vn 1 0 -0
vn 1 0 -0
vn 0 -1 -0
vn 0 -1 -0
vn 0 -1 -0
vn 0 -1 -0
vn 0 -1 -0
vn 0 -1 -0
vn -1 0 -0
vn -1 0 -0
vn -1 0 -0
vn -1 0 -0
vn -1 0 -0
vn -1 0 -0
vn 0 1 -0
vn 0 1 -0
vn 0 1 -0
vn 0 1 0
vn 0 1 0
vn 0 1 0
vn 1 0 -0
vn 1 0 -0
vn 1 0 -0
vn 1 0 -0
vn 1 0 -0
vn 1 0 -0
vn 0 -1 -0
vn 0 -1 -0
vn 0 -1 -0
vn 0 -1 -0
vn 0 -1 -0
vn 0 -1 -0
vn -1 0 -0
vn -1 0 -0
vn -1 0 -0
vn -1 0 -0
vn -1 0 -0
vn -1 0 -0
vn 0 1 -0
vn 0 1 -0
vn 0 1 -0
vn 0 1 0
vn 0 1 0
vn 0 1 0
vn 1 0 -0
vn 1 0 -0
vn 1 0 -0
vn 1 0 -0
vn 1 0 -0
vn 1 0 -0
vn 0 -1 -0
vn 0 -1 -0
vn 0 -1 -0
vn 0 -1 -0
vn 0 -1 -0
vn 0 -1 -0
vn -1 0 -0
vn -1 0 -0
vn -1 0 -0
vn -1 0 -0
vn -1 0 -0
vn -1 0 -0
vn 0 1 -0
vn 0 1 -0
vn 0 1 -0
vn 0 1 0
vn 0 1 0
vn 0 1 0
vn 1 0 -0
vn 1 0 -0
vn 1 0 -0
vn 1 0 -0
vn 1 0 -0
vn 1 0 -0
vn 0 -1 -0
vn 0 -1 -0
vn 0 -1 -0
vn 0 -1 -0
vn 0 -1 -0
vn 0 -1 -0
vn -1 0 -0
vn -1 0 -0
vn -1 0 -0
vn -1 0 -0
vn -1 0 -0
vn -1 0 -0
vn 0 1 -0
vn 0 1 -0
vn 0 1 -0
vn 0 1 0
vn 0 1 0
vn 0 1 0
vn 1 0 -0
vn 1 0 -0
vn 1 0 -0
vn 1 0 -0
vn 1 0 -0
vn 1 0 -0
vn 0 -1 -0
vn 0 -1 -0
vn 0 -1 -0
vn 0 -1 -0
vn 0 -1 -0
vn 0 -1 -0
vn -0.909972 0.414671 -0
vn -0.909972 0.414671 -0
vn -0.909972 0.414671 -0
vn -0.909972 0.414671 -0
vn -0.909972 0.414671 -0
vn -0.909972 0.414671 -0
vn -0.310179 0.950678 -0
vn -0.310179 0.950678 -0
vn -0.310179 0.950678 -0
vn -0.310179 0.950678 -0
vn -0.310179 0.950678 -0
vn -0.310179 0.950678 -0
vn 0 -1 -0
vn 0 -1 -0
vn 0 -1 -0
vn 0 -1 -0
vn 0 -1 -0
vn 0 -1 -0
vn -0.905384 -0.424594 -0
vn -0.905384 -0.424594 -0
vn -0.905384 -0.424594 -0
vn -0.905384 -0.424594 -0
vn -0.905384 -0.424594 -0
vn -0.905384 -0.424594 -0
vn -0.308608 -0.951189 -0
vn -0.308608 -0.951189 -0
vn -0.308608 -0.951189 -0
vn -0.308608 -0.951189 -0
vn -0.308608 -0.951189 -0
vn -0.308608 -0.951189 -0
vn 0.308608 -0.951189 -0
vn 0.308608 -0.951189 -0
vn 0.308608 -0.951189 -0
vn 0.308608 -0.951189 -0
vn 0.308608 -0.951189 -0
vn 0.308608 -0.951189 -0
vn 0.905384 -0.424594 -0
vn 0.905384 -0.424594 -0
vn 0.905384 -0.424594 -0
vn 0.905384 -0.424594 -0
vn 0.905384 -0.424594 -0
vn 0.905384 -0.424594 -0
vn 0 -1 -0
vn 0 -1 -0
vn 0 -1 -0
vn 0 -1 -0
vn 0 -1 -0
vn 0 -1 -0
vn 0.310179 0.950678 0
vn 0.310179 0.950678 0
vn 0.310179 0.950678 0
vn 0.310179 0.950678 -0
vn 0.310179 0.950678 -0
vn 0.310179 0.950678 -0
vn 0.909972 0.414671 0
vn 0.909972 0.414671 0
vn 0.909972 0.414671 0
vn 0.909972 0.414671 -0
vn 0.909972 0.414671 -0
vn 0.909972 0.414671 -0
g Shed
usemtl Shed
s off
f 62/2/1 56/15/2 60/1/3
f 62/2/4 57/16/5 56/15/6
f 55/72/7 58/73/8 59/17/9
f 58/73/10 61/18/11 59/17/12
g Sides
usemtl Sides
s off
f 111/42/13 109/35/14 108/38/15
f 112/41/16 111/42/17 108/38/18
f 109/35/19 110/31/20 107/34/21
f 108/38/22 109/35/23 107/34/24
f 111/42/25 112/41/26 104/71/27
f 105/78/28 111/42/29 104/71/30
f 105/78/31 104/71/32 103/97/33
f 106/102/34 105/78/35 103/97/36
g Shed
usemtl Shed
s off
f 113/98/37 115/99/38 121/69/39
f 115/99/40 122/70/41 121/69/42
f 121/69/43 122/70/44 117/39/45
f 122/70/46 118/40/47 117/39/48
f 120/37/49 119/36/50 117/39/51
f 118/40/52 120/37/53 117/39/54
f 116/33/55 114/32/56 119/36/57
f 120/37/58 116/33/59 119/36/60
g Sides
usemtl Sides
s off
f 132/168/61 131/167/62 128/146/63
f 129/141/64 132/168/65 128/146/66
f 129/141/67 128/146/68 127/136/69
f 130/125/70 129/141/71 127/136/72
f 132/168/73 125/194/74 126/191/75
f 131/167/76 132/168/77 126/191/78
f 125/194/79 124/202/80 123/199/81
f 126/191/82 125/194/83 123/199/84
g Shed
usemtl Shed
s off
f 136/201/85 133/200/86 139/189/87
f 140/190/88 136/201/89 139/189/90
f 134/130/91 135/131/92 141/144/93
f 135/131/94 142/145/95 141/144/96
f 141/144/97 142/145/98 137/165/99
f 142/145/100 138/166/101 137/165/102
f 140/190/103 139/189/104 137/165/105
f 138/166/106 140/190/107 137/165/108
g Trim
usemtl Trim
s off
f 38/77/109 54/75/110 53/74/111
f 38/77/112 53/74/113 34/76/114
f 35/83/115 38/77/116 34/76/117
f 37/84/118 38/77/119 35/83/120
f 33/85/121 37/84/122 35/83/123
f 36/86/124 37/84/125 33/85/126
f 36/86/127 33/85/128 49/91/129
f 50/92/130 36/86/131 49/91/132
f 21/95/133 24/96/134 48/93/135
f 24/96/136 47/94/137 48/93/138
f 23/100/139 25/101/140 21/95/141
f 25/101/142 24/96/143 21/95/144
f 26/108/145 23/100/146 22/107/147
f 26/108/148 25/101/149 23/100/150
f 46/110/151 22/107/152 45/109/153
f 46/110/154 26/108/155 22/107/156
f 20/118/157 43/116/158 44/115/159
f 16/117/160 20/118/161 44/115/162
f 17/123/163 20/118/164 16/117/165
f 19/124/166 20/118/167 17/123/168
f 19/124/169 17/123/170 15/126/171
f 18/127/172 19/124/173 15/126/174
f 18/127/175 15/126/176 39/128/177
f 40/129/178 18/127/179 39/128/180
f 27/57/181 30/58/182 42/51/183
f 30/58/184 41/52/185 42/51/186
f 31/60/187 27/57/188 29/59/189
f 31/60/190 30/58/191 27/57/192
f 32/66/193 29/59/194 28/65/195
f 32/66/196 31/60/197 29/59/198
f 52/67/199 51/68/200 28/65/201
f 51/68/202 32/66/203 28/65/204
g Floor
usemtl Floor
s off
f 144/50/205 143/46/206 145/45/207
f 144/50/208 145/45/209 146/49/210
f 148/64/211 147/56/212 149/55/213
f 148/64/214 149/55/215 150/63/216
f 153/134/217 151/135/218 154/121/219
f 151/135/220 152/122/221 154/121/222
f 157/113/223 155/114/224 158/105/225
f 155/114/226 156/106/227 158/105/228
f 160/90/229 159/82/230 161/81/231
f 160/90/232 161/81/233 162/89/234
f 163/44/235 164/48/236 165/47/237
f 166/43/238 163/44/239 165/47/240
f 167/54/241 168/62/242 169/61/243
f 170/53/244 167/54/245 169/61/246
f 172/120/247 174/132/248 173/119/249
f 172/120/250 171/133/251 174/132/252
f 176/104/253 178/111/254 177/103/255
f 176/104/256 175/112/257 178/111/258
f 179/80/259 180/88/260 181/87/261
f 179/80/262 181/87/263 182/79/264
f 63/153/265 64/154/266 70/152/267
f 63/153/268 70/152/269 67/151/270
f 64/154/271 63/153/272 66/155/273
f 65/156/274 64/154/275 66/155/276
f 65/156/277 66/155/278 68/157/279
f 69/158/280 65/156/281 68/157/282
f 67/159/283 70/160/284 68/157/285
f 70/160/286 69/158/287 68/157/288
f 71/163/289 72/164/290 78/162/291
f 71/163/292 78/162/293 75/161/294
f 72/164/295 71/163/296 74/169/297
f 73/170/298 72/164/299 74/169/300
f 73/170/301 74/169/302 76/171/303
f 77/172/304 73/170/305 76/171/306
f 75/173/307 78/174/308 76/171/309
f 78/174/310 77/172/311 76/171/312
f 95/139/313 96/140/314 102/138/315
f 95/139/316 102/138/317 99/137/318
f 96/140/319 95/139/320 98/142/321
f 97/143/322 96/140/323 98/142/324
f 97/143/325 98/142/326 100/147/327
f 101/148/328 97/143/329 100/147/330
f 102/150/331 100/147/332 99/149/333
f 102/150/334 101/148/335 100/147/336
f 90/177/337 93/176/338 92/175/339
f 90/177/340 89/178/341 93/176/342
f 87/179/343 89/178/344 90/177/345
f 88/180/346 89/178/347 87/179/348
f 94/182/349 88/180/350 91/181/351
f 88/180/352 87/179/353 91/181/354
f 93/184/355 94/182/356 91/181/357
f 93/184/358 91/181/359 92/183/360
f 82/187/361 85/186/362 84/185/363
f 82/187/364 81/188/365 85/186/366
f 79/192/367 81/188/368 82/187/369
f 80/193/370 81/188/371 79/192/372
f 86/196/373 80/193/374 83/195/375
f 80/193/376 79/192/377 83/195/378
f 85/198/379 86/196/380 83/195/381
f 85/198/382 83/195/383 84/197/384
g Roof
usemtl Roof
s off
f 5/20/385 11/4/386 6/19/387
f 11/4/388 12/3/389 6/19/390
f 187/21/391 185/5/392 5/20/393
f 185/5/394 11/4/395 5/20/396
g Sides
usemtl Sides
s off
f 7/9/397 188/24/398 1/25/399
f 7/9/400 186/8/401 188/24/402
g Shed
usemtl Shed
s off
f 2/26/403 8/10/404 1/25/405
f 8/10/406 7/9/407 1/25/408
f 14/27/409 13/11/410 2/26/411
f 13/11/412 8/10/413 2/26/414
f 10/12/415 14/27/416 4/28/417
f 13/11/418 14/27/419 10/12/420
f 9/13/421 4/28/422 3/29/423
f 10/12/424 4/28/425 9/13/426
g Sides
usemtl Sides
s off
f 6/30/427 12/14/428 3/29/429
f 12/14/430 9/13/431 3/29/432
g Roof
usemtl Roof
s off
f 184/23/433 187/8/434 183/7/435
f 185/24/436 187/8/437 184/23/438
f 186/22/439 183/7/440 188/6/441
f 184/23/442 183/7/443 186/22/444
