####
#
#	OBJ File Generated by LightWave3D
#	LightWave3D OBJ Export v2.3
#
####
o Dutch Barn_14x20.obj
mtllib Dutch Barn_14x20.mtl
g default
v 2.3394 2.0916 3.0734
v 1.5822 2.8166 3.0734
v -2.3394 2.0916 3.0734
v -1.5822 2.8166 3.0734
v -1.6372 2.8816 3.0734
v -2.4544 2.0916 3.0734
v 2.3394 2.0916 -3.0734
v 1.5822 2.8166 -3.0734
v -2.3394 2.0916 -3.0734
v -1.5822 2.8166 -3.0734
v -1.6372 2.8816 -3.0734
v -2.4544 2.0916 -3.0734
v 0 3.1816 -3.0734
v 0 3.1816 3.0734
v -2.413 0.1016 -2.9972
v -2.3495 0.1016 -3.0607
v -2.413 0.1016 -3.0607
v -2.413 2.1116 -2.9972
v -2.413 2.1116 -3.0607
v -2.3495 2.1116 -3.0607
v 2.413 0.1016 -2.9972
v 2.3495 0.1016 -3.0607
v 2.413 0.1016 -3.0607
v 2.413 2.1116 -2.9972
v 2.413 2.1116 -3.0607
v 2.3495 2.1116 -3.0607
v -2.413 0.1016 2.9972
v -2.3495 0.1016 3.0607
v -2.413 0.1016 3.0607
v -2.413 2.1116 2.9972
v -2.413 2.1116 3.0607
v -2.3495 2.1116 3.0607
v 2.413 0.1016 2.9972
v 2.3495 0.1016 3.0607
v 2.413 0.1016 3.0607
v 2.413 2.1116 2.9972
v 2.413 2.1116 3.0607
v 2.3495 2.1116 3.0607
v -2.4003 0.1016 -2.9972
v -2.4003 2.1116 -2.9972
v -2.4003 2.1116 2.9972
v -2.4003 0.1016 2.9972
v -2.3495 2.1116 -3.048
v -2.3495 0.1016 -3.048
v 2.3495 0.1016 -3.048
v 2.3495 2.1116 -3.048
v 2.4003 2.1116 -2.9972
v 2.4003 0.1016 -2.9972
v 2.4003 0.1016 2.9972
v 2.4003 2.1116 2.9972
v -2.3495 2.1116 3.048
v -2.3495 0.1016 3.048
v 2.3495 0.1016 3.048
v 2.3495 2.1116 3.048
v 2.4003 0.1016 -3.048
v -2.4003 0.1016 -3.048
v -2.4003 2.0916 -3.048
v 2.4003 2.0916 -3.048
v 2.4003 0.1016 3.048
v -2.4003 0.1016 3.048
v 2.4003 2.0916 3.048
v -2.4003 2.0916 3.048
v -2.1914 0.1016 3.048
v -2.1914 0.1016 -3.048
v -2.0898 0.1016 -3.048
v -2.0898 0.1016 3.048
v -2.1914 0 3.048
v -2.0898 0 3.048
v -2.0898 0 -3.048
v -2.1914 0 -3.048
v -1.4542 0.1016 3.048
v -1.4542 0.1016 -3.048
v -1.3526 0.1016 -3.048
v -1.3526 0.1016 3.048
v -1.4542 0 3.048
v -1.3526 0 3.048
v -1.3526 0 -3.048
v -1.4542 0 -3.048
v 2.1914 0.1016 3.048
v 2.1914 0.1016 -3.048
v 2.0898 0.1016 -3.048
v 2.0898 0.1016 3.048
v 2.1914 0 3.048
v 2.0898 0 3.048
v 2.0898 0 -3.048
v 2.1914 0 -3.048
v 1.4542 0.1016 3.048
v 1.4542 0.1016 -3.048
v 1.3526 0.1016 -3.048
v 1.3526 0.1016 3.048
v 1.4542 0 3.048
v 1.3526 0 3.048
v 1.3526 0 -3.048
v 1.4542 0 -3.048
v -0.0508001 0.1016 3.048
v -0.0508001 0.1016 -3.048
v 0.0508001 0.1016 -3.048
v 0.0508001 0.1016 3.048
v -0.0508001 0 3.048
v 0.0508001 0 3.048
v 0.0508001 0 -3.048
v -0.0508001 0 -3.048
v 2.3394 2.0916 3.0734
v 1.5822 2.8166 3.0734
v 1.6372 2.8816 3.0734
v 2.4544 2.0916 3.0734
v -2.3394 2.0916 3.0734
v -1.5822 2.8166 3.0734
v -1.6372 2.8816 3.0734
v -2.4544 2.0916 3.0734
v 0 3.2666 3.0734
v 0 3.1816 3.0734
v 2.4003 0.1016 3.048
v -2.4003 0.1016 3.048
v 2.4003 2.0916 3.048
v -2.4003 2.0916 3.048
v 0 0.1016 3.048
v 0 3.1816 3.048
v -1.5822 0.1016 3.048
v -1.5822 2.8166 3.048
v 1.5822 0.1016 3.048
v 1.5822 2.8166 3.048
v 2.3394 2.0916 -3.0734
v 2.4544 2.0916 -3.0734
v 1.6372 2.8816 -3.0734
v 1.5822 2.8166 -3.0734
v -2.3394 2.0916 -3.0734
v -1.5822 2.8166 -3.0734
v -1.6372 2.8816 -3.0734
v -2.4544 2.0916 -3.0734
v 0 3.1816 -3.0734
v 0 3.2666 -3.0734
v 2.4003 0.1016 -3.048
v -2.4003 0.1016 -3.048
v -2.4003 2.0916 -3.048
v 2.4003 2.0916 -3.048
v 0 0.1016 -3.048
v 0 3.1816 -3.048
v 1.5822 0.1016 -3.048
v 1.5822 2.8166 -3.048
v -1.5822 0.1016 -3.048
v -1.5822 2.8166 -3.048
v -2.1914 0.1016 3.048
v -2.0898 0.1016 3.048
v -2.1914 0 3.048
v -2.0898 0 3.048
v -1.4542 0.1016 3.048
v -1.3526 0.1016 3.048
v -1.4542 0 3.048
v -1.3526 0 3.048
v 2.1914 0.1016 3.048
v 2.0898 0.1016 3.048
v 2.1914 0 3.048
v 2.0898 0 3.048
v 1.4542 0.1016 3.048
v 1.3526 0.1016 3.048
v 1.4542 0 3.048
v 1.3526 0 3.048
v -0.0508001 0.1016 3.048
v 0.0508001 0.1016 3.048
v -0.0508001 0 3.048
v 0.0508001 0 3.048
v -2.1914 0.1016 -3.048
v -2.0898 0.1016 -3.048
v -2.0898 0 -3.048
v -2.1914 0 -3.048
v -1.4542 0.1016 -3.048
v -1.3526 0.1016 -3.048
v -1.3526 0 -3.048
v -1.4542 0 -3.048
v 2.1914 0.1016 -3.048
v 2.0898 0.1016 -3.048
v 2.0898 0 -3.048
v 2.1914 0 -3.048
v 1.4542 0.1016 -3.048
v 1.3526 0.1016 -3.048
v 1.3526 0 -3.048
v 1.4542 0 -3.048
v -0.0508001 0.1016 -3.048
v 0.0508001 0.1016 -3.048
v 0.0508001 0 -3.048
v -0.0508001 0 -3.048
v 1.6372 2.8816 3.0734
v 1.6372 2.8816 -3.0734
v 0 3.2666 -3.0734
v 2.4544 2.0916 -3.0734
v 0 3.2666 3.0734
v 2.4544 2.0916 3.0734
vt -13.148 -1.9984
vt -13.148 -0.00840006
vt -9.6 0.4
vt -9.6 1.53662
vt -9.6 3.21848
vt -9.6 3.21848
vt -9.6 4.35511
vt -9.6 6.03697
vt -9.6 6.15197
vt -9.6 7.20029
vt -9.6 8.82404
vt -9.6 10.4478
vt -9.6 11.4961
vt -9.6 11.6111
vt -7.052 -1.9984
vt -7.052 -0.00840006
vt -6.748 -1.9984
vt -6.748 -0.00840006
vt -3.4532 0.4
vt -3.4532 1.53662
vt -3.4532 3.21848
vt -3.4532 3.21848
vt -3.4532 4.35511
vt -3.4532 6.03697
vt -3.4532 6.15197
vt -3.4532 7.20029
vt -3.4532 8.82404
vt -3.4532 10.4478
vt -3.4532 11.4961
vt -3.4532 11.6111
vt -3.09 2.9116
vt -3.0359 0.6016
vt -3.0359 2.5916
vt -3.015 2.9116
vt -2.43 3.7016
vt -2.375 0.6016
vt -2.375 3.3166
vt -2.375 3.6366
vt -0.95 0.6016
vt -0.95 3.6816
vt -0.95 4.0016
vt -0.95 4.0866
vt -0.652 -1.9984
vt -0.652 -0.00840006
vt 0.475 0.6016
vt 0.475 3.3166
vt 0.475 3.6366
vt 0.53 3.7016
vt 1.073 -7.45058e-010
vt 1.073 0.1016
vt 1.073 0.25
vt 1.073 0.3516
vt 1.115 2.9116
vt 1.1359 0.6016
vt 1.1359 2.5916
vt 1.1746 -7.45058e-010
vt 1.1746 0.1016
vt 1.1746 0.25
vt 1.1746 0.3516
vt 1.19 2.9116
vt 1.35 -2.35
vt 1.35 -0.3
vt 1.353 -7.45058e-010
vt 1.353 0.1016
vt 1.353 0.25
vt 1.353 0.3516
vt 1.3627 -2.35
vt 1.3627 -0.3
vt 1.4262 -2.35
vt 1.4262 -0.3
vt 1.4546 -7.45058e-010
vt 1.4546 0.1016
vt 1.4546 0.25
vt 1.4546 0.3516
vt 1.4897 -2.35
vt 1.4897 -0.3
vt 1.5024 -2.35
vt 1.5024 -0.3
vt 1.65 -2.35
vt 1.65 -0.3
vt 1.6627 -2.35
vt 1.6627 -0.3
vt 1.6992 -7.45058e-010
vt 1.6992 0.1016
vt 1.6992 0.25
vt 1.6992 0.3516
vt 1.7262 -2.35
vt 1.7262 -0.3
vt 1.76 2.9116
vt 1.7897 -2.35
vt 1.7897 -0.3
vt 1.8008 -7.45058e-010
vt 1.8008 0.1016
vt 1.8008 0.25
vt 1.8008 0.3516
vt 1.8024 -2.35
vt 1.8024 -0.3
vt 1.8141 0.6016
vt 1.8141 2.5916
vt 1.835 2.9116
vt 1.95 -2.35
vt 1.95 -0.3
vt 1.9627 -2.35
vt 1.9627 -0.3
vt 2.0262 -2.35
vt 2.0262 -0.3
vt 2.0454 -7.45058e-010
vt 2.0454 0.1016
vt 2.0454 0.25
vt 2.0454 0.3516
vt 2.0897 -2.35
vt 2.0897 -0.3
vt 2.1024 -2.35
vt 2.1024 -0.3
vt 2.147 -7.45058e-010
vt 2.147 0.1016
vt 2.147 0.25
vt 2.147 0.3516
vt 2.25 -2.35
vt 2.25 -0.3
vt 2.2627 -2.35
vt 2.2627 -0.3
vt 2.3254 -7.45058e-010
vt 2.3254 0.1016
vt 2.3254 0.25
vt 2.3254 0.3516
vt 2.3262 -2.35
vt 2.3262 -0.3
vt 2.3897 -2.35
vt 2.3897 -0.3
vt 2.4024 -2.35
vt 2.4024 -0.3
vt 2.42 3.7016
vt 2.427 -7.45058e-010
vt 2.427 0.1016
vt 2.427 0.25
vt 2.427 0.3516
vt 2.475 0.6016
vt 2.475 3.3166
vt 2.475 3.6366
vt 2.55 -3.2
vt 2.55 0.4576
vt 2.6516 -3.2
vt 2.6516 0.4576
vt 2.7532 -3.2
vt 2.7532 0.4576
vt 2.8548 -3.2
vt 2.8548 0.4576
vt 2.9564 -3.2
vt 2.9564 0.4576
vt 3.1 -3.2
vt 3.1 0.4576
vt 3.2016 -3.2
vt 3.2016 0.4576
vt 3.3032 -3.2
vt 3.3032 0.4576
vt 3.4048 -3.2
vt 3.4048 0.4576
vt 3.5064 -3.2
vt 3.5064 0.4576
vt 3.7 -3.2
vt 3.7 0.4576
vt 3.8016 -3.2
vt 3.8016 0.4576
vt 3.9 0.6016
vt 3.9 3.6816
vt 3.9 4.0016
vt 3.9 4.0866
vt 3.9032 -3.2
vt 3.9032 0.4576
vt 4.0048 -3.2
vt 4.0048 0.4576
vt 4.1064 -3.2
vt 4.1064 0.4576
vt 4.25 -3.2
vt 4.25 0.4576
vt 4.3516 -3.2
vt 4.3516 0.4576
vt 4.4532 -3.2
vt 4.4532 0.4576
vt 4.5548 -3.2
vt 4.5548 0.4576
vt 4.6564 -3.2
vt 4.6564 0.4576
vt 4.85 -3.2
vt 4.85 0.4576
vt 4.9516 -3.2
vt 4.9516 0.4576
vt 5.0532 -3.2
vt 5.0532 0.4576
vt 5.1548 -3.2
vt 5.1548 0.4576
vt 5.2564 -3.2
vt 5.2564 0.4576
vt 5.325 0.6016
vt 5.325 3.3166
vt 5.325 3.6366
vt 5.38 3.7016
vt 5.965 2.9116
vt 5.9859 0.6016
vt 5.9859 2.5916
vt 6.04 2.9116
vn -1 0 -0
vn -1 0 -0
vn -1 0 -0
vn -1 0 -0
vn -1 0 -0
vn -1 0 -0
vn 1 0 -0
vn 1 0 -0
vn 1 0 -0
vn 1 0 -0
vn 1 0 -0
vn 1 0 -0
vn 0 0 1
vn 0 0 1
vn 0 0 1
vn 0 0 1
vn 0 0 1
vn 0 0 1
vn 0 0 1
vn 0 0 1
vn 0 0 1
vn 0 0 1
vn 0 0 1
vn 0 0 1
vn 0 0 1
vn 0 0 1
vn 0 0 1
vn 0 0 1
vn 0 0 1
vn 0 0 1
vn 0 0 1
vn 0 0 1
vn 0 0 1
vn 0 0 1
vn 0 0 1
vn 0 0 1
vn 0 0 1
vn 0 0 1
vn 0 0 1
vn 0 0 1
vn 0 0 1
vn 0 0 1
vn 0 0 1
vn 0 0 1
vn 0 0 1
vn 0 0 1
vn 0 0 1
vn 0 0 1
vn 0 0 1
vn 0 0 1
vn 0 0 1
vn 0 0 1
vn 0 0 1
vn 0 0 1
vn 0 0 1
vn 0 0 1
vn 0 0 1
vn 0 0 1
vn 0 0 1
vn 0 0 1
vn 0 0 -1
vn 0 0 -1
vn 0 0 -1
vn 0 -0 -1
vn 0 -0 -1
vn 0 -0 -1
vn 0 0 -1
vn 0 0 -1
vn 0 0 -1
vn 0 -0 -1
vn 0 -0 -1
vn 0 -0 -1
vn 0 -0 -1
vn 0 -0 -1
vn 0 -0 -1
vn 0 0 -1
vn 0 0 -1
vn 0 0 -1
vn 0 -0 -1
vn 0 -0 -1
vn 0 -0 -1
vn 0 0 -1
vn 0 0 -1
vn 0 0 -1
vn 0 0 -1
vn 0 0 -1
vn 0 0 -1
vn 0 0 -1
vn 0 0 -1
vn 0 0 -1
vn 0 0 -1
vn 0 0 -1
vn 0 0 -1
vn 0 -0 -1
vn 0 -0 -1
vn 0 -0 -1
vn 0 0 -1
vn 0 0 -1
vn 0 0 -1
vn 0 -0 -1
vn 0 -0 -1
vn 0 -0 -1
vn 0 0 -1
vn 0 0 -1
vn 0 0 -1
vn 0 0 -1
vn 0 0 -1
vn 0 0 -1
vn -1 0 -0
vn -1 0 -0
vn -1 0 -0
vn -1 0 -0
vn -1 0 -0
vn -1 0 -0
vn 0 0 1
vn 0 0 1
vn 0 0 1
vn 0 0 1
vn 0 0 1
vn 0 0 1
vn 1 0 -0
vn 1 0 -0
vn 1 0 -0
vn 1 -0 -0
vn 1 -0 -0
vn 1 -0 -0
vn 0 0 -1
vn 0 0 -1
vn 0 0 -1
vn 0 0 -1
vn 0 0 -1
vn 0 0 -1
vn 0 0 1
vn 0 0 1
vn 0 0 1
vn 0 0 1
vn 0 0 1
vn 0 0 1
vn 1 0 -0
vn 1 0 -0
vn 1 0 -0
vn 1 0 -0
vn 1 0 -0
vn 1 0 -0
vn 0 0 -1
vn 0 0 -1
vn 0 0 -1
vn 0 -0 -1
vn 0 -0 -1
vn 0 -0 -1
vn -1 0 -0
vn -1 0 -0
vn -1 0 -0
vn -1 0 -0
vn -1 0 -0
vn -1 0 -0
vn 1 0 -0
vn 1 0 -0
vn 1 0 -0
vn 1 0 -0
vn 1 0 -0
vn 1 0 -0
vn 0 -0 -1
vn 0 -0 -1
vn 0 -0 -1
vn 0 0 -1
vn 0 0 -1
vn 0 0 -1
vn -1 0 -0
vn -1 0 -0
vn -1 0 -0
vn -1 0 -0
vn -1 0 -0
vn -1 0 -0
vn 0 0 1
vn 0 0 1
vn 0 0 1
vn 0 0 1
vn 0 0 1
vn 0 0 1
vn 0 0 -1
vn 0 0 -1
vn 0 0 -1
vn 0 -0 -1
vn 0 -0 -1
vn 0 -0 -1
vn -1 0 -0
vn -1 0 -0
vn -1 0 -0
vn -1 0 -0
vn -1 0 -0
vn -1 0 -0
vn 0 0 1
vn 0 0 1
vn 0 0 1
vn 0 0 1
vn 0 0 1
vn 0 0 1
vn 1 0 -0
vn 1 0 -0
vn 1 0 -0
vn 1 0 -0
vn 1 0 -0
vn 1 0 -0
vn 0 0 1
vn 0 0 1
vn 0 0 1
vn 0 0 1
vn 0 0 1
vn 0 0 1
vn 0 0 1
vn 0 0 1
vn 0 0 1
vn 0 0 1
vn 0 0 1
vn 0 0 1
vn 0 0 1
vn 0 0 1
vn 0 0 1
vn 0 0 1
vn 0 0 1
vn 0 0 1
vn 0 0 1
vn 0 0 1
vn 0 0 1
vn 0 0 1
vn 0 0 1
vn 0 0 1
vn 0 0 1
vn 0 0 1
vn 0 0 1
vn 0 0 1
vn 0 0 1
vn 0 0 1
vn 0 -0 -1
vn 0 -0 -1
vn 0 -0 -1
vn 0 0 -1
vn 0 0 -1
vn 0 0 -1
vn 0 -0 -1
vn 0 -0 -1
vn 0 -0 -1
vn 0 0 -1
vn 0 0 -1
vn 0 0 -1
vn 0 0 -1
vn 0 0 -1
vn 0 0 -1
vn 0 -0 -1
vn 0 -0 -1
vn 0 -0 -1
vn 0 0 -1
vn 0 0 -1
vn 0 0 -1
vn 0 -0 -1
vn 0 -0 -1
vn 0 -0 -1
vn 0 -0 -1
vn 0 -0 -1
vn 0 -0 -1
vn 0 0 -1
vn 0 0 -1
vn 0 0 -1
vn -1 0 -0
vn -1 0 -0
vn -1 0 -0
vn -1 0 -0
vn -1 0 -0
vn -1 0 -0
vn 0 1 -0
vn 0 1 -0
vn 0 1 -0
vn 0 1 0
vn 0 1 0
vn 0 1 0
vn 1 0 -0
vn 1 0 -0
vn 1 0 -0
vn 1 0 -0
vn 1 0 -0
vn 1 0 -0
vn 0 -1 -0
vn 0 -1 -0
vn 0 -1 -0
vn 0 -1 -0
vn 0 -1 -0
vn 0 -1 -0
vn -1 0 -0
vn -1 0 -0
vn -1 0 -0
vn -1 0 -0
vn -1 0 -0
vn -1 0 -0
vn 0 1 -0
vn 0 1 -0
vn 0 1 -0
vn 0 1 0
vn 0 1 0
vn 0 1 0
vn 1 0 -0
vn 1 0 -0
vn 1 0 -0
vn 1 0 -0
vn 1 0 -0
vn 1 0 -0
vn 0 -1 -0
vn 0 -1 -0
vn 0 -1 -0
vn 0 -1 -0
vn 0 -1 -0
vn 0 -1 -0
vn -1 0 -0
vn -1 0 -0
vn -1 0 -0
vn -1 0 -0
vn -1 0 -0
vn -1 0 -0
vn 0 1 -0
vn 0 1 -0
vn 0 1 -0
vn 0 1 0
vn 0 1 0
vn 0 1 0
vn 1 0 -0
vn 1 0 -0
vn 1 0 -0
vn 1 0 -0
vn 1 0 -0
vn 1 0 -0
vn 0 -1 -0
vn 0 -1 -0
vn 0 -1 -0
vn 0 -1 -0
vn 0 -1 -0
vn 0 -1 -0
vn -1 0 -0
vn -1 0 -0
vn -1 0 -0
vn -1 0 -0
vn -1 0 -0
vn -1 0 -0
vn 0 1 -0
vn 0 1 -0
vn 0 1 -0
vn 0 1 0
vn 0 1 0
vn 0 1 0
vn 1 0 -0
vn 1 0 -0
vn 1 0 -0
vn 1 0 -0
vn 1 0 -0
vn 1 0 -0
vn 0 -1 -0
vn 0 -1 -0
vn 0 -1 -0
vn 0 -1 -0
vn 0 -1 -0
vn 0 -1 -0
vn -1 0 -0
vn -1 0 -0
vn -1 0 -0
vn -1 0 -0
vn -1 0 -0
vn -1 0 -0
vn 0 1 -0
vn 0 1 -0
vn 0 1 -0
vn 0 1 0
vn 0 1 0
vn 0 1 0
vn 1 0 -0
vn 1 0 -0
vn 1 0 -0
vn 1 0 -0
vn 1 0 -0
vn 1 0 -0
vn 0 -1 -0
vn 0 -1 -0
vn 0 -1 -0
vn 0 -1 -0
vn 0 -1 -0
vn 0 -1 -0
vn -0.69504 0.718971 -0
vn -0.69504 0.718971 -0
vn -0.69504 0.718971 -0
vn -0.69504 0.718971 -0
vn -0.69504 0.718971 -0
vn -0.69504 0.718971 -0
vn -0.228913 0.973447 -0
vn -0.228913 0.973447 -0
vn -0.228913 0.973447 -0
vn -0.228913 0.973447 -0
vn -0.228913 0.973447 -0
vn -0.228913 0.973447 -0
vn 0 -1 -0
vn 0 -1 -0
vn 0 -1 -0
vn 0 -1 -0
vn 0 -1 -0
vn 0 -1 -0
vn -0.691582 -0.722298 -0
vn -0.691582 -0.722298 -0
vn -0.691582 -0.722298 -0
vn -0.691582 -0.722298 -0
vn -0.691582 -0.722298 -0
vn -0.691582 -0.722298 -0
vn -0.224788 -0.974408 -0
vn -0.224788 -0.974408 -0
vn -0.224788 -0.974408 -0
vn -0.224788 -0.974408 -0
vn -0.224788 -0.974408 -0
vn -0.224788 -0.974408 -0
vn 0.224788 -0.974408 -0
vn 0.224788 -0.974408 -0
vn 0.224788 -0.974408 -0
vn 0.224788 -0.974408 -0
vn 0.224788 -0.974408 -0
vn 0.224788 -0.974408 -0
vn 0.691582 -0.722298 -0
vn 0.691582 -0.722298 -0
vn 0.691582 -0.722298 -0
vn 0.691582 -0.722298 -0
vn 0.691582 -0.722298 -0
vn 0.691582 -0.722298 -0
vn 0 -1 -0
vn 0 -1 -0
vn 0 -1 -0
vn 0 -1 -0
vn 0 -1 -0
vn 0 -1 -0
vn 0.228913 0.973447 0
vn 0.228913 0.973447 0
vn 0.228913 0.973447 0
vn 0.228913 0.973447 -0
vn 0.228913 0.973447 -0
vn 0.228913 0.973447 -0
vn 0.69504 0.718971 0
vn 0.69504 0.718971 0
vn 0.69504 0.718971 0
vn 0.69504 0.718971 -0
vn 0.69504 0.718971 -0
vn 0.69504 0.718971 -0
g Shed
usemtl Shed
s off
f 62/2/1 56/15/2 60/1/3
f 62/2/4 57/16/5 56/15/6
f 55/43/7 58/44/8 59/17/9
f 58/44/10 61/18/11 59/17/12
g Sides
usemtl Sides
s off
f 111/42/13 109/35/14 108/38/15
f 112/41/16 111/42/17 108/38/18
f 109/35/19 110/31/20 107/34/21
f 108/38/22 109/35/23 107/34/24
f 111/42/25 112/41/26 104/47/27
f 105/48/28 111/42/29 104/47/30
f 105/48/31 104/47/32 103/53/33
f 106/60/34 105/48/35 103/53/36
g Shed
usemtl Shed
s off
f 113/54/37 115/55/38 121/45/39
f 115/55/40 122/46/41 121/45/42
f 121/45/43 122/46/44 117/39/45
f 122/46/46 118/40/47 117/39/48
f 120/37/49 119/36/50 117/39/51
f 118/40/52 120/37/53 117/39/54
f 116/33/55 114/32/56 119/36/57
f 120/37/58 116/33/59 119/36/60
g Sides
usemtl Sides
s off
f 132/168/61 131/167/62 128/140/63
f 129/133/64 132/168/65 128/140/66
f 129/133/67 128/140/68 127/100/69
f 130/89/70 129/133/71 127/100/72
f 132/168/73 125/198/74 126/197/75
f 131/167/76 132/168/77 126/197/78
f 125/198/79 124/202/80 123/199/81
f 126/197/82 125/198/83 123/199/84
g Shed
usemtl Shed
s off
f 136/201/85 133/200/86 139/195/87
f 140/196/88 136/201/89 139/195/90
f 134/98/91 135/99/92 141/138/93
f 135/99/94 142/139/95 141/138/96
f 141/138/97 142/139/98 137/165/99
f 142/139/100 138/166/101 137/165/102
f 140/196/103 139/195/104 137/165/105
f 138/166/106 140/196/107 137/165/108
g Trim
usemtl Trim
s off
f 38/82/109 54/80/110 53/79/111
f 38/82/112 53/79/113 34/81/114
f 35/87/115 38/82/116 34/81/117
f 37/88/118 38/82/119 35/87/120
f 33/90/121 37/88/122 35/87/123
f 36/91/124 37/88/125 33/90/126
f 36/91/127 33/90/128 49/96/129
f 50/97/130 36/91/131 49/96/132
f 21/103/133 24/104/134 48/101/135
f 24/104/136 47/102/137 48/101/138
f 23/105/139 25/106/140 21/103/141
f 25/106/142 24/104/143 21/103/144
f 26/112/145 23/105/146 22/111/147
f 26/112/148 25/106/149 23/105/150
f 46/114/151 22/111/152 45/113/153
f 46/114/154 26/112/155 22/111/156
f 20/122/157 43/120/158 44/119/159
f 16/121/160 20/122/161 44/119/162
f 17/127/163 20/122/164 16/121/165
f 19/128/166 20/122/167 17/127/168
f 19/128/169 17/127/170 15/129/171
f 18/130/172 19/128/173 15/129/174
f 18/130/175 15/129/176 39/131/177
f 40/132/178 18/130/179 39/131/180
f 27/67/181 30/68/182 42/61/183
f 30/68/184 41/62/185 42/61/186
f 31/70/187 27/67/188 29/69/189
f 31/70/190 30/68/191 27/67/192
f 32/76/193 29/69/194 28/75/195
f 32/76/196 31/70/197 29/69/198
f 52/77/199 51/78/200 28/75/201
f 51/78/202 32/76/203 28/75/204
g Floor
usemtl Floor
s off
f 144/59/205 143/52/206 145/51/207
f 144/59/208 145/51/209 146/58/210
f 148/74/211 147/66/212 149/65/213
f 148/74/214 149/65/215 150/73/216
f 153/136/217 151/137/218 154/125/219
f 151/137/220 152/126/221 154/125/222
f 157/117/223 155/118/224 158/109/225
f 155/118/226 156/110/227 158/109/228
f 160/95/229 159/86/230 161/85/231
f 160/95/232 161/85/233 162/94/234
f 163/50/235 164/57/236 165/56/237
f 166/49/238 163/50/239 165/56/240
f 167/64/241 168/72/242 169/71/243
f 170/63/244 167/64/245 169/71/246
f 172/124/247 174/134/248 173/123/249
f 172/124/250 171/135/251 174/134/252
f 176/108/253 178/115/254 177/107/255
f 176/108/256 175/116/257 178/115/258
f 179/84/259 180/93/260 181/92/261
f 179/84/262 181/92/263 182/83/264
f 63/153/265 64/154/266 70/152/267
f 63/153/268 70/152/269 67/151/270
f 64/154/271 63/153/272 66/155/273
f 65/156/274 64/154/275 66/155/276
f 65/156/277 66/155/278 68/157/279
f 69/158/280 65/156/281 68/157/282
f 67/159/283 70/160/284 68/157/285
f 70/160/286 69/158/287 68/157/288
f 71/163/289 72/164/290 78/162/291
f 71/163/292 78/162/293 75/161/294
f 72/164/295 71/163/296 74/169/297
f 73/170/298 72/164/299 74/169/300
f 73/170/301 74/169/302 76/171/303
f 77/172/304 73/170/305 76/171/306
f 75/173/307 78/174/308 76/171/309
f 78/174/310 77/172/311 76/171/312
f 95/143/313 96/144/314 102/142/315
f 95/143/316 102/142/317 99/141/318
f 96/144/319 95/143/320 98/145/321
f 97/146/322 96/144/323 98/145/324
f 97/146/325 98/145/326 100/147/327
f 101/148/328 97/146/329 100/147/330
f 102/150/331 100/147/332 99/149/333
f 102/150/334 101/148/335 100/147/336
f 90/177/337 93/176/338 92/175/339
f 90/177/340 89/178/341 93/176/342
f 87/179/343 89/178/344 90/177/345
f 88/180/346 89/178/347 87/179/348
f 94/182/349 88/180/350 91/181/351
f 88/180/352 87/179/353 91/181/354
f 93/184/355 94/182/356 91/181/357
f 93/184/358 91/181/359 92/183/360
f 82/187/361 85/186/362 84/185/363
f 82/187/364 81/188/365 85/186/366
f 79/189/367 81/188/368 82/187/369
f 80/190/370 81/188/371 79/189/372
f 86/192/373 80/190/374 83/191/375
f 80/190/376 79/189/377 83/191/378
f 85/194/379 86/192/380 83/191/381
f 85/194/382 83/191/383 84/193/384
g Roof
usemtl Roof
s off
f 5/20/385 11/4/386 6/19/387
f 11/4/388 12/3/389 6/19/390
f 187/21/391 185/5/392 5/20/393
f 185/5/394 11/4/395 5/20/396
g Sides
usemtl Sides
s off
f 7/9/397 188/24/398 1/25/399
f 7/9/400 186/8/401 188/24/402
g Shed
usemtl Shed
s off
f 2/26/403 8/10/404 1/25/405
f 8/10/406 7/9/407 1/25/408
f 14/27/409 13/11/410 2/26/411
f 13/11/412 8/10/413 2/26/414
f 10/12/415 14/27/416 4/28/417
f 13/11/418 14/27/419 10/12/420
f 9/13/421 4/28/422 3/29/423
f 10/12/424 4/28/425 9/13/426
g Sides
usemtl Sides
s off
f 6/30/427 12/14/428 3/29/429
f 12/14/430 9/13/431 3/29/432
g Roof
usemtl Roof
s off
f 184/23/433 187/8/434 183/7/435
f 185/24/436 187/8/437 184/23/438
f 186/22/439 183/7/440 188/6/441
f 184/23/442 183/7/443 186/22/444
