####
#
#	OBJ File Generated by LightWave3D
#	LightWave3D OBJ Export v2.3
#
####
o Quaker Sheds_6in_Overhang_12ft.obj
mtllib Quaker Sheds_6in_Overhang_12ft.mtl
g default
v -1.78816 2.6346 0.26976
v -1.78816 2.18604 1.94209
v -1.78816 2.30331 1.94209
v -1.78816 2.7436 0.27
v -1.9396 2.1596 2.0046
v -1.78816 2.2756 2.0046
v -1.9396 2.30331 1.94209
v -1.9396 2.2756 2.0046
v -1.78816 2.1596 2.0046
v -1.78816 1.8316 1.7211
v -1.78816 1.8316 1.6446
v -1.9396 2.18604 1.94209
v -1.9396 1.8316 1.6446
v -1.9396 1.8316 1.7211
v -1.9396 2.7436 0.27
v -1.9396 2.6346 0.26976
v -1.78816 2.0516 -2.0046
v -1.9396 2.0516 -2.0046
v -1.78816 2.0166 -1.81458
v -1.78816 1.9316 -1.81458
v -1.78816 1.9316 -2.0046
v -1.9396 1.9316 -1.81458
v -1.9396 1.9316 -2.0046
v -1.9396 2.0166 -1.81458
v -1.81102 1.8316 1.6446
v -1.81102 1.8316 1.7211
v -1.81102 2.1596 2.0046
v -1.81102 2.2756 2.0046
v -1.81102 2.30331 1.94209
v -1.81102 2.7436 0.27
v -1.81102 2.0516 -2.0046
v -1.81102 1.9316 -2.0046
v -1.81102 1.9316 -1.81458
v -1.81102 2.0166 -1.81458
v -1.81102 2.6346 0.26976
v -1.81102 2.18604 1.94209
v -1.9396 2.1871 1.94209
v -1.9396 2.1596 2.0046
v -1.9396 2.30331 1.94209
v -1.9396 2.2756 2.0046
v -1.9396 2.18604 1.94209
v -1.9396 1.8316 1.6446
v -1.9396 1.8316 1.7211
v -1.9396 2.7436 0.27
v -1.9396 2.6346 0.26976
v -1.9396 2.0516 -2.0046
v -1.9396 1.9316 -1.81458
v -1.9396 1.9316 -2.0046
v -1.9396 2.0166 -1.81458
v -1.78816 1.8316 1.6446
v -1.78816 2.1871 1.94209
v -1.78816 2.32492 1.61556
v -1.78816 1.96942 1.31807
v -1.78816 2.1596 2.0046
v -1.78816 1.8316 1.7211
v -1.78816 1.8316 1.6446
v -1.78816 2.1871 1.94209
v -1.9396 2.1871 1.94209
v -1.81102 2.1871 1.94209
vt -4.1 0.1
vt -4.1 0.563547
vt -4.1 0.7
vt -4.1 0.7765
vt -4.1 1.21004
vt -4.1 1.32604
vt -4.1 1.39442
vt -4.1 2.54452
vt -4.1 4.3476
vt -4.1 4.4676
vt -4.1 4.65762
vt -4.1 4.74262
vt -4.1 6.34161
vt -4.1 7.49512
vt -4.05142 0.1
vt -4.05142 0.563547
vt -4.05142 0.7
vt -4.05142 0.7765
vt -4.05142 1.21004
vt -4.05142 1.32604
vt -4.05142 1.39442
vt -4.05142 2.54452
vt -4.05142 4.3476
vt -4.05142 4.4676
vt -4.05142 4.65762
vt -4.05142 4.74262
vt -4.05142 6.34161
vt -4.05142 7.49512
vt -4.02856 0.7
vt -4.02856 0.7765
vt -4.02856 1.21004
vt -4.02856 1.32604
vt -4.02856 1.39442
vt -4.02856 2.54452
vt -4.02856 4.3476
vt -4.02856 4.4676
vt -4.02856 4.65762
vt -4.02856 4.74262
vt -4.02856 6.34161
vt -4.02856 7.49512
vt -3.83249 7.5871
vt -3.745 6.8096
vt -3.68249 6.8371
vt -3.535 7.2316
vt -3.50596 7.72492
vt -3.4615 6.4816
vt -3.385 6.4816
vt -3.20847 7.36942
vt 1.505 2.6596
vt 1.505 2.7756
vt 1.56751 2.68604
vt 1.56751 2.6871
vt 1.56751 2.80331
vt 1.7885 2.3316
vt 1.865 2.3316
vt 3.23 3.2436
vt 3.23024 3.1346
vt 5.30498 2.4316
vt 5.30498 2.5166
vt 5.495 2.4316
vt 5.495 2.5516
vn -1 0 -0
vn -1 0 -0
vn -1 0 -0
vn -1 0 -0
vn -1 0 -0
vn -1 0 -0
vn -1 0 -0
vn -1 0 -0
vn -1 0 -0
vn -1 0 -0
vn -1 0 -0
vn -1 0 -0
vn -1 0 -0
vn -1 0 -0
vn -1 0 -0
vn -1 0 -0
vn -1 0 -0
vn -1 0 -0
vn -1 0 -0
vn -1 0 -0
vn -1 0 -0
vn -1 0 -0
vn -1 0 -0
vn -1 0 -0
vn -1 0 -0
vn -1 0 -0
vn -1 0 -0
vn -1 0 -0
vn -1 0 -0
vn -1 0 -0
vn 1 -0 -0
vn 1 -0 -0
vn 1 -0 -0
vn 1 0 -0
vn 1 0 -0
vn 1 0 -0
vn 1 0 -0
vn 1 0 -0
vn 1 0 -0
vn 1 -0 -0
vn 1 -0 -0
vn 1 -0 -0
vn 0 -1 -0
vn 0 -1 -0
vn 0 -1 -0
vn 0 -1 -0
vn 0 -1 -0
vn 0 -1 -0
vn -0 -0.65392 0.756564
vn -0 -0.65392 0.756564
vn -0 -0.65392 0.756564
vn 0 -0.65392 0.756564
vn 0 -0.65392 0.756564
vn 0 -0.65392 0.756564
vn 0 0 1
vn 0 0 1
vn 0 0 1
vn 0 0 1
vn 0 0 1
vn 0 0 1
vn 0 0.914203 0.405256
vn 0 0.914203 0.405256
vn 0 0.914203 0.405256
vn 0 0.914203 0.405256
vn 0 0.914203 0.405256
vn 0 0.914203 0.405256
vn 0 0.967037 0.254637
vn 0 0.967037 0.254637
vn 0 0.967037 0.254637
vn 0 0.967037 0.254637
vn 0 0.967037 0.254637
vn 0 0.967037 0.254637
vn 0 0.956706 -0.291058
vn 0 0.956706 -0.291058
vn 0 0.956706 -0.291058
vn 0 0.956706 -0.291058
vn 0 0.956706 -0.291058
vn 0 0.956706 -0.291058
vn 0 -0 -1
vn 0 -0 -1
vn 0 -0 -1
vn 0 0 -1
vn 0 0 -1
vn 0 0 -1
vn 0 -1 -0
vn 0 -1 -0
vn 0 -1 -0
vn 0 -1 -0
vn 0 -1 -0
vn 0 -1 -0
vn 0 0 1
vn 0 0 1
vn 0 0 1
vn 0 0 1
vn 0 0 1
vn 0 0 1
vn -0 -0.958746 0.284265
vn -0 -0.958746 0.284265
vn -0 -0.958746 0.284265
vn 0 -0.958746 0.284265
vn 0 -0.958746 0.284265
vn 0 -0.958746 0.284265
vn 0 -0.965859 -0.259067
vn 0 -0.965859 -0.259067
vn 0 -0.965859 -0.259067
vn 0 -0.965859 -0.259067
vn 0 -0.965859 -0.259067
vn 0 -0.965859 -0.259067
vn 0 -1 -0
vn 0 -1 -0
vn 0 -1 -0
vn 0 -1 -0
vn 0 -1 -0
vn 0 -1 -0
vn -0 -0.65392 0.756564
vn -0 -0.65392 0.756564
vn -0 -0.65392 0.756564
vn 0 -0.65392 0.756564
vn 0 -0.65392 0.756564
vn 0 -0.65392 0.756564
vn 0 0 1
vn 0 0 1
vn 0 0 1
vn 0 0 1
vn 0 0 1
vn 0 0 1
vn 0 0.914203 0.405256
vn 0 0.914203 0.405256
vn 0 0.914203 0.405256
vn 0 0.914203 0.405256
vn 0 0.914203 0.405256
vn 0 0.914203 0.405256
vn 0 0.967037 0.254637
vn 0 0.967037 0.254637
vn 0 0.967037 0.254637
vn 0 0.967037 0.254637
vn 0 0.967037 0.254637
vn 0 0.967037 0.254637
vn 0 0.956705 -0.291058
vn 0 0.956705 -0.291058
vn 0 0.956705 -0.291058
vn 0 0.956705 -0.291058
vn 0 0.956705 -0.291058
vn 0 0.956705 -0.291058
vn 0 -0 -1
vn 0 -0 -1
vn 0 -0 -1
vn 0 0 -1
vn 0 0 -1
vn 0 0 -1
vn 0 -1 -0
vn 0 -1 -0
vn 0 -1 -0
vn 0 -1 -0
vn 0 -1 -0
vn 0 -1 -0
vn 0 0 1
vn 0 0 1
vn 0 0 1
vn 0 0 1
vn 0 0 1
vn 0 0 1
vn -0 -0.958746 0.284265
vn -0 -0.958746 0.284265
vn -0 -0.958746 0.284265
vn 0 -0.958746 0.284265
vn 0 -0.958746 0.284265
vn 0 -0.958746 0.284265
vn 0 -0.965859 -0.259067
vn 0 -0.965859 -0.259067
vn 0 -0.965859 -0.259067
vn 0 -0.965859 -0.259067
vn 0 -0.965859 -0.259067
vn 0 -0.965859 -0.259067
vn 0 0.641762 -0.766904
vn 0 0.641762 -0.766904
vn 0 0.641762 -0.766904
vn 0 0.641762 -0.766904
vn 0 0.641762 -0.766904
vn 0 0.641762 -0.766904
g Sides
usemtl Sides
s off
f 49/59/1 48/60/2 47/58/3
f 49/59/4 46/61/5 48/60/6
f 44/56/7 46/61/8 49/59/9
f 45/57/10 44/56/11 49/59/12
f 44/56/13 45/57/14 39/53/15
f 39/53/16 45/57/17 41/51/18
f 40/50/19 39/53/20 41/51/21
f 40/50/22 41/51/23 38/49/24
f 37/52/25 42/55/26 43/54/27
f 38/49/28 37/52/29 43/54/30
f 52/45/31 51/41/32 50/44/33
f 53/48/34 52/45/35 50/44/36
f 57/43/37 54/42/38 55/46/39
f 56/47/40 57/43/41 55/46/42
f 13/3/43 25/17/44 26/18/45
f 14/4/46 13/3/47 26/18/48
f 27/19/49 14/4/50 26/18/51
f 27/19/52 5/5/53 14/4/54
f 28/20/55 5/5/56 27/19/57
f 28/20/58 8/6/59 5/5/60
g Roof
usemtl Roof
s off
f 29/21/61 8/6/62 28/20/63
f 29/21/64 7/7/65 8/6/66
f 30/22/67 7/7/68 29/21/69
f 30/22/70 15/8/71 7/7/72
f 15/8/73 30/22/74 31/23/75
f 18/9/76 15/8/77 31/23/78
g Sides
usemtl Sides
s off
f 18/9/79 31/23/80 32/24/81
f 23/10/82 18/9/83 32/24/84
f 23/10/85 32/24/86 33/25/87
f 22/11/88 23/10/89 33/25/90
g Shed
usemtl Shed
s off
f 34/26/91 22/11/92 33/25/93
f 34/26/94 24/12/95 22/11/96
f 35/27/97 24/12/98 34/26/99
f 35/27/100 16/13/101 24/12/102
f 16/13/103 35/27/104 36/28/105
f 12/14/106 16/13/107 36/28/108
g Sides
usemtl Sides
s off
f 25/17/109 11/29/110 10/30/111
f 26/18/112 25/17/113 10/30/114
f 9/31/115 26/18/116 10/30/117
f 9/31/118 27/19/119 26/18/120
f 6/32/121 27/19/122 9/31/123
f 6/32/124 28/20/125 27/19/126
g Roof
usemtl Roof
s off
f 3/33/127 28/20/128 6/32/129
f 3/33/130 29/21/131 28/20/132
f 4/34/133 29/21/134 3/33/135
f 4/34/136 30/22/137 29/21/138
f 30/22/139 4/34/140 17/35/141
f 31/23/142 30/22/143 17/35/144
g Sides
usemtl Sides
s off
f 31/23/145 17/35/146 21/36/147
f 32/24/148 31/23/149 21/36/150
f 32/24/151 21/36/152 20/37/153
f 33/25/154 32/24/155 20/37/156
g Shed
usemtl Shed
s off
f 19/38/157 33/25/158 20/37/159
f 19/38/160 34/26/161 33/25/162
f 1/39/163 34/26/164 19/38/165
f 1/39/166 35/27/167 34/26/168
f 35/27/169 1/39/170 2/40/171
f 36/28/172 35/27/173 2/40/174
g Sides
usemtl Sides
s off
f 58/16/175 59/2/176 25/1/177
f 13/15/178 58/16/179 25/1/180
