# Blender v2.79 (sub 0) OBJ File: ''
# www.blender.org
mtllib Quaker Sheds_6in_Overhang_10ft_2.mtl
o Shed.009
v 0.022759 2.016600 -1.509780
v 0.022759 1.931600 -1.509780
v 0.151339 1.931600 -1.509780
v 0.151339 2.016600 -1.509780
v 0.022759 2.634600 0.269760
v 0.151339 2.634600 0.269760
v 0.022759 2.186040 1.637290
v 0.151339 2.186040 1.637290
v -0.000101 2.016600 -1.509780
v -0.000101 1.931600 -1.509780
v -0.000101 2.634600 0.269760
v -0.000101 2.186040 1.637290
vt -4.051420 4.742620
vt -4.051420 4.657620
vt -4.100000 4.657620
vt -4.100000 4.742620
vt -4.051420 6.341610
vt -4.100000 6.341610
vt -4.051420 7.495120
vt -4.100000 7.495120
vt -4.028560 4.742620
vt -4.028560 4.657620
vt -4.028560 6.341610
vt -4.028560 7.495120
vn 0.0000 0.0000 1.0000
vn 0.0000 -0.9447 0.3281
vn 0.0000 -0.9502 -0.3117
usemtl Shed.009
s 1
f 1/1/1 2/2/1 3/3/1
f 1/1/1 3/3/1 4/4/1
f 5/5/2 1/1/2 4/4/2
f 5/5/2 4/4/2 6/6/2
f 6/6/3 7/7/3 5/5/3
f 8/8/3 7/7/3 6/6/3
f 9/9/1 10/10/1 2/2/1
f 9/9/1 2/2/1 1/1/1
f 11/11/2 9/9/2 1/1/2
f 11/11/2 1/1/2 5/5/2
f 5/5/3 12/12/3 11/11/3
f 7/7/3 12/12/3 5/5/3
o Sides.009
v 0.151339 2.016600 -1.509780
v 0.151339 1.931600 -1.509780
v 0.151339 1.931600 -1.699800
v 0.151339 2.051600 -1.699800
v 0.151339 2.743600 0.270000
v 0.151339 2.634600 0.269760
v 0.151339 2.303310 1.637290
v 0.151339 2.186040 1.637290
v 0.151339 2.275600 1.699800
v 0.151339 2.159600 1.699800
v 0.151339 2.187100 1.637290
v 0.151339 2.158587 1.698362
v 0.151339 2.183598 1.639627
v 0.151339 2.183598 1.639627
v 0.022759 2.158587 1.698362
v 0.022759 2.183598 1.639627
v 0.151339 2.158587 1.698362
v 0.022759 2.159600 1.699800
v 0.151339 2.159600 1.699800
v 0.022759 2.275600 1.699800
v 0.151339 2.275600 1.699800
v 0.151339 2.051600 -1.699800
v 0.022759 1.931600 -1.699800
v 0.022759 2.051600 -1.699800
v 0.151339 1.931600 -1.699800
v 0.022759 1.931600 -1.509780
v 0.151339 1.931600 -1.509780
v -0.000101 2.158587 1.698362
v -0.000101 2.183598 1.639627
v -0.000101 2.159600 1.699800
v -0.000101 2.275600 1.699800
v -0.000101 1.931600 -1.699800
v -0.000101 2.051600 -1.699800
v -0.000101 1.931600 -1.509780
v 0.151339 2.187100 1.637290
v 0.022759 2.187100 1.637290
vt 3.204980 2.516600
vt 3.204980 2.431600
vt 3.395000 2.431600
vt 3.395000 2.551600
vt 1.430000 3.243600
vt 1.430240 3.134600
vt 0.067513 2.803310
vt 0.067513 2.686040
vt 0.005000 2.775600
vt 0.005000 2.659600
vt 0.067513 2.687100
vt 0.288500 2.331600
vt 0.365000 2.331600
vt -4.100000 0.700000
vt -4.051420 0.776500
vt -4.051420 0.700000
vt -4.100000 0.776500
vt -4.051420 1.210040
vt -4.100000 1.210040
vt -4.051420 1.326040
vt -4.100000 1.326040
vt -4.100000 4.347600
vt -4.051420 4.467600
vt -4.051420 4.347600
vt -4.100000 4.467600
vt -4.051420 4.657620
vt -4.100000 4.657620
vt -4.028560 0.776500
vt -4.028560 0.700000
vt -4.028560 1.210040
vt -4.028560 1.326040
vt -4.028560 4.467600
vt -4.028560 4.347600
vt -4.028560 4.657620
vt -4.051420 0.563547
vt -4.100000 0.100000
vt -4.100000 0.563547
vt -4.051420 0.100000
vn 1.0000 0.0000 0.0000
vn 0.0000 -0.9201 -0.3918
vn 0.0000 -0.8176 0.5758
vn 0.0000 0.0000 1.0000
vn 0.0000 0.0000 -1.0000
vn 0.0000 -1.0000 0.0000
vn 0.0000 -0.5551 -0.8318
usemtl Sides.009
s 1
f 13/13/4 14/14/4 15/15/4
f 13/13/4 15/15/4 16/16/4
f 17/17/4 13/13/4 16/16/4
f 18/18/4 13/13/4 17/17/4
f 17/17/4 19/19/4 18/18/4
f 19/19/4 20/20/4 18/18/4
f 21/21/4 20/20/4 19/19/4
f 21/21/4 22/22/4 20/20/4
f 23/23/4 24/24/4 25/25/4
f 22/22/4 24/24/4 23/23/4
f 26/26/5 27/27/5 28/28/5
f 29/29/5 27/27/5 26/26/5
f 30/30/6 27/27/6 29/29/6
f 30/30/6 29/29/6 31/31/6
f 32/32/7 30/30/7 31/31/7
f 32/32/7 31/31/7 33/33/7
f 34/34/8 35/35/8 36/36/8
f 37/37/8 35/35/8 34/34/8
f 37/37/9 38/38/9 35/35/9
f 39/39/9 38/38/9 37/37/9
f 28/28/5 40/40/5 41/41/5
f 27/27/5 40/40/5 28/28/5
f 42/42/6 40/40/6 27/27/6
f 42/42/6 27/27/6 30/30/6
f 43/43/7 42/42/7 30/30/7
f 43/43/7 30/30/7 32/32/7
f 36/36/8 44/44/8 45/45/8
f 35/35/8 44/44/8 36/36/8
f 35/35/9 46/46/9 44/44/9
f 38/38/9 46/46/9 35/35/9
f 47/47/10 28/48/10 48/49/10
f 26/50/10 28/48/10 47/47/10
