# Blender v2.79 (sub 0) OBJ File: ''
# www.blender.org
mtllib Quaker Sheds_6in_Overhang_v002.mtl
o Sides
v 0.026546 2.185684 1.332758
v 0.003686 2.185684 1.332758
v 0.003686 2.159376 1.394265
v 0.026546 2.159376 1.394265
v 0.156406 2.185684 1.332758
v 0.156406 2.159376 1.394265
v 0.003686 2.275600 1.395000
v 0.026546 2.159600 1.395000
v 0.003686 2.159600 1.395000
v 0.026546 2.275600 1.395000
v 0.156406 2.159600 1.395000
v 0.156406 2.275600 1.395000
v 0.026546 1.931600 -1.395000
v 0.003686 1.931600 -1.395000
v 0.003686 1.931600 -1.204980
v 0.026546 1.931600 -1.204980
v 0.156406 1.931600 -1.395000
v 0.156406 1.931600 -1.204980
v 0.156406 2.016600 -1.204980
v 0.156406 1.931600 -1.395000
v 0.156406 1.931600 -1.204980
v 0.156406 2.051600 -1.395000
v 0.156406 2.743600 0.270000
v 0.156406 2.634600 0.269760
v 0.156406 2.303310 1.332490
v 0.156406 2.186040 1.332490
v 0.156406 2.275600 1.395000
v 0.156406 2.159600 1.395000
v 0.156406 2.187100 1.332490
v 0.156406 2.185684 1.332758
v 0.156406 2.159376 1.394265
v 0.156406 2.187100 1.332490
v 0.026546 2.187100 1.332490
v 0.026546 2.185684 1.332758
v 0.156406 2.185684 1.332758
v 0.003686 2.159600 1.395000
v 0.026546 2.159376 1.394265
v 0.003686 2.159376 1.394265
v 0.026546 2.159600 1.395000
v 0.156406 2.159376 1.394265
v 0.156406 2.159600 1.395000
v 0.026546 2.051600 -1.395000
v 0.003686 2.051600 -1.395000
v 0.003686 1.931600 -1.395000
v 0.026546 1.931600 -1.395000
v 0.156406 2.051600 -1.395000
v 0.156406 1.931600 -1.395000
vt -0.146620 0.365000
vt -0.123760 0.288500
vt -0.123760 0.365000
vt -0.146620 0.288500
vt -0.276480 0.365000
vt -0.276480 0.288500
vt -0.123760 0.005000
vt -0.123760 0.005000
vt -0.146620 0.005000
vt -0.146620 0.005000
vt -0.276480 0.005000
vt -0.276480 0.005000
vt -0.146620 2.795000
vt -0.123760 2.604980
vt -0.123760 2.795000
vt -0.146620 2.604980
vt -0.276480 2.795000
vt -0.276480 2.604980
vt 2.704980 0.966600
vt 2.704980 0.881600
vt 2.895000 0.881600
vt 2.895000 1.001600
vt 1.230000 1.693600
vt 1.230240 1.584600
vt 0.167513 1.253310
vt 0.167513 1.136040
vt 0.105000 1.225600
vt 0.105000 1.109600
vt 0.167513 1.137100
vt 0.388500 0.781600
vt 0.465000 0.781600
vt 0.153520 0.687096
vt 0.283380 0.331600
vt 0.283380 0.687096
vt 0.153520 0.331600
vt 0.306240 0.659600
vt 0.306240 0.331600
vt 0.283380 0.331600
vt 0.283380 0.659600
vt 0.153520 0.331600
vt 0.153520 0.659600
vt 0.283380 0.551600
vt 0.306240 0.431600
vt 0.306240 0.551600
vt 0.283380 0.431600
vt 0.153520 0.551600
vt 0.153520 0.431600
vn 0.0000 -0.9194 -0.3933
vn 0.0000 0.0000 1.0000
vn 0.0000 -1.0000 0.0000
vn 1.0000 -0.0000 0.0000
vn 1.0000 -0.0001 0.0000
vn 0.0000 -0.1859 -0.9826
vn 0.0000 -0.1860 -0.9825
vn 0.0000 -0.9565 0.2918
vn -0.0000 -0.9568 0.2906
vn 0.0000 -0.9569 0.2905
vn 0.0012 -0.9564 0.2921
vn -0.0012 -0.9564 0.2921
vn 0.0000 0.0000 -1.0000
usemtl Sides
s 1
f 1/1/1 3/2/1 2/3/1
f 4/4/1 3/2/1 1/1/1
f 5/5/1 4/4/1 1/1/1
f 6/6/1 4/4/1 5/5/1
f 7/7/2 9/8/2 8/9/2
f 7/7/2 8/9/2 10/10/2
f 10/10/2 8/9/2 11/11/2
f 10/10/2 11/11/2 12/12/2
f 13/13/3 15/14/3 14/15/3
f 16/16/3 15/14/3 13/13/3
f 17/17/3 16/16/3 13/13/3
f 18/18/3 16/16/3 17/17/3
f 19/19/4 21/20/4 20/21/4
f 19/19/4 20/21/4 22/22/4
f 23/23/4 19/19/4 22/22/4
f 24/24/4 19/19/4 23/23/4
f 23/23/4 25/25/4 24/24/4
f 25/25/4 26/26/4 24/24/4
f 27/27/4 26/26/4 25/25/4
f 27/27/4 28/28/4 26/26/4
f 29/29/4 31/30/5 30/31/4
f 28/28/5 31/30/5 29/29/4
f 32/32/6 34/33/7 33/34/7
f 35/35/6 34/33/7 32/32/6
f 36/36/8 38/37/8 37/38/9
f 36/36/8 37/38/9 39/39/10
f 39/39/10 37/38/9 40/40/11
f 39/39/10 40/40/11 41/41/12
f 42/42/13 44/43/13 43/44/13
f 45/45/13 44/43/13 42/42/13
f 46/46/13 45/45/13 42/42/13
f 47/47/13 45/45/13 46/46/13
o Shed
v 0.003686 2.634600 0.269760
v 0.026546 2.016600 -1.204980
v 0.003686 2.016600 -1.204980
v 0.026546 2.634600 0.269760
v 0.156406 2.016600 -1.204980
v 0.156406 2.634600 0.269760
v 0.003686 2.186040 1.332490
v 0.026546 2.186040 1.332490
v 0.156406 2.186040 1.332490
v 0.003686 2.016600 -1.204980
v 0.026546 1.931600 -1.204980
v 0.003686 1.931600 -1.204980
v 0.026546 2.016600 -1.204980
v 0.156406 1.931600 -1.204980
v 0.156406 2.016600 -1.204980
vt -0.123760 1.130240
vt -0.123760 2.604980
vt -0.146620 2.604980
vt -0.146620 1.130240
vt -0.276480 2.604980
vt -0.276480 1.130240
vt -0.123760 0.067513
vt -0.146620 0.067513
vt -0.276480 0.067513
vt 0.306240 0.516600
vt 0.306240 0.431600
vt 0.283380 0.431600
vt 0.283380 0.516600
vt 0.153520 0.431600
vt 0.153520 0.516600
vn 0.0000 -0.9223 0.3865
vn 0.0000 -0.9213 -0.3889
vn 0.0000 0.0000 1.0000
usemtl Shed
s 1
f 48/48/14 50/49/14 49/50/14
f 48/48/14 49/50/14 51/51/14
f 51/51/14 49/50/14 52/52/14
f 51/51/14 52/52/14 53/53/14
f 51/51/15 54/54/15 48/48/15
f 55/55/15 54/54/15 51/51/15
f 53/53/15 55/55/15 51/51/15
f 56/56/15 55/55/15 53/53/15
f 57/57/16 59/58/16 58/59/16
f 57/57/16 58/59/16 60/60/16
f 60/60/16 58/59/16 61/61/16
f 60/60/16 61/61/16 62/62/16
