####
#
#	OBJ File Generated by LightWave3D
#	LightWave3D OBJ Export v2.3
#
####
o Quaker Sheds_12x14.obj
mtllib Quaker Sheds_12x14.mtl
g default
v 2.1784 2.0966 -5.0546
v -2.1784 2.0966 -5.0546
v -1.3322 2.8816 -5.0546
v 0 3.1666 -5.0546
v 2.1784 2.0966 4.8006
v -1.3322 2.8816 4.8006
v -2.1784 2.0966 4.8006
v 0 3.1666 5.0546
v -2.1209 0.1016 -4.953
v -2.0447 0.1016 -5.0292
v -2.1209 0.1016 -5.0292
v -2.1209 2.1436 -4.953
v -2.1209 2.1436 -5.0292
v -2.0447 2.1436 -5.0292
v 2.1209 0.1016 -4.953
v 2.0447 0.1016 -5.0292
v 2.1209 0.1016 -5.0292
v 2.1209 2.1436 -4.953
v 2.1209 2.1436 -5.0292
v 2.0447 2.1436 -5.0292
v -2.1209 0.1016 4.699
v -2.0447 0.1016 4.7752
v -2.1209 0.1016 4.7752
v -2.1209 2.1436 4.699
v -2.1209 2.1436 4.7752
v -2.0447 2.1436 4.7752
v 2.1209 0.1016 4.699
v 2.0447 0.1016 4.7752
v 2.1209 0.1016 4.7752
v 2.1209 2.1436 4.699
v 2.1209 2.1436 4.7752
v 2.0447 2.1436 4.7752
v -2.0955 0.1016 -4.953
v -2.0955 2.1436 -4.953
v -2.0955 2.1436 4.699
v -2.0955 0.1016 4.699
v -2.0447 2.1436 -5.0038
v -2.0447 0.1016 -5.0038
v 2.0447 0.1016 -5.0038
v 2.0447 2.1436 -5.0038
v 2.0955 2.1436 -4.953
v 2.0955 0.1016 -4.953
v 2.0955 0.1016 4.699
v 2.0955 2.1436 4.699
v -2.0447 2.1436 4.7498
v -2.0447 0.1016 4.7498
v 2.0447 0.1016 4.7498
v 2.0447 2.1436 4.7498
v 1.2772 2.8216 -5.0546
v 2.0744 2.0966 -5.0546
v -1.2772 2.8216 -5.0546
v -2.0744 2.0966 -5.0546
v 0 3.0866 -5.0546
v 2.0744 2.0966 4.8006
v 1.2772 2.8216 4.8006
v -2.0744 2.0966 4.8006
v -1.2772 2.8216 4.8006
v 0 3.0866 5.0546
v -2.0955 2.0916 4.7498
v -2.0955 2.0916 -5.0038
v 2.0955 2.0916 -5.0038
v 2.0955 2.0916 4.7498
v -2.0955 0.1016 4.7498
v 2.0955 0.1016 4.7498
v 2.0955 0.1016 -5.0038
v -2.0955 0.1016 -5.0038
v -1.9414 0.1016 4.7498
v -1.9414 0.1016 -5.0038
v -1.8398 0.1016 -5.0038
v -1.8398 0.1016 4.7498
v -1.9414 0 4.7498
v -1.8398 0 4.7498
v -1.8398 0 -5.0038
v -1.9414 0 -5.0038
v -1.2042 0.1016 4.7498
v -1.2042 0.1016 -5.0038
v -1.1026 0.1016 -5.0038
v -1.1026 0.1016 4.7498
v -1.2042 0 4.7498
v -1.1026 0 4.7498
v -1.1026 0 -5.0038
v -1.2042 0 -5.0038
v 1.9414 0.1016 4.7498
v 1.9414 0.1016 -5.0038
v 1.8398 0.1016 -5.0038
v 1.8398 0.1016 4.7498
v 1.9414 0 4.7498
v 1.8398 0 4.7498
v 1.8398 0 -5.0038
v 1.9414 0 -5.0038
v 1.2042 0.1016 4.7498
v 1.2042 0.1016 -5.0038
v 1.1026 0.1016 -5.0038
v 1.1026 0.1016 4.7498
v 1.2042 0 4.7498
v 1.1026 0 4.7498
v 1.1026 0 -5.0038
v 1.2042 0 -5.0038
v -0.0508001 0.1016 4.7498
v -0.0508001 0.1016 -5.0038
v 0.0508001 0.1016 -5.0038
v 0.0508001 0.1016 4.7498
v -0.0508001 0 4.7498
v 0.0508001 0 4.7498
v 0.0508001 0 -5.0038
v -0.0508001 0 -5.0038
v 1.3322 2.8816 4.8006
v 2.1784 2.0966 4.8006
v -1.3322 2.8816 4.8006
v -2.1784 2.0966 4.8006
v 0 3.1666 5.0546
v 2.0744 2.0966 4.8006
v 1.2772 2.8216 4.8006
v -2.0744 2.0966 4.8006
v -1.2772 2.8216 4.8006
v 0 3.0866 5.0546
v -2.0955 2.0916 4.7498
v 2.0955 2.0916 4.7498
v -2.0955 0.1016 4.7498
v 2.0955 0.1016 4.7498
v 0 0.1016 4.7498
v 0 3.0866 4.7498
v -1.2772 0.1016 4.7498
v -1.2772 2.8216 4.7498
v 1.2772 0.1016 4.7498
v 1.2772 2.8216 4.7498
v 0 3.0866 -5.0038
v 0 0.1016 -5.0038
v -1.2772 2.8216 -5.0038
v -1.2772 0.1016 -5.0038
v 1.2772 2.8216 -5.0038
v 1.2772 0.1016 -5.0038
v 1.3322 2.8816 -5.0546
v 2.1784 2.0966 -5.0546
v -2.1784 2.0966 -5.0546
v -1.3322 2.8816 -5.0546
v 0 3.1666 -5.0546
v 1.2772 2.8216 -5.0546
v 2.0744 2.0966 -5.0546
v -1.2772 2.8216 -5.0546
v -2.0744 2.0966 -5.0546
v 0 3.0866 -5.0546
v -2.0955 2.0916 -5.0038
v 2.0955 2.0916 -5.0038
v 2.0955 0.1016 -5.0038
v -2.0955 0.1016 -5.0038
v -1.9414 0.1016 4.7498
v -1.8398 0.1016 4.7498
v -1.9414 0 4.7498
v -1.8398 0 4.7498
v -1.2042 0.1016 4.7498
v -1.1026 0.1016 4.7498
v -1.2042 0 4.7498
v -1.1026 0 4.7498
v 1.9414 0.1016 4.7498
v 1.8398 0.1016 4.7498
v 1.9414 0 4.7498
v 1.8398 0 4.7498
v 1.2042 0.1016 4.7498
v 1.1026 0.1016 4.7498
v 1.2042 0 4.7498
v 1.1026 0 4.7498
v -0.0508001 0.1016 4.7498
v 0.0508001 0.1016 4.7498
v -0.0508001 0 4.7498
v 0.0508001 0 4.7498
v -1.9414 0.1016 -5.0038
v -1.8398 0.1016 -5.0038
v -1.8398 0 -5.0038
v -1.9414 0 -5.0038
v -1.2042 0.1016 -5.0038
v -1.1026 0.1016 -5.0038
v -1.1026 0 -5.0038
v -1.2042 0 -5.0038
v 1.9414 0.1016 -5.0038
v 1.8398 0.1016 -5.0038
v 1.8398 0 -5.0038
v 1.9414 0 -5.0038
v 1.2042 0.1016 -5.0038
v 1.1026 0.1016 -5.0038
v 1.1026 0 -5.0038
v 1.2042 0 -5.0038
v -0.0508001 0.1016 -5.0038
v 0.0508001 0.1016 -5.0038
v 0.0508001 0 -5.0038
v -0.0508001 0 -5.0038
v 1.3322 2.8816 -5.0546
v 2.1784 2.0966 -5.0546
v 0 3.1666 -5.0546
v 1.3322 2.8816 4.8006
v 2.1784 2.0966 4.8006
v 0 3.1666 5.0546
vt -4.8 0.6
vt -4.8 3.0384
vt -4.6984 0.6
vt -4.6984 3.0384
vt -4.5968 0.6
vt -4.5968 3.0384
vt -4.4952 0.6
vt -4.4952 3.0384
vt -4.3936 0.6
vt -4.3936 3.0384
vt -4.3 0.6
vt -4.3 3.0384
vt -4.1984 0.6
vt -4.1984 3.0384
vt -4.0968 0.6
vt -4.0968 3.0384
vt -3.9952 0.6
vt -3.9952 3.0384
vt -3.8936 0.6
vt -3.8936 3.0384
vt -3.8 0.6
vt -3.8 3.0384
vt -3.6984 0.6
vt -3.6984 3.0384
vt -3.5968 0.6
vt -3.5968 3.0384
vt -3.4952 0.6
vt -3.4952 3.0384
vt -3.3936 0.6
vt -3.3936 3.0384
vt -3.25 0.6
vt -3.25 3.0384
vt -3.1484 0.6
vt -3.1484 3.0384
vt -3.0468 0.6
vt -3.0468 3.0384
vt -2.9452 0.6
vt -2.9452 3.0384
vt -2.8436 0.6
vt -2.8436 3.0384
vt -2.7 0.6
vt -2.7 3.0384
vt -2.5984 0.6
vt -2.5984 3.0384
vt -2.4968 0.6
vt -2.4968 3.0384
vt -2.3952 0.6
vt -2.3952 3.0384
vt -2.2936 0.6
vt -2.2936 3.0384
vt -2.127 2.8
vt -2.127 2.9016
vt -2.127 2.95
vt -2.127 3.0516
vt -2.1 0.6
vt -2.1 2.662
vt -2.0746 0.6
vt -2.0746 2.662
vt -2.0254 2.8
vt -2.0254 2.9016
vt -2.0254 2.95
vt -2.0254 3.0516
vt -1.9984 0.6
vt -1.9984 2.662
vt -1.947 2.8
vt -1.947 2.9016
vt -1.947 2.95
vt -1.947 3.0516
vt -1.9222 0.6
vt -1.9222 2.662
vt -1.8968 0.6
vt -1.8968 2.662
vt -1.8454 2.8
vt -1.8454 2.9016
vt -1.8454 2.95
vt -1.8454 3.0516
vt -1.8 0.6
vt -1.8 2.662
vt -1.7746 0.6
vt -1.7746 2.662
vt -1.7508 2.8
vt -1.7508 2.9016
vt -1.7508 2.95
vt -1.7508 3.0516
vt -1.6984 0.6
vt -1.6984 2.662
vt -1.6492 2.8
vt -1.6492 2.9016
vt -1.6492 2.95
vt -1.6492 3.0516
vt -1.6222 0.6
vt -1.6222 2.662
vt -1.5968 0.6
vt -1.5968 2.662
vt -1.5546 2.8
vt -1.5546 2.9016
vt -1.5546 2.95
vt -1.5546 3.0516
vt -1.5 0.6
vt -1.5 2.662
vt -1.4746 0.6
vt -1.4746 2.662
vt -1.453 2.8
vt -1.453 2.9016
vt -1.453 2.95
vt -1.453 3.0516
vt -1.3984 0.6
vt -1.3984 2.662
vt -1.3746 2.8
vt -1.3746 2.9016
vt -1.3746 2.95
vt -1.3746 3.0516
vt -1.3222 0.6
vt -1.3222 2.662
vt -1.2968 0.6
vt -1.2968 2.662
vt -1.273 2.8
vt -1.273 2.9016
vt -1.273 2.95
vt -1.273 3.0516
vt -1.15 0.6
vt -1.15 2.662
vt -1.1246 0.6
vt -1.1246 2.662
vt -1.0484 0.6
vt -1.0484 2.662
vt -0.9722 0.6
vt -0.9722 2.662
vt -0.9468 0.6
vt -0.9468 2.662
vt -0.04 3.0466
vt 0.0189 0.6016
vt 0.0189 2.5916
vt 0.04 3.0466
vt 0.775 3.8316
vt 0.83 0.6016
vt 0.83 3.3216
vt 0.83 3.7716
vt 2.1 0.6016
vt 2.1 3.5866
vt 2.1 4.0366
vt 2.1 4.1166
vt 3.37 0.6016
vt 3.37 3.3216
vt 3.37 3.7716
vt 3.425 3.8316
vt 4.16 3.0466
vt 4.1811 0.6016
vt 4.1811 2.5916
vt 4.24 3.0466
vt 4.86 3.0466
vt 4.9189 0.6016
vt 4.9189 2.5916
vt 4.94 3.0466
vt 5.675 3.8316
vt 5.73 0.6016
vt 5.73 3.3216
vt 5.73 3.7716
vt 7 0.6016
vt 7 3.5866
vt 7 4.0366
vt 7 4.1166
vt 8.27 0.6016
vt 8.27 3.3216
vt 8.27 3.7716
vt 8.325 3.8316
vt 8.5886 -2.9984
vt 8.5886 -1.0084
vt 9.06 3.0466
vt 9.0811 0.6016
vt 9.0811 2.5916
vt 9.14 3.0466
vt 11 10.7401
vt 11.25 -0.4
vt 11.25 -0.294993
vt 11.25 0.793003
vt 11.25 2.11003
vt 11.25 3.42706
vt 11.25 4.51505
vt 11.25 4.62006
vt 11.25 5.78548
vt 11.25 7.161
vt 11.25 8.2
vt 11.25 9.35424
vt 18.2654 -2.9984
vt 18.2654 -1.0084
vt 18.7886 -2.9984
vt 18.7886 -1.0084
vt 20.7824 -0.4
vt 20.7824 -0.296
vt 20.7824 0.781568
vt 20.7824 3.43937
vt 20.7824 4.51694
vt 20.7824 4.62094
vt 20.7824 5.77518
vt 20.7824 8.2
vt 20.7824 9.36501
vt 20.7824 10.7401
vt 21.0324 2.11047
vt 21.0324 7.161
vt 28.4654 -2.9984
vt 28.4654 -1.0084
vn 1 0 -0
vn 1 0 -0
vn 1 0 -0
vn 1 -0 -0
vn 1 -0 -0
vn 1 -0 -0
vn -1 0 -0
vn -1 0 -0
vn -1 0 -0
vn -1 0 -0
vn -1 0 -0
vn -1 0 -0
vn 0 0 1
vn 0 0 1
vn 0 0 1
vn 0 0 1
vn 0 0 1
vn 0 0 1
vn 0.195053 0 0.980793
vn 0.195053 0 0.980793
vn 0.195053 0 0.980793
vn 0.155802 -0.142818 0.977409
vn 0.155802 -0.142818 0.977409
vn 0.155802 -0.142818 0.977409
vn -0.155802 -0.142818 0.977409
vn -0.155802 -0.142818 0.977409
vn -0.155802 -0.142818 0.977409
vn -0.195053 0 0.980793
vn -0.195053 0 0.980793
vn -0.195053 0 0.980793
vn 0 0 1
vn 0 0 1
vn 0 0 1
vn 0 0 1
vn 0 0 1
vn 0 0 1
vn 0 0 1
vn 0 0 1
vn 0 0 1
vn 0 0 1
vn 0 0 1
vn 0 0 1
vn 0 0 1
vn 0 0 1
vn 0 0 1
vn 0 0 1
vn 0 0 1
vn 0 0 1
vn 0 0 1
vn 0 0 1
vn 0 0 1
vn 0 0 1
vn 0 0 1
vn 0 0 1
vn 0 0 1
vn 0 0 1
vn 0 0 1
vn 0 0 1
vn 0 0 1
vn 0 0 1
vn 0 -0 -1
vn 0 -0 -1
vn 0 -0 -1
vn 0 0 -1
vn 0 0 -1
vn 0 0 -1
vn 0 -0 -1
vn 0 -0 -1
vn 0 -0 -1
vn 0 0 -1
vn 0 0 -1
vn 0 0 -1
vn 0 0 -1
vn 0 0 -1
vn 0 0 -1
vn 0 0 -1
vn 0 0 -1
vn 0 0 -1
vn 0 0 -1
vn 0 0 -1
vn 0 0 -1
vn 0 0 -1
vn 0 0 -1
vn 0 0 -1
vn 0 -0 -1
vn 0 -0 -1
vn 0 -0 -1
vn 0 0 -1
vn 0 0 -1
vn 0 0 -1
vn 0 -0 -1
vn 0 -0 -1
vn 0 -0 -1
vn 0 0 -1
vn 0 0 -1
vn 0 0 -1
vn 0 0 -1
vn 0 0 -1
vn 0 0 -1
vn 0 -0 -1
vn 0 -0 -1
vn 0 -0 -1
vn 0 0 -1
vn 0 0 -1
vn 0 0 -1
vn 0 -0 -1
vn 0 -0 -1
vn 0 -0 -1
vn 0 0 1
vn 0 0 1
vn 0 0 1
vn 0 0 1
vn 0 0 1
vn 0 0 1
vn 0 0 1
vn 0 0 1
vn 0 0 1
vn 0 0 1
vn 0 0 1
vn 0 0 1
vn 0 0 1
vn 0 0 1
vn 0 0 1
vn 0 0 1
vn 0 0 1
vn 0 0 1
vn 0 0 1
vn 0 0 1
vn 0 0 1
vn 0 0 1
vn 0 0 1
vn 0 0 1
vn 0 0 1
vn 0 0 1
vn 0 0 1
vn 0 0 1
vn 0 0 1
vn 0 0 1
vn 0 -0 -1
vn 0 -0 -1
vn 0 -0 -1
vn 0 0 -1
vn 0 0 -1
vn 0 0 -1
vn 0 -0 -1
vn 0 -0 -1
vn 0 -0 -1
vn 0 0 -1
vn 0 0 -1
vn 0 0 -1
vn 0 0 -1
vn 0 0 -1
vn 0 0 -1
vn 0 -0 -1
vn 0 -0 -1
vn 0 -0 -1
vn 0 0 -1
vn 0 0 -1
vn 0 0 -1
vn 0 -0 -1
vn 0 -0 -1
vn 0 -0 -1
vn 0 -0 -1
vn 0 -0 -1
vn 0 -0 -1
vn 0 0 -1
vn 0 0 -1
vn 0 0 -1
vn 1 0 -0
vn 1 0 -0
vn 1 0 -0
vn 1 0 -0
vn 1 0 -0
vn 1 0 -0
vn 0 1 -0
vn 0 1 -0
vn 0 1 -0
vn 0 1 0
vn 0 1 0
vn 0 1 0
vn -1 0 -0
vn -1 0 -0
vn -1 0 -0
vn -1 0 -0
vn -1 0 -0
vn -1 0 -0
vn 0 -1 -0
vn 0 -1 -0
vn 0 -1 -0
vn 0 -1 -0
vn 0 -1 -0
vn 0 -1 -0
vn -1 0 -0
vn -1 0 -0
vn -1 0 -0
vn -1 0 -0
vn -1 0 -0
vn -1 0 -0
vn 0 1 -0
vn 0 1 -0
vn 0 1 -0
vn 0 1 0
vn 0 1 0
vn 0 1 0
vn 1 0 -0
vn 1 0 -0
vn 1 0 -0
vn 1 0 -0
vn 1 0 -0
vn 1 0 -0
vn 0 -1 -0
vn 0 -1 -0
vn 0 -1 -0
vn 0 -1 -0
vn 0 -1 -0
vn 0 -1 -0
vn -1 0 -0
vn -1 0 -0
vn -1 0 -0
vn -1 0 -0
vn -1 0 -0
vn -1 0 -0
vn 0 1 -0
vn 0 1 -0
vn 0 1 -0
vn 0 1 0
vn 0 1 0
vn 0 1 0
vn 1 0 -0
vn 1 0 -0
vn 1 0 -0
vn 1 0 -0
vn 1 0 -0
vn 1 0 -0
vn 0 -1 -0
vn 0 -1 -0
vn 0 -1 -0
vn 0 -1 -0
vn 0 -1 -0
vn 0 -1 -0
vn -1 0 -0
vn -1 0 -0
vn -1 0 -0
vn -1 0 -0
vn -1 0 -0
vn -1 0 -0
vn 0 1 -0
vn 0 1 -0
vn 0 1 -0
vn 0 1 0
vn 0 1 0
vn 0 1 0
vn 1 0 -0
vn 1 0 -0
vn 1 0 -0
vn 1 0 -0
vn 1 0 -0
vn 1 0 -0
vn 0 -1 -0
vn 0 -1 -0
vn 0 -1 -0
vn 0 -1 -0
vn 0 -1 -0
vn 0 -1 -0
vn -1 0 -0
vn -1 0 -0
vn -1 0 -0
vn -1 0 -0
vn -1 0 -0
vn -1 0 -0
vn 0 1 -0
vn 0 1 -0
vn 0 1 -0
vn 0 1 0
vn 0 1 0
vn 0 1 0
vn 1 0 -0
vn 1 0 -0
vn 1 0 -0
vn 1 0 -0
vn 1 0 -0
vn 1 0 -0
vn 0 -1 -0
vn 0 -1 -0
vn 0 -1 -0
vn 0 -1 -0
vn 0 -1 -0
vn 0 -1 -0
vn 0 0 -1
vn 0 0 -1
vn 0 0 -1
vn 0 -0 -1
vn 0 -0 -1
vn 0 -0 -1
vn -1 0 -0
vn -1 0 -0
vn -1 0 -0
vn -1 0 -0
vn -1 0 -0
vn -1 0 -0
vn 0 0 1
vn 0 0 1
vn 0 0 1
vn 0 0 1
vn 0 0 1
vn 0 0 1
vn 1 0 -0
vn 1 0 -0
vn 1 0 -0
vn 1 0 -0
vn 1 0 -0
vn 1 0 -0
vn -1 0 -0
vn -1 0 -0
vn -1 0 -0
vn -1 0 -0
vn -1 0 -0
vn -1 0 -0
vn 0 0 1
vn 0 0 1
vn 0 0 1
vn 0 0 1
vn 0 0 1
vn 0 0 1
vn 1 0 -0
vn 1 0 -0
vn 1 0 -0
vn 1 -0 -0
vn 1 -0 -0
vn 1 -0 -0
vn 0 0 -1
vn 0 0 -1
vn 0 0 -1
vn 0 0 -1
vn 0 0 -1
vn 0 0 -1
vn 0 0 1
vn 0 0 1
vn 0 0 1
vn 0 0 1
vn 0 0 1
vn 0 0 1
vn 1 0 -0
vn 1 0 -0
vn 1 0 -0
vn 1 0 -0
vn 1 0 -0
vn 1 0 -0
vn 0 0 -1
vn 0 0 -1
vn 0 0 -1
vn 0 -0 -1
vn 0 -0 -1
vn 0 -0 -1
vn -1 0 -0
vn -1 0 -0
vn -1 0 -0
vn -1 0 -0
vn -1 0 -0
vn -1 0 -0
vn 1 0 -0
vn 1 0 -0
vn 1 0 -0
vn 1 0 -0
vn 1 0 -0
vn 1 0 -0
vn 0 -0 -1
vn 0 -0 -1
vn 0 -0 -1
vn 0 0 -1
vn 0 0 -1
vn 0 0 -1
vn -1 0 -0
vn -1 0 -0
vn -1 0 -0
vn -1 0 -0
vn -1 0 -0
vn -1 0 -0
vn 0 0 1
vn 0 0 1
vn 0 0 1
vn 0 0 1
vn 0 0 1
vn 0 0 1
vn 0 -1 -0
vn 0 -1 -0
vn 0 -1 -0
vn 0 -1 -0
vn 0 -1 -0
vn 0 -1 -0
vn -0.672811 -0.739814 -0
vn -0.672811 -0.739814 -0
vn -0.672811 -0.739814 -0
vn -0.672811 -0.739814 -0
vn -0.672811 -0.739814 -0
vn -0.672811 -0.739814 -0
vn -0.203158 -0.979146 -0
vn -0.203158 -0.979146 -0
vn -0.203158 -0.979146 -0
vn -0.203158 -0.979146 -0
vn -0.203158 -0.979146 -0
vn -0.203158 -0.979146 -0
vn 0.203158 -0.979146 -0
vn 0.203158 -0.979146 -0
vn 0.203158 -0.979146 -0
vn 0.203158 -0.979146 -0
vn 0.203158 -0.979146 -0
vn 0.203158 -0.979146 -0
vn 0.672811 -0.739814 -0
vn 0.672811 -0.739814 -0
vn 0.672811 -0.739814 -0
vn 0.672811 -0.739814 -0
vn 0.672811 -0.739814 -0
vn 0.672811 -0.739814 -0
vn 0 -1 -0
vn 0 -1 -0
vn 0 -1 -0
vn 0 -1 -0
vn 0 -1 -0
vn 0 -1 -0
vn -0.680099 0.733121 -0
vn -0.680099 0.733121 -0
vn -0.680099 0.733121 -0
vn -0.680099 0.733121 -0
vn -0.680099 0.733121 -0
vn -0.680099 0.733121 -0
vn -0.209198 0.977873 -0
vn -0.209198 0.977873 -0
vn -0.209198 0.977873 -0
vn -0.209198 0.977873 -0
vn -0.209198 0.977873 -0
vn -0.209198 0.977873 -0
vn 0.680099 0.733121 0
vn 0.680099 0.733121 0
vn 0.680099 0.733121 0
vn 0.680099 0.733121 -0
vn 0.680099 0.733121 -0
vn 0.680099 0.733121 -0
vn 0.209198 0.977873 -0
vn 0.209198 0.977873 -0
vn 0.209198 0.977873 -0
vn 0.209198 0.977873 0
vn 0.209198 0.977873 0
vn 0.209198 0.977873 0
g Shed
usemtl Shed
s off
f 65/201/1 62/188/2 64/187/3
f 61/202/4 62/188/5 65/201/6
f 60/186/7 66/185/8 63/167/9
f 59/168/10 60/186/11 63/167/12
g Sides
usemtl Sides
s off
f 107/146/13 113/145/14 112/147/15
f 108/150/16 107/146/17 112/147/18
f 111/142/19 116/141/20 113/145/21
f 107/146/22 111/142/23 113/145/24
f 111/142/25 109/135/26 115/138/27
f 116/141/28 111/142/29 115/138/30
f 109/135/31 110/131/32 114/134/33
f 115/138/34 109/135/35 114/134/36
g Shed
usemtl Shed
s off
f 124/137/37 123/136/38 121/139/39
f 122/140/40 124/137/41 121/139/42
f 117/133/43 119/132/44 123/136/45
f 124/137/46 117/133/47 123/136/48
f 120/148/49 118/149/50 125/143/51
f 118/149/52 126/144/53 125/143/54
f 125/143/55 126/144/56 121/139/57
f 126/144/58 122/140/59 121/139/60
f 129/157/61 127/160/62 128/159/63
f 130/156/64 129/157/65 128/159/66
f 143/153/67 129/157/68 130/156/69
f 146/152/70 143/153/71 130/156/72
f 131/164/73 144/171/74 132/163/75
f 144/171/76 145/170/77 132/163/78
f 127/160/79 131/164/80 128/159/81
f 131/164/82 132/163/83 128/159/84
g Sides
usemtl Sides
s off
f 133/166/85 134/172/86 139/169/87
f 138/165/88 133/166/89 139/169/90
f 137/162/91 133/166/92 138/165/93
f 142/161/94 137/162/95 138/165/96
f 136/155/97 140/158/98 141/154/99
f 135/151/100 136/155/101 141/154/102
f 137/162/103 142/161/104 140/158/105
f 136/155/106 137/162/107 140/158/108
g Floor
usemtl Floor
s off
f 148/60/109 147/52/110 149/51/111
f 148/60/112 149/51/113 150/59/114
f 152/74/115 151/66/116 153/65/117
f 152/74/118 153/65/119 154/73/120
f 157/117/121 155/118/122 158/109/123
f 155/118/124 156/110/125 158/109/126
f 161/103/127 159/104/128 162/95/129
f 159/104/130 160/96/131 162/95/132
f 164/88/133 163/82/134 165/81/135
f 164/88/136 165/81/137 166/87/138
f 167/54/139 168/62/140 169/61/141
f 170/53/142 167/54/143 169/61/144
f 171/68/145 172/76/146 173/75/147
f 174/67/148 171/68/149 173/75/150
f 176/112/151 178/119/152 177/111/153
f 176/112/154 175/120/155 178/119/156
f 180/98/157 182/105/158 181/97/159
f 180/98/160 179/106/161 182/105/162
f 183/84/163 184/90/164 185/89/165
f 183/84/166 185/89/167 186/83/168
f 69/3/169 70/4/170 72/2/171
f 73/1/172 69/3/173 72/2/174
f 68/5/175 67/6/176 70/4/177
f 69/3/178 68/5/179 70/4/180
f 67/6/181 68/5/182 74/7/183
f 67/6/184 74/7/185 71/8/186
f 71/8/187 74/7/188 72/10/189
f 74/7/190 73/9/191 72/10/192
f 75/13/193 76/14/194 82/12/195
f 75/13/196 82/12/197 79/11/198
f 76/14/199 75/13/200 78/15/201
f 77/16/202 76/14/203 78/15/204
f 77/16/205 78/15/206 80/17/207
f 81/18/208 77/16/209 80/17/210
f 79/19/211 82/20/212 80/17/213
f 82/20/214 81/18/215 80/17/216
f 99/23/217 100/24/218 106/22/219
f 99/23/220 106/22/221 103/21/222
f 100/24/223 99/23/224 102/25/225
f 101/26/226 100/24/227 102/25/228
f 101/26/229 102/25/230 104/27/231
f 105/28/232 101/26/233 104/27/234
f 106/30/235 104/27/236 103/29/237
f 106/30/238 105/28/239 104/27/240
f 94/33/241 97/32/242 96/31/243
f 94/33/244 93/34/245 97/32/246
f 91/35/247 93/34/248 94/33/249
f 92/36/250 93/34/251 91/35/252
f 98/38/253 92/36/254 95/37/255
f 92/36/256 91/35/257 95/37/258
f 97/40/259 98/38/260 95/37/261
f 97/40/262 95/37/263 96/39/264
f 86/43/265 89/42/266 88/41/267
f 86/43/268 85/44/269 89/42/270
f 83/45/271 85/44/272 86/43/273
f 84/46/274 85/44/275 83/45/276
f 90/48/277 84/46/278 87/47/279
f 84/46/280 83/45/281 87/47/282
f 89/50/283 90/48/284 87/47/285
f 89/50/286 87/47/287 88/49/288
g Trim
usemtl Trim
s off
f 21/57/289 24/58/290 36/55/291
f 24/58/292 35/56/293 36/55/294
f 25/64/295 21/57/296 23/63/297
f 25/64/298 24/58/299 21/57/300
f 26/70/301 23/63/302 22/69/303
f 26/70/304 25/64/305 23/63/306
f 46/71/307 45/72/308 22/69/309
f 45/72/310 26/70/311 22/69/312
f 32/80/313 48/78/314 47/77/315
f 32/80/316 47/77/317 28/79/318
f 29/85/319 32/80/320 28/79/321
f 31/86/322 32/80/323 29/85/324
f 27/91/325 31/86/326 29/85/327
f 30/92/328 31/86/329 27/91/330
f 30/92/331 27/91/332 43/93/333
f 44/94/334 30/92/335 43/93/336
f 15/101/337 18/102/338 42/99/339
f 18/102/340 41/100/341 42/99/342
f 17/107/343 19/108/344 15/101/345
f 19/108/346 18/102/347 15/101/348
f 20/114/349 17/107/350 16/113/351
f 20/114/352 19/108/353 17/107/354
f 40/116/355 16/113/356 39/115/357
f 40/116/358 20/114/359 16/113/360
f 14/124/361 37/122/362 38/121/363
f 10/123/364 14/124/365 38/121/366
f 11/125/367 14/124/368 10/123/369
f 13/126/370 14/124/371 11/125/372
f 13/126/373 11/125/374 9/127/375
f 12/128/376 13/126/377 9/127/378
f 12/128/379 9/127/380 33/129/381
f 34/130/382 12/128/383 33/129/384
g Sides
usemtl Sides
s off
f 50/175/385 5/189/386 54/190/387
f 50/175/388 1/174/389 5/189/390
g Shed
usemtl Shed
s off
f 55/191/391 49/176/392 54/190/393
f 49/176/394 50/175/395 54/190/396
f 58/199/397 53/177/398 55/191/399
f 53/177/400 49/176/401 55/191/402
f 53/177/403 58/199/404 57/192/405
f 51/178/406 53/177/407 57/192/408
f 52/179/409 57/192/410 56/193/411
f 51/178/412 57/192/413 52/179/414
g Sides
usemtl Sides
s off
f 7/194/415 2/180/416 56/193/417
f 2/180/418 52/179/419 56/193/420
g Roof
usemtl Roof
s off
f 6/195/421 3/181/422 7/194/423
f 3/181/424 2/180/425 7/194/426
f 8/200/427 4/182/428 6/195/429
f 4/182/430 3/181/431 6/195/432
f 188/196/433 190/184/434 191/183/435
f 187/197/436 190/184/437 188/196/438
f 189/198/439 192/173/440 190/184/441
f 187/197/442 189/198/443 190/184/444
