####
#
#	OBJ File Generated by LightWave3D
#	LightWave3D OBJ Export v2.3
#
####
o Mini Barn Sheds_12x22.obj
mtllib Mini Barn Sheds_12x22.mtl
g default
v 1.1248 2.0966 -3.51473
v 1.8596 1.3716 -3.51473
v 1.7646 1.3716 -3.51473
v -1.8596 1.3716 -3.51473
v -1.1798 2.1566 -3.51473
v -1.1248 2.0966 -3.51473
v -1.7646 1.3716 -3.51473
v 0 2.3616 -3.51473
v 0 2.4416 -3.51473
v 1.7646 1.3716 3.22897
v 1.1248 2.0966 3.22897
v 1.8596 1.3716 3.22897
v -1.7646 1.3716 3.22897
v -1.1248 2.0966 3.22897
v -1.1798 2.1566 3.22897
v -1.8596 1.3716 3.22897
v 0 2.4416 3.51473
v 0 2.3616 3.51473
v -1.8034 0.1016 -3.44487
v -1.7399 0.1016 -3.50837
v -1.8034 0.1016 -3.50837
v -1.8034 1.4316 -3.44487
v -1.8034 1.4316 -3.50837
v -1.7399 1.4316 -3.50837
v 1.8034 0.1016 -3.44487
v 1.7399 0.1016 -3.50837
v 1.8034 0.1016 -3.50837
v 1.8034 1.4316 -3.44487
v 1.8034 1.4316 -3.50837
v 1.7399 1.4316 -3.50837
v -1.8034 0.1016 3.15912
v -1.7399 0.1016 3.22263
v -1.8034 0.1016 3.22263
v -1.8034 1.4316 3.15912
v -1.8034 1.4316 3.22263
v -1.7399 1.4316 3.22263
v 1.8034 0.1016 3.15912
v 1.7399 0.1016 3.22263
v 1.8034 0.1016 3.22263
v 1.8034 1.4316 3.15912
v 1.8034 1.4316 3.22263
v 1.7399 1.4316 3.22263
v -1.7907 0.1016 -3.44487
v -1.7907 1.4316 -3.44487
v -1.7907 1.4316 3.15912
v -1.7907 0.1016 3.15912
v -1.7399 1.4316 -3.49568
v -1.7399 0.1016 -3.49568
v 1.7399 0.1016 -3.49568
v 1.7399 1.4316 -3.49568
v 1.7907 1.4316 -3.44487
v 1.7907 0.1016 -3.44487
v 1.7907 0.1016 3.15912
v 1.7907 1.4316 3.15912
v -1.7399 1.4316 3.20993
v -1.7399 0.1016 3.20993
v 1.7399 0.1016 3.20993
v 1.7399 1.4316 3.20993
v -1.6366 0.1016 3.20993
v -1.6366 0.1016 -3.49568
v -1.535 0.1016 -3.49568
v -1.535 0.1016 3.20993
v -1.6366 0 3.20993
v -1.535 0 3.20993
v -1.535 0 -3.49568
v -1.6366 0 -3.49568
v -1.0518 0.1016 3.20993
v -1.0518 0.1016 -3.49568
v -0.9502 0.1016 -3.49568
v -0.9502 0.1016 3.20993
v -1.0518 0 3.20993
v -0.9502 0 3.20993
v -0.9502 0 -3.49568
v -1.0518 0 -3.49568
v 1.6366 0.1016 3.20993
v 1.6366 0.1016 -3.49568
v 1.535 0.1016 -3.49568
v 1.535 0.1016 3.20993
v 1.6366 0 3.20993
v 1.535 0 3.20993
v 1.535 0 -3.49568
v 1.6366 0 -3.49568
v 1.0518 0.1016 3.20993
v 1.0518 0.1016 -3.49568
v 0.9502 0.1016 -3.49568
v 0.9502 0.1016 3.20993
v 1.0518 0 3.20993
v 0.9502 0 3.20993
v 0.9502 0 -3.49568
v 1.0518 0 -3.49568
v -0.0508001 0.1016 3.20993
v -0.0508001 0.1016 -3.49568
v 0.0508001 0.1016 -3.49568
v 0.0508001 0.1016 3.20993
v -0.0508001 0 3.20993
v 0.0508001 0 3.20993
v 0.0508001 0 -3.49568
v -0.0508001 0 -3.49568
v 0 0.1016 3.20993
v 0 2.3616 3.20993
v -1.1248 0.1016 3.20993
v -1.1248 2.0966 3.20993
v 1.1248 0.1016 3.20993
v 1.1248 2.0966 3.20993
v 1.7907 1.3716 3.20993
v -1.7907 1.3716 3.20993
v 1.7907 0.1016 3.20993
v -1.7907 0.1016 3.20993
v 0 2.3616 -3.49568
v 0 0.1016 -3.49568
v -1.1248 2.0966 -3.49568
v -1.1248 0.1016 -3.49568
v 1.1248 2.0966 -3.49568
v 1.1248 0.1016 -3.49568
v 1.7907 1.3716 -3.49568
v -1.7907 1.3716 -3.49568
v -1.7907 0.1016 -3.49568
v 1.7907 0.1016 -3.49568
v 1.7907 1.3716 -3.49568
v 1.7907 0.1016 -3.49568
v 1.7907 1.3716 3.20993
v 1.7907 0.1016 3.20993
v -1.7907 1.3716 -3.49568
v -1.7907 0.1016 -3.49568
v -1.7907 1.3716 3.20993
v -1.7907 0.1016 3.20993
v 1.7646 1.3716 3.22897
v 1.1248 2.0966 3.22897
v 1.1798 2.1566 3.22897
v 1.8596 1.3716 3.22897
v -1.7646 1.3716 3.22897
v -1.1248 2.0966 3.22897
v -1.1798 2.1566 3.22897
v -1.8596 1.3716 3.22897
v 0 2.4416 3.51473
v 0 2.3616 3.51473
v 1.1248 2.0966 -3.51473
v 1.1798 2.1566 -3.51473
v 1.8596 1.3716 -3.51473
v 1.7646 1.3716 -3.51473
v -1.8596 1.3716 -3.51473
v -1.1798 2.1566 -3.51473
v -1.1248 2.0966 -3.51473
v -1.7646 1.3716 -3.51473
v 0 2.3616 -3.51473
v 0 2.4416 -3.51473
v -1.6366 0.1016 -3.49568
v -1.535 0.1016 -3.49568
v -1.535 0 -3.49568
v -1.6366 0 -3.49568
v -1.0518 0.1016 -3.49568
v -0.9502 0.1016 -3.49568
v -0.9502 0 -3.49568
v -1.0518 0 -3.49568
v 1.6366 0.1016 -3.49568
v 1.535 0.1016 -3.49568
v 1.535 0 -3.49568
v 1.6366 0 -3.49568
v 1.0518 0.1016 -3.49568
v 0.9502 0.1016 -3.49568
v 0.9502 0 -3.49568
v 1.0518 0 -3.49568
v -0.0508001 0.1016 -3.49568
v 0.0508001 0.1016 -3.49568
v 0.0508001 0 -3.49568
v -0.0508001 0 -3.49568
v -1.6366 0.1016 3.20993
v -1.535 0.1016 3.20993
v -1.6366 0 3.20993
v -1.535 0 3.20993
v -1.0518 0.1016 3.20993
v -0.9502 0.1016 3.20993
v -1.0518 0 3.20993
v -0.9502 0 3.20993
v 1.6366 0.1016 3.20993
v 1.535 0.1016 3.20993
v 1.6366 0 3.20993
v 1.535 0 3.20993
v 1.0518 0.1016 3.20993
v 0.9502 0.1016 3.20993
v 1.0518 0 3.20993
v 0.9502 0 3.20993
v -0.0508001 0.1016 3.20993
v 0.0508001 0.1016 3.20993
v -0.0508001 0 3.20993
v 0.0508001 0 3.20993
v 1.1798 2.1566 -3.51473
v 1.8596 1.3716 -3.51473
v 0 2.4416 -3.51473
v 1.1798 2.1566 3.22897
v 1.8596 1.3716 3.22897
v 0 2.4416 3.51473
vt -2.627 2.45
vt -2.627 2.5516
vt -2.627 2.75
vt -2.627 2.8516
vt -2.6 3.1
vt -2.6 5.5384
vt -2.5254 2.45
vt -2.5254 2.5516
vt -2.5254 2.75
vt -2.5254 2.8516
vt -2.4984 3.1
vt -2.4984 5.5384
vt -2.3968 3.1
vt -2.3968 5.5384
vt -2.347 2.45
vt -2.347 2.5516
vt -2.347 2.75
vt -2.347 2.8516
vt -2.2952 3.1
vt -2.2952 5.5384
vt -2.2454 2.45
vt -2.2454 2.5516
vt -2.2454 2.75
vt -2.2454 2.8516
vt -2.1936 3.1
vt -2.1936 5.5384
vt -2.0008 2.45
vt -2.0008 2.5516
vt -2.0008 2.75
vt -2.0008 2.8516
vt -1.95 3.1
vt -1.95 5.5384
vt -1.8992 2.45
vt -1.8992 2.5516
vt -1.8992 2.75
vt -1.8992 2.8516
vt -1.8484 3.1
vt -1.8484 5.5384
vt -1.7468 3.1
vt -1.7468 5.5384
vt -1.6546 2.45
vt -1.6546 2.5516
vt -1.6546 2.75
vt -1.6546 2.8516
vt -1.6452 3.1
vt -1.6452 5.5384
vt -1.553 2.45
vt -1.553 2.5516
vt -1.553 2.75
vt -1.553 2.8516
vt -1.5436 3.1
vt -1.5436 5.5384
vt -1.3746 2.45
vt -1.3746 2.5516
vt -1.3746 2.75
vt -1.3746 2.8516
vt -1.273 2.45
vt -1.273 2.5516
vt -1.273 2.75
vt -1.273 2.8516
vt -1.25 3.1
vt -1.25 5.5384
vt -1.1484 3.1
vt -1.1484 5.5384
vt -1.1484 3.1
vt -1.1484 5.5384
vt -1.12 1.57
vt -1.12 2.9
vt -1.1073 1.57
vt -1.1073 2.9
vt -1.0468 3.1
vt -1.0468 5.5384
vt -1.0438 1.57
vt -1.0438 2.9
vt -0.9803 1.57
vt -0.9803 2.9
vt -0.9676 1.57
vt -0.9676 2.9
vt -0.9452 3.1
vt -0.9452 5.5384
vt -0.9452 3.1
vt -0.9452 5.5384
vt -0.85 1.57
vt -0.85 2.9
vt -0.8436 3.1
vt -0.8436 5.5384
vt -0.8373 1.57
vt -0.8373 2.9
vt -0.7738 1.57
vt -0.7738 2.9
vt -0.7103 1.57
vt -0.7103 2.9
vt -0.6976 1.57
vt -0.6976 2.9
vt -0.6 3.1
vt -0.6 5.5384
vt -0.59 1.57
vt -0.59 2.9
vt -0.5773 1.57
vt -0.5773 2.9
vt -0.5138 1.57
vt -0.5138 2.9
vt -0.4984 3.1
vt -0.4984 5.5384
vt -0.4503 1.57
vt -0.4503 2.9
vt -0.4376 1.57
vt -0.4376 2.9
vt -0.3968 3.1
vt -0.3968 5.5384
vt -0.34 1.57
vt -0.34 2.9
vt -0.3273 1.57
vt -0.3273 2.9
vt -0.2952 3.1
vt -0.2952 5.5384
vt -0.2638 1.57
vt -0.2638 2.9
vt -0.2003 1.57
vt -0.2003 2.9
vt -0.1936 3.1
vt -0.1936 5.5384
vt -0.1876 1.57
vt -0.1876 2.9
vt 1.16 2.0716
vt 1.21 5.7216
vt 1.2189 0.5016
vt 1.2189 1.7716
vt 1.2189 4.1016
vt 1.2189 5.3716
vt 1.245 2.0716
vt 1.295 5.7216
vt 1.825 2.8566
vt 1.875 6.5066
vt 1.88 0.5016
vt 1.88 2.4966
vt 1.88 2.7966
vt 1.88 4.1016
vt 1.88 6.0966
vt 1.93 6.4466
vt 3 3.0616
vt 3 3.1416
vt 3 4.1016
vt 3 6.3616
vt 3 0.5016
vt 3 2.7616
vt 3.05 6.7116
vt 3.05 6.7916
vt 3.21408 -3.3984
vt 3.21408 -2.1284
vt 4.12 0.5016
vt 4.12 2.4966
vt 4.12 2.7966
vt 4.12 4.1016
vt 4.12 6.0966
vt 4.17 6.4466
vt 4.175 2.8566
vt 4.225 6.5066
vt 4.755 2.0716
vt 4.7811 0.5016
vt 4.7811 1.7716
vt 4.7811 4.1016
vt 4.7811 5.3716
vt 4.805 5.7216
vt 4.84 2.0716
vt 4.89 5.7216
vt 6.4 7.68536
vt 6.65 -1.7
vt 6.65 -1.60354
vt 6.65 -0.621738
vt 6.65 0.55162
vt 6.65 1.72498
vt 6.65 2.70678
vt 6.65 2.80324
vt 6.65 3.85764
vt 6.65 5.09003
vt 6.65 5.4
vt 6.65 6.43844
vt 9.87167 -3.3984
vt 9.87167 -2.1284
vt 10.2141 -3.3984
vt 10.2141 -2.1284
vt 13.1315 -1.7
vt 13.1315 -1.605
vt 13.1315 -0.638062
vt 13.1315 1.74274
vt 13.1315 2.70968
vt 13.1315 2.80468
vt 13.1315 3.84311
vt 13.1315 5.4
vt 13.1315 6.45374
vt 13.1315 7.68536
vt 13.3815 0.552339
vt 13.3815 5.09003
vt 16.8717 -3.3984
vt 16.8717 -2.1284
vn 0 0 1
vn 0 0 1
vn 0 0 1
vn 0 0 1
vn 0 0 1
vn 0 0 1
vn 0 0 1
vn 0 0 1
vn 0 0 1
vn 0 0 1
vn 0 0 1
vn 0 0 1
vn 0 0 1
vn 0 0 1
vn 0 0 1
vn 0 0 1
vn 0 0 1
vn 0 0 1
vn 0 0 1
vn 0 0 1
vn 0 0 1
vn 0 0 1
vn 0 0 1
vn 0 0 1
vn 0 -0 -1
vn 0 -0 -1
vn 0 -0 -1
vn 0 0 -1
vn 0 0 -1
vn 0 0 -1
vn 0 -0 -1
vn 0 -0 -1
vn 0 -0 -1
vn 0 0 -1
vn 0 0 -1
vn 0 0 -1
vn 0 0 -1
vn 0 0 -1
vn 0 0 -1
vn 0 0 -1
vn 0 0 -1
vn 0 0 -1
vn 0 0 -1
vn 0 0 -1
vn 0 0 -1
vn 0 0 -1
vn 0 0 -1
vn 0 0 -1
vn 1 0 -0
vn 1 0 -0
vn 1 0 -0
vn 1 -0 -0
vn 1 -0 -0
vn 1 -0 -0
vn -1 0 -0
vn -1 0 -0
vn -1 0 -0
vn -1 0 -0
vn -1 0 -0
vn -1 0 -0
vn 0 0 1
vn 0 0 1
vn 0 0 1
vn 0 0 1
vn 0 0 1
vn 0 0 1
vn 0.246224 0 0.969213
vn 0.246224 0 0.969213
vn 0.246224 0 0.969213
vn 0.191486 -0.175529 0.965672
vn 0.191486 -0.175529 0.965672
vn 0.191486 -0.175529 0.965672
vn -0.191486 -0.175529 0.965672
vn -0.191486 -0.175529 0.965672
vn -0.191486 -0.175529 0.965672
vn -0.246224 0 0.969213
vn -0.246224 0 0.969213
vn -0.246224 0 0.969213
vn 0 0 1
vn 0 0 1
vn 0 0 1
vn 0 0 1
vn 0 0 1
vn 0 0 1
vn 0 -0 -1
vn 0 -0 -1
vn 0 -0 -1
vn 0 0 -1
vn 0 0 -1
vn 0 0 -1
vn 0 -0 -1
vn 0 -0 -1
vn 0 -0 -1
vn 0 0 -1
vn 0 0 -1
vn 0 0 -1
vn 0 0 -1
vn 0 0 -1
vn 0 0 -1
vn 0 -0 -1
vn 0 -0 -1
vn 0 -0 -1
vn 0 0 -1
vn 0 0 -1
vn 0 0 -1
vn 0 -0 -1
vn 0 -0 -1
vn 0 -0 -1
vn 0 -0 -1
vn 0 -0 -1
vn 0 -0 -1
vn 0 0 -1
vn 0 0 -1
vn 0 0 -1
vn 0 -0 -1
vn 0 -0 -1
vn 0 -0 -1
vn 0 0 -1
vn 0 0 -1
vn 0 0 -1
vn 0 0 -1
vn 0 0 -1
vn 0 0 -1
vn 0 -0 -1
vn 0 -0 -1
vn 0 -0 -1
vn 0 0 -1
vn 0 0 -1
vn 0 0 -1
vn 0 -0 -1
vn 0 -0 -1
vn 0 -0 -1
vn 0 -0 -1
vn 0 -0 -1
vn 0 -0 -1
vn 0 0 -1
vn 0 0 -1
vn 0 0 -1
vn 0 0 1
vn 0 0 1
vn 0 0 1
vn 0 0 1
vn 0 0 1
vn 0 0 1
vn 0 0 1
vn 0 0 1
vn 0 0 1
vn 0 0 1
vn 0 0 1
vn 0 0 1
vn 0 0 1
vn 0 0 1
vn 0 0 1
vn 0 0 1
vn 0 0 1
vn 0 0 1
vn 0 0 1
vn 0 0 1
vn 0 0 1
vn 0 0 1
vn 0 0 1
vn 0 0 1
vn 0 0 1
vn 0 0 1
vn 0 0 1
vn 0 0 1
vn 0 0 1
vn 0 0 1
vn 0 0 1
vn 0 0 1
vn 0 0 1
vn 0 0 1
vn 0 0 1
vn 0 0 1
vn 1 0 -0
vn 1 0 -0
vn 1 0 -0
vn 1 0 -0
vn 1 0 -0
vn 1 0 -0
vn 0 0 -1
vn 0 0 -1
vn 0 0 -1
vn 0 -0 -1
vn 0 -0 -1
vn 0 -0 -1
vn -1 0 -0
vn -1 0 -0
vn -1 0 -0
vn -1 0 -0
vn -1 0 -0
vn -1 0 -0
vn 1 0 -0
vn 1 0 -0
vn 1 0 -0
vn 1 0 -0
vn 1 0 -0
vn 1 0 -0
vn 0 -0 -1
vn 0 -0 -1
vn 0 -0 -1
vn 0 0 -1
vn 0 0 -1
vn 0 0 -1
vn -1 0 -0
vn -1 0 -0
vn -1 0 -0
vn -1 0 -0
vn -1 0 -0
vn -1 0 -0
vn 0 0 1
vn 0 0 1
vn 0 0 1
vn 0 0 1
vn 0 0 1
vn 0 0 1
vn 0 0 -1
vn 0 0 -1
vn 0 0 -1
vn 0 -0 -1
vn 0 -0 -1
vn 0 -0 -1
vn -1 0 -0
vn -1 0 -0
vn -1 0 -0
vn -1 0 -0
vn -1 0 -0
vn -1 0 -0
vn 0 0 1
vn 0 0 1
vn 0 0 1
vn 0 0 1
vn 0 0 1
vn 0 0 1
vn 1 0 -0
vn 1 0 -0
vn 1 0 -0
vn 1 0 -0
vn 1 0 -0
vn 1 0 -0
vn -1 0 -0
vn -1 0 -0
vn -1 0 -0
vn -1 0 -0
vn -1 0 -0
vn -1 0 -0
vn 0 0 1
vn 0 0 1
vn 0 0 1
vn 0 0 1
vn 0 0 1
vn 0 0 1
vn 1 0 -0
vn 1 0 -0
vn 1 0 -0
vn 1 -0 -0
vn 1 -0 -0
vn 1 -0 -0
vn 0 0 -1
vn 0 0 -1
vn 0 0 -1
vn 0 0 -1
vn 0 0 -1
vn 0 0 -1
vn 0 1 -0
vn 0 1 -0
vn 0 1 -0
vn 0 1 0
vn 0 1 0
vn 0 1 0
vn 1 0 -0
vn 1 0 -0
vn 1 0 -0
vn 1 0 -0
vn 1 0 -0
vn 1 0 -0
vn 0 -1 -0
vn 0 -1 -0
vn 0 -1 -0
vn 0 -1 -0
vn 0 -1 -0
vn 0 -1 -0
vn -1 0 -0
vn -1 0 -0
vn -1 0 -0
vn -1 0 -0
vn -1 0 -0
vn -1 0 -0
vn 0 1 -0
vn 0 1 -0
vn 0 1 -0
vn 0 1 0
vn 0 1 0
vn 0 1 0
vn 1 0 -0
vn 1 0 -0
vn 1 0 -0
vn 1 0 -0
vn 1 0 -0
vn 1 0 -0
vn 0 -1 -0
vn 0 -1 -0
vn 0 -1 -0
vn 0 -1 -0
vn 0 -1 -0
vn 0 -1 -0
vn -1 0 -0
vn -1 0 -0
vn -1 0 -0
vn -1 0 -0
vn -1 0 -0
vn -1 0 -0
vn 0 1 -0
vn 0 1 -0
vn 0 1 -0
vn 0 1 0
vn 0 1 0
vn 0 1 0
vn 1 0 -0
vn 1 0 -0
vn 1 0 -0
vn 1 0 -0
vn 1 0 -0
vn 1 0 -0
vn 0 -1 -0
vn 0 -1 -0
vn 0 -1 -0
vn 0 -1 -0
vn 0 -1 -0
vn 0 -1 -0
vn -1 0 -0
vn -1 0 -0
vn -1 0 -0
vn -1 0 -0
vn -1 0 -0
vn -1 0 -0
vn -1 0 -0
vn -1 0 -0
vn -1 0 -0
vn -1 0 -0
vn -1 0 -0
vn -1 0 -0
vn 0 1 -0
vn 0 1 -0
vn 0 1 -0
vn 0 1 0
vn 0 1 0
vn 0 1 0
vn 1 0 -0
vn 1 0 -0
vn 1 0 -0
vn 1 0 -0
vn 1 0 -0
vn 1 0 -0
vn 0 -1 -0
vn 0 -1 -0
vn 0 -1 -0
vn 0 -1 -0
vn 0 -1 -0
vn 0 -1 -0
vn -1 0 -0
vn -1 0 -0
vn -1 0 -0
vn -1 0 -0
vn -1 0 -0
vn -1 0 -0
vn 0 1 -0
vn 0 1 -0
vn 0 1 -0
vn 0 1 0
vn 0 1 0
vn 0 1 0
vn 1 0 -0
vn 1 0 -0
vn 1 0 -0
vn 1 0 -0
vn 1 0 -0
vn 1 0 -0
vn 0 -1 -0
vn 0 -1 -0
vn 0 -1 -0
vn 0 -1 -0
vn 0 -1 -0
vn 0 -1 -0
vn 0 -1 -0
vn 0 -1 -0
vn 0 -1 -0
vn 0 -1 -0
vn 0 -1 -0
vn 0 -1 -0
vn -0.749789 -0.661676 -0
vn -0.749789 -0.661676 -0
vn -0.749789 -0.661676 -0
vn -0.749789 -0.661676 -0
vn -0.749789 -0.661676 -0
vn -0.749789 -0.661676 -0
vn -0.229319 -0.973351 -0
vn -0.229319 -0.973351 -0
vn -0.229319 -0.973351 -0
vn -0.229319 -0.973351 -0
vn -0.229319 -0.973351 -0
vn -0.229319 -0.973351 -0
vn 0.229319 -0.973351 -0
vn 0.229319 -0.973351 -0
vn 0.229319 -0.973351 -0
vn 0.229319 -0.973351 -0
vn 0.229319 -0.973351 -0
vn 0.229319 -0.973351 -0
vn 0.749789 -0.661676 -0
vn 0.749789 -0.661676 -0
vn 0.749789 -0.661676 -0
vn 0.749789 -0.661676 -0
vn 0.749789 -0.661676 -0
vn 0.749789 -0.661676 -0
vn 0 -1 -0
vn 0 -1 -0
vn 0 -1 -0
vn 0 -1 -0
vn 0 -1 -0
vn 0 -1 -0
vn -0.755943 0.654637 -0
vn -0.755943 0.654637 -0
vn -0.755943 0.654637 -0
vn -0.755943 0.654637 -0
vn -0.755943 0.654637 -0
vn -0.755943 0.654637 -0
vn -0.234812 0.972041 -0
vn -0.234812 0.972041 -0
vn -0.234812 0.972041 -0
vn -0.234812 0.972041 -0
vn -0.234812 0.972041 -0
vn -0.234812 0.972041 -0
vn 0.755943 0.654637 0
vn 0.755943 0.654637 0
vn 0.755943 0.654637 0
vn 0.755943 0.654637 -0
vn 0.755943 0.654637 -0
vn 0.755943 0.654637 -0
vn 0.234812 0.972041 -0
vn 0.234812 0.972041 -0
vn 0.234812 0.972041 -0
vn 0.234812 0.972041 0
vn 0.234812 0.972041 0
vn 0.234812 0.972041 0
g Shed
usemtl Shed
s off
f 102/139/1 101/138/2 99/143/3
f 100/144/4 102/139/5 99/143/6
f 106/130/7 108/129/8 101/138/9
f 102/139/10 106/130/11 101/138/12
f 107/162/13 105/163/14 103/154/15
f 105/163/16 104/155/17 103/154/18
f 103/154/19 104/155/20 99/143/21
f 104/155/22 100/144/23 99/143/24
f 111/136/25 109/146/26 110/145/27
f 112/135/28 111/136/29 110/145/30
f 116/128/31 111/136/32 112/135/33
f 117/127/34 116/128/35 112/135/36
f 113/152/37 115/161/38 114/151/39
f 115/161/40 118/160/41 114/151/42
f 109/146/43 113/152/44 110/145/45
f 113/152/46 114/151/47 110/145/48
f 120/195/49 121/182/50 122/181/51
f 119/196/52 121/182/53 120/195/54
f 123/180/55 124/179/56 126/149/57
f 125/150/58 123/180/59 126/149/60
g Sides
usemtl Sides
s off
f 129/158/61 128/156/62 127/164/63
f 130/166/64 129/158/65 127/164/66
f 135/148/67 136/147/68 128/156/69
f 129/158/70 135/148/71 128/156/72
f 135/148/73 133/134/74 132/140/75
f 136/147/76 135/148/77 132/140/78
f 133/134/79 134/126/80 131/132/81
f 132/140/82 133/134/83 131/132/84
f 138/157/85 139/165/86 140/159/87
f 137/153/88 138/157/89 140/159/90
f 146/142/91 138/157/92 137/153/93
f 145/141/94 146/142/95 137/153/96
f 142/133/97 143/137/98 144/131/99
f 141/125/100 142/133/101 144/131/102
f 146/142/103 145/141/104 143/137/105
f 142/133/106 146/142/107 143/137/108
g Floor
usemtl Floor
s off
f 147/4/109 148/10/110 149/9/111
f 150/3/112 147/4/113 149/9/114
f 151/18/115 152/24/116 153/23/117
f 154/17/118 151/18/119 153/23/120
f 156/56/121 158/59/122 157/55/123
f 156/56/124 155/60/125 158/59/126
f 160/44/127 162/49/128 161/43/129
f 160/44/130 159/50/131 162/49/132
f 163/30/133 164/36/134 165/35/135
f 163/30/136 165/35/137 166/29/138
f 168/8/139 167/2/140 169/1/141
f 168/8/142 169/1/143 170/7/144
f 172/22/145 171/16/146 173/15/147
f 172/22/148 173/15/149 174/21/150
f 177/57/151 175/58/152 178/53/153
f 175/58/154 176/54/155 178/53/156
f 181/47/157 179/48/158 182/41/159
f 179/48/160 180/42/161 182/41/162
f 184/34/163 183/28/164 185/27/165
f 184/34/166 185/27/167 186/33/168
g Trim
usemtl Trim
s off
f 25/69/169 28/70/170 52/67/171
f 28/70/172 51/68/173 52/67/174
f 27/73/175 29/74/176 25/69/177
f 29/74/178 28/70/179 25/69/180
f 30/76/181 27/73/182 26/75/183
f 30/76/184 29/74/185 27/73/186
f 50/78/187 26/75/188 49/77/189
f 50/78/190 30/76/191 26/75/192
f 24/88/193 47/84/194 48/83/195
f 20/87/196 24/88/197 48/83/198
f 21/89/199 24/88/200 20/87/201
f 23/90/202 24/88/203 21/89/204
f 23/90/205 21/89/206 19/91/207
f 22/92/208 23/90/209 19/91/210
f 22/92/211 19/91/212 43/93/213
f 44/94/214 22/92/215 43/93/216
f 31/99/217 34/100/218 46/97/219
f 34/100/220 45/98/221 46/97/222
f 35/102/223 31/99/224 33/101/225
f 35/102/226 34/100/227 31/99/228
f 36/106/229 33/101/230 32/105/231
f 36/106/232 35/102/233 33/101/234
f 56/107/235 55/108/236 32/105/237
f 55/108/238 36/106/239 32/105/240
f 42/114/241 58/112/242 57/111/243
f 42/114/244 57/111/245 38/113/246
f 39/117/247 42/114/248 38/113/249
f 41/118/250 42/114/251 39/117/252
f 37/119/253 41/118/254 39/117/255
f 40/120/256 41/118/257 37/119/258
f 40/120/259 37/119/260 53/123/261
f 54/124/262 40/120/263 53/123/264
g Floor
usemtl Floor
s off
f 60/62/265 59/61/266 62/65/267
f 61/66/268 60/62/269 62/65/270
f 61/66/271 62/65/272 64/71/273
f 65/72/274 61/66/275 64/71/276
f 63/81/277 66/82/278 64/71/279
f 66/82/280 65/72/281 64/71/282
f 59/85/283 60/86/284 66/82/285
f 59/85/286 66/82/287 63/81/288
f 68/32/289 67/31/290 70/37/291
f 69/38/292 68/32/293 70/37/294
f 69/38/295 70/37/296 72/39/297
f 73/40/298 69/38/299 72/39/300
f 71/45/301 74/46/302 72/39/303
f 74/46/304 73/40/305 72/39/306
f 67/51/307 68/52/308 74/46/309
f 67/51/310 74/46/311 71/45/312
f 92/6/313 91/5/314 94/11/315
f 93/12/316 92/6/317 94/11/318
f 93/12/319 94/11/320 96/13/321
f 97/14/322 93/12/323 96/13/324
f 98/20/325 96/13/326 95/19/327
f 98/20/328 97/14/329 96/13/330
f 91/25/331 92/26/332 98/20/333
f 91/25/334 98/20/335 95/19/336
f 86/63/337 89/62/338 88/61/339
f 86/63/340 85/64/341 89/62/342
f 83/71/343 85/64/344 86/63/345
f 84/72/346 85/64/347 83/71/348
f 90/80/349 84/72/350 87/79/351
f 84/72/352 83/71/353 87/79/354
f 89/86/355 90/80/356 87/79/357
f 89/86/358 87/79/359 88/85/360
f 78/103/361 81/96/362 80/95/363
f 78/103/364 77/104/365 81/96/366
f 75/109/367 77/104/368 78/103/369
f 76/110/370 77/104/371 75/109/372
f 82/116/373 76/110/374 79/115/375
f 76/110/376 75/109/377 79/115/378
f 81/122/379 82/116/380 79/115/381
f 81/122/382 79/115/383 80/121/384
g Sides
usemtl Sides
s off
f 3/169/385 12/183/386 10/184/387
f 3/169/388 2/168/389 12/183/390
g Shed
usemtl Shed
s off
f 11/185/391 1/170/392 10/184/393
f 1/170/394 3/169/395 10/184/396
f 18/193/397 8/171/398 11/185/399
f 8/171/400 1/170/401 11/185/402
f 8/171/403 18/193/404 14/186/405
f 6/172/406 8/171/407 14/186/408
f 7/173/409 14/186/410 13/187/411
f 6/172/412 14/186/413 7/173/414
g Sides
usemtl Sides
s off
f 16/188/415 4/174/416 13/187/417
f 4/174/418 7/173/419 13/187/420
g Roof
usemtl Roof
s off
f 15/189/421 5/175/422 16/188/423
f 5/175/424 4/174/425 16/188/426
f 17/194/427 9/176/428 15/189/429
f 9/176/430 5/175/431 15/189/432
f 188/190/433 190/178/434 191/177/435
f 187/191/436 190/178/437 188/190/438
f 189/192/439 192/167/440 190/178/441
f 187/191/442 189/192/443 190/178/444
