####
#
#	OBJ File Generated by LightWave3D
#	LightWave3D OBJ Export v2.3
#
####
o Ramp_4x9.obj
mtllib Ramp_4x9.mtl
g default
v -1.3716 0 0.6096
v 1.3716 0 0.6096
v 1.3716 0.211712 -0.591078
v -1.3716 0.211712 -0.591078
v -1.3716 0.0250141 0.614011
v -1.3716 0.236726 -0.586667
v 1.3716 0.236726 -0.586667
v 1.3716 0.0250141 0.614011
v -1.3716 0.141141 -0.190852
v -1.3716 0.158784 -0.290909
v 1.3716 0.158784 -0.290909
v 1.3716 0.141141 -0.190852
v -1.3716 0.0911131 -0.199673
v 1.3716 0.0911131 -0.199673
v 1.3716 0.108756 -0.29973
v -1.3716 0.108756 -0.29973
v -1.3716 0.0529279 0.309431
v -1.3716 0.0705705 0.209375
v 1.3716 0.0705705 0.209375
v 1.3716 0.0529279 0.309431
v -1.3716 0.00289965 0.30061
v 1.3716 0.00289965 0.30061
v 1.3716 0.0205423 0.200553
v -1.3716 0.0205423 0.200553
v -1.3716 0.203655 -0.545383
v -1.3716 0.221297 -0.645439
v 1.3716 0.221297 -0.645439
v 1.3716 0.203655 -0.545383
v -1.3716 0.153626 -0.554204
v 1.3716 0.153626 -0.554204
v 1.3716 0.171269 -0.654261
v -1.3716 0.171269 -0.654261
vt -3.46281 -3.14829
vt -3.46281 -3.08814
vt -3.46281 -3.07611
vt -3.46281 -3.01596
vt -3.46281 -3.00338
vt -3.46281 -2.87214
vt -3.46281 -2.85881
vt -3.46281 -2.6558
vt -3.46281 -2.64247
vt -3.46281 -2.51123
vt -3.46281 -2.49749
vt -3.46281 -0.0576642
vt -3.46281 -0.0437212
vt -3.46281 0.15929
vt -3.46281 0.172824
vt -3.46281 0.375836
vt -3.46281 0.389165
vt -3.46281 0.520404
vt -3.46281 0.533528
vt -3.46281 0.664768
vt -3.46281 0.678097
vt -3.46281 0.881108
vt -3.46281 0.894438
vt -3.46281 1.02568
vt -3.46281 1.03941
vt -3.46281 3.47924
vt -3.46281 3.49319
vt -3.46281 3.6962
vt -3.46281 3.70973
vt -3.46281 3.91274
vt -3.46281 3.92607
vt -3.46281 4.05731
vt 2.00861 -3.14829
vt 2.00861 -3.08814
vt 2.00861 -3.07611
vt 2.00861 -3.01596
vt 2.00861 -3.00338
vt 2.00861 -2.87214
vt 2.00861 -2.85881
vt 2.00861 -2.6558
vt 2.00861 -2.64247
vt 2.00861 -2.51123
vt 2.00861 -2.49749
vt 2.00861 -0.0576642
vt 2.00861 -0.0437212
vt 2.00861 0.15929
vt 2.00861 0.172824
vt 2.00861 0.375836
vt 2.00861 0.389165
vt 2.00861 0.520404
vt 2.00861 0.533528
vt 2.00861 0.664768
vt 2.00861 0.678097
vt 2.00861 0.881108
vt 2.00861 0.894438
vt 2.00861 1.02568
vt 2.00861 1.03941
vt 2.00861 3.47924
vt 2.00861 3.49319
vt 2.00861 3.6962
vt 2.00861 3.70973
vt 2.00861 3.91274
vt 2.00861 3.92607
vt 2.00861 4.05731
vt 2.02268 -2.90636
vt 2.02298 -2.44574
vt 2.02298 -1.94047
vt 2.03191 -2.49765
vt 2.03191 -1.99238
vt 2.04496 -3.00338
vt 2.27538 -2.87214
vt 2.29766 -2.96917
vt 2.31141 -2.90636
vt 2.33369 -3.00338
vt 2.56411 -2.87214
vt 2.58639 -2.96917
vt 2.60003 -2.90636
vt 2.61648 -3.00338
vt 2.78659 -2.87214
vt 2.80304 -2.96917
vt 2.81657 -2.90636
vt 2.83302 -3.00338
vt 3.00314 -2.87214
vt 3.01959 -2.96917
vt 3.03312 -2.90636
vt 3.04957 -3.00338
vt 3.21968 -2.87214
vt 3.23613 -2.96917
vt 3.24967 -2.90636
vt 3.26611 -3.00338
vt 3.43623 -2.87214
vt 3.45268 -2.96917
vt 4.45388 -2.00642
vt 4.45388 -1.50114
vt 4.46281 -2.05832
vt 4.46281 -1.55305
vn 0 -0.984808 -0.173648
vn 0 -0.984808 -0.173648
vn 0 -0.984808 -0.173648
vn 0 -0.984808 -0.173648
vn 0 0.984808 0.173648
vn 0 0.984808 0.173648
vn 0 0.984808 0.173648
vn 0 0.984808 0.173648
vn 0 -0.173649 0.984808
vn 0 -0.173649 0.984808
vn 0 -0.173649 0.984808
vn 0 -0.173649 0.984808
vn 1 -0 -0
vn 1 -0 -0
vn 1 -0 -0
vn 1 -0 -0
vn 0 0.173649 -0.984808
vn 0 0.173649 -0.984808
vn 0 0.173649 -0.984808
vn 0 0.173649 -0.984808
vn -1 0 0
vn -1 0 0
vn -1 0 0
vn -1 0 0
vn 0 0.984808 0.173648
vn 0 0.984808 0.173648
vn 0 0.984808 0.173648
vn 0 0.984808 0.173648
vn 0 -0.984808 -0.173648
vn 0 -0.984808 -0.173648
vn 0 -0.984808 -0.173648
vn 0 -0.984808 -0.173648
vn 0 -0.173648 0.984808
vn 0 -0.173648 0.984808
vn 0 -0.173648 0.984808
vn 0 -0.173648 0.984808
vn 1 0 0
vn 1 0 0
vn 1 0 0
vn 1 0 0
vn 0 0.173648 -0.984808
vn 0 0.173648 -0.984808
vn 0 0.173648 -0.984808
vn 0 0.173648 -0.984808
vn -1 -0 -0
vn -1 -0 -0
vn -1 -0 -0
vn -1 -0 -0
vn 0 0.984808 0.173648
vn 0 0.984808 0.173648
vn 0 0.984808 0.173648
vn 0 0.984808 0.173648
vn 0 -0.984808 -0.173648
vn 0 -0.984808 -0.173648
vn 0 -0.984808 -0.173648
vn 0 -0.984808 -0.173648
vn 0 -0.173648 0.984808
vn 0 -0.173648 0.984808
vn 0 -0.173648 0.984808
vn 0 -0.173648 0.984808
vn 1 0 0
vn 1 0 0
vn 1 0 0
vn 1 0 0
vn 0 0.173648 -0.984808
vn 0 0.173648 -0.984808
vn 0 0.173648 -0.984808
vn 0 0.173648 -0.984808
vn -1 -0 -0
vn -1 -0 -0
vn -1 -0 -0
vn -1 -0 -0
vn 0 0.984808 0.173648
vn 0 0.984808 0.173648
vn 0 0.984808 0.173648
vn 0 0.984808 0.173648
vn 0 -0.984808 -0.173648
vn 0 -0.984808 -0.173648
vn 0 -0.984808 -0.173648
vn 0 -0.984808 -0.173648
vn 0 -0.173649 0.984808
vn 0 -0.173649 0.984808
vn 0 -0.173649 0.984808
vn 0 -0.173649 0.984808
vn 1 0 0
vn 1 0 0
vn 1 0 0
vn 1 0 0
vn 0 0.173649 -0.984808
vn 0 0.173649 -0.984808
vn 0 0.173649 -0.984808
vn 0 0.173649 -0.984808
vn -1 -0 -0
vn -1 -0 -0
vn -1 -0 -0
vn -1 -0 -0
g Wood
usemtl Wood
s off
f 4/26/1 3/58/2 2/57/3 1/25/4
f 8/43/5 7/44/6 6/12/7 5/11/8
g Edge
usemtl Edge
s off
f 2/35/9 8/36/10 5/4/11 1/3/12
f 3/95/13 7/93/14 8/66/15 2/68/16
f 4/1/17 6/2/18 7/34/19 3/33/20
f 1/69/21 5/67/22 6/94/23 4/96/24
g Wood
usemtl Wood
s off
f 12/45/25 11/46/26 10/14/27 9/13/28
f 16/16/29 15/48/30 14/47/31 13/15/32
f 13/17/33 14/49/34 12/50/35 9/18/36
f 14/86/37 15/88/38 11/87/39 12/85/40
f 15/51/41 16/19/42 10/20/43 11/52/44
f 16/92/45 13/90/46 9/89/47 10/91/48
f 20/53/49 19/54/50 18/22/51 17/21/52
f 24/30/53 23/62/54 22/61/55 21/29/56
f 21/23/57 22/55/58 20/56/59 17/24/60
f 22/78/61 23/80/62 19/79/63 20/77/64
f 23/37/65 24/5/66 18/6/67 19/38/68
f 24/84/69 21/82/70 17/81/71 18/83/72
f 28/59/73 27/60/74 26/28/75 25/27/76
f 32/8/77 31/40/78 30/39/79 29/7/80
f 29/9/81 30/41/82 28/42/83 25/10/84
f 30/74/85 31/76/86 27/75/87 28/73/88
f 31/63/89 32/31/90 26/32/91 27/64/92
f 32/72/93 29/70/94 25/65/95 26/71/96
