####
#
#	OBJ File Generated by LightWave3D
#	LightWave3D OBJ Export v2.3
#
####
o Ramp_4x4.obj
mtllib Ramp_4x4.mtl
g default
v -0.6096 0 0.6096
v 0.6096 0 0.6096
v 0.6096 0.211712 -0.591078
v -0.6096 0.211712 -0.591078
v -0.6096 0.0250141 0.614011
v -0.6096 0.236726 -0.586667
v 0.6096 0.236726 -0.586667
v 0.6096 0.0250141 0.614011
v -0.6096 0.141141 -0.190852
v -0.6096 0.158784 -0.290909
v 0.6096 0.158784 -0.290909
v 0.6096 0.141141 -0.190852
v -0.6096 0.0911131 -0.199673
v 0.6096 0.0911131 -0.199673
v 0.6096 0.108756 -0.29973
v -0.6096 0.108756 -0.29973
v -0.6096 0.0529279 0.309431
v -0.6096 0.0705705 0.209375
v 0.6096 0.0705705 0.209375
v 0.6096 0.0529279 0.309431
v -0.6096 0.00289965 0.30061
v 0.6096 0.00289965 0.30061
v 0.6096 0.0205423 0.200553
v -0.6096 0.0205423 0.200553
v -0.6096 0.203655 -0.545383
v -0.6096 0.221297 -0.645439
v 0.6096 0.221297 -0.645439
v 0.6096 0.203655 -0.545383
v -0.6096 0.153626 -0.554204
v 0.6096 0.153626 -0.554204
v 0.6096 0.171269 -0.654261
v -0.6096 0.171269 -0.654261
vt -3.32534 -3.19607
vt -3.32534 -3.11306
vt -3.32534 -3.0957
vt -3.32534 -2.91459
vt -3.32534 -2.8962
vt -3.32534 -2.61604
vt -3.32534 -2.5968
vt -3.32534 0.770145
vt -3.32534 0.78995
vt -3.32534 4.1569
vt 0.0416051 -3.19607
vt 0.0416051 -3.11306
vt 0.0416051 -3.0957
vt 0.0416051 -2.91459
vt 0.0416051 -2.8962
vt 0.0416051 -2.61604
vt 0.0416051 -2.5968
vt 0.0416051 0.770145
vt 0.0416051 0.78995
vt 0.0416051 4.1569
vt 0.0614107 -3.19607
vt 0.0614107 -3.11306
vt 0.0614107 -3.0957
vt 0.0614107 -2.91459
vt 0.0614107 -2.8962
vt 0.0614107 -2.61604
vt 0.0614107 -2.59737
vt 0.0614107 -2.31721
vt 0.0614107 -2.29882
vt 0.0614107 -2.11771
vt 0.0614107 -2.0996
vt 0.0614107 -1.91849
vt 0.0614107 -1.90009
vt 0.0614107 -1.61994
vt 0.0614107 -1.60155
vt 0.0614107 -1.42044
vt 0.0614107 -1.40204
vt 0.0614107 -1.12189
vt 0.0614107 -1.10321
vt 0.0614107 -0.823057
vt 0.0614107 -0.804664
vt 0.0614107 -0.623554
vt 0.0614107 -0.533182
vt 0.0614107 0.164091
vt 0.0737339 -0.604814
vt 0.0737339 0.0924589
vt 3.41604 0.0730901
vt 3.41604 0.770363
vt 3.42836 -3.19607
vt 3.42836 -3.11306
vt 3.42836 -3.0957
vt 3.42836 -2.91459
vt 3.42836 -2.8962
vt 3.42836 -2.61604
vt 3.42836 -2.59737
vt 3.42836 -2.31721
vt 3.42836 -2.29882
vt 3.42836 -2.11771
vt 3.42836 -2.0996
vt 3.42836 -1.91849
vt 3.42836 -1.90009
vt 3.42836 -1.61994
vt 3.42836 -1.60155
vt 3.42836 -1.42044
vt 3.42836 -1.40204
vt 3.42836 -1.12189
vt 3.42836 -1.10321
vt 3.42836 -0.823057
vt 3.42836 -0.804664
vt 3.42836 -0.623554
vt 3.42836 0.00145809
vt 3.42836 0.698731
vt 3.4476 -2.76259
vt 3.4476 -2.46376
vt 3.44775 -2.96181
vt 3.4703 -2.89648
vt 3.4703 -2.59765
vt 3.47849 -3.0957
vt 3.70506 -2.71537
vt 3.70506 -2.41654
vt 3.72775 -2.84926
vt 3.72775 -2.55043
vt 3.74643 -2.76259
vt 3.76913 -2.89648
vt 3.79647 -2.91459
vt 3.82722 -3.04848
vt 3.84619 -2.96181
vt 3.87693 -3.0957
vt 4.00389 -2.71537
vt 4.02659 -2.84926
vt 4.04526 -2.76259
vt 4.06796 -2.89648
vt 4.19491 -2.91459
vt 4.22566 -3.04848
vt 4.30272 -2.71537
vt 4.32542 -2.84926
vn 0 -0.984808 -0.173648
vn 0 -0.984808 -0.173648
vn 0 -0.984808 -0.173648
vn 0 -0.984808 -0.173648
vn 0 0.984808 0.173648
vn 0 0.984808 0.173648
vn 0 0.984808 0.173648
vn 0 0.984808 0.173648
vn 0 -0.173649 0.984808
vn 0 -0.173649 0.984808
vn 0 -0.173649 0.984808
vn 0 -0.173649 0.984808
vn 1 -0 -0
vn 1 -0 -0
vn 1 -0 -0
vn 1 -0 -0
vn 0 0.173649 -0.984808
vn 0 0.173649 -0.984808
vn 0 0.173649 -0.984808
vn 0 0.173649 -0.984808
vn -1 0 0
vn -1 0 0
vn -1 0 0
vn -1 0 0
vn 0 0.984808 0.173648
vn 0 0.984808 0.173648
vn 0 0.984808 0.173648
vn 0 0.984808 0.173648
vn 0 -0.984808 -0.173648
vn 0 -0.984808 -0.173648
vn 0 -0.984808 -0.173648
vn 0 -0.984808 -0.173648
vn 0 -0.173648 0.984808
vn 0 -0.173648 0.984808
vn 0 -0.173648 0.984808
vn 0 -0.173648 0.984808
vn 1 0 0
vn 1 0 0
vn 1 0 0
vn 1 0 0
vn 0 0.173648 -0.984808
vn 0 0.173648 -0.984808
vn 0 0.173648 -0.984808
vn 0 0.173648 -0.984808
vn -1 -0 -0
vn -1 -0 -0
vn -1 -0 -0
vn -1 -0 -0
vn 0 0.984808 0.173648
vn 0 0.984808 0.173648
vn 0 0.984808 0.173648
vn 0 0.984808 0.173648
vn 0 -0.984808 -0.173648
vn 0 -0.984808 -0.173648
vn 0 -0.984808 -0.173648
vn 0 -0.984808 -0.173648
vn 0 -0.173648 0.984808
vn 0 -0.173648 0.984808
vn 0 -0.173648 0.984808
vn 0 -0.173648 0.984808
vn 1 0 0
vn 1 0 0
vn 1 0 0
vn 1 0 0
vn 0 0.173648 -0.984808
vn 0 0.173648 -0.984808
vn 0 0.173648 -0.984808
vn 0 0.173648 -0.984808
vn -1 -0 -0
vn -1 -0 -0
vn -1 -0 -0
vn -1 -0 -0
vn 0 0.984808 0.173648
vn 0 0.984808 0.173648
vn 0 0.984808 0.173648
vn 0 0.984808 0.173648
vn 0 -0.984808 -0.173648
vn 0 -0.984808 -0.173648
vn 0 -0.984808 -0.173648
vn 0 -0.984808 -0.173648
vn 0 -0.173649 0.984808
vn 0 -0.173649 0.984808
vn 0 -0.173649 0.984808
vn 0 -0.173649 0.984808
vn 1 0 0
vn 1 0 0
vn 1 0 0
vn 1 0 0
vn 0 0.173649 -0.984808
vn 0 0.173649 -0.984808
vn 0 0.173649 -0.984808
vn 0 0.173649 -0.984808
vn -1 -0 -0
vn -1 -0 -0
vn -1 -0 -0
vn -1 -0 -0
g Wood
usemtl Wood
s off
f 4/10/1 3/20/2 2/19/3 1/9/4
f 8/17/5 7/18/6 6/8/7 5/7/8
g Edge
usemtl Edge
s off
f 2/49/9 8/50/10 5/22/11 1/21/12
f 3/71/13 7/47/14 8/43/15 2/45/16
f 4/1/17 6/2/18 7/12/19 3/11/20
f 1/46/21 5/44/22 6/48/23 4/72/24
g Wood
usemtl Wood
s off
f 12/53/25 11/54/26 10/26/27 9/25/28
f 16/28/29 15/56/30 14/55/31 13/27/32
f 13/29/33 14/57/34 12/58/35 9/30/36
f 14/92/37 15/96/38 11/95/39 12/91/40
f 15/59/41 16/31/42 10/32/43 11/60/44
f 16/82/45 13/77/46 9/74/47 10/80/48
f 20/61/49 19/62/50 18/34/51 17/33/52
f 24/40/53 23/68/54 22/67/55 21/39/56
f 21/35/57 22/63/58 20/64/59 17/36/60
f 22/76/61 23/81/62 19/79/63 20/73/64
f 23/13/65 24/3/66 18/4/67 19/14/68
f 24/90/69 21/84/70 17/83/71 18/89/72
f 28/65/73 27/66/74 26/38/75 25/37/76
f 32/6/77 31/16/78 30/15/79 29/5/80
f 29/23/81 30/51/82 28/52/83 25/24/84
f 30/88/85 31/94/86 27/93/87 28/87/88
f 31/69/89 32/41/90 26/42/91 27/70/92
f 32/86/93 29/78/94 25/75/95 26/85/96
