####
#
#	OBJ File Generated by LightWave3D
#	LightWave3D OBJ Export v2.3
#
####
o Ramp_4x6.obj
mtllib Ramp_4x6.mtl
g default
v -0.9144 0 0.6096
v 0.9144 0 0.6096
v 0.9144 0.211712 -0.591078
v -0.9144 0.211712 -0.591078
v -0.9144 0.0250141 0.614011
v -0.9144 0.236726 -0.586667
v 0.9144 0.236726 -0.586667
v 0.9144 0.0250141 0.614011
v -0.9144 0.141141 -0.190852
v -0.9144 0.158784 -0.290909
v 0.9144 0.158784 -0.290909
v 0.9144 0.141141 -0.190852
v -0.9144 0.0911131 -0.199673
v 0.9144 0.0911131 -0.199673
v 0.9144 0.108756 -0.29973
v -0.9144 0.108756 -0.29973
v -0.9144 0.0529279 0.309431
v -0.9144 0.0705705 0.209375
v 0.9144 0.0705705 0.209375
v 0.9144 0.0529279 0.309431
v -0.9144 0.00289965 0.30061
v 0.9144 0.00289965 0.30061
v 0.9144 0.0205423 0.200553
v -0.9144 0.0205423 0.200553
v -0.9144 0.203655 -0.545383
v -0.9144 0.221297 -0.645439
v 0.9144 0.221297 -0.645439
v 0.9144 0.203655 -0.545383
v -0.9144 0.153626 -0.554204
v 0.9144 0.153626 -0.554204
v 0.9144 0.171269 -0.654261
v -0.9144 0.171269 -0.654261
vt -2.79913 -3.2954
vt -2.79913 -3.23212
vt -2.79913 -3.21946
vt -2.79913 -3.15618
vt -2.79913 -3.14295
vt -2.79913 -3.00487
vt -2.79913 -2.99085
vt -2.79913 -2.77727
vt -2.79913 -2.76324
vt -2.79913 -2.62517
vt -2.79913 -2.61072
vt -2.79913 -0.0438342
vt -2.79913 -0.0291651
vt -2.79913 0.184418
vt -2.79913 0.198657
vt -2.79913 0.41224
vt -2.79913 0.426263
vt -2.79913 0.564337
vt -2.79913 0.578144
vt -2.79913 0.716218
vt -2.79913 0.730241
vt -2.79913 0.943824
vt -2.79913 0.957847
vt -2.79913 1.09592
vt -2.79913 1.11037
vt -2.79913 3.67726
vt -2.79913 3.69192
vt -2.79913 3.90551
vt -2.79913 3.91975
vt -2.79913 4.13333
vt -2.79913 4.14735
vt -2.79913 4.28543
vt 1.05872 -3.2954
vt 1.05872 -3.23212
vt 1.05872 -3.21946
vt 1.05872 -3.15618
vt 1.05872 -3.14295
vt 1.05872 -3.00487
vt 1.05872 -2.99085
vt 1.05872 -2.77727
vt 1.05872 -2.76324
vt 1.05872 -2.62517
vt 1.05872 -2.61072
vt 1.05872 -0.0438342
vt 1.05872 -0.0291651
vt 1.05872 0.184418
vt 1.05872 0.198657
vt 1.05872 0.41224
vt 1.05872 0.426263
vt 1.05872 0.564337
vt 1.05872 0.578144
vt 1.05872 0.716218
vt 1.05872 0.730241
vt 1.05872 0.943824
vt 1.05872 0.957847
vt 1.05872 1.09592
vt 1.05872 1.11037
vt 1.05872 3.67726
vt 1.05872 3.69192
vt 1.05872 3.90551
vt 1.05872 3.91975
vt 1.05872 4.13333
vt 1.05872 4.14735
vt 1.05872 4.28543
vt 1.07351 -3.04087
vt 1.07383 -2.55627
vt 1.07383 -2.02469
vt 1.08323 -2.61088
vt 1.08323 -2.0793
vt 1.09695 -3.14295
vt 1.33937 -3.00487
vt 1.36281 -3.10695
vt 1.37728 -3.04087
vt 1.40071 -3.14295
vt 1.64313 -3.00487
vt 1.66657 -3.10695
vt 1.68093 -3.04087
vt 1.69823 -3.14295
vt 1.8772 -3.00487
vt 1.89451 -3.10695
vt 1.90875 -3.04087
vt 1.92605 -3.14295
vt 2.10503 -3.00487
vt 2.12233 -3.10695
vt 2.13657 -3.04087
vt 2.15387 -3.14295
vt 2.33285 -3.00487
vt 2.35015 -3.10695
vt 2.36439 -3.04087
vt 2.3817 -3.14295
vt 2.56067 -3.00487
vt 2.57797 -3.10695
vt 3.63132 -2.09406
vt 3.63132 -1.56248
vt 3.64071 -2.14867
vt 3.64071 -1.61709
vn 0 -0.984808 -0.173648
vn 0 -0.984808 -0.173648
vn 0 -0.984808 -0.173648
vn 0 -0.984808 -0.173648
vn 0 0.984808 0.173648
vn 0 0.984808 0.173648
vn 0 0.984808 0.173648
vn 0 0.984808 0.173648
vn 0 -0.173649 0.984808
vn 0 -0.173649 0.984808
vn 0 -0.173649 0.984808
vn 0 -0.173649 0.984808
vn 1 -0 -0
vn 1 -0 -0
vn 1 -0 -0
vn 1 -0 -0
vn 0 0.173649 -0.984808
vn 0 0.173649 -0.984808
vn 0 0.173649 -0.984808
vn 0 0.173649 -0.984808
vn -1 0 0
vn -1 0 0
vn -1 0 0
vn -1 0 0
vn 0 0.984808 0.173648
vn 0 0.984808 0.173648
vn 0 0.984808 0.173648
vn 0 0.984808 0.173648
vn 0 -0.984808 -0.173648
vn 0 -0.984808 -0.173648
vn 0 -0.984808 -0.173648
vn 0 -0.984808 -0.173648
vn 0 -0.173648 0.984808
vn 0 -0.173648 0.984808
vn 0 -0.173648 0.984808
vn 0 -0.173648 0.984808
vn 1 0 0
vn 1 0 0
vn 1 0 0
vn 1 0 0
vn 0 0.173648 -0.984808
vn 0 0.173648 -0.984808
vn 0 0.173648 -0.984808
vn 0 0.173648 -0.984808
vn -1 -0 -0
vn -1 -0 -0
vn -1 -0 -0
vn -1 -0 -0
vn 0 0.984808 0.173648
vn 0 0.984808 0.173648
vn 0 0.984808 0.173648
vn 0 0.984808 0.173648
vn 0 -0.984808 -0.173648
vn 0 -0.984808 -0.173648
vn 0 -0.984808 -0.173648
vn 0 -0.984808 -0.173648
vn 0 -0.173648 0.984808
vn 0 -0.173648 0.984808
vn 0 -0.173648 0.984808
vn 0 -0.173648 0.984808
vn 1 0 0
vn 1 0 0
vn 1 0 0
vn 1 0 0
vn 0 0.173648 -0.984808
vn 0 0.173648 -0.984808
vn 0 0.173648 -0.984808
vn 0 0.173648 -0.984808
vn -1 -0 -0
vn -1 -0 -0
vn -1 -0 -0
vn -1 -0 -0
vn 0 0.984808 0.173648
vn 0 0.984808 0.173648
vn 0 0.984808 0.173648
vn 0 0.984808 0.173648
vn 0 -0.984808 -0.173648
vn 0 -0.984808 -0.173648
vn 0 -0.984808 -0.173648
vn 0 -0.984808 -0.173648
vn 0 -0.173649 0.984808
vn 0 -0.173649 0.984808
vn 0 -0.173649 0.984808
vn 0 -0.173649 0.984808
vn 1 0 0
vn 1 0 0
vn 1 0 0
vn 1 0 0
vn 0 0.173649 -0.984808
vn 0 0.173649 -0.984808
vn 0 0.173649 -0.984808
vn 0 0.173649 -0.984808
vn -1 -0 -0
vn -1 -0 -0
vn -1 -0 -0
vn -1 -0 -0
g Wood
usemtl Wood
s off
f 4/26/1 3/58/2 2/57/3 1/25/4
f 8/43/5 7/44/6 6/12/7 5/11/8
g Edge
usemtl Edge
s off
f 2/35/9 8/36/10 5/4/11 1/3/12
f 3/95/13 7/93/14 8/66/15 2/68/16
f 4/1/17 6/2/18 7/34/19 3/33/20
f 1/69/21 5/67/22 6/94/23 4/96/24
g Wood
usemtl Wood
s off
f 12/45/25 11/46/26 10/14/27 9/13/28
f 16/16/29 15/48/30 14/47/31 13/15/32
f 13/17/33 14/49/34 12/50/35 9/18/36
f 14/86/37 15/88/38 11/87/39 12/85/40
f 15/51/41 16/19/42 10/20/43 11/52/44
f 16/92/45 13/90/46 9/89/47 10/91/48
f 20/53/49 19/54/50 18/22/51 17/21/52
f 24/30/53 23/62/54 22/61/55 21/29/56
f 21/23/57 22/55/58 20/56/59 17/24/60
f 22/78/61 23/80/62 19/79/63 20/77/64
f 23/37/65 24/5/66 18/6/67 19/38/68
f 24/84/69 21/82/70 17/81/71 18/83/72
f 28/59/73 27/60/74 26/28/75 25/27/76
f 32/8/77 31/40/78 30/39/79 29/7/80
f 29/9/81 30/41/82 28/42/83 25/10/84
f 30/74/85 31/76/86 27/75/87 28/73/88
f 31/63/89 32/31/90 26/32/91 27/64/92
f 32/72/93 29/70/94 25/65/95 26/71/96
