####
#
#	OBJ File Generated by LightWave3D
#	LightWave3D OBJ Export v2.3
#
####
o Double Garage 3-12 PITCH ROOF_20x30.obj
mtllib Double Garage 3-12 PITCH ROOF_20x30.mtl
g default
v 3.1984 2.6236 -4.6228
v 3.1984 2.4416 -4.6228
v 3.1984 2.6236 4.6228
v 3.1984 2.4416 4.6228
v 3.1984 2.59539 -4.6228
v 3.1984 2.59539 4.6228
v -3.1984 2.6236 -4.6228
v -3.1984 2.4416 -4.6228
v -3.1984 2.6236 4.6228
v -3.1984 2.4416 4.6228
v -3.1984 2.59539 -4.6228
v -3.1984 2.59539 4.6228
v 0 3.4616 4.6228
v 0 3.4616 -4.6228
v 0 3.2736 4.6228
v 0 3.2736 -4.6228
v -3.048 0.1016 4.572
v 3.048 0.1016 4.572
v 3.048 0.1016 -4.572
v -3.048 0.1016 -4.572
v -3.048 2.4916 4.572
v -3.048 2.4916 -4.572
v 3.048 2.4916 -4.572
v 3.048 2.4916 4.572
v -3.0734 0.1016 -4.5212
v -2.9972 0.1016 -4.5974
v -3.0734 0.1016 -4.5974
v -3.0734 2.5616 -4.5212
v -3.0734 2.5616 -4.5974
v -2.9972 2.5616 -4.5974
v 3.0734 0.1016 -4.5212
v 2.9972 0.1016 -4.5974
v 3.0734 0.1016 -4.5974
v 3.0734 2.5616 -4.5212
v 3.0734 2.5616 -4.5974
v 2.9972 2.5616 -4.5974
v -3.0734 0.1016 4.5212
v -2.9972 0.1016 4.5974
v -3.0734 0.1016 4.5974
v -3.0734 2.5616 4.5212
v -3.0734 2.5616 4.5974
v -2.9972 2.5616 4.5974
v 3.0734 0.1016 4.5212
v 2.9972 0.1016 4.5974
v 3.0734 0.1016 4.5974
v 3.0734 2.5616 4.5212
v 3.0734 2.5616 4.5974
v 2.9972 2.5616 4.5974
v -3.048 0.1016 -4.5212
v -3.048 2.5616 -4.5212
v -3.048 2.5616 4.5212
v -3.048 0.1016 4.5212
v -2.9972 2.5616 -4.572
v -2.9972 0.1016 -4.572
v 2.9972 0.1016 -4.572
v 2.9972 2.5616 -4.572
v 3.048 2.5616 -4.5212
v 3.048 0.1016 -4.5212
v 3.048 0.1016 4.5212
v 3.048 2.5616 4.5212
v -2.9972 2.5616 4.572
v -2.9972 0.1016 4.572
v 2.9972 0.1016 4.572
v 2.9972 2.5616 4.572
v -3.048 0.1016 4.572
v 3.048 0.1016 4.572
v -3.048 2.4916 4.572
v 3.048 2.4916 4.572
v 0 3.2916 4.572
v 0 0.1016 4.572
v 3.048 0.1016 -4.572
v -3.048 0.1016 -4.572
v -3.048 2.4916 -4.572
v 3.048 2.4916 -4.572
v 0 0.1016 -4.572
v 0 3.2916 -4.572
v 3.1984 2.6236 4.6228
v 3.1984 2.4416 4.6228
v 3.1984 2.59539 4.6228
v -3.1984 2.6236 4.6228
v -3.1984 2.4416 4.6228
v -3.1984 2.59539 4.6228
v 0 3.43246 4.6228
v 0 3.4616 4.6228
v 0 3.2736 4.6228
v 3.1984 2.6236 -4.6228
v 3.1984 2.4416 -4.6228
v 3.1984 2.59539 -4.6228
v -3.1984 2.6236 -4.6228
v -3.1984 2.4416 -4.6228
v -3.1984 2.59539 -4.6228
v 0 3.43246 -4.6228
v 0 3.4616 -4.6228
v 0 3.2736 -4.6228
v -0.1016 0.1016 4.572
v 0 0.1016 4.572
v -0.1016 0 4.572
v 0 0 4.572
v 0.1016 0.1016 4.572
v 0 0.1016 4.572
v 0.1016 0 4.572
v 0 0 4.572
v 1.092 0.1016 4.572
v 0.9904 0.1016 4.572
v 1.092 0 4.572
v 0.9904 0 4.572
v 1.892 0.1016 4.572
v 1.7904 0.1016 4.572
v 1.892 0 4.572
v 1.7904 0 4.572
v 2.692 0.1016 4.572
v 2.5904 0.1016 4.572
v 2.692 0 4.572
v 2.5904 0 4.572
v -1.092 0.1016 4.572
v -0.9904 0.1016 4.572
v -1.092 0 4.572
v -0.9904 0 4.572
v -1.892 0.1016 4.572
v -1.7904 0.1016 4.572
v -1.892 0 4.572
v -1.7904 0 4.572
v -2.692 0.1016 4.572
v -2.5904 0.1016 4.572
v -2.692 0 4.572
v -2.5904 0 4.572
v -0.1016 0.1016 -4.572
v 0 0.1016 -4.572
v 0 0 -4.572
v -0.1016 0 -4.572
v 0.1016 0.1016 -4.572
v 0 0.1016 -4.572
v 0 0 -4.572
v 0.1016 0 -4.572
v 1.092 0.1016 -4.572
v 0.9904 0.1016 -4.572
v 0.9904 0 -4.572
v 1.092 0 -4.572
v 1.892 0.1016 -4.572
v 1.7904 0.1016 -4.572
v 1.7904 0 -4.572
v 1.892 0 -4.572
v 2.692 0.1016 -4.572
v 2.5904 0.1016 -4.572
v 2.5904 0 -4.572
v 2.692 0 -4.572
v -1.092 0.1016 -4.572
v -0.9904 0.1016 -4.572
v -0.9904 0 -4.572
v -1.092 0 -4.572
v -1.892 0.1016 -4.572
v -1.7904 0.1016 -4.572
v -1.7904 0 -4.572
v -1.892 0 -4.572
v -2.692 0.1016 -4.572
v -2.5904 0.1016 -4.572
v -2.5904 0 -4.572
v -2.692 0 -4.572
v -0.1016 0.1016 4.572
v -0.1016 0.1016 -4.572
v -0.1016 0 4.572
v -0.1016 0 -4.572
v -1.092 0.1016 4.572
v -1.092 0.1016 -4.572
v -0.9904 0.1016 -4.572
v -0.9904 0.1016 4.572
v -1.092 0 4.572
v -0.9904 0 4.572
v -0.9904 0 -4.572
v -1.092 0 -4.572
v -1.892 0.1016 4.572
v -1.892 0.1016 -4.572
v -1.7904 0.1016 -4.572
v -1.7904 0.1016 4.572
v -1.892 0 4.572
v -1.7904 0 4.572
v -1.7904 0 -4.572
v -1.892 0 -4.572
v -2.692 0.1016 4.572
v -2.692 0.1016 -4.572
v -2.5904 0.1016 -4.572
v -2.5904 0.1016 4.572
v -2.692 0 4.572
v -2.5904 0 4.572
v -2.5904 0 -4.572
v -2.692 0 -4.572
v 0.1016 0.1016 4.572
v 0.1016 0.1016 -4.572
v 0.1016 0 4.572
v 0.1016 0 -4.572
v 1.092 0.1016 4.572
v 1.092 0.1016 -4.572
v 0.9904 0.1016 -4.572
v 0.9904 0.1016 4.572
v 1.092 0 4.572
v 0.9904 0 4.572
v 0.9904 0 -4.572
v 1.092 0 -4.572
v 1.892 0.1016 4.572
v 1.892 0.1016 -4.572
v 1.7904 0.1016 -4.572
v 1.7904 0.1016 4.572
v 1.892 0 4.572
v 1.7904 0 4.572
v 1.7904 0 -4.572
v 1.892 0 -4.572
v 2.692 0.1016 4.572
v 2.692 0.1016 -4.572
v 2.5904 0.1016 -4.572
v 2.5904 0.1016 4.572
v 2.692 0 4.572
v 2.5904 0 4.572
v 2.5904 0 -4.572
v 2.692 0 -4.572
v 0 0 -4.572
v 0 0.1016 -4.572
v 0 0 4.572
v 0 0.1016 4.572
vt -9.072 -16.9984
vt -9.072 -14.6084
vt -4.4 -14.2
vt -4.4 -10.8936
vt -4.4 -7.58728
vt -4.4 -7.55907
vt -4.4 -7.40528
vt -4.4 -4.10044
vt -4.4 -0.795599
vt -4.4 -0.641807
vt -4.4 -0.613598
vt -1.008 3.3416
vt -1.008 3.49539
vt -1.008 3.5236
vt -0.8576 0.6016
vt -0.8576 2.9916
vt 0.072 -16.9984
vt 0.072 -14.6084
vt 0.328 -16.9984
vt 0.328 -14.6084
vt 0.6984 -0.2
vt 0.6984 -0.0984
vt 0.6984 0.1
vt 0.6984 0.2016
vt 0.8 -0.2
vt 0.8 -0.0984
vt 0.8 0.1
vt 0.8 0.2016
vt 1.1984 -0.2
vt 1.1984 -0.0984
vt 1.1984 0.1
vt 1.1984 0.2016
vt 1.3 -0.2
vt 1.3 -0.0984
vt 1.3 0.1
vt 1.3 0.2016
vt 1.6984 -0.2
vt 1.6984 -0.0984
vt 1.6984 0.1
vt 1.6984 0.2016
vt 1.8 -0.2
vt 1.8 -0.0984
vt 1.8 0.1
vt 1.8 0.2016
vt 2.2 0.6016
vt 2.2 3.7916
vt 2.2 4.1736
vt 2.2 4.33246
vt 2.2 4.3616
vt 2.6984 -0.2
vt 2.6984 -0.0984
vt 2.6984 0.1
vt 2.6984 0.2016
vt 2.8 -0.2
vt 2.8 -0.0984
vt 2.8 0.1
vt 2.8 0.2016
vt 2.9016 -0.2
vt 2.9016 -0.0984
vt 2.9016 0.1
vt 2.9016 0.2016
vt 3.8 -0.2
vt 3.8 -0.0984
vt 3.8 0.1
vt 3.8 0.2016
vt 3.9016 -0.2
vt 3.9016 -0.0984
vt 3.9016 0.1
vt 3.9016 0.2016
vt 4.2 -0.2
vt 4.2 -0.0984
vt 4.2 0.1
vt 4.2 0.2016
vt 4.3016 -0.2
vt 4.3016 -0.0984
vt 4.3016 0.1
vt 4.3016 0.2016
vt 4.6 -0.2
vt 4.6 -0.0984
vt 4.6 0.1
vt 4.6 0.2016
vt 4.7016 -0.2
vt 4.7016 -0.0984
vt 4.7016 0.1
vt 4.7016 0.2016
vt 4.8456 -14.2
vt 4.8456 -10.8936
vt 4.8456 -7.58728
vt 4.8456 -7.55907
vt 4.8456 -7.40528
vt 4.8456 -4.10044
vt 4.8456 -0.795599
vt 4.8456 -0.641807
vt 4.8456 -0.613598
vt 5.13 -2.14
vt 5.13 0.32
vt 5.1554 -2.14
vt 5.1554 0.32
vt 5.2316 -2.14
vt 5.2316 0.32
vt 5.2576 0.6016
vt 5.2576 2.9916
vt 5.3078 -2.14
vt 5.3078 0.32
vt 5.3332 -2.14
vt 5.3332 0.32
vt 5.408 3.3416
vt 5.408 3.49539
vt 5.408 3.5236
vt 5.55 -2.14
vt 5.55 0.32
vt 5.5754 -2.14
vt 5.5754 0.32
vt 5.6516 -2.14
vt 5.6516 0.32
vt 5.692 3.3416
vt 5.692 3.49539
vt 5.692 3.5236
vt 5.7278 -2.14
vt 5.7278 0.32
vt 5.7532 -2.14
vt 5.7532 0.32
vt 5.8424 0.6016
vt 5.8424 2.9916
vt 5.99 -2.14
vt 5.99 0.32
vt 6.0154 -2.14
vt 6.0154 0.32
vt 6.0916 -2.14
vt 6.0916 0.32
vt 6.1678 -2.14
vt 6.1678 0.32
vt 6.1932 -2.14
vt 6.1932 0.32
vt 6.42 -2.14
vt 6.42 0.32
vt 6.4454 -2.14
vt 6.4454 0.32
vt 6.5216 -2.14
vt 6.5216 0.32
vt 6.5978 -2.14
vt 6.5978 0.32
vt 6.6232 -2.14
vt 6.6232 0.32
vt 6.8 -7
vt 6.8 0.3152
vt 6.9016 -7
vt 6.9016 0.3152
vt 7.0032 -7
vt 7.0032 0.3152
vt 7.1048 -7
vt 7.1048 0.3152
vt 7.2064 -7
vt 7.2064 0.3152
vt 7.4 -7
vt 7.4 0.3152
vt 7.5016 -7
vt 7.5016 0.3152
vt 7.6032 -7
vt 7.6032 0.3152
vt 7.7048 -7
vt 7.7048 0.3152
vt 7.8064 -7
vt 7.8064 0.3152
vt 8 -7
vt 8 0.3152
vt 8.1016 -7
vt 8.1016 0.3152
vt 8.2032 -7
vt 8.2032 0.3152
vt 8.3048 -7
vt 8.3048 0.3152
vt 8.4064 -7
vt 8.4064 0.3152
vt 8.9 0.6016
vt 8.9 3.7916
vt 8.9 4.1736
vt 8.9 4.33246
vt 8.9 4.3616
vt 9.2 -7
vt 9.2 0.3152
vt 9.3016 -7
vt 9.3016 0.3152
vt 9.4032 -7
vt 9.4032 0.3152
vt 9.472 -16.9984
vt 9.472 -14.6084
vt 9.5048 -7
vt 9.5048 0.3152
vt 10.35 -7
vt 10.35 0.3152
vt 10.4516 -7
vt 10.4516 0.3152
vt 10.5532 -7
vt 10.5532 0.3152
vt 10.6548 -7
vt 10.6548 0.3152
vt 10.7564 -7
vt 10.7564 0.3152
vt 10.95 -7
vt 10.95 0.3152
vt 11.0516 -7
vt 11.0516 0.3152
vt 11.1532 -7
vt 11.1532 0.3152
vt 11.2548 -7
vt 11.2548 0.3152
vt 11.3564 -7
vt 11.3564 0.3152
vt 11.55 -7
vt 11.55 0.3152
vt 11.6516 -7
vt 11.6516 0.3152
vt 11.7532 -7
vt 11.7532 0.3152
vt 11.8548 -7
vt 11.8548 0.3152
vt 11.9564 -7
vt 11.9564 0.3152
vt 11.9576 0.6016
vt 11.9576 2.9916
vt 12.108 3.3416
vt 12.108 3.49539
vt 12.108 3.5236
vn 1 0 -0
vn 1 0 -0
vn 1 0 -0
vn 1 -0 -0
vn 1 -0 -0
vn 1 -0 -0
vn -1 0 -0
vn -1 0 -0
vn -1 0 -0
vn -1 0 -0
vn -1 0 -0
vn -1 0 -0
vn 0 0 1
vn 0 0 1
vn 0 0 1
vn 0 0 1
vn 0 0 1
vn 0 0 1
vn 0 0 1
vn 0 0 1
vn 0 0 1
vn 0 0 1
vn 0 0 1
vn 0 0 1
vn 0 0 -1
vn 0 0 -1
vn 0 0 -1
vn 0 -0 -1
vn 0 -0 -1
vn 0 -0 -1
vn 0 0 -1
vn 0 0 -1
vn 0 0 -1
vn 0 0 -1
vn 0 0 -1
vn 0 0 -1
vn 0 0 1
vn 0 0 1
vn 0 0 1
vn 0 0 1
vn 0 0 1
vn 0 0 1
vn 0 0 1
vn 0 0 1
vn 0 0 1
vn 0 0 1
vn 0 0 1
vn 0 0 1
vn 0 0 1
vn 0 0 1
vn 0 0 1
vn 0 0 1
vn 0 0 1
vn 0 0 1
vn 0 0 1
vn 0 0 1
vn 0 0 1
vn 0 0 1
vn 0 0 1
vn 0 0 1
vn 0 -0 -1
vn 0 -0 -1
vn 0 -0 -1
vn 0 0 -1
vn 0 0 -1
vn 0 0 -1
vn 0 -0 -1
vn 0 -0 -1
vn 0 -0 -1
vn 0 0 -1
vn 0 0 -1
vn 0 0 -1
vn 0 0 -1
vn 0 0 -1
vn 0 0 -1
vn 0 0 -1
vn 0 0 -1
vn 0 0 -1
vn 0 0 -1
vn 0 0 -1
vn 0 0 -1
vn 0 0 -1
vn 0 0 -1
vn 0 0 -1
vn 1 0 -0
vn 1 0 -0
vn 1 0 -0
vn 1 0 -0
vn 1 0 -0
vn 1 0 -0
vn 0 -0 -1
vn 0 -0 -1
vn 0 -0 -1
vn 0 0 -1
vn 0 0 -1
vn 0 0 -1
vn -1 0 -0
vn -1 0 -0
vn -1 0 -0
vn -1 0 -0
vn -1 0 -0
vn -1 0 -0
vn 0 0 1
vn 0 0 1
vn 0 0 1
vn 0 0 1
vn 0 0 1
vn 0 0 1
vn 0 0 1
vn 0 0 1
vn 0 0 1
vn 0 0 1
vn 0 0 1
vn 0 0 1
vn 1 0 -0
vn 1 0 -0
vn 1 0 -0
vn 1 0 -0
vn 1 0 -0
vn 1 0 -0
vn 0 0 -1
vn 0 0 -1
vn 0 0 -1
vn 0 -0 -1
vn 0 -0 -1
vn 0 -0 -1
vn -1 0 -0
vn -1 0 -0
vn -1 0 -0
vn -1 0 -0
vn -1 0 -0
vn -1 0 -0
vn -1 0 -0
vn -1 0 -0
vn -1 0 -0
vn -1 0 -0
vn -1 0 -0
vn -1 0 -0
vn 0 0 1
vn 0 0 1
vn 0 0 1
vn 0 0 1
vn 0 0 1
vn 0 0 1
vn 1 0 -0
vn 1 0 -0
vn 1 0 -0
vn 1 -0 -0
vn 1 -0 -0
vn 1 -0 -0
vn 0 0 -1
vn 0 0 -1
vn 0 0 -1
vn 0 0 -1
vn 0 0 -1
vn 0 0 -1
vn 0 0 -1
vn 0 0 -1
vn 0 0 -1
vn 0 -0 -1
vn 0 -0 -1
vn 0 -0 -1
vn -1 0 -0
vn -1 0 -0
vn -1 0 -0
vn -1 0 -0
vn -1 0 -0
vn -1 0 -0
vn 0 0 1
vn 0 0 1
vn 0 0 1
vn 0 0 1
vn 0 0 1
vn 0 0 1
vn 1 0 -0
vn 1 0 -0
vn 1 0 -0
vn 1 0 -0
vn 1 0 -0
vn 1 0 -0
vn 0 0 1
vn 0 0 1
vn 0 0 1
vn 0 0 1
vn 0 0 1
vn 0 0 1
vn 0 0 1
vn 0 0 1
vn 0 0 1
vn 0 0 1
vn 0 0 1
vn 0 0 1
vn 0 0 1
vn 0 0 1
vn 0 0 1
vn 0 0 1
vn 0 0 1
vn 0 0 1
vn 0 0 1
vn 0 0 1
vn 0 0 1
vn 0 0 1
vn 0 0 1
vn 0 0 1
vn 0 0 1
vn 0 0 1
vn 0 0 1
vn 0 0 1
vn 0 0 1
vn 0 0 1
vn 0 0 1
vn 0 0 1
vn 0 0 1
vn 0 0 1
vn 0 0 1
vn 0 0 1
vn 0 0 1
vn 0 0 1
vn 0 0 1
vn 0 0 1
vn 0 0 1
vn 0 0 1
vn 0 0 1
vn 0 0 1
vn 0 0 1
vn 0 0 1
vn 0 0 1
vn 0 0 1
vn 0 -0 -1
vn 0 -0 -1
vn 0 -0 -1
vn 0 0 -1
vn 0 0 -1
vn 0 0 -1
vn 0 0 -1
vn 0 0 -1
vn 0 0 -1
vn 0 -0 -1
vn 0 -0 -1
vn 0 -0 -1
vn 0 0 -1
vn 0 0 -1
vn 0 0 -1
vn 0 -0 -1
vn 0 -0 -1
vn 0 -0 -1
vn 0 0 -1
vn 0 0 -1
vn 0 0 -1
vn 0 -0 -1
vn 0 -0 -1
vn 0 -0 -1
vn 0 0 -1
vn 0 0 -1
vn 0 0 -1
vn 0 -0 -1
vn 0 -0 -1
vn 0 -0 -1
vn 0 -0 -1
vn 0 -0 -1
vn 0 -0 -1
vn 0 0 -1
vn 0 0 -1
vn 0 0 -1
vn 0 -0 -1
vn 0 -0 -1
vn 0 -0 -1
vn 0 0 -1
vn 0 0 -1
vn 0 0 -1
vn 0 -0 -1
vn 0 -0 -1
vn 0 -0 -1
vn 0 0 -1
vn 0 0 -1
vn 0 0 -1
vn 0 -1 -0
vn 0 -1 -0
vn 0 -1 -0
vn 0 -1 -0
vn 0 -1 -0
vn 0 -1 -0
vn 1 0 -0
vn 1 0 -0
vn 1 0 -0
vn 1 0 -0
vn 1 0 -0
vn 1 0 -0
vn -1 0 -0
vn -1 0 -0
vn -1 0 -0
vn -1 0 -0
vn -1 0 -0
vn -1 0 -0
vn -1 0 -0
vn -1 0 -0
vn -1 0 -0
vn -1 0 -0
vn -1 0 -0
vn -1 0 -0
vn 0 1 -0
vn 0 1 -0
vn 0 1 -0
vn 0 1 0
vn 0 1 0
vn 0 1 0
vn 1 0 -0
vn 1 0 -0
vn 1 0 -0
vn 1 0 -0
vn 1 0 -0
vn 1 0 -0
vn 0 -1 -0
vn 0 -1 -0
vn 0 -1 -0
vn 0 -1 -0
vn 0 -1 -0
vn 0 -1 -0
vn -1 0 -0
vn -1 0 -0
vn -1 0 -0
vn -1 0 -0
vn -1 0 -0
vn -1 0 -0
vn 0 1 -0
vn 0 1 -0
vn 0 1 -0
vn 0 1 0
vn 0 1 0
vn 0 1 0
vn 1 0 -0
vn 1 0 -0
vn 1 0 -0
vn 1 0 -0
vn 1 0 -0
vn 1 0 -0
vn 0 -1 -0
vn 0 -1 -0
vn 0 -1 -0
vn 0 -1 -0
vn 0 -1 -0
vn 0 -1 -0
vn -1 0 -0
vn -1 0 -0
vn -1 0 -0
vn -1 0 -0
vn -1 0 -0
vn -1 0 -0
vn 0 1 -0
vn 0 1 -0
vn 0 1 -0
vn 0 1 0
vn 0 1 0
vn 0 1 0
vn 1 0 -0
vn 1 0 -0
vn 1 0 -0
vn 1 0 -0
vn 1 0 -0
vn 1 0 -0
vn 0 -1 -0
vn 0 -1 -0
vn 0 -1 -0
vn 0 -1 -0
vn 0 -1 -0
vn 0 -1 -0
vn -1 0 -0
vn -1 0 -0
vn -1 0 -0
vn -1 0 -0
vn -1 0 -0
vn -1 0 -0
vn 0 1 -0
vn 0 1 -0
vn 0 1 -0
vn 0 1 0
vn 0 1 0
vn 0 1 0
vn 0 1 -0
vn 0 1 -0
vn 0 1 -0
vn 0 1 0
vn 0 1 0
vn 0 1 0
vn 1 0 -0
vn 1 0 -0
vn 1 0 -0
vn 1 0 -0
vn 1 0 -0
vn 1 0 -0
vn 0 -1 -0
vn 0 -1 -0
vn 0 -1 -0
vn 0 -1 -0
vn 0 -1 -0
vn 0 -1 -0
vn 0 1 -0
vn 0 1 -0
vn 0 1 -0
vn 0 1 0
vn 0 1 0
vn 0 1 0
vn 1 0 -0
vn 1 0 -0
vn 1 0 -0
vn 1 0 -0
vn 1 0 -0
vn 1 0 -0
vn 0 -1 -0
vn 0 -1 -0
vn 0 -1 -0
vn 0 -1 -0
vn 0 -1 -0
vn 0 -1 -0
vn -1 0 -0
vn -1 0 -0
vn -1 0 -0
vn -1 0 -0
vn -1 0 -0
vn -1 0 -0
vn 0 1 -0
vn 0 1 -0
vn 0 1 -0
vn 0 1 0
vn 0 1 0
vn 0 1 0
vn 1 0 -0
vn 1 0 -0
vn 1 0 -0
vn 1 0 -0
vn 1 0 -0
vn 1 0 -0
vn 0 -1 -0
vn 0 -1 -0
vn 0 -1 -0
vn 0 -1 -0
vn 0 -1 -0
vn 0 -1 -0
vn -1 0 -0
vn -1 0 -0
vn -1 0 -0
vn -1 0 -0
vn -1 0 -0
vn -1 0 -0
vn 0 1 -0
vn 0 1 -0
vn 0 1 -0
vn 0 1 0
vn 0 1 0
vn 0 1 0
vn 1 0 -0
vn 1 0 -0
vn 1 0 -0
vn 1 0 -0
vn 1 0 -0
vn 1 0 -0
vn 0 -1 -0
vn 0 -1 -0
vn 0 -1 -0
vn 0 -1 -0
vn 0 -1 -0
vn 0 -1 -0
vn -1 0 -0
vn -1 0 -0
vn -1 0 -0
vn -1 0 -0
vn -1 0 -0
vn -1 0 -0
vn -0.253451 0.967348 -0
vn -0.253451 0.967348 -0
vn -0.253451 0.967348 -0
vn -0.253451 0.967348 -0
vn -0.253451 0.967348 -0
vn -0.253451 0.967348 -0
vn 0.253451 0.967348 0
vn 0.253451 0.967348 0
vn 0.253451 0.967348 0
vn 0.253451 0.967348 -0
vn 0.253451 0.967348 -0
vn 0.253451 0.967348 -0
vn 1 0 -0
vn 1 0 -0
vn 1 0 -0
vn 1 -0 -0
vn 1 -0 -0
vn 1 -0 -0
vn 1 0 -0
vn 1 0 -0
vn 1 0 -0
vn 1 -0 -0
vn 1 -0 -0
vn 1 -0 -0
vn -0.251752 -0.967792 -0
vn -0.251752 -0.967792 -0
vn -0.251752 -0.967792 -0
vn -0.251752 -0.967792 -0
vn -0.251752 -0.967792 -0
vn -0.251752 -0.967792 -0
vn 0.251752 -0.967792 -0
vn 0.251752 -0.967792 -0
vn 0.251752 -0.967792 -0
vn 0.251752 -0.967792 -0
vn 0.251752 -0.967792 -0
vn 0.251752 -0.967792 -0
vn -1 0 -0
vn -1 0 -0
vn -1 0 -0
vn -1 0 -0
vn -1 0 -0
vn -1 0 -0
vn -1 0 -0
vn -1 0 -0
vn -1 0 -0
vn -1 0 -0
vn -1 0 -0
vn -1 0 -0
g Shed
usemtl Shed
s off
f 19/186/1 24/20/2 18/19/3
f 23/187/4 24/20/5 19/186/6
f 22/18/7 20/17/8 17/1/9
f 21/2/10 22/18/11 17/1/12
f 69/46/13 67/16/14 70/45/15
f 67/16/16 65/15/17 70/45/18
f 68/102/19 69/46/20 70/45/21
f 66/101/22 68/102/23 70/45/24
f 72/123/25 73/124/26 75/175/27
f 73/124/28 76/176/29 75/175/30
f 74/221/31 71/220/32 75/175/33
f 76/176/34 74/221/35 75/175/36
g Sides
usemtl Sides
s off
f 83/48/37 85/47/38 79/108/39
f 79/108/40 85/47/41 78/107/42
g Roof
usemtl Roof
s off
f 84/49/43 83/48/44 77/109/45
f 77/109/46 83/48/47 79/108/48
g Sides
usemtl Sides
s off
f 85/47/49 82/13/50 81/12/51
f 85/47/52 83/48/53 82/13/54
g Roof
usemtl Roof
s off
f 83/48/55 80/14/56 82/13/57
f 83/48/58 84/49/59 80/14/60
g Sides
usemtl Sides
s off
f 94/177/61 88/223/62 87/222/63
f 94/177/64 92/178/65 88/223/66
g Roof
usemtl Roof
s off
f 92/178/67 86/224/68 88/223/69
f 92/178/70 93/179/71 86/224/72
g Sides
usemtl Sides
s off
f 91/117/73 94/177/74 90/116/75
f 92/178/76 94/177/77 91/117/78
g Roof
usemtl Roof
s off
f 89/118/79 92/178/80 91/117/81
f 93/179/82 92/178/83 89/118/84
g Trim
usemtl Trim
s off
f 30/113/85 53/111/86 54/110/87
f 26/112/88 30/113/89 54/110/90
f 27/114/91 30/113/92 26/112/93
f 29/115/94 30/113/95 27/114/96
f 29/115/97 27/114/98 25/119/99
f 28/120/100 29/115/101 25/119/102
f 28/120/103 25/119/104 49/121/105
f 50/122/106 28/120/107 49/121/108
f 31/127/109 34/128/110 58/125/111
f 34/128/112 57/126/113 58/125/114
f 33/129/115 35/130/116 31/127/117
f 35/130/118 34/128/119 31/127/120
f 36/132/121 33/129/122 32/131/123
f 36/132/124 35/130/125 33/129/126
f 56/134/127 32/131/128 55/133/129
f 56/134/130 36/132/131 32/131/132
f 48/138/133 64/136/134 63/135/135
f 48/138/136 63/135/137 44/137/138
f 45/139/139 48/138/140 44/137/141
f 47/140/142 48/138/143 45/139/144
f 43/141/145 47/140/146 45/139/147
f 46/142/148 47/140/149 43/141/150
f 46/142/151 43/141/152 59/143/153
f 60/144/154 46/142/155 59/143/156
f 37/97/157 40/98/158 52/95/159
f 40/98/160 51/96/161 52/95/162
f 41/100/163 37/97/164 39/99/165
f 41/100/166 40/98/167 37/97/168
f 42/104/169 39/99/170 38/103/171
f 42/104/172 41/100/173 39/99/174
f 62/105/175 61/106/176 38/103/177
f 61/106/178 42/104/179 38/103/180
g Floor
usemtl Floor
s off
f 96/57/181 95/53/182 97/52/183
f 96/57/184 97/52/185 98/56/186
f 101/60/187 99/61/188 102/56/189
f 99/61/190 100/57/191 102/56/192
f 105/68/193 103/69/194 106/64/195
f 103/69/196 104/65/197 106/64/198
f 109/76/199 107/77/200 110/72/201
f 107/77/202 108/73/203 110/72/204
f 113/84/205 111/85/206 114/80/207
f 111/85/208 112/81/209 114/80/210
f 116/44/211 115/40/212 117/39/213
f 116/44/214 117/39/215 118/43/216
f 120/36/217 119/32/218 121/31/219
f 120/36/220 121/31/221 122/35/222
f 124/28/223 123/24/224 125/23/225
f 124/28/226 125/23/227 126/27/228
f 127/51/229 128/55/230 129/54/231
f 130/50/232 127/51/233 129/54/234
f 132/55/235 134/58/236 133/54/237
f 132/55/238 131/59/239 134/58/240
f 136/63/241 138/66/242 137/62/243
f 136/63/244 135/67/245 138/66/246
f 140/71/247 142/74/248 141/70/249
f 140/71/250 139/75/251 142/74/252
f 144/79/253 146/82/254 145/78/255
f 144/79/256 143/83/257 146/82/258
f 147/38/259 148/42/260 149/41/261
f 150/37/262 147/38/263 149/41/264
f 151/30/265 152/34/266 153/33/267
f 154/29/268 151/30/269 153/33/270
f 155/22/271 156/26/272 157/25/273
f 158/21/274 155/22/275 157/25/276
f 161//277 162//278 217//279
f 162//280 215//281 217//282
f 216//283 218//284 217//285
f 215//286 216//287 217//288
f 218//289 215//290 217//291
f 218//292 216//293 215//294
f 179/147/295 180/148/296 186/146/297
f 179/147/298 186/146/299 183/145/300
f 180/148/301 179/147/302 182/149/303
f 181/150/304 180/148/305 182/149/306
f 181/150/307 182/149/308 184/151/309
f 185/152/310 181/150/311 184/151/312
f 183/153/313 186/154/314 184/151/315
f 186/154/316 185/152/317 184/151/318
f 171/157/319 172/158/320 178/156/321
f 171/157/322 178/156/323 175/155/324
f 172/158/325 171/157/326 174/159/327
f 173/160/328 172/158/329 174/159/330
f 173/160/331 174/159/332 176/161/333
f 177/162/334 173/160/335 176/161/336
f 175/163/337 178/164/338 176/161/339
f 178/164/340 177/162/341 176/161/342
f 163/167/343 164/168/344 170/166/345
f 163/167/346 170/166/347 167/165/348
f 164/168/349 163/167/350 166/169/351
f 165/170/352 164/168/353 166/169/354
f 165/170/355 166/169/356 168/171/357
f 169/172/358 165/170/359 168/171/360
f 167/173/361 170/174/362 168/171/363
f 170/174/364 169/172/365 168/171/366
f 159/182/367 160/183/368 162/181/369
f 159/182/370 162/181/371 161/180/372
f 160/183/373 159/182/374 218/184/375
f 216/185/376 160/183/377 218/184/378
f 187/182/379 216/181/380 218/180/381
f 188/183/382 216/181/383 187/182/384
f 190/185/385 188/183/386 189/184/387
f 188/183/388 187/182/389 189/184/390
f 215/189/391 190/185/392 189/184/393
f 215/189/394 189/184/395 217/188/396
f 191/192/397 193/191/398 194/190/399
f 192/193/400 193/191/401 191/192/402
f 198/195/403 192/193/404 195/194/405
f 192/193/406 191/192/407 195/194/408
f 197/197/409 198/195/410 195/194/411
f 197/197/412 195/194/413 196/196/414
f 194/198/415 197/197/416 196/196/417
f 194/198/418 193/199/419 197/197/420
f 199/202/421 201/201/422 202/200/423
f 200/203/424 201/201/425 199/202/426
f 206/205/427 200/203/428 203/204/429
f 200/203/430 199/202/431 203/204/432
f 205/207/433 206/205/434 203/204/435
f 205/207/436 203/204/437 204/206/438
f 202/208/439 205/207/440 204/206/441
f 202/208/442 201/209/443 205/207/444
f 207/212/445 209/211/446 210/210/447
f 208/213/448 209/211/449 207/212/450
f 214/215/451 208/213/452 211/214/453
f 208/213/454 207/212/455 211/214/456
f 213/217/457 214/215/458 211/214/459
f 213/217/460 211/214/461 212/216/462
f 210/218/463 213/217/464 212/216/465
f 210/218/466 209/219/467 213/217/468
g Roof
usemtl Roof
s off
f 13/87/469 7/3/470 9/86/471
f 13/87/472 14/4/473 7/3/474
f 1/5/475 13/87/476 3/88/477
f 14/4/478 13/87/479 1/5/480
f 5/6/481 3/88/482 6/89/483
f 1/5/484 3/88/485 5/6/486
g Sides
usemtl Sides
s off
f 2/7/487 6/89/488 4/90/489
f 5/6/490 6/89/491 2/7/492
g Shed
usemtl Shed
s off
f 15/91/493 16/8/494 4/90/495
f 16/8/496 2/7/497 4/90/498
f 16/8/499 15/91/500 10/92/501
f 8/9/502 16/8/503 10/92/504
g Sides
usemtl Sides
s off
f 12/93/505 8/9/506 10/92/507
f 12/93/508 11/10/509 8/9/510
g Roof
usemtl Roof
s off
f 9/94/511 11/10/512 12/93/513
f 9/94/514 7/11/515 11/10/516
