####
#
#	OBJ File Generated by LightWave3D
#	LightWave3D OBJ Export v2.3
#
####
o Double Garage 6-12 PITCH ROOF_20x20.obj
mtllib Double Garage 6-12 PITCH ROOF_20x20.mtl
g default
v 3.1984 2.5636 -3.0988
v 3.1984 2.3816 -3.0988
v 3.1984 2.5636 3.0988
v 3.1984 2.3816 3.0988
v 3.1984 2.53539 -3.0988
v 3.1984 2.53539 3.0988
v -3.1984 2.5636 -3.0988
v -3.1984 2.3816 -3.0988
v -3.1984 2.5636 3.0988
v -3.1984 2.3816 3.0988
v -3.1984 2.53539 -3.0988
v -3.1984 2.53539 3.0988
v 0 4.4616 3.0988
v 0 4.4616 -3.0988
v 0 4.2736 3.0988
v 0 4.2736 -3.0988
v -3.048 0.1016 3.048
v 3.048 0.1016 3.048
v 3.048 0.1016 -3.048
v -3.048 0.1016 -3.048
v -3.048 2.4916 3.048
v -3.048 2.4916 -3.048
v 3.048 2.4916 -3.048
v 3.048 2.4916 3.048
v -3.0734 0.1016 -2.9972
v -2.9972 0.1016 -3.0734
v -3.0734 0.1016 -3.0734
v -3.0734 2.5616 -2.9972
v -3.0734 2.5616 -3.0734
v -2.9972 2.5616 -3.0734
v 3.0734 0.1016 -2.9972
v 2.9972 0.1016 -3.0734
v 3.0734 0.1016 -3.0734
v 3.0734 2.5616 -2.9972
v 3.0734 2.5616 -3.0734
v 2.9972 2.5616 -3.0734
v -3.0734 0.1016 2.9972
v -2.9972 0.1016 3.0734
v -3.0734 0.1016 3.0734
v -3.0734 2.5616 2.9972
v -3.0734 2.5616 3.0734
v -2.9972 2.5616 3.0734
v 3.0734 0.1016 2.9972
v 2.9972 0.1016 3.0734
v 3.0734 0.1016 3.0734
v 3.0734 2.5616 2.9972
v 3.0734 2.5616 3.0734
v 2.9972 2.5616 3.0734
v -3.048 0.1016 -2.9972
v -3.048 2.5616 -2.9972
v -3.048 2.5616 2.9972
v -3.048 0.1016 2.9972
v -2.9972 2.5616 -3.048
v -2.9972 0.1016 -3.048
v 2.9972 0.1016 -3.048
v 2.9972 2.5616 -3.048
v 3.048 2.5616 -2.9972
v 3.048 0.1016 -2.9972
v 3.048 0.1016 2.9972
v 3.048 2.5616 2.9972
v -2.9972 2.5616 3.048
v -2.9972 0.1016 3.048
v 2.9972 0.1016 3.048
v 2.9972 2.5616 3.048
v 3.1984 2.5636 3.0988
v 3.1984 2.3816 3.0988
v 3.1984 2.53539 3.0988
v -3.1984 2.5636 3.0988
v -3.1984 2.3816 3.0988
v -3.1984 2.53539 3.0988
v 0 4.43246 3.0988
v 0 4.4616 3.0988
v 0 4.2736 3.0988
v -3.048 0.1016 3.048
v 3.048 0.1016 3.048
v -3.048 2.4916 3.048
v 3.048 2.4916 3.048
v 0 4.2916 3.048
v 0 0.1016 3.048
v 3.1984 2.5636 -3.0988
v 3.1984 2.3816 -3.0988
v 3.1984 2.53539 -3.0988
v -3.1984 2.5636 -3.0988
v -3.1984 2.3816 -3.0988
v -3.1984 2.53539 -3.0988
v 0 4.43246 -3.0988
v 0 4.4616 -3.0988
v 0 4.2736 -3.0988
v 3.048 0.1016 -3.048
v -3.048 0.1016 -3.048
v -3.048 2.4916 -3.048
v 3.048 2.4916 -3.048
v 0 0.1016 -3.048
v 0 4.2916 -3.048
v -0.1016 0.1016 3.048
v 0 0.1016 3.048
v -0.1016 0 3.048
v 0 0 3.048
v 0.1016 0.1016 3.048
v 0 0.1016 3.048
v 0.1016 0 3.048
v 0 0 3.048
v 1.092 0.1016 3.048
v 0.9904 0.1016 3.048
v 1.092 0 3.048
v 0.9904 0 3.048
v 1.892 0.1016 3.048
v 1.7904 0.1016 3.048
v 1.892 0 3.048
v 1.7904 0 3.048
v 2.692 0.1016 3.048
v 2.5904 0.1016 3.048
v 2.692 0 3.048
v 2.5904 0 3.048
v -1.092 0.1016 3.048
v -0.9904 0.1016 3.048
v -1.092 0 3.048
v -0.9904 0 3.048
v -1.892 0.1016 3.048
v -1.7904 0.1016 3.048
v -1.892 0 3.048
v -1.7904 0 3.048
v -2.692 0.1016 3.048
v -2.5904 0.1016 3.048
v -2.692 0 3.048
v -2.5904 0 3.048
v -0.1016 0.1016 -3.048
v 0 0.1016 -3.048
v 0 0 -3.048
v -0.1016 0 -3.048
v 0.1016 0.1016 -3.048
v 0 0.1016 -3.048
v 0 0 -3.048
v 0.1016 0 -3.048
v 1.092 0.1016 -3.048
v 0.9904 0.1016 -3.048
v 0.9904 0 -3.048
v 1.092 0 -3.048
v 1.892 0.1016 -3.048
v 1.7904 0.1016 -3.048
v 1.7904 0 -3.048
v 1.892 0 -3.048
v 2.692 0.1016 -3.048
v 2.5904 0.1016 -3.048
v 2.5904 0 -3.048
v 2.692 0 -3.048
v -1.092 0.1016 -3.048
v -0.9904 0.1016 -3.048
v -0.9904 0 -3.048
v -1.092 0 -3.048
v -1.892 0.1016 -3.048
v -1.7904 0.1016 -3.048
v -1.7904 0 -3.048
v -1.892 0 -3.048
v -2.692 0.1016 -3.048
v -2.5904 0.1016 -3.048
v -2.5904 0 -3.048
v -2.692 0 -3.048
v -0.1016 0.1016 3.048
v -0.1016 0.1016 -3.048
v -0.1016 0 3.048
v -0.1016 0 -3.048
v -1.092 0.1016 3.048
v -1.092 0.1016 -3.048
v -0.9904 0.1016 -3.048
v -0.9904 0.1016 3.048
v -1.092 0 3.048
v -0.9904 0 3.048
v -0.9904 0 -3.048
v -1.092 0 -3.048
v -1.892 0.1016 3.048
v -1.892 0.1016 -3.048
v -1.7904 0.1016 -3.048
v -1.7904 0.1016 3.048
v -1.892 0 3.048
v -1.7904 0 3.048
v -1.7904 0 -3.048
v -1.892 0 -3.048
v -2.692 0.1016 3.048
v -2.692 0.1016 -3.048
v -2.5904 0.1016 -3.048
v -2.5904 0.1016 3.048
v -2.692 0 3.048
v -2.5904 0 3.048
v -2.5904 0 -3.048
v -2.692 0 -3.048
v 0.1016 0.1016 3.048
v 0.1016 0.1016 -3.048
v 0.1016 0 3.048
v 0.1016 0 -3.048
v 1.092 0.1016 3.048
v 1.092 0.1016 -3.048
v 0.9904 0.1016 -3.048
v 0.9904 0.1016 3.048
v 1.092 0 3.048
v 0.9904 0 3.048
v 0.9904 0 -3.048
v 1.092 0 -3.048
v 1.892 0.1016 3.048
v 1.892 0.1016 -3.048
v 1.7904 0.1016 -3.048
v 1.7904 0.1016 3.048
v 1.892 0 3.048
v 1.7904 0 3.048
v 1.7904 0 -3.048
v 1.892 0 -3.048
v 2.692 0.1016 3.048
v 2.692 0.1016 -3.048
v 2.5904 0.1016 -3.048
v 2.5904 0.1016 3.048
v 2.692 0 3.048
v 2.5904 0 3.048
v 2.5904 0 -3.048
v 2.692 0 -3.048
v 0 0 -3.048
v 0 0.1016 -3.048
v 0 0 3.048
v 0 0.1016 3.048
vt -5.548 -18.8984
vt -5.548 -16.5084
vt -2.708 3.1816
vt -2.708 3.33539
vt -2.708 3.3636
vt -2.5576 0.6016
vt -2.5576 2.9916
vt -2 -16
vt -2 -12.2808
vt -2 -8.56168
vt -2 -8.53347
vt -2 -8.37968
vt -2 -4.66357
vt -2 -0.947468
vt -2 -0.793678
vt -2 -0.765469
vt 0.5 0.6016
vt 0.5 4.7916
vt 0.5 5.0736
vt 0.5 5.23246
vt 0.5 5.2616
vt 0.548 -18.8984
vt 0.548 -16.5084
vt 0.6984 -0.2
vt 0.6984 -0.0984
vt 0.6984 0.1
vt 0.6984 0.2016
vt 0.8 -0.2
vt 0.8 -0.0984
vt 0.8 0.1
vt 0.8 0.2016
vt 1.1984 -0.2
vt 1.1984 -0.0984
vt 1.1984 0.1
vt 1.1984 0.2016
vt 1.3 -0.2
vt 1.3 -0.0984
vt 1.3 0.1
vt 1.3 0.2016
vt 1.452 -18.8984
vt 1.452 -16.5084
vt 1.6984 -0.2
vt 1.6984 -0.0984
vt 1.6984 0.1
vt 1.6984 0.2016
vt 1.8 -0.2
vt 1.8 -0.0984
vt 1.8 0.1
vt 1.8 0.2016
vt 2.6984 -0.2
vt 2.6984 -0.0984
vt 2.6984 0.1
vt 2.6984 0.2016
vt 2.8 -0.2
vt 2.8 -0.0984
vt 2.8 0.1
vt 2.8 0.2016
vt 2.9016 -0.2
vt 2.9016 -0.0984
vt 2.9016 0.1
vt 2.9016 0.2016
vt 3.5576 0.6016
vt 3.5576 2.9916
vt 3.708 3.1816
vt 3.708 3.33539
vt 3.708 3.3636
vt 3.8 -0.2
vt 3.8 -0.0984
vt 3.8 0.1
vt 3.8 0.2016
vt 3.9016 -0.2
vt 3.9016 -0.0984
vt 3.9016 0.1
vt 3.9016 0.2016
vt 4.1976 -16
vt 4.1976 -12.2808
vt 4.1976 -8.56168
vt 4.1976 -8.53347
vt 4.1976 -8.37968
vt 4.1976 -4.66357
vt 4.1976 -0.947468
vt 4.1976 -0.793678
vt 4.1976 -0.765469
vt 4.2 -0.2
vt 4.2 -0.0984
vt 4.2 0.1
vt 4.2 0.2016
vt 4.3016 -0.2
vt 4.3016 -0.0984
vt 4.3016 0.1
vt 4.3016 0.2016
vt 4.6 -0.2
vt 4.6 -0.0984
vt 4.6 0.1
vt 4.6 0.2016
vt 4.7016 -0.2
vt 4.7016 -0.0984
vt 4.7016 0.1
vt 4.7016 0.2016
vt 5.15 -2.2
vt 5.15 0.26
vt 5.1754 -2.2
vt 5.1754 0.26
vt 5.192 3.1816
vt 5.192 3.33539
vt 5.192 3.3636
vt 5.2516 -2.2
vt 5.2516 0.26
vt 5.3278 -2.2
vt 5.3278 0.26
vt 5.3424 0.6016
vt 5.3424 2.9916
vt 5.3532 -2.2
vt 5.3532 0.26
vt 5.5 -2.2
vt 5.5 0.26
vt 5.5254 -2.2
vt 5.5254 0.26
vt 5.6016 -2.2
vt 5.6016 0.26
vt 5.6778 -2.2
vt 5.6778 0.26
vt 5.7032 -2.2
vt 5.7032 0.26
vt 5.9 -2.2
vt 5.9 0.26
vt 5.9254 -2.2
vt 5.9254 0.26
vt 6.0016 -2.2
vt 6.0016 0.26
vt 6.0778 -2.2
vt 6.0778 0.26
vt 6.1032 -2.2
vt 6.1032 0.26
vt 6.3 -2.2
vt 6.3 0.26
vt 6.3254 -2.2
vt 6.3254 0.26
vt 6.4016 -2.2
vt 6.4016 0.26
vt 6.4778 -2.2
vt 6.4778 0.26
vt 6.5032 -2.2
vt 6.5032 0.26
vt 6.8 -7
vt 6.8 0.3152
vt 6.9016 -7
vt 6.9016 0.3152
vt 7.0032 -7
vt 7.0032 0.3152
vt 7.1048 -7
vt 7.1048 0.3152
vt 7.2064 -7
vt 7.2064 0.3152
vt 7.4 -7
vt 7.4 0.3152
vt 7.5016 -7
vt 7.5016 0.3152
vt 7.548 -18.8984
vt 7.548 -16.5084
vt 7.6032 -7
vt 7.6032 0.3152
vt 7.7048 -7
vt 7.7048 0.3152
vt 7.8064 -7
vt 7.8064 0.3152
vt 8 -7
vt 8 0.3152
vt 8.1016 -7
vt 8.1016 0.3152
vt 8.2032 -7
vt 8.2032 0.3152
vt 8.3048 -7
vt 8.3048 0.3152
vt 8.4 0.6016
vt 8.4 4.7916
vt 8.4 5.0736
vt 8.4 5.23246
vt 8.4 5.2616
vt 8.4064 -7
vt 8.4064 0.3152
vt 9.2 -7
vt 9.2 0.3152
vt 9.3016 -7
vt 9.3016 0.3152
vt 9.4032 -7
vt 9.4032 0.3152
vt 9.5048 -7
vt 9.5048 0.3152
vt 10.35 -7
vt 10.35 0.3152
vt 10.4516 -7
vt 10.4516 0.3152
vt 10.5532 -7
vt 10.5532 0.3152
vt 10.6548 -7
vt 10.6548 0.3152
vt 10.7564 -7
vt 10.7564 0.3152
vt 10.95 -7
vt 10.95 0.3152
vt 11.0516 -7
vt 11.0516 0.3152
vt 11.1532 -7
vt 11.1532 0.3152
vt 11.2548 -7
vt 11.2548 0.3152
vt 11.3564 -7
vt 11.3564 0.3152
vt 11.4576 0.6016
vt 11.4576 2.9916
vt 11.55 -7
vt 11.55 0.3152
vt 11.608 3.1816
vt 11.608 3.33539
vt 11.608 3.3636
vt 11.6516 -7
vt 11.6516 0.3152
vt 11.7532 -7
vt 11.7532 0.3152
vt 11.8548 -7
vt 11.8548 0.3152
vt 11.9564 -7
vt 11.9564 0.3152
vn 1 0 -0
vn 1 0 -0
vn 1 0 -0
vn 1 -0 -0
vn 1 -0 -0
vn 1 -0 -0
vn -1 0 -0
vn -1 0 -0
vn -1 0 -0
vn -1 0 -0
vn -1 0 -0
vn -1 0 -0
vn 0 0 1
vn 0 0 1
vn 0 0 1
vn 0 0 1
vn 0 0 1
vn 0 0 1
vn 0 0 1
vn 0 0 1
vn 0 0 1
vn 0 0 1
vn 0 0 1
vn 0 0 1
vn 0 0 1
vn 0 0 1
vn 0 0 1
vn 0 0 1
vn 0 0 1
vn 0 0 1
vn 0 0 1
vn 0 0 1
vn 0 0 1
vn 0 0 1
vn 0 0 1
vn 0 0 1
vn 0 0 1
vn 0 0 1
vn 0 0 1
vn 0 0 1
vn 0 0 1
vn 0 0 1
vn 0 0 1
vn 0 0 1
vn 0 0 1
vn 0 0 1
vn 0 0 1
vn 0 0 1
vn 0 -0 -1
vn 0 -0 -1
vn 0 -0 -1
vn 0 0 -1
vn 0 0 -1
vn 0 0 -1
vn 0 -0 -1
vn 0 -0 -1
vn 0 -0 -1
vn 0 0 -1
vn 0 0 -1
vn 0 0 -1
vn 0 0 -1
vn 0 0 -1
vn 0 0 -1
vn 0 0 -1
vn 0 0 -1
vn 0 0 -1
vn 0 0 -1
vn 0 0 -1
vn 0 0 -1
vn 0 0 -1
vn 0 0 -1
vn 0 0 -1
vn 0 0 -1
vn 0 0 -1
vn 0 0 -1
vn 0 -0 -1
vn 0 -0 -1
vn 0 -0 -1
vn 0 0 -1
vn 0 0 -1
vn 0 0 -1
vn 0 0 -1
vn 0 0 -1
vn 0 0 -1
vn -1 0 -0
vn -1 0 -0
vn -1 0 -0
vn -1 0 -0
vn -1 0 -0
vn -1 0 -0
vn 0 0 1
vn 0 0 1
vn 0 0 1
vn 0 0 1
vn 0 0 1
vn 0 0 1
vn 1 0 -0
vn 1 0 -0
vn 1 0 -0
vn 1 -0 -0
vn 1 -0 -0
vn 1 -0 -0
vn 0 0 -1
vn 0 0 -1
vn 0 0 -1
vn 0 0 -1
vn 0 0 -1
vn 0 0 -1
vn 0 0 1
vn 0 0 1
vn 0 0 1
vn 0 0 1
vn 0 0 1
vn 0 0 1
vn 1 0 -0
vn 1 0 -0
vn 1 0 -0
vn 1 0 -0
vn 1 0 -0
vn 1 0 -0
vn 0 0 -1
vn 0 0 -1
vn 0 0 -1
vn 0 -0 -1
vn 0 -0 -1
vn 0 -0 -1
vn -1 0 -0
vn -1 0 -0
vn -1 0 -0
vn -1 0 -0
vn -1 0 -0
vn -1 0 -0
vn 1 0 -0
vn 1 0 -0
vn 1 0 -0
vn 1 0 -0
vn 1 0 -0
vn 1 0 -0
vn 0 -0 -1
vn 0 -0 -1
vn 0 -0 -1
vn 0 0 -1
vn 0 0 -1
vn 0 0 -1
vn -1 0 -0
vn -1 0 -0
vn -1 0 -0
vn -1 0 -0
vn -1 0 -0
vn -1 0 -0
vn 0 0 1
vn 0 0 1
vn 0 0 1
vn 0 0 1
vn 0 0 1
vn 0 0 1
vn 0 0 -1
vn 0 0 -1
vn 0 0 -1
vn 0 -0 -1
vn 0 -0 -1
vn 0 -0 -1
vn -1 0 -0
vn -1 0 -0
vn -1 0 -0
vn -1 0 -0
vn -1 0 -0
vn -1 0 -0
vn 0 0 1
vn 0 0 1
vn 0 0 1
vn 0 0 1
vn 0 0 1
vn 0 0 1
vn 1 0 -0
vn 1 0 -0
vn 1 0 -0
vn 1 0 -0
vn 1 0 -0
vn 1 0 -0
vn 0 0 1
vn 0 0 1
vn 0 0 1
vn 0 0 1
vn 0 0 1
vn 0 0 1
vn 0 0 1
vn 0 0 1
vn 0 0 1
vn 0 0 1
vn 0 0 1
vn 0 0 1
vn 0 0 1
vn 0 0 1
vn 0 0 1
vn 0 0 1
vn 0 0 1
vn 0 0 1
vn 0 0 1
vn 0 0 1
vn 0 0 1
vn 0 0 1
vn 0 0 1
vn 0 0 1
vn 0 0 1
vn 0 0 1
vn 0 0 1
vn 0 0 1
vn 0 0 1
vn 0 0 1
vn 0 0 1
vn 0 0 1
vn 0 0 1
vn 0 0 1
vn 0 0 1
vn 0 0 1
vn 0 0 1
vn 0 0 1
vn 0 0 1
vn 0 0 1
vn 0 0 1
vn 0 0 1
vn 0 0 1
vn 0 0 1
vn 0 0 1
vn 0 0 1
vn 0 0 1
vn 0 0 1
vn 0 -0 -1
vn 0 -0 -1
vn 0 -0 -1
vn 0 0 -1
vn 0 0 -1
vn 0 0 -1
vn 0 0 -1
vn 0 0 -1
vn 0 0 -1
vn 0 -0 -1
vn 0 -0 -1
vn 0 -0 -1
vn 0 0 -1
vn 0 0 -1
vn 0 0 -1
vn 0 -0 -1
vn 0 -0 -1
vn 0 -0 -1
vn 0 0 -1
vn 0 0 -1
vn 0 0 -1
vn 0 -0 -1
vn 0 -0 -1
vn 0 -0 -1
vn 0 0 -1
vn 0 0 -1
vn 0 0 -1
vn 0 -0 -1
vn 0 -0 -1
vn 0 -0 -1
vn 0 -0 -1
vn 0 -0 -1
vn 0 -0 -1
vn 0 0 -1
vn 0 0 -1
vn 0 0 -1
vn 0 -0 -1
vn 0 -0 -1
vn 0 -0 -1
vn 0 0 -1
vn 0 0 -1
vn 0 0 -1
vn 0 -0 -1
vn 0 -0 -1
vn 0 -0 -1
vn 0 0 -1
vn 0 0 -1
vn 0 0 -1
vn 0 -1 -0
vn 0 -1 -0
vn 0 -1 -0
vn 0 -1 -0
vn 0 -1 -0
vn 0 -1 -0
vn 1 0 -0
vn 1 0 -0
vn 1 0 -0
vn 1 0 -0
vn 1 0 -0
vn 1 0 -0
vn -1 0 -0
vn -1 0 -0
vn -1 0 -0
vn -1 0 -0
vn -1 0 -0
vn -1 0 -0
vn -1 0 -0
vn -1 0 -0
vn -1 0 -0
vn -1 0 -0
vn -1 0 -0
vn -1 0 -0
vn 0 1 -0
vn 0 1 -0
vn 0 1 -0
vn 0 1 0
vn 0 1 0
vn 0 1 0
vn 1 0 -0
vn 1 0 -0
vn 1 0 -0
vn 1 0 -0
vn 1 0 -0
vn 1 0 -0
vn 0 -1 -0
vn 0 -1 -0
vn 0 -1 -0
vn 0 -1 -0
vn 0 -1 -0
vn 0 -1 -0
vn -1 0 -0
vn -1 0 -0
vn -1 0 -0
vn -1 0 -0
vn -1 0 -0
vn -1 0 -0
vn 0 1 -0
vn 0 1 -0
vn 0 1 -0
vn 0 1 0
vn 0 1 0
vn 0 1 0
vn 1 0 -0
vn 1 0 -0
vn 1 0 -0
vn 1 0 -0
vn 1 0 -0
vn 1 0 -0
vn 0 -1 -0
vn 0 -1 -0
vn 0 -1 -0
vn 0 -1 -0
vn 0 -1 -0
vn 0 -1 -0
vn -1 0 -0
vn -1 0 -0
vn -1 0 -0
vn -1 0 -0
vn -1 0 -0
vn -1 0 -0
vn 0 1 -0
vn 0 1 -0
vn 0 1 -0
vn 0 1 0
vn 0 1 0
vn 0 1 0
vn 1 0 -0
vn 1 0 -0
vn 1 0 -0
vn 1 0 -0
vn 1 0 -0
vn 1 0 -0
vn 0 -1 -0
vn 0 -1 -0
vn 0 -1 -0
vn 0 -1 -0
vn 0 -1 -0
vn 0 -1 -0
vn -1 0 -0
vn -1 0 -0
vn -1 0 -0
vn -1 0 -0
vn -1 0 -0
vn -1 0 -0
vn 0 1 -0
vn 0 1 -0
vn 0 1 -0
vn 0 1 0
vn 0 1 0
vn 0 1 0
vn 0 1 -0
vn 0 1 -0
vn 0 1 -0
vn 0 1 0
vn 0 1 0
vn 0 1 0
vn 1 0 -0
vn 1 0 -0
vn 1 0 -0
vn 1 0 -0
vn 1 0 -0
vn 1 0 -0
vn 0 -1 -0
vn 0 -1 -0
vn 0 -1 -0
vn 0 -1 -0
vn 0 -1 -0
vn 0 -1 -0
vn 0 1 -0
vn 0 1 -0
vn 0 1 -0
vn 0 1 0
vn 0 1 0
vn 0 1 0
vn 1 0 -0
vn 1 0 -0
vn 1 0 -0
vn 1 0 -0
vn 1 0 -0
vn 1 0 -0
vn 0 -1 -0
vn 0 -1 -0
vn 0 -1 -0
vn 0 -1 -0
vn 0 -1 -0
vn 0 -1 -0
vn -1 0 -0
vn -1 0 -0
vn -1 0 -0
vn -1 0 -0
vn -1 0 -0
vn -1 0 -0
vn 0 1 -0
vn 0 1 -0
vn 0 1 -0
vn 0 1 0
vn 0 1 0
vn 0 1 0
vn 1 0 -0
vn 1 0 -0
vn 1 0 -0
vn 1 0 -0
vn 1 0 -0
vn 1 0 -0
vn 0 -1 -0
vn 0 -1 -0
vn 0 -1 -0
vn 0 -1 -0
vn 0 -1 -0
vn 0 -1 -0
vn -1 0 -0
vn -1 0 -0
vn -1 0 -0
vn -1 0 -0
vn -1 0 -0
vn -1 0 -0
vn 0 1 -0
vn 0 1 -0
vn 0 1 -0
vn 0 1 0
vn 0 1 0
vn 0 1 0
vn 1 0 -0
vn 1 0 -0
vn 1 0 -0
vn 1 0 -0
vn 1 0 -0
vn 1 0 -0
vn 0 -1 -0
vn 0 -1 -0
vn 0 -1 -0
vn 0 -1 -0
vn 0 -1 -0
vn 0 -1 -0
vn -1 0 -0
vn -1 0 -0
vn -1 0 -0
vn -1 0 -0
vn -1 0 -0
vn -1 0 -0
vn -0.51033 0.859979 -0
vn -0.51033 0.859979 -0
vn -0.51033 0.859979 -0
vn -0.51033 0.859979 -0
vn -0.51033 0.859979 -0
vn -0.51033 0.859979 -0
vn 0.51033 0.859979 0
vn 0.51033 0.859979 0
vn 0.51033 0.859979 0
vn 0.51033 0.859979 -0
vn 0.51033 0.859979 -0
vn 0.51033 0.859979 -0
vn 1 0 -0
vn 1 0 -0
vn 1 0 -0
vn 1 -0 -0
vn 1 -0 -0
vn 1 -0 -0
vn 1 0 -0
vn 1 0 -0
vn 1 0 -0
vn 1 -0 -0
vn 1 -0 -0
vn 1 -0 -0
vn -0.509135 -0.860686 -0
vn -0.509135 -0.860686 -0
vn -0.509135 -0.860686 -0
vn -0.509135 -0.860686 -0
vn -0.509135 -0.860686 -0
vn -0.509135 -0.860686 -0
vn 0.509135 -0.860686 -0
vn 0.509135 -0.860686 -0
vn 0.509135 -0.860686 -0
vn 0.509135 -0.860686 -0
vn 0.509135 -0.860686 -0
vn 0.509135 -0.860686 -0
vn -1 0 -0
vn -1 0 -0
vn -1 0 -0
vn -1 0 -0
vn -1 0 -0
vn -1 0 -0
vn -1 0 -0
vn -1 0 -0
vn -1 0 -0
vn -1 0 -0
vn -1 0 -0
vn -1 0 -0
g Shed
usemtl Shed
s off
f 19/159/1 24/41/2 18/40/3
f 23/160/4 24/41/5 19/159/6
f 22/23/7 20/22/8 17/1/9
f 21/2/10 22/23/11 17/1/12
g Sides
usemtl Sides
s off
f 71/20/13 73/19/14 67/65/15
f 67/65/16 73/19/17 66/64/18
g Roof
usemtl Roof
s off
f 72/21/19 71/20/20 65/66/21
f 65/66/22 71/20/23 67/65/24
g Sides
usemtl Sides
s off
f 73/19/25 70/4/26 69/3/27
f 73/19/28 71/20/29 70/4/30
g Roof
usemtl Roof
s off
f 71/20/31 68/5/32 70/4/33
f 71/20/34 72/21/35 68/5/36
g Shed
usemtl Shed
s off
f 78/18/37 76/7/38 79/17/39
f 76/7/40 74/6/41 79/17/42
f 77/63/43 78/18/44 79/17/45
f 75/62/46 77/63/47 79/17/48
g Sides
usemtl Sides
s off
f 88/177/49 82/215/50 81/214/51
f 88/177/52 86/178/53 82/215/54
g Roof
usemtl Roof
s off
f 86/178/55 80/216/56 82/215/57
f 86/178/58 87/179/59 80/216/60
g Sides
usemtl Sides
s off
f 85/105/61 88/177/62 84/104/63
f 86/178/64 88/177/65 85/105/66
g Roof
usemtl Roof
s off
f 83/106/67 86/178/68 85/105/69
f 87/179/70 86/178/71 83/106/72
g Shed
usemtl Shed
s off
f 90/111/73 91/112/74 93/175/75
f 91/112/76 94/176/77 93/175/78
f 92/211/79 89/210/80 93/175/81
f 94/176/82 92/211/83 93/175/84
g Trim
usemtl Trim
s off
f 48/118/85 64/116/86 63/115/87
f 48/118/88 63/115/89 44/117/90
f 45/119/91 48/118/92 44/117/93
f 47/120/94 48/118/95 45/119/96
f 43/121/97 47/120/98 45/119/99
f 46/122/100 47/120/101 43/121/102
f 46/122/103 43/121/104 59/123/105
f 60/124/106 46/122/107 59/123/108
f 31/127/109 34/128/110 58/125/111
f 34/128/112 57/126/113 58/125/114
f 33/129/115 35/130/116 31/127/117
f 35/130/118 34/128/119 31/127/120
f 36/132/121 33/129/122 32/131/123
f 36/132/124 35/130/125 33/129/126
f 56/134/127 32/131/128 55/133/129
f 56/134/130 36/132/131 32/131/132
f 30/138/133 53/136/134 54/135/135
f 26/137/136 30/138/137 54/135/138
f 27/139/139 30/138/140 26/137/141
f 29/140/142 30/138/143 27/139/144
f 29/140/145 27/139/146 25/141/147
f 28/142/148 29/140/149 25/141/150
f 28/142/151 25/141/152 49/143/153
f 50/144/154 28/142/155 49/143/156
f 37/102/157 40/103/158 52/100/159
f 40/103/160 51/101/161 52/100/162
f 41/108/163 37/102/164 39/107/165
f 41/108/166 40/103/167 37/102/168
f 42/110/169 39/107/170 38/109/171
f 42/110/172 41/108/173 39/107/174
f 62/113/175 61/114/176 38/109/177
f 61/114/178 42/110/179 38/109/180
g Floor
usemtl Floor
s off
f 96/57/181 95/53/182 97/52/183
f 96/57/184 97/52/185 98/56/186
f 101/60/187 99/61/188 102/56/189
f 99/61/190 100/57/191 102/56/192
f 105/73/193 103/74/194 106/69/195
f 103/74/196 104/70/197 106/69/198
f 109/90/199 107/91/200 110/86/201
f 107/91/202 108/87/203 110/86/204
f 113/98/205 111/99/206 114/94/207
f 111/99/208 112/95/209 114/94/210
f 116/49/211 115/45/212 117/44/213
f 116/49/214 117/44/215 118/48/216
f 120/39/217 119/35/218 121/34/219
f 120/39/220 121/34/221 122/38/222
f 124/31/223 123/27/224 125/26/225
f 124/31/226 125/26/227 126/30/228
f 127/51/229 128/55/230 129/54/231
f 130/50/232 127/51/233 129/54/234
f 132/55/235 134/58/236 133/54/237
f 132/55/238 131/59/239 134/58/240
f 136/68/241 138/71/242 137/67/243
f 136/68/244 135/72/245 138/71/246
f 140/85/247 142/88/248 141/84/249
f 140/85/250 139/89/251 142/88/252
f 144/93/253 146/96/254 145/92/255
f 144/93/256 143/97/257 146/96/258
f 147/43/259 148/47/260 149/46/261
f 150/42/262 147/43/263 149/46/264
f 151/33/265 152/37/266 153/36/267
f 154/32/268 151/33/269 153/36/270
f 155/25/271 156/29/272 157/28/273
f 158/24/274 155/25/275 157/28/276
f 161//277 162//278 217//279
f 162//280 215//281 217//282
f 216//283 218//284 217//285
f 215//286 216//287 217//288
f 218//289 215//290 217//291
f 218//292 216//293 215//294
f 179/147/295 180/148/296 186/146/297
f 179/147/298 186/146/299 183/145/300
f 180/148/301 179/147/302 182/149/303
f 181/150/304 180/148/305 182/149/306
f 181/150/307 182/149/308 184/151/309
f 185/152/310 181/150/311 184/151/312
f 183/153/313 186/154/314 184/151/315
f 186/154/316 185/152/317 184/151/318
f 171/157/319 172/158/320 178/156/321
f 171/157/322 178/156/323 175/155/324
f 172/158/325 171/157/326 174/161/327
f 173/162/328 172/158/329 174/161/330
f 173/162/331 174/161/332 176/163/333
f 177/164/334 173/162/335 176/163/336
f 175/165/337 178/166/338 176/163/339
f 178/166/340 177/164/341 176/163/342
f 163/169/343 164/170/344 170/168/345
f 163/169/346 170/168/347 167/167/348
f 164/170/349 163/169/350 166/171/351
f 165/172/352 164/170/353 166/171/354
f 165/172/355 166/171/356 168/173/357
f 169/174/358 165/172/359 168/173/360
f 167/180/361 170/181/362 168/173/363
f 170/181/364 169/174/365 168/173/366
f 159/184/367 160/185/368 162/183/369
f 159/184/370 162/183/371 161/182/372
f 160/185/373 159/184/374 218/186/375
f 216/187/376 160/185/377 218/186/378
f 187/184/379 216/183/380 218/182/381
f 188/185/382 216/183/383 187/184/384
f 190/187/385 188/185/386 189/186/387
f 188/185/388 187/184/389 189/186/390
f 215/189/391 190/187/392 189/186/393
f 215/189/394 189/186/395 217/188/396
f 191/192/397 193/191/398 194/190/399
f 192/193/400 193/191/401 191/192/402
f 198/195/403 192/193/404 195/194/405
f 192/193/406 191/192/407 195/194/408
f 197/197/409 198/195/410 195/194/411
f 197/197/412 195/194/413 196/196/414
f 194/198/415 197/197/416 196/196/417
f 194/198/418 193/199/419 197/197/420
f 199/202/421 201/201/422 202/200/423
f 200/203/424 201/201/425 199/202/426
f 206/205/427 200/203/428 203/204/429
f 200/203/430 199/202/431 203/204/432
f 205/207/433 206/205/434 203/204/435
f 205/207/436 203/204/437 204/206/438
f 202/208/439 205/207/440 204/206/441
f 202/208/442 201/209/443 205/207/444
f 207/217/445 209/213/446 210/212/447
f 208/218/448 209/213/449 207/217/450
f 214/220/451 208/218/452 211/219/453
f 208/218/454 207/217/455 211/219/456
f 213/222/457 214/220/458 211/219/459
f 213/222/460 211/219/461 212/221/462
f 210/223/463 213/222/464 212/221/465
f 210/223/466 209/224/467 213/222/468
g Roof
usemtl Roof
s off
f 13/76/469 7/8/470 9/75/471
f 13/76/472 14/9/473 7/8/474
f 1/10/475 13/76/476 3/77/477
f 14/9/478 13/76/479 1/10/480
f 5/11/481 3/77/482 6/78/483
f 1/10/484 3/77/485 5/11/486
g Sides
usemtl Sides
s off
f 2/12/487 6/78/488 4/79/489
f 5/11/490 6/78/491 2/12/492
g Shed
usemtl Shed
s off
f 15/80/493 16/13/494 4/79/495
f 16/13/496 2/12/497 4/79/498
f 16/13/499 15/80/500 10/81/501
f 8/14/502 16/13/503 10/81/504
g Sides
usemtl Sides
s off
f 12/82/505 8/14/506 10/81/507
f 12/82/508 11/15/509 8/14/510
g Roof
usemtl Roof
s off
f 9/83/511 11/15/512 12/82/513
f 9/83/514 7/16/515 11/15/516
