####
#
#	OBJ File Generated by LightWave3D
#	LightWave3D OBJ Export v2.3
#
####
o Single Garage A-frame_14x32.obj
mtllib Single Garage A-frame_14x32.mtl
g default
v 2.0828 2.4496 -4.8768
v 2.0828 0.1016 -4.8768
v 2.0828 2.4496 4.8768
v 2.0828 0.1016 4.8768
v 2.0048 2.3496 -4.9276
v 2.0048 2.4516 -4.9276
v 2.2348 2.3516 -4.9276
v 0 3.3016 -4.9276
v -2.0048 2.3496 -4.9276
v -2.0048 2.4516 -4.9276
v -2.2348 2.3516 -4.9276
v 2.2348 2.3516 4.9276
v 2.0048 2.4516 4.9276
v 2.0048 2.3496 4.9276
v 0 3.3016 4.9276
v -2.0048 2.4516 4.9276
v -2.2348 2.3516 4.9276
v -2.0048 2.3496 4.9276
v -2.1082 0.1016 -4.826
v -2.032 0.1016 -4.9022
v -2.1082 0.1016 -4.9022
v -2.1082 2.4016 -4.826
v -2.1082 2.4016 -4.9022
v -2.032 2.4016 -4.9022
v 2.1082 0.1016 -4.826
v 2.032 0.1016 -4.9022
v 2.1082 0.1016 -4.9022
v 2.1082 2.4016 -4.826
v 2.1082 2.4016 -4.9022
v 2.032 2.4016 -4.9022
v -2.1082 0.1016 4.826
v -2.032 0.1016 4.9022
v -2.1082 0.1016 4.9022
v -2.1082 2.4016 4.826
v -2.1082 2.4016 4.9022
v -2.032 2.4016 4.9022
v 2.1082 0.1016 4.826
v 2.032 0.1016 4.9022
v 2.1082 0.1016 4.9022
v 2.1082 2.4016 4.826
v 2.1082 2.4016 4.9022
v 2.032 2.4016 4.9022
v -2.0828 0.1016 -4.826
v -2.0828 2.4016 -4.826
v -2.0828 2.4016 4.826
v -2.0828 0.1016 4.826
v -2.032 2.4016 -4.8768
v -2.032 0.1016 -4.8768
v 2.032 0.1016 -4.8768
v 2.032 2.4016 -4.8768
v 2.0828 2.4016 -4.826
v 2.0828 0.1016 -4.826
v 2.0828 0.1016 4.826
v 2.0828 2.4016 4.826
v -2.032 2.4016 4.8768
v -2.032 0.1016 4.8768
v 2.032 0.1016 4.8768
v 2.032 2.4016 4.8768
v -2.0828 2.4496 -4.8768
v -2.0828 0.1016 -4.8768
v -2.0828 2.4496 4.8768
v -2.0828 0.1016 4.8768
v 0 3.4016 -4.9276
v 0 3.4016 4.9276
v 0 0.1016 4.8768
v 0 3.3496 4.8768
v 2.0828 2.4496 4.8768
v -2.0828 2.4496 4.8768
v 2.0828 0.1016 4.8768
v -2.0828 0.1016 4.8768
v 2.2348 2.3516 4.9276
v 2.2348 2.4366 4.9276
v 2.0048 2.4516 4.9276
v 2.0048 2.3496 4.9276
v 0 3.4016 4.9276
v 0 3.3016 4.9276
v -2.0048 2.4516 4.9276
v -2.2348 2.4366 4.9276
v -2.2348 2.3516 4.9276
v -2.0048 2.3496 4.9276
v 2.0048 2.3496 -4.9276
v 2.0048 2.4516 -4.9276
v 2.2348 2.4366 -4.9276
v 2.2348 2.3516 -4.9276
v 0 3.4016 -4.9276
v 0 3.3016 -4.9276
v -2.0048 2.3496 -4.9276
v -2.0048 2.4516 -4.9276
v -2.2348 2.4366 -4.9276
v -2.2348 2.3516 -4.9276
v 0 3.3496 -4.8768
v 0 0.1016 -4.8768
v 2.0828 2.4496 -4.8768
v -2.0828 2.4496 -4.8768
v -2.0828 0.1016 -4.8768
v 2.0828 0.1016 -4.8768
v -2.2348 2.4366 -4.9276
v 2.2348 2.4366 -4.9276
v -2.2348 2.4366 4.9276
v 2.2348 2.4366 4.9276
v -1.9318 0.1016 4.8768
v -1.9318 0.1016 -4.8768
v -1.8302 0.1016 -4.8768
v -1.8302 0.1016 4.8768
v -1.9318 0 4.8768
v -1.8302 0 4.8768
v -1.8302 0 -4.8768
v -1.9318 0 -4.8768
v -1.6518 0.1016 4.8768
v -1.6518 0.1016 -4.8768
v -1.5502 0.1016 -4.8768
v -1.5502 0.1016 4.8768
v -1.6518 0 4.8768
v -1.5502 0 4.8768
v -1.5502 0 -4.8768
v -1.6518 0 -4.8768
v 1.9318 0.1016 4.8768
v 1.9318 0.1016 -4.8768
v 1.8302 0.1016 -4.8768
v 1.8302 0.1016 4.8768
v 1.9318 0 4.8768
v 1.8302 0 4.8768
v 1.8302 0 -4.8768
v 1.9318 0 -4.8768
v 1.6518 0.1016 4.8768
v 1.6518 0.1016 -4.8768
v 1.5502 0.1016 -4.8768
v 1.5502 0.1016 4.8768
v 1.6518 0 4.8768
v 1.5502 0 4.8768
v 1.5502 0 -4.8768
v 1.6518 0 -4.8768
v -0.0508001 0.1016 4.8768
v -0.0508001 0.1016 -4.8768
v 0.0508001 0.1016 -4.8768
v 0.0508001 0.1016 4.8768
v -0.0508001 0 4.8768
v 0.0508001 0 4.8768
v 0.0508001 0 -4.8768
v -0.0508001 0 -4.8768
v -1.9318 0.1016 4.8768
v -1.8302 0.1016 4.8768
v -1.9318 0 4.8768
v -1.8302 0 4.8768
v -1.6518 0.1016 4.8768
v -1.5502 0.1016 4.8768
v -1.6518 0 4.8768
v -1.5502 0 4.8768
v 1.9318 0.1016 4.8768
v 1.8302 0.1016 4.8768
v 1.9318 0 4.8768
v 1.8302 0 4.8768
v 1.6518 0.1016 4.8768
v 1.5502 0.1016 4.8768
v 1.6518 0 4.8768
v 1.5502 0 4.8768
v -0.0508001 0.1016 4.8768
v 0.0508001 0.1016 4.8768
v -0.0508001 0 4.8768
v 0.0508001 0 4.8768
v -1.9318 0.1016 -4.8768
v -1.8302 0.1016 -4.8768
v -1.8302 0 -4.8768
v -1.9318 0 -4.8768
v -1.6518 0.1016 -4.8768
v -1.5502 0.1016 -4.8768
v -1.5502 0 -4.8768
v -1.6518 0 -4.8768
v 1.9318 0.1016 -4.8768
v 1.8302 0.1016 -4.8768
v 1.8302 0 -4.8768
v 1.9318 0 -4.8768
v 1.6518 0.1016 -4.8768
v 1.5502 0.1016 -4.8768
v 1.5502 0 -4.8768
v 1.6518 0 -4.8768
v -0.0508001 0.1016 -4.8768
v 0.0508001 0.1016 -4.8768
v 0.0508001 0 -4.8768
v -0.0508001 0 -4.8768
v 0 3.4016 -4.9276
v 0 3.4016 4.9276
v -2.2348 2.4366 -4.9276
v -2.2348 2.4366 4.9276
vt -22.148 -5.3984
vt -22.148 -3.0504
vt -18 -2.7
vt -18 -2.615
vt -18 -2.38499
vt -18 -2.28299
vt -18 -0.105442
vt -18 2.07211
vt -18 2.17411
vt -18 2.40412
vt -18 2.48912
vt -18 4.92336
vt -18 5.3
vt -18 7.73425
vt -12.452 -5.3984
vt -12.452 -3.0504
vt -12.048 -5.3984
vt -12.048 -3.0504
vt -8.2024 -2.7
vt -8.2024 -2.615
vt -8.2024 -2.38499
vt -8.2024 -2.28299
vt -8.2024 -0.105442
vt -8.2024 2.07211
vt -8.2024 2.17411
vt -8.2024 2.40412
vt -8.2024 2.48912
vt -8.2024 4.92336
vt -8.2024 5.3
vt -8.2024 7.73425
vt -4.7 0.6
vt -4.7 6.0864
vt -4.627 0.1
vt -4.627 0.2016
vt -4.627 0.3
vt -4.627 0.4016
vt -4.5984 0.6
vt -4.5984 6.0864
vt -4.5254 0.1
vt -4.5254 0.2016
vt -4.5254 0.3
vt -4.5254 0.4016
vt -4.4968 0.6
vt -4.4968 6.0864
vt -4.3952 0.6
vt -4.3952 6.0864
vt -4.347 0.1
vt -4.347 0.2016
vt -4.347 0.3
vt -4.347 0.4016
vt -4.2936 0.6
vt -4.2936 6.0864
vt -4.2454 0.1
vt -4.2454 0.2016
vt -4.2454 0.3
vt -4.2454 0.4016
vt -4.1 0.6
vt -4.1 6.0864
vt -4.0508 0.1
vt -4.0508 0.2016
vt -4.0508 0.3
vt -4.0508 0.4016
vt -3.9984 0.6
vt -3.9984 6.0864
vt -3.9492 0.1
vt -3.9492 0.2016
vt -3.9492 0.3
vt -3.9492 0.4016
vt -3.8968 0.6
vt -3.8968 6.0864
vt -3.7952 0.6
vt -3.7952 6.0864
vt -3.7546 0.1
vt -3.7546 0.2016
vt -3.7546 0.3
vt -3.7546 0.4016
vt -3.6936 0.6
vt -3.6936 6.0864
vt -3.653 0.1
vt -3.653 0.2016
vt -3.653 0.3
vt -3.653 0.4016
vt -3.5 0.6
vt -3.5 6.0864
vt -3.4746 0.1
vt -3.4746 0.2016
vt -3.4746 0.3
vt -3.4746 0.4016
vt -3.3984 0.6
vt -3.3984 6.0864
vt -3.373 0.1
vt -3.373 0.2016
vt -3.373 0.3
vt -3.373 0.4016
vt -3.2968 0.6
vt -3.2968 6.0864
vt -3.1952 0.6
vt -3.1952 6.0864
vt -3.0936 0.6
vt -3.0936 6.0864
vt -2.9 0.6
vt -2.9 6.0864
vt -2.7984 0.6
vt -2.7984 6.0864
vt -2.6968 0.6
vt -2.6968 6.0864
vt -2.5952 0.6
vt -2.5952 6.0864
vt -2.4936 0.6
vt -2.4936 6.0864
vt -2.352 -5.3984
vt -2.352 -3.0504
vt -2.25 0.6
vt -2.25 6.0864
vt -2.1484 0.6
vt -2.1484 6.0864
vt -2.0468 0.6
vt -2.0468 6.0864
vt -1.9452 0.6
vt -1.9452 6.0864
vt -1.8436 0.6
vt -1.8436 6.0864
vt -1.6 4.1
vt -1.6 6.4
vt -1.5746 4.1
vt -1.5746 6.4
vt -1.4984 4.1
vt -1.4984 6.4
vt -1.4222 4.1
vt -1.4222 6.4
vt -1.3968 4.1
vt -1.3968 6.4
vt -1.3 4.1
vt -1.3 6.4
vt -1.2746 4.1
vt -1.2746 6.4
vt -1.1984 4.1
vt -1.1984 6.4
vt -1.1222 4.1
vt -1.1222 6.4
vt -1.0968 4.1
vt -1.0968 6.4
vt -1.05 4.1
vt -1.05 6.4
vt -1.0246 4.1
vt -1.0246 6.4
vt -0.9484 4.1
vt -0.9484 6.4
vt -0.88 3.1716
vt -0.88 3.2566
vt -0.8722 4.1
vt -0.8722 6.4
vt -0.8468 4.1
vt -0.8468 6.4
vt -0.75 4.1
vt -0.75 6.4
vt -0.728 0.6016
vt -0.728 2.9496
vt -0.7246 4.1
vt -0.7246 6.4
vt -0.65 3.1696
vt -0.65 3.2716
vt -0.6484 4.1
vt -0.6484 6.4
vt -0.5722 4.1
vt -0.5722 6.4
vt -0.5468 4.1
vt -0.5468 6.4
vt 1.35 0.6016
vt 1.35 3.8496
vt 1.35 4.1216
vt 1.35 4.2216
vt 3.35 3.1696
vt 3.35 3.2716
vt 3.428 0.6016
vt 3.428 2.9496
vt 3.58 3.1716
vt 3.58 3.2566
vt 4.18 3.1716
vt 4.18 3.2566
vt 4.332 0.6016
vt 4.332 2.9496
vt 4.41 3.1696
vt 4.41 3.2716
vt 6.41 0.6016
vt 6.41 3.8496
vt 6.41 4.1216
vt 6.41 4.2216
vt 8.41 3.1696
vt 8.41 3.2716
vt 8.488 0.6016
vt 8.488 2.9496
vt 8.64 3.1716
vt 8.64 3.2566
vn 1 0 -0
vn 1 0 -0
vn 1 0 -0
vn 1 -0 -0
vn 1 -0 -0
vn 1 -0 -0
vn -1 0 -0
vn -1 0 -0
vn -1 0 -0
vn -1 0 -0
vn -1 0 -0
vn -1 0 -0
vn 0 0 1
vn 0 0 1
vn 0 0 1
vn 0 0 1
vn 0 0 1
vn 0 0 1
vn 0 0 1
vn 0 0 1
vn 0 0 1
vn 0 0 1
vn 0 0 1
vn 0 0 1
vn 0 0 1
vn 0 0 1
vn 0 0 1
vn 0 0 1
vn 0 0 1
vn 0 0 1
vn 0 0 1
vn 0 0 1
vn 0 0 1
vn 0 0 1
vn 0 0 1
vn 0 0 1
vn 0 0 1
vn 0 0 1
vn 0 0 1
vn 0 0 1
vn 0 0 1
vn 0 0 1
vn 0 0 1
vn 0 0 1
vn 0 0 1
vn 0 0 1
vn 0 0 1
vn 0 0 1
vn 0 0 -1
vn 0 0 -1
vn 0 0 -1
vn 0 0 -1
vn 0 0 -1
vn 0 0 -1
vn 0 0 -1
vn 0 0 -1
vn 0 0 -1
vn 0 0 -1
vn 0 0 -1
vn 0 0 -1
vn 0 -0 -1
vn 0 -0 -1
vn 0 -0 -1
vn 0 0 -1
vn 0 0 -1
vn 0 0 -1
vn 0 0 -1
vn 0 0 -1
vn 0 0 -1
vn 0 0 -1
vn 0 0 -1
vn 0 0 -1
vn 0 0 -1
vn 0 0 -1
vn 0 0 -1
vn 0 0 -1
vn 0 0 -1
vn 0 0 -1
vn 0 -0 -1
vn 0 -0 -1
vn 0 -0 -1
vn 0 0 -1
vn 0 0 -1
vn 0 0 -1
vn 0 0 1
vn 0 0 1
vn 0 0 1
vn 0 0 1
vn 0 0 1
vn 0 0 1
vn 0 0 1
vn 0 0 1
vn 0 0 1
vn 0 0 1
vn 0 0 1
vn 0 0 1
vn 0 0 1
vn 0 0 1
vn 0 0 1
vn 0 0 1
vn 0 0 1
vn 0 0 1
vn 0 0 1
vn 0 0 1
vn 0 0 1
vn 0 0 1
vn 0 0 1
vn 0 0 1
vn 0 0 1
vn 0 0 1
vn 0 0 1
vn 0 0 1
vn 0 0 1
vn 0 0 1
vn 0 -0 -1
vn 0 -0 -1
vn 0 -0 -1
vn 0 0 -1
vn 0 0 -1
vn 0 0 -1
vn 0 -0 -1
vn 0 -0 -1
vn 0 -0 -1
vn 0 0 -1
vn 0 0 -1
vn 0 0 -1
vn 0 0 -1
vn 0 0 -1
vn 0 0 -1
vn 0 -0 -1
vn 0 -0 -1
vn 0 -0 -1
vn 0 0 -1
vn 0 0 -1
vn 0 0 -1
vn 0 -0 -1
vn 0 -0 -1
vn 0 -0 -1
vn 0 -0 -1
vn 0 -0 -1
vn 0 -0 -1
vn 0 0 -1
vn 0 0 -1
vn 0 0 -1
vn 1 0 -0
vn 1 0 -0
vn 1 0 -0
vn 1 0 -0
vn 1 0 -0
vn 1 0 -0
vn 0 1 -0
vn 0 1 -0
vn 0 1 -0
vn 0 1 0
vn 0 1 0
vn 0 1 0
vn -1 0 -0
vn -1 0 -0
vn -1 0 -0
vn -1 0 -0
vn -1 0 -0
vn -1 0 -0
vn 0 -1 -0
vn 0 -1 -0
vn 0 -1 -0
vn 0 -1 -0
vn 0 -1 -0
vn 0 -1 -0
vn 1 0 -0
vn 1 0 -0
vn 1 0 -0
vn 1 0 -0
vn 1 0 -0
vn 1 0 -0
vn 0 1 -0
vn 0 1 -0
vn 0 1 -0
vn 0 1 0
vn 0 1 0
vn 0 1 0
vn -1 0 -0
vn -1 0 -0
vn -1 0 -0
vn -1 0 -0
vn -1 0 -0
vn -1 0 -0
vn 0 -1 -0
vn 0 -1 -0
vn 0 -1 -0
vn 0 -1 -0
vn 0 -1 -0
vn 0 -1 -0
vn 1 0 -0
vn 1 0 -0
vn 1 0 -0
vn 1 0 -0
vn 1 0 -0
vn 1 0 -0
vn 0 1 -0
vn 0 1 -0
vn 0 1 -0
vn 0 1 0
vn 0 1 0
vn 0 1 0
vn -1 0 -0
vn -1 0 -0
vn -1 0 -0
vn -1 0 -0
vn -1 0 -0
vn -1 0 -0
vn 0 -1 -0
vn 0 -1 -0
vn 0 -1 -0
vn 0 -1 -0
vn 0 -1 -0
vn 0 -1 -0
vn 1 0 -0
vn 1 0 -0
vn 1 0 -0
vn 1 0 -0
vn 1 0 -0
vn 1 0 -0
vn 0 1 -0
vn 0 1 -0
vn 0 1 -0
vn 0 1 0
vn 0 1 0
vn 0 1 0
vn -1 0 -0
vn -1 0 -0
vn -1 0 -0
vn -1 0 -0
vn -1 0 -0
vn -1 0 -0
vn 0 -1 -0
vn 0 -1 -0
vn 0 -1 -0
vn 0 -1 -0
vn 0 -1 -0
vn 0 -1 -0
vn 1 0 -0
vn 1 0 -0
vn 1 0 -0
vn 1 0 -0
vn 1 0 -0
vn 1 0 -0
vn 0 1 -0
vn 0 1 -0
vn 0 1 -0
vn 0 1 0
vn 0 1 0
vn 0 1 0
vn -1 0 -0
vn -1 0 -0
vn -1 0 -0
vn -1 0 -0
vn -1 0 -0
vn -1 0 -0
vn 0 -1 -0
vn 0 -1 -0
vn 0 -1 -0
vn 0 -1 -0
vn 0 -1 -0
vn 0 -1 -0
vn 0 0 1
vn 0 0 1
vn 0 0 1
vn 0 0 1
vn 0 0 1
vn 0 0 1
vn 1 0 -0
vn 1 0 -0
vn 1 0 -0
vn 1 0 -0
vn 1 0 -0
vn 1 0 -0
vn 0 0 -1
vn 0 0 -1
vn 0 0 -1
vn 0 -0 -1
vn 0 -0 -1
vn 0 -0 -1
vn -1 0 -0
vn -1 0 -0
vn -1 0 -0
vn -1 0 -0
vn -1 0 -0
vn -1 0 -0
vn 1 0 -0
vn 1 0 -0
vn 1 0 -0
vn 1 0 -0
vn 1 0 -0
vn 1 0 -0
vn 0 -0 -1
vn 0 -0 -1
vn 0 -0 -1
vn 0 0 -1
vn 0 0 -1
vn 0 0 -1
vn -1 0 -0
vn -1 0 -0
vn -1 0 -0
vn -1 0 -0
vn -1 0 -0
vn -1 0 -0
vn 0 0 1
vn 0 0 1
vn 0 0 1
vn 0 0 1
vn 0 0 1
vn 0 0 1
vn 0 0 -1
vn 0 0 -1
vn 0 0 -1
vn 0 -0 -1
vn 0 -0 -1
vn 0 -0 -1
vn -1 0 -0
vn -1 0 -0
vn -1 0 -0
vn -1 0 -0
vn -1 0 -0
vn -1 0 -0
vn 0 0 1
vn 0 0 1
vn 0 0 1
vn 0 0 1
vn 0 0 1
vn 0 0 1
vn 1 0 -0
vn 1 0 -0
vn 1 0 -0
vn 1 0 -0
vn 1 0 -0
vn 1 0 -0
vn -1 0 -0
vn -1 0 -0
vn -1 0 -0
vn -1 0 -0
vn -1 0 -0
vn -1 0 -0
vn 0 0 1
vn 0 0 1
vn 0 0 1
vn 0 0 1
vn 0 0 1
vn 0 0 1
vn 1 0 -0
vn 1 0 -0
vn 1 0 -0
vn 1 -0 -0
vn 1 -0 -0
vn 1 -0 -0
vn 0 0 -1
vn 0 0 -1
vn 0 0 -1
vn 0 0 -1
vn 0 0 -1
vn 0 0 -1
vn -1 0 -0
vn -1 0 -0
vn -1 0 -0
vn -1 0 -0
vn -1 0 -0
vn -1 0 -0
vn -0.00869574 -0.999962 -0
vn -0.00869574 -0.999962 -0
vn -0.00869574 -0.999962 -0
vn -0.00869574 -0.999962 -0
vn -0.00869574 -0.999962 -0
vn -0.00869574 -0.999962 -0
vn 1 -0 -0
vn 1 -0 -0
vn 1 -0 -0
vn 1 0 -0
vn 1 0 -0
vn 1 0 -0
vn 0.390347 -0.920668 -0
vn 0.390347 -0.920668 -0
vn 0.390347 -0.920668 -0
vn 0.390347 -0.920668 -0
vn 0.390347 -0.920668 -0
vn 0.390347 -0.920668 -0
vn -0.390347 -0.920668 -0
vn -0.390347 -0.920668 -0
vn -0.390347 -0.920668 -0
vn -0.390347 -0.920668 -0
vn -0.390347 -0.920668 -0
vn -0.390347 -0.920668 -0
vn -1 0 -0
vn -1 0 -0
vn -1 0 -0
vn -1 0 -0
vn -1 0 -0
vn -1 0 -0
vn 0.00869574 -0.999962 -0
vn 0.00869574 -0.999962 -0
vn 0.00869574 -0.999962 -0
vn 0.00869574 -0.999962 -0
vn 0.00869574 -0.999962 -0
vn 0.00869574 -0.999962 -0
vn 1 -0 -0
vn 1 -0 -0
vn 1 -0 -0
vn 1 0 -0
vn 1 0 -0
vn 1 0 -0
vn 0.396427 0.918066 -0
vn 0.396427 0.918066 -0
vn 0.396427 0.918066 -0
vn 0.396427 0.918066 0
vn 0.396427 0.918066 0
vn 0.396427 0.918066 0
vn -0.396427 0.918066 -0
vn -0.396427 0.918066 -0
vn -0.396427 0.918066 -0
vn -0.396427 0.918066 -0
vn -0.396427 0.918066 -0
vn -0.396427 0.918066 -0
g Shed
usemtl Shed
s off
f 2/15/1 3/2/2 4/1/3
f 1/16/4 3/2/5 2/15/6
f 59/112/7 60/111/8 62/17/9
f 61/18/10 59/112/11 62/17/12
f 69/175/13 67/176/14 65/169/15
f 67/176/16 66/170/17 65/169/18
f 68/158/19 70/157/20 65/169/21
f 66/170/22 68/158/23 65/169/24
g Sides
usemtl Sides
s off
f 72/178/25 73/174/26 74/173/27
f 71/177/28 72/178/29 74/173/30
f 75/172/31 73/174/32 72/178/33
f 75/172/34 76/171/35 73/174/36
f 78/150/37 79/149/38 80/161/39
f 77/162/40 78/150/41 80/161/42
f 77/162/43 75/172/44 78/150/45
f 76/171/46 75/172/47 77/162/48
f 83/194/49 84/193/50 81/189/51
f 82/190/52 83/194/53 81/189/54
f 82/190/55 85/188/56 83/194/57
f 86/187/58 85/188/59 82/190/60
f 89/180/61 88/184/62 87/183/63
f 90/179/64 89/180/65 87/183/66
f 85/188/67 88/184/68 89/180/69
f 85/188/70 86/187/71 88/184/72
g Shed
usemtl Shed
s off
f 91/186/73 93/192/74 92/185/75
f 93/192/76 96/191/77 92/185/78
f 94/182/79 91/186/80 92/185/81
f 95/181/82 94/182/83 92/185/84
g Floor
usemtl Floor
s off
f 142/40/85 141/34/86 143/33/87
f 142/40/88 143/33/89 144/39/90
f 146/54/91 145/48/92 147/47/93
f 146/54/94 147/47/95 148/53/96
f 151/91/97 149/92/98 152/85/99
f 149/92/100 150/86/101 152/85/102
f 155/79/103 153/80/104 156/73/105
f 153/80/106 154/74/107 156/73/108
f 158/66/109 157/60/110 159/59/111
f 158/66/112 159/59/113 160/65/114
f 161/36/115 162/42/116 163/41/117
f 164/35/118 161/36/119 163/41/120
f 165/50/121 166/56/122 167/55/123
f 168/49/124 165/50/125 167/55/126
f 170/88/127 172/93/128 171/87/129
f 170/88/130 169/94/131 172/93/132
f 174/76/133 176/81/134 175/75/135
f 174/76/136 173/82/137 176/81/138
f 177/62/139 178/68/140 179/67/141
f 177/62/142 179/67/143 180/61/144
f 124/113/145 118/115/146 121/114/147
f 118/115/148 117/116/149 121/114/150
f 117/116/151 119/117/152 120/118/153
f 118/115/154 119/117/155 117/116/156
f 120/118/157 123/119/158 122/120/159
f 120/118/160 119/117/161 123/119/162
f 123/119/163 124/121/164 121/122/165
f 123/119/166 121/122/167 122/120/168
f 132/101/169 126/103/170 129/102/171
f 126/103/172 125/104/173 129/102/174
f 125/104/175 127/105/176 128/106/177
f 126/103/178 127/105/179 125/104/180
f 128/106/181 131/107/182 130/108/183
f 128/106/184 127/105/185 131/107/186
f 131/107/187 132/109/188 129/110/189
f 131/107/190 129/110/191 130/108/192
f 135/89/193 136/90/194 138/84/195
f 139/83/196 135/89/197 138/84/198
f 134/95/199 133/96/200 136/90/201
f 135/89/202 134/95/203 136/90/204
f 133/96/205 134/95/206 140/97/207
f 133/96/208 140/97/209 137/98/210
f 140/97/211 138/100/212 137/98/213
f 140/97/214 139/99/215 138/100/216
f 111/63/217 112/64/218 114/58/219
f 115/57/220 111/63/221 114/58/222
f 110/69/223 109/70/224 112/64/225
f 111/63/226 110/69/227 112/64/228
f 109/70/229 110/69/230 116/71/231
f 109/70/232 116/71/233 113/72/234
f 113/72/235 116/71/236 114/78/237
f 116/71/238 115/77/239 114/78/240
f 103/37/241 104/38/242 106/32/243
f 107/31/244 103/37/245 106/32/246
f 102/43/247 101/44/248 104/38/249
f 103/37/250 102/43/251 104/38/252
f 101/44/253 102/43/254 108/45/255
f 101/44/256 108/45/257 105/46/258
f 105/46/259 108/45/260 106/52/261
f 108/45/262 107/51/263 106/52/264
g Trim
usemtl Trim
s off
f 25/145/265 28/146/266 52/143/267
f 28/146/268 51/144/269 52/143/270
f 27/147/271 29/148/272 25/145/273
f 29/148/274 28/146/275 25/145/276
f 30/152/277 27/147/278 26/151/279
f 30/152/280 29/148/281 27/147/282
f 50/154/283 26/151/284 49/153/285
f 50/154/286 30/152/287 26/151/288
f 24/160/289 47/156/290 48/155/291
f 20/159/292 24/160/293 48/155/294
f 21/163/295 24/160/296 20/159/297
f 23/164/298 24/160/299 21/163/300
f 23/164/301 21/163/302 19/165/303
f 22/166/304 23/164/305 19/165/306
f 22/166/307 19/165/308 43/167/309
f 44/168/310 22/166/311 43/167/312
f 31/125/313 34/126/314 46/123/315
f 34/126/316 45/124/317 46/123/318
f 35/128/319 31/125/320 33/127/321
f 35/128/322 34/126/323 31/125/324
f 36/130/325 33/127/326 32/129/327
f 36/130/328 35/128/329 33/127/330
f 56/131/331 55/132/332 32/129/333
f 55/132/334 36/130/335 32/129/336
f 42/136/337 58/134/338 57/133/339
f 42/136/340 57/133/341 38/135/342
f 39/137/343 42/136/344 38/135/345
f 41/138/346 42/136/347 39/137/348
f 37/139/349 41/138/350 39/137/351
f 40/140/352 41/138/353 37/139/354
f 40/140/355 37/139/356 53/141/357
f 54/142/358 40/140/359 53/141/360
g Sides
usemtl Sides
s off
f 97/19/361 11/20/362 17/4/363
f 99/3/364 97/19/365 17/4/366
f 11/20/367 9/21/368 18/5/369
f 17/4/370 11/20/371 18/5/372
g Shed
usemtl Shed
s off
f 10/22/373 16/6/374 9/21/375
f 9/21/376 16/6/377 18/5/378
f 8/23/379 15/7/380 10/22/381
f 10/22/382 15/7/383 16/6/384
f 8/23/385 6/24/386 13/8/387
f 15/7/388 8/23/389 13/8/390
f 6/24/391 5/25/392 14/9/393
f 13/8/394 6/24/395 14/9/396
g Sides
usemtl Sides
s off
f 7/26/397 12/10/398 5/25/399
f 5/25/400 12/10/401 14/9/402
f 98/27/403 100/11/404 7/26/405
f 7/26/406 100/11/407 12/10/408
g Roof
usemtl Roof
s off
f 63/28/409 64/12/410 98/27/411
f 98/27/412 64/12/413 100/11/414
f 181/14/415 183/13/416 184/29/417
f 182/30/418 181/14/419 184/29/420
