####
#
#	OBJ File Generated by LightWave3D
#	LightWave3D OBJ Export v2.3
#
####
o 8 wide A-frame_7ft_8x14.obj
mtllib 8 wide A-frame_7ft_8x14.mtl
g default
v -1.18 0.1016 -2.1336
v 1.18 0.1016 -2.1336
v 1.18 2.4264 -2.1336
v -1.18 2.4264 -2.1336
v -1.18 0.1016 2.1336
v -1.18 2.4264 2.1336
v 1.18 2.4264 2.1336
v 1.18 0.1016 2.1336
v 1.335 2.3564 -2.1844
v 1.335 2.4514 -2.1844
v -1.54812e-008 3.1164 -2.1844
v -1.335 2.4514 -2.1844
v -1.335 2.3564 -2.1844
v -1.11 2.3564 -2.1844
v -1.11 2.4564 -2.1844
v -1.54812e-008 3.0164 -2.1844
v 1.105 2.4664 -2.1844
v 1.105 2.3564 -2.1844
v 1.335 2.3564 2.1844
v 1.105 2.3564 2.1844
v 1.105 2.4664 2.1844
v -1.54812e-008 3.0164 2.1844
v -1.11 2.4564 2.1844
v -1.11 2.3564 2.1844
v -1.335 2.3564 2.1844
v -1.335 2.4514 2.1844
v -1.54812e-008 3.1164 2.1844
v 1.335 2.4514 2.1844
v -1.2054 0.1016 -2.0828
v -1.1292 0.1016 -2.159
v -1.2054 0.1016 -2.159
v -1.2054 2.4264 -2.0828
v -1.2054 2.4264 -2.159
v -1.1292 2.4264 -2.159
v 1.2054 0.1016 -2.0828
v 1.1292 0.1016 -2.159
v 1.2054 0.1016 -2.159
v 1.2054 2.4264 -2.0828
v 1.2054 2.4264 -2.159
v 1.1292 2.4264 -2.159
v -1.2054 0.1016 2.0828
v -1.1292 0.1016 2.159
v -1.2054 0.1016 2.159
v -1.2054 2.4264 2.0828
v -1.2054 2.4264 2.159
v -1.1292 2.4264 2.159
v 1.2054 0.1016 2.0828
v 1.1292 0.1016 2.159
v 1.2054 0.1016 2.159
v 1.2054 2.4264 2.0828
v 1.2054 2.4264 2.159
v 1.1292 2.4264 2.159
v -1.18 0.1016 -2.0828
v -1.18 2.4264 -2.0828
v -1.18 2.4264 2.0828
v -1.18 0.1016 2.0828
v -1.1292 2.4264 -2.1336
v -1.1292 0.1016 -2.1336
v 1.1292 0.1016 -2.1336
v 1.1292 2.4264 -2.1336
v 1.18 2.4264 -2.0828
v 1.18 0.1016 -2.0828
v 1.18 0.1016 2.0828
v 1.18 2.4264 2.0828
v -1.1292 2.4264 2.1336
v -1.1292 0.1016 2.1336
v 1.1292 0.1016 2.1336
v 1.1292 2.4264 2.1336
v -1.027 0.1016 2.1336
v -1.027 0.1016 -2.1336
v -0.9254 0.1016 -2.1336
v -0.9254 0.1016 2.1336
v -1.027 0 2.1336
v -0.9254 0 2.1336
v -0.9254 0 -2.1336
v -1.027 0 -2.1336
v -0.747 0.1016 2.1336
v -0.747 0.1016 -2.1336
v -0.6454 0.1016 -2.1336
v -0.6454 0.1016 2.1336
v -0.747 0 2.1336
v -0.6454 0 2.1336
v -0.6454 0 -2.1336
v -0.747 0 -2.1336
v 1.027 0.1016 2.1336
v 1.027 0.1016 -2.1336
v 0.9254 0.1016 -2.1336
v 0.9254 0.1016 2.1336
v 1.027 0 2.1336
v 0.9254 0 2.1336
v 0.9254 0 -2.1336
v 1.027 0 -2.1336
v 0.747 0.1016 2.1336
v 0.747 0.1016 -2.1336
v 0.6454 0.1016 -2.1336
v 0.6454 0.1016 2.1336
v 0.747 0 2.1336
v 0.6454 0 2.1336
v 0.6454 0 -2.1336
v 0.747 0 -2.1336
v -0.0508 0.1016 2.1336
v -0.0508001 0.1016 -2.1336
v 0.0508001 0.1016 -2.1336
v 0.0508001 0.1016 2.1336
v -0.0508 0 2.1336
v 0.0508001 0 2.1336
v 0.0508001 0 -2.1336
v -0.0508001 0 -2.1336
v -1.027 0.1016 -2.1336
v -0.9254 0.1016 -2.1336
v -0.9254 0 -2.1336
v -1.027 0 -2.1336
v -0.747 0.1016 -2.1336
v -0.6454 0.1016 -2.1336
v -0.6454 0 -2.1336
v -0.747 0 -2.1336
v 1.027 0.1016 -2.1336
v 0.9254 0.1016 -2.1336
v 0.9254 0 -2.1336
v 1.027 0 -2.1336
v 0.747 0.1016 -2.1336
v 0.6454 0.1016 -2.1336
v 0.6454 0 -2.1336
v 0.747 0 -2.1336
v -0.0508001 0.1016 -2.1336
v 0.0508001 0.1016 -2.1336
v 0.0508001 0 -2.1336
v -0.0508001 0 -2.1336
v -1.027 0.1016 2.1336
v -0.9254 0.1016 2.1336
v -1.027 0 2.1336
v -0.9254 0 2.1336
v -0.747 0.1016 2.1336
v -0.6454 0.1016 2.1336
v -0.747 0 2.1336
v -0.6454 0 2.1336
v 1.027 0.1016 2.1336
v 0.9254 0.1016 2.1336
v 1.027 0 2.1336
v 0.9254 0 2.1336
v 0.747 0.1016 2.1336
v 0.6454 0.1016 2.1336
v 0.747 0 2.1336
v 0.6454 0 2.1336
v -0.0508 0.1016 2.1336
v 0.0508001 0.1016 2.1336
v -0.0508 0 2.1336
v 0.0508001 0 2.1336
v -1.18 0.1016 2.1336
v -1.18 2.4264 2.1336
v 1.18 2.4264 2.1336
v 1.18 0.1016 2.1336
v 1.335 2.3564 2.1844
v 1.105 2.3564 2.1844
v 1.105 2.4664 2.1844
v -1.54812e-008 3.0164 2.1844
v -1.11 2.4564 2.1844
v -1.11 2.3564 2.1844
v -1.335 2.3564 2.1844
v -1.335 2.4514 2.1844
v -1.54812e-008 3.1164 2.1844
v 1.335 2.4514 2.1844
v -1.54812e-008 3.0164 2.1336
v -5.8006e-010 0.1016 2.1336
v -1.18 0.1016 -2.1336
v 1.18 0.1016 -2.1336
v 1.18 2.4264 -2.1336
v -1.18 2.4264 -2.1336
v 1.335 2.3564 -2.1844
v 1.335 2.4514 -2.1844
v -1.54812e-008 3.1164 -2.1844
v -1.335 2.4514 -2.1844
v -1.335 2.3564 -2.1844
v -1.11 2.3564 -2.1844
v -1.11 2.4564 -2.1844
v -1.54812e-008 3.0164 -2.1844
v 1.105 2.4664 -2.1844
v 1.105 2.3564 -2.1844
v -1.54812e-008 3.0164 -2.1336
v -5.8006e-010 0.1016 -2.1336
v 1.335 2.4514 -2.1844
v -1.54812e-008 3.1164 -2.1844
v -1.54812e-008 3.1164 2.1844
v 1.335 2.4514 2.1844
vt -0.835 3.1016
vt -0.835 3.1966
vt -0.68 0.6016
vt -0.68 2.9216
vt -0.61 3.1016
vt -0.61 3.2016
vt 0.5 3.5116
vt 0.5 3.7616
vt 0.5 3.8616
vt 0.5 0.6016
vt 1.073 -7.45058e-010
vt 1.073 0.1016
vt 1.073 0.25
vt 1.073 0.3516
vt 1.1 -2.15
vt 1.1 -0.13
vt 1.1254 -2.15
vt 1.1254 -0.13
vt 1.1746 -7.45058e-010
vt 1.1746 0.1016
vt 1.1746 0.25
vt 1.1746 0.3516
vt 1.2016 -2.15
vt 1.2016 -0.13
vt 1.2778 -2.15
vt 1.2778 -0.13
vt 1.3032 -2.15
vt 1.3032 -0.13
vt 1.353 -7.45058e-010
vt 1.353 0.1016
vt 1.353 0.25
vt 1.353 0.3516
vt 1.45 -2.15
vt 1.45 -0.13
vt 1.4546 -7.45058e-010
vt 1.4546 0.1016
vt 1.4546 0.25
vt 1.4546 0.3516
vt 1.4754 -2.15
vt 1.4754 -0.13
vt 1.5516 -2.15
vt 1.5516 -0.13
vt 1.605 3.1016
vt 1.605 3.2116
vt 1.6278 -2.15
vt 1.6278 -0.13
vt 1.6532 -2.15
vt 1.6532 -0.13
vt 1.68 0.6016
vt 1.68 2.9216
vt 1.6992 -7.45058e-010
vt 1.6992 0.1016
vt 1.6992 0.25
vt 1.6992 0.3516
vt 1.8 -2.15
vt 1.8 -0.13
vt 1.8008 -7.45058e-010
vt 1.8008 0.1016
vt 1.8008 0.25
vt 1.8008 0.3516
vt 1.8254 -2.15
vt 1.8254 -0.13
vt 1.835 3.1016
vt 1.835 3.1966
vt 1.9016 -2.15
vt 1.9016 -0.13
vt 1.9778 -2.15
vt 1.9778 -0.13
vt 2.0032 -2.15
vt 2.0032 -0.13
vt 2.0454 -7.45058e-010
vt 2.0454 0.1016
vt 2.0454 0.25
vt 2.0454 0.3516
vt 2.065 3.1016
vt 2.065 3.1966
vt 2.147 -7.45058e-010
vt 2.147 0.1016
vt 2.147 0.25
vt 2.147 0.3516
vt 2.15 -2.15
vt 2.15 -0.13
vt 2.1754 -2.15
vt 2.1754 -0.13
vt 2.22 0.6016
vt 2.22 2.9216
vt 2.2516 -2.15
vt 2.2516 -0.13
vt 2.29 3.1016
vt 2.29 3.2016
vt 2.3254 -7.45058e-010
vt 2.3254 0.1016
vt 2.3254 0.25
vt 2.3254 0.3516
vt 2.3278 -2.15
vt 2.3278 -0.13
vt 2.3532 -2.15
vt 2.3532 -0.13
vt 2.427 -7.45058e-010
vt 2.427 0.1016
vt 2.427 0.25
vt 2.427 0.3516
vt 2.55 -3.2
vt 2.55 0.4576
vt 2.6516 -3.2
vt 2.6516 0.4576
vt 2.7532 -3.2
vt 2.7532 0.4576
vt 2.8548 -3.2
vt 2.8548 0.4576
vt 2.9564 -3.2
vt 2.9564 0.4576
vt 3.1 -3.2
vt 3.1 0.4576
vt 3.2016 -3.2
vt 3.2016 0.4576
vt 3.3032 -3.2
vt 3.3032 0.4576
vt 3.4 3.5116
vt 3.4 3.7616
vt 3.4 3.8616
vt 3.4 0.6016
vt 3.4048 -3.2
vt 3.4048 0.4576
vt 3.5064 -3.2
vt 3.5064 0.4576
vt 3.7 -3.2
vt 3.7 0.4576
vt 3.8016 -3.2
vt 3.8016 0.4576
vt 3.9032 -3.2
vt 3.9032 0.4576
vt 4.0048 -3.2
vt 4.0048 0.4576
vt 4.1064 -3.2
vt 4.1064 0.4576
vt 4.25 -3.2
vt 4.25 0.4576
vt 4.3516 -3.2
vt 4.3516 0.4576
vt 4.4532 -3.2
vt 4.4532 0.4576
vt 4.505 3.1016
vt 4.505 3.2116
vt 4.5548 -3.2
vt 4.5548 0.4576
vt 4.58 0.6016
vt 4.58 2.9216
vt 4.6564 -3.2
vt 4.6564 0.4576
vt 4.735 3.1016
vt 4.735 3.1966
vt 4.85 -3.2
vt 4.85 0.4576
vt 4.9516 -3.2
vt 4.9516 0.4576
vt 5.0532 -3.2
vt 5.0532 0.4576
vt 5.1548 -3.2
vt 5.1548 0.4576
vt 5.2564 -3.2
vt 5.2564 0.4576
vt 5.6856 -6.7984
vt 5.6856 -4.7784
vt 7.9 -4.1
vt 7.9 -4.005
vt 7.9 -3.775
vt 7.9 -3.665
vt 7.9 -2.60854
vt 7.9 -2.43069
vt 7.9 -1.18743
vt 7.9 -1.08743
vt 7.9 -0.862427
vt 7.9 -0.767426
vt 7.9 0.724033
vt 9.9144 -6.7984
vt 9.9144 -4.7784
vt 10.1856 -6.7984
vt 10.1856 -4.7784
vt 12.2304 -4.1
vt 12.2304 -4.005
vt 12.2304 -3.775
vt 12.2304 -3.665
vt 12.2304 -2.60854
vt 12.2304 -2.43069
vt 12.2304 -1.18743
vt 12.2304 -1.08743
vt 12.2304 -0.862427
vt 12.2304 -0.767426
vt 12.2304 0.724033
vt 14.4144 -6.7984
vt 14.4144 -4.7784
vn -1 0 -0
vn -1 0 -0
vn -1 0 -0
vn -1 0 -0
vn -1 0 -0
vn -1 0 -0
vn 1 0 -0
vn 1 0 -0
vn 1 0 -0
vn 1 -0 -0
vn 1 -0 -0
vn 1 -0 -0
vn 0 -0 -1
vn 0 -0 -1
vn 0 -0 -1
vn 0 0 -1
vn 0 0 -1
vn 0 0 -1
vn 0 -0 -1
vn 0 -0 -1
vn 0 -0 -1
vn 0 0 -1
vn 0 0 -1
vn 0 0 -1
vn 0 0 -1
vn 0 0 -1
vn 0 0 -1
vn 0 -0 -1
vn 0 -0 -1
vn 0 -0 -1
vn 0 0 -1
vn 0 0 -1
vn 0 0 -1
vn 0 -0 -1
vn 0 -0 -1
vn 0 -0 -1
vn 0 -0 -1
vn 0 -0 -1
vn 0 -0 -1
vn 0 0 -1
vn 0 0 -1
vn 0 0 -1
vn -1 0 2.79362e-008
vn -1 0 2.79362e-008
vn -1 0 2.79362e-008
vn -1 0 2.79362e-008
vn -1 0 2.79362e-008
vn -1 0 2.79362e-008
vn 0 1 -0
vn 0 1 -0
vn 0 1 -0
vn 0 1 0
vn 0 1 0
vn 0 1 0
vn 1 -0 -1.39681e-008
vn 1 -0 -1.39681e-008
vn 1 -0 -1.39681e-008
vn 1 0 -1.39681e-008
vn 1 0 -1.39681e-008
vn 1 0 -1.39681e-008
vn 0 -1 -0
vn 0 -1 -0
vn 0 -1 -0
vn 0 -1 -0
vn 0 -1 -0
vn 0 -1 -0
vn -1 0 1.39681e-008
vn -1 0 1.39681e-008
vn -1 0 1.39681e-008
vn -1 0 1.39681e-008
vn -1 0 1.39681e-008
vn -1 0 1.39681e-008
vn 0 1 0
vn 0 1 0
vn 0 1 0
vn 0 1 -0
vn 0 1 -0
vn 0 1 -0
vn 1 -0 -1.39681e-008
vn 1 -0 -1.39681e-008
vn 1 -0 -1.39681e-008
vn 1 0 -1.39681e-008
vn 1 0 -1.39681e-008
vn 1 0 -1.39681e-008
vn 0 -1 -0
vn 0 -1 -0
vn 0 -1 -0
vn 0 -1 -0
vn 0 -1 -0
vn 0 -1 -0
vn -1 0 1.39681e-008
vn -1 0 1.39681e-008
vn -1 0 1.39681e-008
vn -1 0 1.39681e-008
vn -1 0 1.39681e-008
vn -1 0 1.39681e-008
vn 0 1 0
vn 0 1 0
vn 0 1 0
vn 0 1 -0
vn 0 1 -0
vn 0 1 -0
vn 1 -0 -1.39681e-008
vn 1 -0 -1.39681e-008
vn 1 -0 -1.39681e-008
vn 1 0 -1.39681e-008
vn 1 0 -1.39681e-008
vn 1 0 -1.39681e-008
vn 0 -1 -0
vn 0 -1 -0
vn 0 -1 -0
vn 0 -1 -0
vn 0 -1 -0
vn 0 -1 -0
vn -1 0 1.39681e-008
vn -1 0 1.39681e-008
vn -1 0 1.39681e-008
vn -1 0 1.39681e-008
vn -1 0 1.39681e-008
vn -1 0 1.39681e-008
vn 0 1 0
vn 0 1 0
vn 0 1 0
vn 0 1 -0
vn 0 1 -0
vn 0 1 -0
vn 1 0 -1.39681e-008
vn 1 0 -1.39681e-008
vn 1 0 -1.39681e-008
vn 1 -0 -1.39681e-008
vn 1 -0 -1.39681e-008
vn 1 -0 -1.39681e-008
vn 0 -1 -0
vn 0 -1 -0
vn 0 -1 -0
vn 0 -1 -0
vn 0 -1 -0
vn 0 -1 -0
vn -1 0 1.39681e-008
vn -1 0 1.39681e-008
vn -1 0 1.39681e-008
vn -1 0 1.39681e-008
vn -1 0 1.39681e-008
vn -1 0 1.39681e-008
vn 0 1 0
vn 0 1 0
vn 0 1 0
vn 0 1 -0
vn 0 1 -0
vn 0 1 -0
vn 1 0 -2.79362e-008
vn 1 0 -2.79362e-008
vn 1 0 -2.79362e-008
vn 1 -0 -2.79362e-008
vn 1 -0 -2.79362e-008
vn 1 -0 -2.79362e-008
vn 0 -1 -0
vn 0 -1 -0
vn 0 -1 -0
vn 0 -1 -0
vn 0 -1 -0
vn 0 -1 -0
vn 0 0 1
vn 0 0 1
vn 0 0 1
vn 0 0 1
vn 0 0 1
vn 0 0 1
vn 0 0 1
vn 0 0 1
vn 0 0 1
vn 0 0 1
vn 0 0 1
vn 0 0 1
vn 0 0 1
vn 0 0 1
vn 0 0 1
vn 0 0 1
vn 0 0 1
vn 0 0 1
vn 0 0 1
vn 0 0 1
vn 0 0 1
vn 0 0 1
vn 0 0 1
vn 0 0 1
vn 0 0 1
vn 0 0 1
vn 0 0 1
vn 0 0 1
vn 0 0 1
vn 0 0 1
vn 0 0 1
vn 0 0 1
vn 0 0 1
vn 0 0 1
vn 0 0 1
vn 0 0 1
vn 0 0 1
vn 0 0 1
vn 0 0 1
vn 0 0 1
vn 0 0 1
vn 0 0 1
vn 0 0 1
vn 0 0 1
vn 0 0 1
vn 0 0 1
vn 0 0 1
vn 0 0 1
vn 0 0 1
vn 0 0 1
vn 0 0 1
vn 0 0 1
vn 0 0 1
vn 0 0 1
vn 0 0 1
vn 0 0 1
vn 0 0 1
vn 0 0 1
vn 0 0 1
vn 0 0 1
vn 0 0 1
vn 0 0 1
vn 0 0 1
vn 0 0 1
vn 0 0 1
vn 0 0 1
vn 0 -0 -1
vn 0 -0 -1
vn 0 -0 -1
vn 0 0 -1
vn 0 0 -1
vn 0 0 -1
vn 0 0 -1
vn 0 0 -1
vn 0 0 -1
vn 0 0 -1
vn 0 0 -1
vn 0 0 -1
vn 0 0 -1
vn 0 0 -1
vn 0 0 -1
vn 0 0 -1
vn 0 0 -1
vn 0 0 -1
vn 0 0 -1
vn 0 0 -1
vn 0 0 -1
vn 0 0 -1
vn 0 0 -1
vn 0 0 -1
vn 0 0 -1
vn 0 0 -1
vn 0 0 -1
vn 0 0 -1
vn 0 0 -1
vn 0 0 -1
vn 0 0 -1
vn 0 0 -1
vn 0 0 -1
vn 0 -0 -1
vn 0 -0 -1
vn 0 -0 -1
vn 1 0 -0
vn 1 0 -0
vn 1 0 -0
vn 1 0 -0
vn 1 0 -0
vn 1 0 -0
vn 0 -0 -1
vn 0 -0 -1
vn 0 -0 -1
vn 0 0 -1
vn 0 0 -1
vn 0 0 -1
vn -1 0 -0
vn -1 0 -0
vn -1 0 -0
vn -1 0 -0
vn -1 0 -0
vn -1 0 -0
vn 0 0 1
vn 0 0 1
vn 0 0 1
vn 0 0 1
vn 0 0 1
vn 0 0 1
vn 0 0 -1
vn 0 0 -1
vn 0 0 -1
vn 0 -0 -1
vn 0 -0 -1
vn 0 -0 -1
vn -1 0 -0
vn -1 0 -0
vn -1 0 -0
vn -1 0 -0
vn -1 0 -0
vn -1 0 -0
vn 0 0 1
vn 0 0 1
vn 0 0 1
vn 0 0 1
vn 0 0 1
vn 0 0 1
vn 1 0 -0
vn 1 0 -0
vn 1 0 -0
vn 1 0 -0
vn 1 0 -0
vn 1 0 -0
vn -1 0 -0
vn -1 0 -0
vn -1 0 -0
vn -1 0 -0
vn -1 0 -0
vn -1 0 -0
vn 0 0 1
vn 0 0 1
vn 0 0 1
vn 0 0 1
vn 0 0 1
vn 0 0 1
vn 1 0 -0
vn 1 0 -0
vn 1 0 -0
vn 1 -0 -0
vn 1 -0 -0
vn 1 -0 -0
vn 0 0 -1
vn 0 0 -1
vn 0 0 -1
vn 0 0 -1
vn 0 0 -1
vn 0 0 -1
vn 0 0 1
vn 0 0 1
vn 0 0 1
vn 0 0 1
vn 0 0 1
vn 0 0 1
vn 1 0 -0
vn 1 0 -0
vn 1 0 -0
vn 1 0 -0
vn 1 0 -0
vn 1 0 -0
vn 0 0 -1
vn 0 0 -1
vn 0 0 -1
vn 0 -0 -1
vn 0 -0 -1
vn 0 -0 -1
vn -1 0 -0
vn -1 0 -0
vn -1 0 -0
vn -1 0 -0
vn -1 0 -0
vn -1 0 -0
vn 0.445872 0.895097 -0
vn 0.445872 0.895097 -0
vn 0.445872 0.895097 -0
vn 0.445872 0.895097 0
vn 0.445872 0.895097 0
vn 0.445872 0.895097 0
vn 1 -0 -0
vn 1 -0 -0
vn 1 -0 -0
vn 1 0 -0
vn 1 0 -0
vn 1 0 -0
vn 0 -1 -0
vn 0 -1 -0
vn 0 -1 -0
vn 0 -1 -0
vn 0 -1 -0
vn 0 -1 -0
vn -1 0 -0
vn -1 0 -0
vn -1 0 -0
vn -1 0 -0
vn -1 0 -0
vn -1 0 -0
vn -0.445593 -0.895236 -0
vn -0.445593 -0.895236 -0
vn -0.445593 -0.895236 -0
vn -0.445593 -0.895236 -0
vn -0.445593 -0.895236 -0
vn -0.445593 -0.895236 -0
vn 0.450428 -0.892813 -0
vn 0.450428 -0.892813 -0
vn 0.450428 -0.892813 -0
vn 0.450428 -0.892813 -0
vn 0.450428 -0.892813 -0
vn 0.450428 -0.892813 -0
vn 1 -0 -0
vn 1 -0 -0
vn 1 -0 -0
vn 1 0 -0
vn 1 0 -0
vn 1 0 -0
vn 0 -1 -0
vn 0 -1 -0
vn 0 -1 -0
vn 0 -1 -0
vn 0 -1 -0
vn 0 -1 -0
vn -1 0 -0
vn -1 0 -0
vn -1 0 -0
vn -1 0 -0
vn -1 0 -0
vn -1 0 -0
vn -0.445872 0.895097 -0
vn -0.445872 0.895097 -0
vn -0.445872 0.895097 -0
vn -0.445872 0.895097 -0
vn -0.445872 0.895097 -0
vn -0.445872 0.895097 -0
g Shed
usemtl Shed
s off
f 6/164/1 4/177/2 5/163/3
f 4/177/4 1/176/5 5/163/6
f 2/191/7 7/179/8 8/178/9
f 3/192/10 7/179/11 2/191/12
g Floor
usemtl Floor
s off
f 109/12/13 110/20/14 111/19/15
f 112/11/16 109/12/17 111/19/18
f 113/30/19 114/36/20 115/35/21
f 116/29/22 113/30/23 115/35/24
f 118/92/25 120/99/26 119/91/27
f 118/92/28 117/100/29 120/99/30
f 122/72/31 124/77/32 123/71/33
f 122/72/34 121/78/35 124/77/36
f 125/52/37 126/58/38 127/57/39
f 125/52/40 127/57/41 128/51/42
f 69/115/43 70/116/44 76/114/45
f 69/115/46 76/114/47 73/113/48
f 71/118/49 69/115/50 72/117/51
f 71/118/52 70/116/53 69/115/54
f 71/118/55 72/117/56 74/123/57
f 75/124/58 71/118/59 74/123/60
f 76/126/61 75/124/62 73/125/63
f 73/125/64 75/124/65 74/123/66
f 77/129/67 78/130/68 84/128/69
f 77/129/70 84/128/71 81/127/72
f 79/132/73 78/130/74 77/129/75
f 79/132/76 77/129/77 80/131/78
f 79/132/79 80/131/80 82/133/81
f 83/134/82 79/132/83 82/133/84
f 81/135/85 83/134/86 82/133/87
f 84/136/88 83/134/89 81/135/90
f 101/105/91 102/106/92 108/104/93
f 101/105/94 108/104/95 105/103/96
f 103/108/97 102/106/98 101/105/99
f 104/107/100 103/108/101 101/105/102
f 103/108/103 104/107/104 106/109/105
f 107/110/106 103/108/107 106/109/108
f 107/110/109 106/109/110 105/111/111
f 108/112/112 107/110/113 105/111/114
f 96/139/115 99/138/116 98/137/117
f 96/139/118 95/140/119 99/138/120
f 94/142/121 95/140/122 96/139/123
f 93/141/124 94/142/125 96/139/126
f 100/146/127 94/142/128 97/145/129
f 94/142/130 93/141/131 97/145/132
f 99/150/133 100/146/134 98/149/135
f 100/146/136 97/145/137 98/149/138
f 88/155/139 91/154/140 90/153/141
f 88/155/142 87/156/143 91/154/144
f 86/158/145 87/156/146 88/155/147
f 85/157/148 86/158/149 88/155/150
f 92/160/151 86/158/152 89/159/153
f 86/158/154 85/157/155 89/159/156
f 91/162/157 92/160/158 90/161/159
f 92/160/160 89/159/161 90/161/162
f 130/22/163 129/14/164 131/13/165
f 130/22/166 131/13/167 132/21/168
f 134/38/169 133/32/170 135/31/171
f 134/38/172 135/31/173 136/37/174
f 139/101/175 137/102/176 140/93/177
f 137/102/178 138/94/179 140/93/180
f 143/79/181 141/80/182 144/73/183
f 141/80/184 142/74/185 144/73/186
f 146/60/187 145/54/188 147/53/189
f 148/59/190 146/60/191 147/53/192
g Shed
usemtl Shed
s off
f 150/4/193 149/3/194 164/10/195
f 163/7/196 150/4/197 164/10/198
f 152/49/199 151/50/200 164/10/201
f 151/50/202 163/7/203 164/10/204
g Sides
usemtl Sides
s off
f 157/6/205 160/2/206 158/5/207
f 160/2/208 159/1/209 158/5/210
f 156/8/211 161/9/212 157/6/213
f 157/6/214 161/9/215 160/2/216
f 161/9/217 156/8/218 155/44/219
f 161/9/220 155/44/221 162/64/222
f 153/63/223 162/64/224 154/43/225
f 162/64/226 155/44/227 154/43/228
g Shed
usemtl Shed
s off
f 179/119/229 167/148/230 180/122/231
f 167/148/232 166/147/233 180/122/234
f 168/86/235 179/119/236 180/122/237
f 165/85/238 168/86/239 180/122/240
g Sides
usemtl Sides
s off
f 170/152/241 169/151/242 178/143/243
f 177/144/244 170/152/245 178/143/246
f 177/144/247 171/121/248 170/152/249
f 176/120/250 171/121/251 177/144/252
f 171/121/253 175/90/254 172/76/255
f 171/121/256 176/120/257 175/90/258
f 173/75/259 172/76/260 174/89/261
f 172/76/262 175/90/263 174/89/264
g Trim
usemtl Trim
s off
f 34/84/265 57/82/266 58/81/267
f 30/83/268 34/84/269 58/81/270
f 31/87/271 34/84/272 30/83/273
f 33/88/274 34/84/275 31/87/276
f 33/88/277 31/87/278 29/95/279
f 32/96/280 33/88/281 29/95/282
f 32/96/283 29/95/284 53/97/285
f 54/98/286 32/96/287 53/97/288
f 41/17/289 44/18/290 56/15/291
f 44/18/292 55/16/293 56/15/294
f 45/24/295 41/17/296 43/23/297
f 45/24/298 44/18/299 41/17/300
f 46/26/301 43/23/302 42/25/303
f 46/26/304 45/24/305 43/23/306
f 66/27/307 65/28/308 42/25/309
f 65/28/310 46/26/311 42/25/312
f 52/40/313 68/34/314 67/33/315
f 52/40/316 67/33/317 48/39/318
f 49/41/319 52/40/320 48/39/321
f 51/42/322 52/40/323 49/41/324
f 47/45/325 51/42/326 49/41/327
f 50/46/328 51/42/329 47/45/330
f 50/46/331 47/45/332 63/47/333
f 64/48/334 50/46/335 63/47/336
f 35/61/337 38/62/338 62/55/339
f 38/62/340 61/56/341 62/55/342
f 37/65/343 39/66/344 35/61/345
f 39/66/346 38/62/347 35/61/348
f 40/68/349 37/65/350 36/67/351
f 40/68/352 39/66/353 37/65/354
f 60/70/355 36/67/356 59/69/357
f 60/70/358 40/68/359 36/67/360
g Roof
usemtl Roof
s off
f 182/184/361 183/169/362 181/180/363
f 181/180/364 183/169/365 184/165/366
g Sides
usemtl Sides
s off
f 10/165/367 28/180/368 9/166/369
f 9/166/370 28/180/371 19/181/372
f 18/167/373 9/166/374 19/181/375
f 18/167/376 19/181/377 20/182/378
f 17/168/379 18/167/380 20/182/381
f 21/183/382 17/168/383 20/182/384
g Shed
usemtl Shed
s off
f 16/170/385 17/168/386 21/183/387
f 22/185/388 16/170/389 21/183/390
f 16/170/391 22/185/392 15/171/393
f 15/171/394 22/185/395 23/186/396
g Sides
usemtl Sides
s off
f 15/171/397 23/186/398 14/172/399
f 14/172/400 23/186/401 24/187/402
f 13/173/403 14/172/404 24/187/405
f 25/188/406 13/173/407 24/187/408
f 12/174/409 13/173/410 25/188/411
f 26/189/412 12/174/413 25/188/414
g Roof
usemtl Roof
s off
f 11/175/415 12/174/416 26/189/417
f 27/190/418 11/175/419 26/189/420
