####
#
#	OBJ File Generated by LightWave3D
#	LightWave3D OBJ Export v2.3
#
####
o Classic A-Frame_8x12.obj
mtllib Classic A-Frame_8x12.mtl
g default
v -1.207 0.1016 -1.8288
v 1.209 0.1016 -1.8288
v 1.209 2.1216 -1.8288
v -1.207 2.1216 -1.8288
v -1.207 0.1016 1.8288
v -1.207 2.1216 1.8288
v 1.209 2.1216 1.8288
v 1.209 0.1016 1.8288
v -1.2324 0.1016 -1.778
v -1.1562 0.1016 -1.8542
v -1.2324 0.1016 -1.8542
v -1.2324 2.1216 -1.778
v -1.2324 2.1216 -1.8542
v -1.1562 2.1216 -1.8542
v 1.2344 0.1016 -1.778
v 1.1582 0.1016 -1.8542
v 1.2344 0.1016 -1.8542
v 1.2344 2.1216 -1.778
v 1.2344 2.1216 -1.8542
v 1.1582 2.1216 -1.8542
v -1.2324 0.1016 1.778
v -1.1562 0.1016 1.8542
v -1.2324 0.1016 1.8542
v -1.2324 2.1216 1.778
v -1.2324 2.1216 1.8542
v -1.1562 2.1216 1.8542
v 1.2344 0.1016 1.778
v 1.1582 0.1016 1.8542
v 1.2344 0.1016 1.8542
v 1.2344 2.1216 1.778
v 1.2344 2.1216 1.8542
v 1.1582 2.1216 1.8542
v -1.207 0.1016 -1.778
v -1.207 2.1216 -1.778
v -1.207 2.1216 1.778
v -1.207 0.1016 1.778
v -1.1562 2.1216 -1.8288
v -1.1562 0.1016 -1.8288
v 1.1582 0.1016 -1.8288
v 1.1582 2.1216 -1.8288
v 1.209 2.1216 -1.778
v 1.209 0.1016 -1.778
v 1.209 0.1016 1.778
v 1.209 2.1216 1.778
v -1.1562 2.1216 1.8288
v -1.1562 0.1016 1.8288
v 1.1582 0.1016 1.8288
v 1.1582 2.1216 1.8288
v 1.338 2.0336 -1.9812
v 1.338 2.1176 -1.9812
v 0 2.9556 -1.9812
v -1.338 2.1176 -1.9812
v -1.338 2.0336 -1.9812
v -1.136 2.0336 -1.9812
v -1.136 2.1396 -1.9812
v 0 2.8496 -1.9812
v 1.136 2.1396 -1.9812
v 1.136 2.0336 -1.9812
v 1.338 2.0336 1.9812
v 1.136 2.0336 1.9812
v 1.136 2.1396 1.9812
v -1.49012e-008 2.8496 1.9812
v -1.136 2.1396 1.9812
v -1.136 2.0336 1.9812
v -1.338 2.0336 1.9812
v -1.338 2.1176 1.9812
v -1.49012e-008 2.9556 1.9812
v 1.338 2.1176 1.9812
v -1.027 0.1016 1.8288
v -1.027 0.1016 -1.8288
v -0.9254 0.1016 -1.8288
v -0.9254 0.1016 1.8288
v -1.027 0 1.8288
v -0.9254 0 1.8288
v -0.9254 0 -1.8288
v -1.027 0 -1.8288
v -0.747 0.1016 1.8288
v -0.747 0.1016 -1.8288
v -0.6454 0.1016 -1.8288
v -0.6454 0.1016 1.8288
v -0.747 0 1.8288
v -0.6454 0 1.8288
v -0.6454 0 -1.8288
v -0.747 0 -1.8288
v 1.027 0.1016 1.8288
v 1.027 0.1016 -1.8288
v 0.9254 0.1016 -1.8288
v 0.9254 0.1016 1.8288
v 1.027 0 1.8288
v 0.9254 0 1.8288
v 0.9254 0 -1.8288
v 1.027 0 -1.8288
v 0.747 0.1016 1.8288
v 0.747 0.1016 -1.8288
v 0.6454 0.1016 -1.8288
v 0.6454 0.1016 1.8288
v 0.747 0 1.8288
v 0.6454 0 1.8288
v 0.6454 0 -1.8288
v 0.747 0 -1.8288
v -0.0508001 0.1016 1.8288
v -0.0508001 0.1016 -1.8288
v 0.0508001 0.1016 -1.8288
v 0.0508001 0.1016 1.8288
v -0.0508001 0 1.8288
v 0.0508001 0 1.8288
v 0.0508001 0 -1.8288
v -0.0508001 0 -1.8288
v -1.207 0.1016 1.8288
v -1.207 2.1216 1.8288
v 1.209 2.1216 1.8288
v 1.209 0.1016 1.8288
v 0 0.1016 1.8288
v -1.49012e-008 2.8716 1.8288
v -1.207 0.1016 -1.8288
v 1.209 0.1016 -1.8288
v 1.209 2.1216 -1.8288
v -1.207 2.1216 -1.8288
v -1.49012e-008 2.8716 -1.8288
v 0 0.1016 -1.8288
v 1.338 2.0336 -1.9812
v 1.338 2.1176 -1.9812
v 0 2.9556 -1.9812
v -1.338 2.1176 -1.9812
v -1.338 2.0336 -1.9812
v -1.136 2.0336 -1.9812
v -1.136 2.1396 -1.9812
v 0 2.8496 -1.9812
v 1.136 2.1396 -1.9812
v 1.136 2.0336 -1.9812
v 1.338 2.0336 1.9812
v 1.136 2.0336 1.9812
v 1.136 2.1396 1.9812
v -1.49012e-008 2.8496 1.9812
v -1.136 2.1396 1.9812
v -1.136 2.0336 1.9812
v -1.338 2.0336 1.9812
v -1.338 2.1176 1.9812
v -1.49012e-008 2.9556 1.9812
v 1.338 2.1176 1.9812
v -1.027 0.1016 1.8288
v -0.9254 0.1016 1.8288
v -1.027 0 1.8288
v -0.9254 0 1.8288
v -0.747 0.1016 1.8288
v -0.6454 0.1016 1.8288
v -0.747 0 1.8288
v -0.6454 0 1.8288
v 1.027 0.1016 1.8288
v 0.9254 0.1016 1.8288
v 1.027 0 1.8288
v 0.9254 0 1.8288
v 0.747 0.1016 1.8288
v 0.6454 0.1016 1.8288
v 0.747 0 1.8288
v 0.6454 0 1.8288
v -0.0508001 0.1016 1.8288
v 0.0508001 0.1016 1.8288
v -0.0508001 0 1.8288
v 0.0508001 0 1.8288
v -1.027 0.1016 -1.8288
v -0.9254 0.1016 -1.8288
v -0.9254 0 -1.8288
v -1.027 0 -1.8288
v -0.747 0.1016 -1.8288
v -0.6454 0.1016 -1.8288
v -0.6454 0 -1.8288
v -0.747 0 -1.8288
v 1.027 0.1016 -1.8288
v 0.9254 0.1016 -1.8288
v 0.9254 0 -1.8288
v 1.027 0 -1.8288
v 0.747 0.1016 -1.8288
v 0.6454 0.1016 -1.8288
v 0.6454 0 -1.8288
v 0.747 0 -1.8288
v -0.0508001 0.1016 -1.8288
v 0.0508001 0.1016 -1.8288
v 0.0508001 0 -1.8288
v -0.0508001 0 -1.8288
vt -6.038 2.8336
vt -6.038 2.9176
vt -5.907 0.6016
vt -5.907 2.6216
vt -5.836 2.8336
vt -5.836 2.9396
vt -5.827 -2.2
vt -5.827 -2.0984
vt -5.827 -2
vt -5.827 -1.8984
vt -5.8 -1.6
vt -5.8 0.42
vt -5.7746 -1.6
vt -5.7746 0.42
vt -5.7254 -2.2
vt -5.7254 -2.0984
vt -5.7254 -2
vt -5.7254 -1.8984
vt -5.6984 -1.6
vt -5.6984 0.42
vt -5.6222 -1.6
vt -5.6222 0.42
vt -5.5968 -1.6
vt -5.5968 0.42
vt -5.547 -2.2
vt -5.547 -2.0984
vt -5.547 -2
vt -5.547 -1.8984
vt -5.45 -1.6
vt -5.45 0.42
vt -5.4454 -2.2
vt -5.4454 -2.0984
vt -5.4454 -2
vt -5.4454 -1.8984
vt -5.4246 -1.6
vt -5.4246 0.42
vt -5.3484 -1.6
vt -5.3484 0.42
vt -5.2722 -1.6
vt -5.2722 0.42
vt -5.2508 -2.2
vt -5.2508 -2.0984
vt -5.2508 -2
vt -5.2508 -1.8984
vt -5.2468 -1.6
vt -5.2468 0.42
vt -5.1492 -2.2
vt -5.1492 -2.0984
vt -5.1492 -2
vt -5.1492 -1.8984
vt -5.1 -1.6
vt -5.1 0.42
vt -5.0746 -1.6
vt -5.0746 0.42
vt -4.9984 -1.6
vt -4.9984 0.42
vt -4.9546 -2.2
vt -4.9546 -2.0984
vt -4.9546 -2
vt -4.9546 -1.8984
vt -4.9222 -1.6
vt -4.9222 0.42
vt -4.8968 -1.6
vt -4.8968 0.42
vt -4.853 -2.2
vt -4.853 -2.0984
vt -4.853 -2
vt -4.853 -1.8984
vt -4.75 -1.6
vt -4.75 0.42
vt -4.7246 -1.6
vt -4.7246 0.42
vt -4.7 0.6016
vt -4.7 3.3716
vt -4.7 3.6496
vt -4.7 3.7556
vt -4.6746 -2.2
vt -4.6746 -2.0984
vt -4.6746 -2
vt -4.6746 -1.8984
vt -4.6484 -1.6
vt -4.6484 0.42
vt -4.573 -2.2
vt -4.573 -2.0984
vt -4.573 -2
vt -4.573 -1.8984
vt -4.5722 -1.6
vt -4.5722 0.42
vt -4.5468 -1.6
vt -4.5468 0.42
vt -4 -2.4
vt -4 -2.2984
vt -4 -2.1968
vt -4 -2.0952
vt -4 -1.9936
vt -4 -1.8
vt -4 -1.6984
vt -4 -1.5968
vt -4 -1.4952
vt -4 -1.3936
vt -4 -1.2
vt -4 -1.0984
vt -4 -0.9968
vt -4 -0.8952
vt -4 -0.7936
vt -4 -0.6
vt -4 -0.4984
vt -4 -0.3968
vt -4 -0.2952
vt -4 -0.1936
vt -4 9.53674e-008
vt -4 0.1016
vt -4 0.2032
vt -4 0.3048
vt -4 0.4064
vt -3.564 2.8336
vt -3.564 2.9396
vt -3.491 0.6016
vt -3.491 2.6216
vt -3.362 2.8336
vt -3.362 2.9176
vt -3.038 2.8336
vt -3.038 2.9176
vt -2.907 0.6016
vt -2.907 2.6216
vt -2.836 2.8336
vt -2.836 2.9396
vt -1.7 3.6496
vt -1.7 3.7556
vt -1.7 0.6016
vt -1.7 3.3716
vt -0.952 -2.4
vt -0.952 -2.2984
vt -0.952 -2.1968
vt -0.952 -2.0952
vt -0.952 -1.9936
vt -0.952 -1.8
vt -0.952 -1.6984
vt -0.952 -1.5968
vt -0.952 -1.4952
vt -0.952 -1.3936
vt -0.952 -1.2
vt -0.952 -1.0984
vt -0.952 -0.9968
vt -0.952 -0.8952
vt -0.952 -0.7936
vt -0.952 -0.6
vt -0.952 -0.4984
vt -0.952 -0.3968
vt -0.952 -0.2952
vt -0.952 -0.1936
vt -0.952 9.53674e-008
vt -0.952 0.1016
vt -0.952 0.2032
vt -0.952 0.3048
vt -0.952 0.4064
vt -0.6288 -2.2984
vt -0.6288 -0.2784
vt -0.564 2.8336
vt -0.564 2.9396
vt -0.491 0.6016
vt -0.491 2.6216
vt -0.362 2.8336
vt -0.362 2.9176
vt 1.3 9.53674e-008
vt 1.3 1.57876
vt 1.3 3.15752
vt 1.3 3.24152
vt 1.3 3.44352
vt 1.3 3.54952
vt 1.3 4.88915
vt 1.3 6.22877
vt 1.3 6.33477
vt 1.3 6.53677
vt 1.3 6.62077
vt 3.0288 -2.2984
vt 3.0288 -0.2784
vt 3.2712 -2.2984
vt 3.2712 -0.2784
vt 5.2624 9.53674e-008
vt 5.2624 1.57876
vt 5.2624 3.15752
vt 5.2624 3.24152
vt 5.2624 3.44352
vt 5.2624 3.54952
vt 5.2624 4.88915
vt 5.2624 6.22877
vt 5.2624 6.33477
vt 5.2624 6.53677
vt 5.2624 6.62077
vt 6.9288 -2.2984
vt 6.9288 -0.2784
vn 1 0 -0
vn 1 0 -0
vn 1 0 -0
vn 1 -0 -0
vn 1 -0 -0
vn 1 -0 -0
vn -1 0 -0
vn -1 0 -0
vn -1 0 -0
vn -1 0 -0
vn -1 0 -0
vn -1 0 -0
vn 0 0 1
vn 0 0 1
vn 0 0 1
vn 0 0 1
vn 0 0 1
vn 0 0 1
vn 0 0 1
vn 0 0 1
vn 0 0 1
vn 0 0 1
vn 0 0 1
vn 0 0 1
vn 0 -0 -1
vn 0 -0 -1
vn 0 -0 -1
vn 0 0 -1
vn 0 0 -1
vn 0 0 -1
vn 0 0 -1
vn 0 0 -1
vn 0 0 -1
vn 0 0 -1
vn 0 0 -1
vn 0 0 -1
vn 0 0 -1
vn 0 0 -1
vn 0 0 -1
vn 0 0 -1
vn 0 0 -1
vn 0 0 -1
vn 0 0 -1
vn 0 0 -1
vn 0 0 -1
vn 0 0 -1
vn 0 0 -1
vn 0 0 -1
vn 0 0 -1
vn 0 0 -1
vn 0 0 -1
vn 0 0 -1
vn 0 0 -1
vn 0 0 -1
vn 0 0 -1
vn 0 0 -1
vn 0 0 -1
vn 0 -0 -1
vn 0 -0 -1
vn 0 -0 -1
vn 0 0 1
vn 0 0 1
vn 0 0 1
vn 0 0 1
vn 0 0 1
vn 0 0 1
vn 0 0 1
vn 0 0 1
vn 0 0 1
vn 0 0 1
vn 0 0 1
vn 0 0 1
vn 0 0 1
vn 0 0 1
vn 0 0 1
vn 0 0 1
vn 0 0 1
vn 0 0 1
vn 0 0 1
vn 0 0 1
vn 0 0 1
vn 0 0 1
vn 0 0 1
vn 0 0 1
vn 0 0 1
vn 0 0 1
vn 0 0 1
vn 0 0 1
vn 0 0 1
vn 0 0 1
vn 0 0 1
vn 0 0 1
vn 0 0 1
vn 0 0 1
vn 0 0 1
vn 0 0 1
vn 0 0 1
vn 0 0 1
vn 0 0 1
vn 0 0 1
vn 0 0 1
vn 0 0 1
vn 0 0 1
vn 0 0 1
vn 0 0 1
vn 0 0 1
vn 0 0 1
vn 0 0 1
vn 0 0 1
vn 0 0 1
vn 0 0 1
vn 0 0 1
vn 0 0 1
vn 0 0 1
vn 0 -0 -1
vn 0 -0 -1
vn 0 -0 -1
vn 0 0 -1
vn 0 0 -1
vn 0 0 -1
vn 0 -0 -1
vn 0 -0 -1
vn 0 -0 -1
vn 0 0 -1
vn 0 0 -1
vn 0 0 -1
vn 0 0 -1
vn 0 0 -1
vn 0 0 -1
vn 0 -0 -1
vn 0 -0 -1
vn 0 -0 -1
vn 0 0 -1
vn 0 0 -1
vn 0 0 -1
vn 0 -0 -1
vn 0 -0 -1
vn 0 -0 -1
vn 0 -0 -1
vn 0 -0 -1
vn 0 -0 -1
vn 0 0 -1
vn 0 0 -1
vn 0 0 -1
vn 1 0 -0
vn 1 0 -0
vn 1 0 -0
vn 1 0 -0
vn 1 0 -0
vn 1 0 -0
vn 0 1 -0
vn 0 1 -0
vn 0 1 -0
vn 0 1 0
vn 0 1 0
vn 0 1 0
vn -1 0 -0
vn -1 0 -0
vn -1 0 -0
vn -1 0 -0
vn -1 0 -0
vn -1 0 -0
vn 0 -1 -0
vn 0 -1 -0
vn 0 -1 -0
vn 0 -1 -0
vn 0 -1 -0
vn 0 -1 -0
vn 1 0 -0
vn 1 0 -0
vn 1 0 -0
vn 1 0 -0
vn 1 0 -0
vn 1 0 -0
vn 0 1 -0
vn 0 1 -0
vn 0 1 -0
vn 0 1 0
vn 0 1 0
vn 0 1 0
vn -1 0 -0
vn -1 0 -0
vn -1 0 -0
vn -1 0 -0
vn -1 0 -0
vn -1 0 -0
vn 0 -1 -0
vn 0 -1 -0
vn 0 -1 -0
vn 0 -1 -0
vn 0 -1 -0
vn 0 -1 -0
vn 1 0 -0
vn 1 0 -0
vn 1 0 -0
vn 1 0 -0
vn 1 0 -0
vn 1 0 -0
vn 0 1 -0
vn 0 1 -0
vn 0 1 -0
vn 0 1 0
vn 0 1 0
vn 0 1 0
vn -1 0 -0
vn -1 0 -0
vn -1 0 -0
vn -1 0 -0
vn -1 0 -0
vn -1 0 -0
vn 0 -1 -0
vn 0 -1 -0
vn 0 -1 -0
vn 0 -1 -0
vn 0 -1 -0
vn 0 -1 -0
vn 1 0 -0
vn 1 0 -0
vn 1 0 -0
vn 1 0 -0
vn 1 0 -0
vn 1 0 -0
vn 0 1 -0
vn 0 1 -0
vn 0 1 -0
vn 0 1 0
vn 0 1 0
vn 0 1 0
vn -1 0 -0
vn -1 0 -0
vn -1 0 -0
vn -1 0 -0
vn -1 0 -0
vn -1 0 -0
vn 0 -1 -0
vn 0 -1 -0
vn 0 -1 -0
vn 0 -1 -0
vn 0 -1 -0
vn 0 -1 -0
vn 1 0 -0
vn 1 0 -0
vn 1 0 -0
vn 1 0 -0
vn 1 0 -0
vn 1 0 -0
vn 0 1 -0
vn 0 1 -0
vn 0 1 -0
vn 0 1 0
vn 0 1 0
vn 0 1 0
vn -1 0 -0
vn -1 0 -0
vn -1 0 -0
vn -1 0 -0
vn -1 0 -0
vn -1 0 -0
vn 0 -1 -0
vn 0 -1 -0
vn 0 -1 -0
vn 0 -1 -0
vn 0 -1 -0
vn 0 -1 -0
vn -1 0 -0
vn -1 0 -0
vn -1 0 -0
vn -1 0 -0
vn -1 0 -0
vn -1 0 -0
vn 0 0 1
vn 0 0 1
vn 0 0 1
vn 0 0 1
vn 0 0 1
vn 0 0 1
vn 1 0 -0
vn 1 0 -0
vn 1 0 -0
vn 1 -0 -0
vn 1 -0 -0
vn 1 -0 -0
vn 0 0 -1
vn 0 0 -1
vn 0 0 -1
vn 0 0 -1
vn 0 0 -1
vn 0 0 -1
vn 0 0 -1
vn 0 0 -1
vn 0 0 -1
vn 0 -0 -1
vn 0 -0 -1
vn 0 -0 -1
vn -1 0 -0
vn -1 0 -0
vn -1 0 -0
vn -1 0 -0
vn -1 0 -0
vn -1 0 -0
vn 0 0 1
vn 0 0 1
vn 0 0 1
vn 0 0 1
vn 0 0 1
vn 0 0 1
vn 1 0 -0
vn 1 0 -0
vn 1 0 -0
vn 1 0 -0
vn 1 0 -0
vn 1 0 -0
vn 1 0 -0
vn 1 0 -0
vn 1 0 -0
vn 1 0 -0
vn 1 0 -0
vn 1 0 -0
vn 0 -0 -1
vn 0 -0 -1
vn 0 -0 -1
vn 0 0 -1
vn 0 0 -1
vn 0 0 -1
vn -1 0 -0
vn -1 0 -0
vn -1 0 -0
vn -1 0 -0
vn -1 0 -0
vn -1 0 -0
vn 0 0 1
vn 0 0 1
vn 0 0 1
vn 0 0 1
vn 0 0 1
vn 0 0 1
vn 0 0 1
vn 0 0 1
vn 0 0 1
vn 0 0 1
vn 0 0 1
vn 0 0 1
vn 1 0 -0
vn 1 0 -0
vn 1 0 -0
vn 1 0 -0
vn 1 0 -0
vn 1 0 -0
vn 0 0 -1
vn 0 0 -1
vn 0 0 -1
vn 0 -0 -1
vn 0 -0 -1
vn 0 -0 -1
vn -1 0 -0
vn -1 0 -0
vn -1 0 -0
vn -1 0 -0
vn -1 0 -0
vn -1 0 -0
vn 0.530796 0.8475 -0
vn 0.530796 0.8475 -0
vn 0.530796 0.8475 -0
vn 0.530796 0.8475 0
vn 0.530796 0.8475 0
vn 0.530796 0.8475 0
vn -0.530796 0.8475 -0
vn -0.530796 0.8475 -0
vn -0.530796 0.8475 -0
vn -0.530796 0.8475 -0
vn -0.530796 0.8475 -0
vn -0.530796 0.8475 -0
vn -1 0 -0
vn -1 0 -0
vn -1 0 -0
vn -1 0 -0
vn -1 0 -0
vn -1 0 -0
vn 0 -1 -0
vn 0 -1 -0
vn 0 -1 -0
vn 0 -1 -0
vn 0 -1 -0
vn 0 -1 -0
vn 1 -0 -0
vn 1 -0 -0
vn 1 -0 -0
vn 1 0 -0
vn 1 0 -0
vn 1 0 -0
vn 0.529999 -0.847998 -0
vn 0.529999 -0.847998 -0
vn 0.529999 -0.847998 -0
vn 0.529999 -0.847998 -0
vn 0.529999 -0.847998 -0
vn 0.529999 -0.847998 -0
vn -0.529999 -0.847998 -0
vn -0.529999 -0.847998 -0
vn -0.529999 -0.847998 -0
vn -0.529999 -0.847998 -0
vn -0.529999 -0.847998 -0
vn -0.529999 -0.847998 -0
vn -1 0 -0
vn -1 0 -0
vn -1 0 -0
vn -1 0 -0
vn -1 0 -0
vn -1 0 -0
vn 0 -1 -0
vn 0 -1 -0
vn 0 -1 -0
vn 0 -1 -0
vn 0 -1 -0
vn 0 -1 -0
vn 1 -0 -0
vn 1 -0 -0
vn 1 -0 -0
vn 1 0 -0
vn 1 0 -0
vn 1 0 -0
g Shed
usemtl Shed
s off
f 2/176/1 7/158/2 8/157/3
f 3/177/4 7/158/5 2/176/6
f 6/179/7 4/192/8 5/178/9
f 4/192/10 1/191/11 5/178/12
f 110/4/13 109/3/14 113/73/15
f 114/74/16 110/4/17 113/73/18
f 112/118/19 111/119/20 113/73/21
f 111/119/22 114/74/23 113/73/24
f 119/131/25 117/162/26 120/130/27
f 117/162/28 116/161/29 120/130/30
f 118/125/31 119/131/32 120/130/33
f 115/124/34 118/125/35 120/130/36
g Sides
usemtl Sides
s off
f 122/164/37 121/163/38 130/159/39
f 129/160/40 122/164/41 130/159/42
f 129/160/43 123/129/44 122/164/45
f 128/128/46 123/129/47 129/160/48
f 123/129/49 127/127/50 124/123/51
f 123/129/52 128/128/53 127/127/54
f 125/122/55 124/123/56 126/126/57
f 124/123/58 127/127/59 126/126/60
f 135/6/61 138/2/62 136/5/63
f 138/2/64 137/1/65 136/5/66
f 134/75/67 139/76/68 135/6/69
f 135/6/70 139/76/71 138/2/72
f 139/76/73 134/75/74 133/117/75
f 139/76/76 133/117/77 140/121/78
f 131/120/79 140/121/80 132/116/81
f 140/121/82 133/117/83 132/116/84
g Floor
usemtl Floor
s off
f 142/16/85 141/8/86 143/7/87
f 142/16/88 143/7/89 144/15/90
f 146/32/91 145/26/92 147/25/93
f 146/32/94 147/25/95 148/31/96
f 151/83/97 149/84/98 152/77/99
f 149/84/100 150/78/101 152/77/102
f 155/65/103 153/66/104 156/57/105
f 153/66/106 154/58/107 156/57/108
f 158/48/109 157/42/110 159/41/111
f 158/48/112 159/41/113 160/47/114
f 161/10/115 162/18/116 163/17/117
f 164/9/118 161/10/119 163/17/120
f 165/28/121 166/34/122 167/33/123
f 168/27/124 165/28/125 167/33/126
f 170/80/127 172/85/128 171/79/129
f 170/80/130 169/86/131 172/85/132
f 174/60/133 176/67/134 175/59/135
f 174/60/136 173/68/137 176/67/138
f 177/44/139 178/50/140 179/49/141
f 177/44/142 179/49/143 180/43/144
f 92/142/145 86/143/146 89/101/147
f 86/143/148 85/102/149 89/101/150
f 85/102/151 87/144/152 88/103/153
f 86/143/154 87/144/155 85/102/156
f 88/103/157 91/145/158 90/104/159
f 88/103/160 87/144/161 91/145/162
f 91/145/163 92/146/164 89/105/165
f 91/145/166 89/105/167 90/104/168
f 100/147/169 94/148/170 97/106/171
f 94/148/172 93/107/173 97/106/174
f 93/107/175 95/149/176 96/108/177
f 94/148/178 95/149/179 93/107/180
f 96/108/181 99/150/182 98/109/183
f 96/108/184 95/149/185 99/150/186
f 99/150/187 100/151/188 97/110/189
f 99/150/190 97/110/191 98/109/192
f 103/138/193 104/97/194 106/96/195
f 107/137/196 103/138/197 106/96/198
f 102/139/199 101/98/200 104/97/201
f 103/138/202 102/139/203 104/97/204
f 101/98/205 102/139/206 108/140/207
f 101/98/208 108/140/209 105/99/210
f 108/140/211 106/100/212 105/99/213
f 108/140/214 107/141/215 106/100/216
f 79/153/217 80/112/218 82/111/219
f 83/152/220 79/153/221 82/111/222
f 78/154/223 77/113/224 80/112/225
f 79/153/226 78/154/227 80/112/228
f 77/113/229 78/154/230 84/155/231
f 77/113/232 84/155/233 81/114/234
f 81/114/235 84/155/236 82/115/237
f 84/155/238 83/156/239 82/115/240
f 71/133/241 72/92/242 74/91/243
f 75/132/244 71/133/245 74/91/246
f 70/134/247 69/93/248 72/92/249
f 71/133/250 70/134/251 72/92/252
f 69/93/253 70/134/254 76/135/255
f 69/93/256 76/135/257 73/94/258
f 73/94/259 76/135/260 74/95/261
f 76/135/262 75/136/263 74/95/264
g Trim
usemtl Trim
s off
f 32/36/265 48/30/266 47/29/267
f 32/36/268 47/29/269 28/35/270
f 29/37/271 32/36/272 28/35/273
f 31/38/274 32/36/275 29/37/276
f 27/39/277 31/38/278 29/37/279
f 30/40/280 31/38/281 27/39/282
f 30/40/283 27/39/284 43/45/285
f 44/46/286 30/40/287 43/45/288
f 21/53/289 24/54/290 36/51/291
f 24/54/292 35/52/293 36/51/294
f 25/56/295 21/53/296 23/55/297
f 25/56/298 24/54/299 21/53/300
f 26/62/301 23/55/302 22/61/303
f 26/62/304 25/56/305 23/55/306
f 46/63/307 45/64/308 22/61/309
f 45/64/310 26/62/311 22/61/312
f 14/72/313 37/70/314 38/69/315
f 10/71/316 14/72/317 38/69/318
f 11/81/319 14/72/320 10/71/321
f 13/82/322 14/72/323 11/81/324
f 13/82/325 11/81/326 9/87/327
f 12/88/328 13/82/329 9/87/330
f 12/88/331 9/87/332 33/89/333
f 34/90/334 12/88/335 33/89/336
f 15/13/337 18/14/338 42/11/339
f 18/14/340 41/12/341 42/11/342
f 17/19/343 19/20/344 15/13/345
f 19/20/346 18/14/347 15/13/348
f 20/22/349 17/19/350 16/21/351
f 20/22/352 19/20/353 17/19/354
f 40/24/355 16/21/356 39/23/357
f 40/24/358 20/22/359 16/21/360
g Roof
usemtl Roof
s off
f 51/181/361 67/166/362 50/180/363
f 50/180/364 67/166/365 68/165/366
f 51/181/367 52/182/368 66/167/369
f 67/166/370 51/181/371 66/167/372
g Sides
usemtl Sides
s off
f 52/182/373 53/183/374 65/168/375
f 66/167/376 52/182/377 65/168/378
f 53/183/379 54/184/380 64/169/381
f 65/168/382 53/183/383 64/169/384
f 55/185/385 63/170/386 54/184/387
f 54/184/388 63/170/389 64/169/390
g Shed
usemtl Shed
s off
f 56/186/391 62/171/392 55/185/393
f 55/185/394 62/171/395 63/170/396
f 56/186/397 57/187/398 61/172/399
f 62/171/400 56/186/401 61/172/402
g Sides
usemtl Sides
s off
f 57/187/403 58/188/404 60/173/405
f 61/172/406 57/187/407 60/173/408
f 58/188/409 49/189/410 59/174/411
f 58/188/412 59/174/413 60/173/414
f 50/190/415 68/175/416 49/189/417
f 49/189/418 68/175/419 59/174/420
